<?xml version="1.0" encoding="UTF-8" standalone="no"?>
<!DOCTYPE svg PUBLIC "-//W3C//DTD SVG 1.1//EN" "http://www.w3.org/Graphics/SVG/1.1/DTD/svg11.dtd">
<!-- 由 Microsoft Visio, SVG Export 產生 y01.0046.svg 頁-1 -->
<svg xmlns="http://www.w3.org/2000/svg" xmlns:xlink="http://www.w3.org/1999/xlink" xmlns:ev="http://www.w3.org/2001/xml-events"
		width="2.76591in" height="1.05407in" viewBox="0 0 199.145 75.8929" xml:space="preserve" color-interpolation-filters="sRGB"
		class="st5">
	<style type="text/css">
	<![CDATA[
		.st1 {fill:none;stroke:none;stroke-linecap:round;stroke-linejoin:round;stroke-width:0.72}
		.st2 {fill:#000000;font-family:新細明體;font-size:12pt}
		.st3 {stroke:#000000;stroke-linecap:round;stroke-linejoin:round;stroke-width:0.72}
		.st4 {stroke:#000000;stroke-dasharray:5.04,3.6;stroke-linecap:round;stroke-linejoin:round;stroke-width:0.72}
		.st5 {fill:none;fill-rule:evenodd;font-size:12px;overflow:visible;stroke-linecap:square;stroke-miterlimit:3}
	]]>
	</style>

	<g>
		<title>頁-1</title>
		<g id="group16-1" transform="translate(0.36,-1.09622)">
			<title>工作表.16</title>
			<g id="shape1-2" transform="translate(-3.19744E-14,-56.6929)">
				<title>工作表.1</title>
				<desc>立菩提願</desc>
				<rect x="0" y="58.885" width="74.4094" height="17.0079" class="st1"/>
				<text x="5.2" y="72.19" class="st2">立菩提願</text>			</g>
			<g id="shape2-5" transform="translate(-3.19744E-14,-28.3465)">
				<title>工作表.2</title>
				<desc>修悲濟行</desc>
				<rect x="0" y="58.885" width="74.4094" height="17.0079" class="st1"/>
				<text x="5.2" y="72.19" class="st2">修悲濟行</text>			</g>
			<g id="shape3-8">
				<title>工作表.3</title>
				<desc>住性空見</desc>
				<rect x="0" y="58.885" width="74.4094" height="17.0079" class="st1"/>
				<text x="5.2" y="72.19" class="st2">住性空見</text>			</g>
			<g id="shape4-11" transform="translate(124.724,-56.6929)">
				<title>工作表.4</title>
				<desc>發心菩提</desc>
				<rect x="0" y="58.885" width="72.9921" height="17.0079" class="st1"/>
				<text x="4.5" y="72.19" class="st2">發心菩提</text>			</g>
			<g id="shape5-14" transform="translate(124.724,-28.3465)">
				<title>工作表.5</title>
				<desc>伏心菩提</desc>
				<rect x="0" y="58.885" width="72.9921" height="17.0079" class="st1"/>
				<text x="4.5" y="72.19" class="st2">伏心菩提</text>			</g>
			<g id="shape6-17" transform="translate(124.016,-1.13687E-13)">
				<title>工作表.6</title>
				<desc>明心菩提</desc>
				<rect x="0" y="58.885" width="74.4094" height="17.0079" class="st1"/>
				<text x="5.2" y="72.19" class="st2">明心菩提</text>			</g>
			<g id="shape7-20" transform="translate(126.85,86.5889) rotate(180)">
				<title>工作表.7</title>
				<path d="M0 75.89 L55.98 75.89" class="st3"/>
			</g>
			<g id="shape8-23" transform="translate(126.142,114.935) rotate(180)">
				<title>工作表.8</title>
				<path d="M0 75.89 L55.28 75.89" class="st3"/>
			</g>
			<g id="shape9-26" transform="translate(126.142,143.282) rotate(180)">
				<title>工作表.9</title>
				<path d="M0 75.89 L55.28 75.89" class="st3"/>
			</g>
			<g id="shape10-29" transform="translate(105.149,-57.0123) rotate(26.8544)">
				<title>工作表.10</title>
				<path d="M0 75.89 L62.75 75.89" class="st4"/>
			</g>
			<g id="shape11-32" transform="translate(104.44,-28.6659) rotate(26.8544)">
				<title>工作表.11</title>
				<path d="M0 75.89 L62.75 75.89" class="st4"/>
			</g>
			<g id="shape12-35" transform="translate(125.205,-42.2848) rotate(45.7252)">
				<title>工作表.12</title>
				<path d="M0 75.89 L79.18 75.89" class="st4"/>
			</g>
			<g id="shape13-38" transform="translate(160.791,78.5767) rotate(153.435)">
				<title>工作表.13</title>
				<path d="M0 75.89 L63.38 75.89" class="st4"/>
			</g>
			<g id="shape14-41" transform="translate(161.133,106.751) rotate(153.146)">
				<title>工作表.14</title>
				<path d="M0 75.89 L62.75 75.89" class="st4"/>
			</g>
			<g id="shape15-44" transform="translate(180.851,64.0219) rotate(134.64)">
				<title>工作表.15</title>
				<path d="M0 75.89 L79.68 75.89" class="st4"/>
			</g>
		</g>
	</g>
</svg>
