<?xml version="1.0" encoding="UTF-8" standalone="no"?>
<!DOCTYPE svg PUBLIC "-//W3C//DTD SVG 1.1//EN" "http://www.w3.org/Graphics/SVG/1.1/DTD/svg11.dtd">
<!-- 由 Microsoft Visio, SVG Export 產生 y06.0475.svg 頁-1 -->
<svg xmlns="http://www.w3.org/2000/svg" xmlns:xlink="http://www.w3.org/1999/xlink" xmlns:ev="http://www.w3.org/2001/xml-events"
		width="4.97304in" height="1.46669in" viewBox="0 0 358.059 105.602" xml:space="preserve" color-interpolation-filters="sRGB"
		class="st7">
	

	<style type="text/css">
	<![CDATA[
		.st1 {fill:none;stroke:none;stroke-linecap:round;stroke-linejoin:round;stroke-width:0.72}
		.st2 {fill:#000000;font-family:新細明體;font-size:12pt}
		.st3 {font-family:Times New Roman;font-size:1em}
		.st4 {stroke:#000000;stroke-linecap:round;stroke-linejoin:round;stroke-width:0.72}
		.st5 {fill:#000000;font-family:新細明體;font-size:1.00001em}
		.st6 {stroke:#000000;stroke-dasharray:5.04,3.6;stroke-linecap:round;stroke-linejoin:round;stroke-width:0.72}
		.st7 {fill:none;fill-rule:evenodd;font-size:12px;overflow:visible;stroke-linecap:square;stroke-miterlimit:3}
	]]>
	</style>

	<g>
		<title>頁-1</title>
		<g id="group26-1" transform="translate(0.36,-0.36)">
			<title>工作表.26</title>
			<g id="shape1-2" transform="translate(70.8661,-85.0394)">
				<title>工作表.1</title>
				<desc>所 依</desc>
				<rect x="0" y="85.7594" width="45.5276" height="19.8425" class="st1"/>
				<text x="4.76" y="100.66" class="st2">所<tspan class="st3"> </tspan>依</text>			</g>
			<g id="shape2-6" transform="translate(70.8661,-2.98428E-13)">
				<title>工作表.2</title>
				<desc>利他</desc>
				<rect x="0" y="85.7594" width="45.5276" height="19.8425" class="st1"/>
				<text x="6.76" y="100.66" class="st2">利他</text>			</g>
			<g id="shape3-9" transform="translate(70.8661,-42.5197)">
				<title>工作表.3</title>
				<desc>自利</desc>
				<rect x="0" y="85.7594" width="45.5276" height="19.8425" class="st1"/>
				<text x="6.76" y="100.66" class="st2">自利</text>			</g>
			<g id="shape4-12" transform="translate(1.19904E-14,-85.0394)">
				<title>工作表.4</title>
				<desc>依　</desc>
				<rect x="0" y="85.7594" width="45.5276" height="19.8425" class="st1"/>
				<text x="8.76" y="100.66" class="st2">依</text>			</g>
			<g id="shape5-15" transform="translate(1.43885E-13,-42.5197)">
				<title>工作表.5</title>
				<desc>心　</desc>
				<rect x="0" y="85.7594" width="45.5276" height="19.8425" class="st1"/>
				<text x="6.76" y="100.66" class="st2">心</text>			</g>
			<g id="shape6-18">
				<title>工作表.6</title>
				<desc>業　</desc>
				<rect x="0" y="85.7594" width="45.5276" height="19.8425" class="st1"/>
				<text x="6.76" y="100.66" class="st2">業</text>			</g>
			<g id="shape7-21" transform="translate(28.6654,-94.9606)">
				<title>工作表.7</title>
				<path d="M0 105.6 L42.52 105.6" class="st4"/>
			</g>
			<g id="shape8-24" transform="translate(28.6654,-52.4409)">
				<title>工作表.8</title>
				<path d="M0 105.6 L42.52 105.6" class="st4"/>
			</g>
			<g id="shape9-27" transform="translate(28.6654,-9.92126)">
				<title>工作表.9</title>
				<path d="M0 105.6 L42.52 105.6" class="st4"/>
			</g>
			<g id="shape10-30" transform="translate(113.705,-94.9606)">
				<title>工作表.10</title>
				<path d="M0 105.6 L42.52 105.6" class="st4"/>
			</g>
			<g id="shape11-33" transform="translate(113.705,-52.4409)">
				<title>工作表.11</title>
				<path d="M0 105.6 L42.52 105.6" class="st4"/>
			</g>
			<g id="shape12-36" transform="translate(113.705,-9.92126)">
				<title>工作表.12</title>
				<path d="M0 105.6 L42.52 105.6" class="st4"/>
			</g>
			<g id="shape13-39" transform="translate(154.598,-85.0394)">
				<title>工作表.13</title>
				<desc>自性身</desc>
				<rect x="0" y="85.7594" width="60.4094" height="19.8425" class="st1"/>
				<text x="6.2" y="100.66" class="st2">自性身</text>			</g>
			<g id="shape14-42" transform="translate(154.366,-42.5197)">
				<title>工作表.14</title>
				<desc>受用身</desc>
				<rect x="0" y="85.7594" width="60.4094" height="19.8425" class="st1"/>
				<text x="6.2" y="100.66" class="st2">受用身</text>			</g>
			<g id="shape15-45" transform="translate(154.598,-5.54223E-13)">
				<title>工作表.15</title>
				<desc>變化身</desc>
				<rect x="0" y="85.7594" width="60.4094" height="19.8425" class="st1"/>
				<text x="6.2" y="100.66" class="st2">變化身</text>			</g>
			<g id="shape16-48" transform="translate(284.173,-85.0394)">
				<title>工作表.16</title>
				<desc>大圓鏡智</desc>
				<rect x="0" y="85.7594" width="73.1654" height="19.8425" class="st1"/>
				<text x="4.58" y="100.66" class="st2">大圓鏡智</text>			</g>
			<g id="shape17-51" transform="translate(212.917,-94.9606)">
				<title>工作表.17</title>
				<path d="M0 105.6 L70.87 105.6" class="st4"/>
			</g>
			<g id="shape18-54" transform="translate(284.173,-56.6929)">
				<title>工作表.18</title>
				<desc>平等性智</desc>
				<rect x="0" y="85.7594" width="73.1654" height="19.8425" class="st1"/>
				<text x="4.58" y="100.66" class="st2">平等性智</text>			</g>
			<g id="shape19-57" transform="translate(284.173,-28.3465)">
				<title>工作表.19</title>
				<desc>妙觀察智</desc>
				<rect x="0" y="85.7594" width="73.1654" height="19.8425" class="st1"/>
				<text x="4.58" y="100.66" class="st2">妙觀察智</text>			</g>
			<g id="shape20-60" transform="translate(284.173,-1.06581E-12)">
				<title>工作表.20</title>
				<desc>成所作智</desc>
				<rect x="0" y="85.7594" width="73.1654" height="19.8425" class="st1"/>
				<text x="4.58" y="100.66" class="st2">成所作智</text>			</g>
			<g id="shape21-63" transform="translate(212.917,-9.92126)">
				<title>工作表.21</title>
				<path d="M0 105.6 L70.87 105.6" class="st4"/>
			</g>
			<g id="shape22-66" transform="translate(197.717,-55.3937)">
				<title>工作表.22</title>
				<rect x="0" y="85.7594" width="60.4094" height="19.8425" class="st1"/>
				<text x="12.2" y="99.42" class="st5">（？）</text>			</g>
			<g id="shape23-69" transform="translate(233.33,-50.4032) rotate(11.2739)">
				<title>工作表.23</title>
				<path d="M0 105.6 L72.5 105.6" class="st4"/>
			</g>
			<g id="shape24-72" transform="translate(192.04,-50.4032) rotate(-11.2739)">
				<title>工作表.24</title>
				<path d="M0 105.6 L72.5 105.6" class="st6"/>
			</g>
			<g id="shape25-75" transform="translate(252.137,-87.4076) rotate(21.8014)">
				<title>工作表.25</title>
				<path d="M0 105.6 L76.33 105.6" class="st6"/>
			</g>
		</g>
	</g>
</svg>
