<?xml version="1.0" encoding="UTF-8" standalone="no"?>
<!DOCTYPE svg PUBLIC "-//W3C//DTD SVG 1.1//EN" "http://www.w3.org/Graphics/SVG/1.1/DTD/svg11.dtd">
<!-- 由 Microsoft Visio, SVG Export 產生 y06.0474.svg 頁-1 -->
<svg xmlns="http://www.w3.org/2000/svg" xmlns:xlink="http://www.w3.org/1999/xlink" xmlns:ev="http://www.w3.org/2001/xml-events"
		xmlns:v="http://schemas.microsoft.com/visio/2003/SVGExtensions/" width="4.15304in" height="1.46669in"
		viewBox="0 0 299.019 105.602" xml:space="preserve" color-interpolation-filters="sRGB" class="st5">
	
	

	<style type="text/css">
	<![CDATA[
		.st1 {stroke:#000000;stroke-linecap:round;stroke-linejoin:round;stroke-width:0.72}
		.st2 {fill:none;stroke:none;stroke-linecap:round;stroke-linejoin:round;stroke-width:0.72}
		.st3 {fill:#000000;font-family:新細明體;font-size:12pt}
		.st4 {stroke:#000000;stroke-dasharray:5.04,3.6;stroke-linecap:round;stroke-linejoin:round;stroke-width:0.72}
		.st5 {fill:none;fill-rule:evenodd;font-size:12px;overflow:visible;stroke-linecap:square;stroke-miterlimit:3}
	]]>
	</style>

	<g   >
		<title>頁-1</title>
		
		<g id="group25-1" transform="translate(0.36,-0.36)"  >
			<title>工作表.25</title>
			<g id="shape7-2"   transform="translate(41.5551,-81.1417)">
				<title>工作表.7</title>
				<path d="M0 105.6 L7.09 105.6" class="st1"/>
			</g>
			<g id="shape8-5"   transform="translate(41.5551,-24.4488)">
				<title>工作表.8</title>
				<path d="M0 105.6 L7.09 105.6" class="st1"/>
			</g>
			<g id="shape9-8"   transform="translate(48.6417,-95.315)">
				<title>工作表.9</title>
				<path d="M0 105.6 L7.09 105.6" class="st1"/>
			</g>
			<g id="shape10-11"   transform="translate(48.6417,-66.9685)">
				<title>工作表.10</title>
				<path d="M0 105.6 L7.09 105.6" class="st1"/>
			</g>
			<g id="shape11-14"   transform="translate(48.6417,-10.2756)">
				<title>工作表.11</title>
				<path d="M0 105.6 L7.09 105.6" class="st1"/>
			</g>
			<g id="shape12-17"   transform="translate(48.6417,-38.6221)">
				<title>工作表.12</title>
				<path d="M0 105.6 L7.09 105.6" class="st1"/>
			</g>
			<g id="shape13-20"   transform="translate(-56.9602,95.3263) rotate(-90)">
				<title>工作表.13</title>
				<path d="M0 105.6 L28.35 105.6" class="st1"/>
			</g>
			<g id="shape14-23"   transform="translate(-56.9602,38.6334) rotate(-90)">
				<title>工作表.14</title>
				<path d="M0 105.6 L28.35 105.6" class="st1"/>
			</g>
			<g id="shape15-26"   transform="translate(167.134,-28.7008)">
				<title>工作表.15</title>
				<desc>諍論點</desc>
				
				
				<rect x="0" y="85.7594" width="89.4646" height="19.8425" class="st2"/>
				<text x="4.73" y="100.66" class="st3" >（諍論點）</text>			</g>
			<g id="shape19-29"   transform="translate(84.0748,-10.2756)">
				<title>工作表.19</title>
				<path d="M0 105.6 L155.91 105.6" class="st1"/>
			</g>
			<g id="shape20-32"   transform="translate(126.594,-95.315)">
				<title>工作表.20</title>
				<path d="M0 105.6 L113.39 105.6" class="st1"/>
			</g>
			<g id="shape21-35"   transform="translate(139.693,-66.153) rotate(7.12502)">
				<title>工作表.21</title>
				<path d="M0 105.6 L114.27 105.6" class="st1"/>
			</g>
			<g id="shape22-38"   transform="translate(74.5141,-38.1884) rotate(-5.19443)">
				<title>工作表.22</title>
				<path d="M0 105.6 L156.55 105.6" class="st4"/>
			</g>
			<g id="shape23-41"   transform="translate(102.965,-36.9187) rotate(10.3048)">
				<title>工作表.23</title>
				<path d="M0 105.6 L158.46 105.6" class="st4"/>
			</g>
			<g id="shape1-44"   transform="translate(55.0551,-85.0394)">
				<title>工作表.1</title>
				<desc>凡小所見</desc>
				
				
				<rect x="0" y="85.7594" width="74.5827" height="19.8425" class="st2"/>
				<text x="5.29" y="100.66" class="st3" >凡小所見</text>			</g>
			<g id="shape2-47"   transform="translate(55.0551,-56.6929)">
				<title>工作表.2</title>
				<desc>菩薩所見</desc>
				
				
				<rect x="0" y="85.7594" width="74.5827" height="19.8425" class="st2"/>
				<text x="5.29" y="100.66" class="st3" >菩薩所見</text>			</g>
			<g id="shape3-50"   transform="translate(55.4094,-1.42109E-14)">
				<title>工作表.3</title>
				<desc>如　</desc>
				
				
				<rect x="0" y="85.7594" width="43.4016" height="19.8425" class="st2"/>
				<text x="5.7" y="100.66" class="st3" >如　</text>			</g>
			<g id="shape4-53"   transform="translate(55.4094,-28.3465)">
				<title>工作表.4</title>
				<desc>智　</desc>
				
				
				<rect x="0" y="85.7594" width="43.4016" height="19.8425" class="st2"/>
				<text x="5.7" y="100.66" class="st3" >智　</text>			</g>
			<g id="shape5-56"   transform="translate(-1.59872E-14,-70.8661)">
				<title>工作表.5</title>
				<desc>化他</desc>
				
				
				<rect x="0" y="85.7594" width="42.9606" height="19.8425" class="st2"/>
				<text x="5.48" y="100.66" class="st3" >化他</text>			</g>
			<g id="shape6-59"   transform="translate(1.15907E-13,-14.1732)">
				<title>工作表.6</title>
				<desc>自證</desc>
				
				
				<rect x="0" y="85.7594" width="42.9606" height="19.8425" class="st2"/>
				<text x="5.48" y="100.66" class="st3" >自證</text>			</g>
			<g id="shape16-62"   transform="translate(239.307,-85.0394)">
				<title>工作表.16</title>
				<desc>變化身</desc>
				
				
				<rect x="0" y="85.7594" width="58.9921" height="19.8425" class="st2"/>
				<text x="5.5" y="100.66" class="st3" >變化身</text>			</g>
			<g id="shape17-65"   transform="translate(239.307,-43.6693)">
				<title>工作表.17</title>
				<desc>受用身</desc>
				
				
				<rect x="0" y="85.7594" width="58.9921" height="19.8425" class="st2"/>
				<text x="5.5" y="100.66" class="st3" >受用身</text>			</g>
			<g id="shape18-68"   transform="translate(239.307,-7.81597E-13)">
				<title>工作表.18</title>
				<desc>法性身</desc>
				
				
				<rect x="0" y="85.7594" width="58.9921" height="19.8425" class="st2"/>
				<text x="5.5" y="100.66" class="st3" >法性身</text>			</g>
		</g>
	</g>
</svg>
