<?xml version="1.0" encoding="UTF-8" standalone="no"?>
<!DOCTYPE svg PUBLIC "-//W3C//DTD SVG 1.1//EN" "http://www.w3.org/Graphics/SVG/1.1/DTD/svg11.dtd">
<!-- 由 Microsoft Visio, SVG Export 產生 y07.0131.svg 頁-1 -->
<svg xmlns="http://www.w3.org/2000/svg" xmlns:xlink="http://www.w3.org/1999/xlink" xmlns:ev="http://www.w3.org/2001/xml-events"
		width="4.2004in" height="1.50978in" viewBox="0 0 302.429 108.704" xml:space="preserve" color-interpolation-filters="sRGB"
		class="st6">
	

	<style type="text/css">
	<![CDATA[
		.st1 {fill:none;stroke:none;stroke-linecap:round;stroke-linejoin:round;stroke-width:0.72}
		.st2 {fill:#000000;font-family:新細明體;font-size:12pt}
		.st3 {stroke:#000000;stroke-linecap:round;stroke-linejoin:round;stroke-width:0.72}
		.st4 {stroke:#000000;stroke-dasharray:5.04,3.6;stroke-linecap:round;stroke-linejoin:round;stroke-width:0.72}
		.st5 {stroke:#000000;stroke-dasharray:0,3;stroke-linecap:round;stroke-linejoin:round;stroke-width:1}
		.st6 {fill:none;fill-rule:evenodd;font-size:12px;overflow:visible;stroke-linecap:square;stroke-miterlimit:3}
	]]>
	</style>

	<g>
		<title>頁-1</title>
		<g id="group17-1" transform="translate(0.36,-0.36)">
			<title>工作表.17</title>
			<g id="shape1-2" transform="translate(-1.59872E-14,-88.1417)">
				<title>工作表.1</title>
				<desc>風動性</desc>
				<rect x="0" y="88.8617" width="90.1732" height="19.8425" class="st1"/>
				<text x="5.09" y="103.77" class="st2">風（動性）</text>			</g>
			<g id="shape2-5" transform="translate(2.47802E-13,-25.7795)">
				<title>工作表.2</title>
				<desc>水濕性</desc>
				<rect x="0" y="88.8617" width="90.1732" height="19.8425" class="st1"/>
				<text x="5.09" y="103.77" class="st2">水（濕性）</text>			</g>
			<g id="shape3-8" transform="translate(0.618115,-56.9606)">
				<title>工作表.3</title>
				<desc>不離</desc>
				<rect x="0" y="88.8617" width="40.5669" height="19.8425" class="st1"/>
				<text x="4.28" y="103.77" class="st2">不離</text>			</g>
			<g id="shape5-11" transform="translate(115.157,-56.9606)">
				<title>工作表.5</title>
				<desc>波動</desc>
				<rect x="0" y="88.8617" width="40.5669" height="19.8425" class="st1"/>
				<text x="4.28" y="103.77" class="st2">波動</text>			</g>
			<g id="shape6-14" transform="translate(128.268,1.42109E-14)">
				<title>工作表.6</title>
				<desc>靜</desc>
				<rect x="0" y="88.8617" width="56.1575" height="19.8425" class="st1"/>
				<text x="4.08" y="103.77" class="st2">（靜）</text>			</g>
			<g id="shape7-17" transform="translate(212.953,-88.1417)">
				<title>工作表.7</title>
				<desc>風滅動相滅</desc>
				<rect x="0" y="88.8617" width="88.7559" height="19.8425" class="st1"/>
				<text x="0.25em 1.262em 2.274em 3.285em 4.297em" y="103.77" class="st2">風滅動相滅</text>			</g>
			<g id="shape8-20" transform="translate(212.953,-25.7795)">
				<title>工作表.8</title>
				<desc>水性不滅</desc>
				<rect x="0" y="88.8617" width="88.7559" height="19.8425" class="st1"/>
				<text x="0.25em 1.599em 2.948em 4.297em" y="103.77" class="st2">水性不滅</text>			</g>
			<g id="shape9-23" transform="translate(85.0039,-35.7008)">
				<title>工作表.9</title>
				<path d="M0 108.7 L127.56 108.7" class="st3"/>
			</g>
			<g id="shape10-26" transform="translate(96.7609,193.331) rotate(-159.624)">
				<title>工作表.10</title>
				<path d="M0 108.7 L52.92 108.7" class="st3"/>
			</g>
			<g id="shape11-29" transform="translate(193.785,114.945) rotate(132.274)">
				<title>工作表.11</title>
				<path d="M0 108.7 L42.14 108.7" class="st3"/>
			</g>
			<g id="shape12-32" transform="translate(161.869,-63.3896) rotate(45)">
				<title>工作表.12</title>
				<path d="M0 108.7 L40.09 108.7" class="st3"/>
			</g>
			<g id="shape14-35" transform="translate(107.256,-55.4057) rotate(-26.5651)">
				<title>工作表.14</title>
				<path d="M0 108.7 L63.38 108.7" class="st3"/>
			</g>
			<g id="shape13-38" transform="translate(208.257,-53.426) rotate(28.8108)">
				<title>工作表.13</title>
				<path d="M0 108.7 L64.7 108.7" class="st4"/>
			</g>
			<g id="shape15-41" transform="translate(120.661,21.0197) rotate(90)">
				<title>工作表.15</title>
				<path d="M0 108.7 L11.34 108.7" class="st5"/>
			</g>
			<g id="shape16-44" transform="translate(120.661,52.2008) rotate(90)">
				<title>工作表.16</title>
				<path d="M0 108.7 L11.34 108.7" class="st5"/>
			</g>
		</g>
	</g>
</svg>
