<?xml version="1.0" encoding="UTF-8" standalone="no"?>
<!DOCTYPE svg PUBLIC "-//W3C//DTD SVG 1.1//EN" "http://www.w3.org/Graphics/SVG/1.1/DTD/svg11.dtd">
<!-- 由 Microsoft Visio, SVG Export 產生 y08.0048.svg 頁-1 -->
<svg xmlns="http://www.w3.org/2000/svg" xmlns:xlink="http://www.w3.org/1999/xlink" xmlns:ev="http://www.w3.org/2001/xml-events"
		width="2.3722in" height="2.3722in" viewBox="0 0 170.799 170.799" xml:space="preserve" color-interpolation-filters="sRGB"
		class="st5">
	

	<style type="text/css">
	<![CDATA[
		.st1 {fill:#e8eef7;fill-opacity:0;stroke:#000000;stroke-dasharray:1.68,1.2;stroke-linecap:round;stroke-linejoin:round;stroke-width:0.24}
		.st2 {fill:none;stroke:none;stroke-linecap:round;stroke-linejoin:round;stroke-width:0.72}
		.st3 {fill:#000000;font-family:新細明體;font-size:12pt}
		.st4 {stroke:#ffffff;stroke-linecap:round;stroke-linejoin:round;stroke-width:0.72}
		.st5 {fill:none;fill-rule:evenodd;font-size:12px;overflow:visible;stroke-linecap:square;stroke-miterlimit:3}
	]]>
	</style>

	<g>
		<title>頁-1</title>
		<g id="group21-1" transform="translate(0.36,-0.360005)">
			<title>工作表.21</title>
			<g id="shape10-2" transform="translate(7.08661,-7.08661)">
				<title>圓形.10</title>
				<path d="M0 92.85 A77.9528 77.9528 0 0 1 155.91 92.85 A77.9528 77.9528 0 1 1 0 92.85 Z" class="st1"/>
			</g>
			<g id="shape11-4" transform="translate(14.1732,-14.1732)">
				<title>圓形.11</title>
				<path d="M0 99.93 A70.8661 70.8661 0 0 1 141.73 99.93 A70.8661 70.8661 0 1 1 0 99.93 Z" class="st1"/>
			</g>
			<g id="shape9-6" transform="translate(21.2598,-21.2598)">
				<title>圓形.9</title>
				<path d="M0 107.02 A63.7795 63.7795 0 0 1 127.56 107.02 A63.7795 63.7795 0 1 1 0 107.02 Z" class="st1"/>
			</g>
			<g id="shape8-8" transform="translate(28.3465,-28.3465)">
				<title>圓形.8</title>
				<path d="M0 114.11 A56.6929 56.6929 0 0 1 113.39 114.11 A56.6929 56.6929 0 1 1 0 114.11 Z" class="st1"/>
			</g>
			<g id="shape7-10" transform="translate(42.5197,-42.5197)">
				<title>圓形.7</title>
				<path d="M0 128.28 A42.5197 42.5197 0 0 1 85.04 128.28 A42.5197 42.5197 0 1 1 0 128.28 Z" class="st1"/>
			</g>
			<g id="shape6-12" transform="translate(35.4331,-35.4331)">
				<title>圓形.6</title>
				<path d="M0 121.19 A49.6063 49.6063 0 1 1 99.21 121.19 A49.6063 49.6063 0 0 1 0 121.19 Z" class="st1"/>
			</g>
			<g id="shape3-14" transform="translate(49.6063,-49.6063)">
				<title>圓形.3</title>
				<path d="M0 135.37 A35.4331 35.4331 0 0 1 70.87 135.37 A35.4331 35.4331 0 1 1 0 135.37 Z" class="st1"/>
			</g>
			<g id="shape5-16" transform="translate(56.6929,-56.6929)">
				<title>圓形.5</title>
				<path d="M0 142.45 A28.3465 28.3465 0 0 1 56.69 142.45 A28.3465 28.3465 0 1 1 0 142.45 Z" class="st1"/>
			</g>
			<g id="shape1-18" transform="translate(63.7795,-63.7795)">
				<title>圓形</title>
				<path d="M0 149.54 A21.2598 21.2598 0 0 1 42.52 149.54 A21.2598 21.2598 0 1 1 0 149.54 Z" class="st1"/>
			</g>
			<g id="shape4-20" transform="translate(70.8661,-70.8661)">
				<title>圓形.4</title>
				<path d="M0 156.63 A14.1732 14.1732 0 0 1 28.35 156.63 A14.1732 14.1732 0 1 1 0 156.63 Z" class="st1"/>
			</g>
			<g id="shape2-22" transform="translate(70.8661,-70.8661)">
				<title>工作表.2</title>
				<desc>心</desc>
				<rect x="0" y="142.452" width="28.3465" height="28.3465" class="st2"/>
				<text x="14.17" y="148.63" writing-mode="tb-rl" class="st3">心</text>			</g>
			<g id="shape12-25" transform="translate(70.8661,-137.48)">
				<title>工作表.12</title>
				<desc>外</desc>
				<rect x="0" y="142.452" width="28.3465" height="28.3465" class="st2"/>
				<text x="14.17" y="148.63" writing-mode="tb-rl" class="st3">外</text>			</g>
			<g id="shape13-28" transform="translate(70.8661,-4.25197)">
				<title>工作表.13</title>
				<desc>界</desc>
				<rect x="0" y="142.452" width="28.3465" height="28.3465" class="st2"/>
				<text x="14.17" y="148.63" writing-mode="tb-rl" class="st3">界</text>			</g>
			<g id="shape14-31" transform="translate(28.3465,-70.8661)">
				<title>工作表.14</title>
				<desc>情</desc>
				<rect x="0" y="142.452" width="28.3465" height="28.3465" class="st2"/>
				<text x="14.17" y="148.63" writing-mode="tb-rl" class="st3">情</text>			</g>
			<g id="shape15-34" transform="translate(113.386,-70.8661)">
				<title>工作表.15</title>
				<desc>根</desc>
				<rect x="0" y="142.452" width="28.3465" height="28.3465" class="st2"/>
				<text x="14.17" y="148.63" writing-mode="tb-rl" class="st3">根</text>			</g>
			<g id="group20-37">
				<title>工作表.20</title>
				<g id="shape16-38" transform="translate(0,-170.079)">
					<title>工作表.16</title>
					<path d="M0 170.8 L170.08 170.8" class="st4"/>
				</g>
				<g id="shape17-41">
					<title>工作表.17</title>
					<path d="M0 170.8 L170.08 170.8" class="st4"/>
				</g>
				<g id="shape18-44" transform="translate(170.799,0.720005) rotate(90)">
					<title>工作表.18</title>
					<path d="M0 170.8 L170.08 170.8" class="st4"/>
				</g>
				<g id="shape19-47" transform="translate(340.877,0.720005) rotate(90)">
					<title>工作表.19</title>
					<path d="M0 170.8 L170.08 170.8" class="st4"/>
				</g>
			</g>
		</g>
	</g>
</svg>
