<?xml version="1.0" encoding="UTF-8" standalone="no"?>
<!DOCTYPE svg PUBLIC "-//W3C//DTD SVG 1.1//EN" "http://www.w3.org/Graphics/SVG/1.1/DTD/svg11.dtd">
<!-- 由 Microsoft Visio, SVG Export 產生 y08.0011.svg 頁-1 -->
<svg xmlns="http://www.w3.org/2000/svg" xmlns:xlink="http://www.w3.org/1999/xlink" xmlns:ev="http://www.w3.org/2001/xml-events"
		width="3.78059in" height="2.52969in" viewBox="0 0 272.202 182.137" xml:space="preserve" color-interpolation-filters="sRGB"
		class="st6">
	

	<style type="text/css">
	<![CDATA[
		.st1 {fill:none;stroke:none;stroke-linecap:round;stroke-linejoin:round;stroke-width:0.72}
		.st2 {fill:#000000;font-family:新細明體;font-size:12pt}
		.st3 {stroke:#000000;stroke-dasharray:0.72,1.44;stroke-linecap:round;stroke-linejoin:round;stroke-width:0.72}
		.st4 {stroke:#000000;stroke-linecap:round;stroke-linejoin:round;stroke-width:0.72}
		.st5 {stroke:#000000;stroke-dasharray:5.04,3.6;stroke-linecap:round;stroke-linejoin:round;stroke-width:0.72}
		.st6 {fill:none;fill-rule:evenodd;font-size:12px;overflow:visible;stroke-linecap:square;stroke-miterlimit:3}
	]]>
	</style>

	<g>
		<title>頁-1</title>
		<g id="group74-1" transform="translate(0.36,-0.36)">
			<title>工作表.74</title>
			<g id="shape1-2" transform="translate(1.59872E-14,-80.7874)">
				<title>工作表.1</title>
				<desc>中　道</desc>
				<rect x="0" y="162.295" width="58.1535" height="19.8425" class="st1"/>
				<text x="5.08" y="177.2" class="st2">中　道</text>			</g>
			<g id="shape2-5" transform="translate(211.911,-160.157)">
				<title>工作表.2</title>
				<desc>真　諦</desc>
				<rect x="0" y="162.295" width="59.5276" height="19.8425" class="st1"/>
				<text x="5.76" y="177.2" class="st2">真　諦</text>			</g>
			<g id="shape3-8" transform="translate(211.868,-1.41732)">
				<title>工作表.3</title>
				<desc>解　脫</desc>
				<rect x="0" y="162.295" width="59.6142" height="19.8425" class="st1"/>
				<text x="5.81" y="177.2" class="st2">解　脫</text>			</g>
			<g id="shape4-11" transform="translate(99.2126,-160.157)">
				<title>工作表.4</title>
				<desc>正　見</desc>
				<rect x="0" y="162.295" width="58.1535" height="19.8425" class="st1"/>
				<text x="5.08" y="177.2" class="st2">正　見</text>			</g>
			<g id="shape5-14" transform="translate(99.2126,-137.48)">
				<title>工作表.5</title>
				<desc>正　志</desc>
				<rect x="0" y="162.295" width="58.1535" height="19.8425" class="st1"/>
				<text x="5.08" y="177.2" class="st2">正　志</text>			</g>
			<g id="shape6-17" transform="translate(99.2126,-114.803)">
				<title>工作表.6</title>
				<desc>正　業</desc>
				<rect x="0" y="162.295" width="58.1535" height="19.8425" class="st1"/>
				<text x="5.08" y="177.2" class="st2">正　業</text>			</g>
			<g id="shape7-20" transform="translate(99.2126,-92.126)">
				<title>工作表.7</title>
				<desc>正　語</desc>
				<rect x="0" y="162.295" width="58.1535" height="19.8425" class="st1"/>
				<text x="5.08" y="177.2" class="st2">正　語</text>			</g>
			<g id="shape8-23" transform="translate(99.2126,-69.4488)">
				<title>工作表.8</title>
				<desc>正　命</desc>
				<rect x="0" y="162.295" width="58.1535" height="19.8425" class="st1"/>
				<text x="5.08" y="177.2" class="st2">正　命</text>			</g>
			<g id="shape9-26" transform="translate(99.2126,-46.7717)">
				<title>工作表.9</title>
				<desc>正　勤</desc>
				<rect x="0" y="162.295" width="58.1535" height="19.8425" class="st1"/>
				<text x="5.08" y="177.2" class="st2">正　勤</text>			</g>
			<g id="shape10-29" transform="translate(99.2126,-24.0945)">
				<title>工作表.10</title>
				<desc>正　念</desc>
				<rect x="0" y="162.295" width="58.1535" height="19.8425" class="st1"/>
				<text x="5.08" y="177.2" class="st2">正　念</text>			</g>
			<g id="shape11-32" transform="translate(99.2126,-1.41732)">
				<title>工作表.11</title>
				<desc>正　定</desc>
				<rect x="0" y="162.295" width="58.1535" height="19.8425" class="st1"/>
				<text x="5.08" y="177.2" class="st2">正　定</text>			</g>
			<g id="group16-35" transform="translate(-25.5015,23.3972) rotate(-90)">
				<title>工作表.16</title>
				<g id="shape12-36" transform="translate(-7.99361E-14,-56.6929)">
					<title>工作表.12</title>
					<path d="M0 182.14 L22.68 182.14" class="st3"/>
				</g>
				<g id="shape13-39">
					<title>工作表.13</title>
					<path d="M0 182.14 L22.68 182.14" class="st3"/>
				</g>
				<g id="shape14-42" transform="translate(204.814,125.444) rotate(90)">
					<title>工作表.14</title>
					<path d="M0 182.14 L56.69 182.14" class="st3"/>
				</g>
				<g id="shape15-45" transform="translate(182.137,125.444) rotate(90)">
					<title>工作表.15</title>
					<path d="M0 182.14 L56.69 182.14" class="st3"/>
				</g>
			</g>
			<g id="group17-48" transform="translate(-124.714,102.767) rotate(-90)">
				<title>工作表.17</title>
				<g id="shape18-49" transform="translate(-7.99361E-14,-56.6929)">
					<title>工作表.18</title>
					<path d="M0 182.14 L22.68 182.14" class="st4"/>
				</g>
				<g id="shape19-52">
					<title>工作表.19</title>
					<path d="M0 182.14 L22.68 182.14" class="st4"/>
				</g>
				<g id="shape20-55" transform="translate(204.814,125.444) rotate(90)">
					<title>工作表.20</title>
					<path d="M0 182.14 L56.69 182.14" class="st4"/>
				</g>
				<g id="shape21-58" transform="translate(182.137,125.444) rotate(90)">
					<title>工作表.21</title>
					<path d="M0 182.14 L56.69 182.14" class="st4"/>
				</g>
			</g>
			<g id="group22-61" transform="translate(-25.5015,46.0743) rotate(-90)">
				<title>工作表.22</title>
				<g id="shape23-62" transform="translate(-7.99361E-14,-56.6929)">
					<title>工作表.23</title>
					<path d="M0 182.14 L22.68 182.14" class="st3"/>
				</g>
				<g id="shape24-65">
					<title>工作表.24</title>
					<path d="M0 182.14 L22.68 182.14" class="st3"/>
				</g>
				<g id="shape25-68" transform="translate(204.814,125.444) rotate(90)">
					<title>工作表.25</title>
					<path d="M0 182.14 L56.69 182.14" class="st3"/>
				</g>
				<g id="shape26-71" transform="translate(182.137,125.444) rotate(90)">
					<title>工作表.26</title>
					<path d="M0 182.14 L56.69 182.14" class="st3"/>
				</g>
			</g>
			<g id="group27-74" transform="translate(87.8843,23.3972) rotate(-90)">
				<title>工作表.27</title>
				<g id="shape28-75" transform="translate(-7.99361E-14,-56.6929)">
					<title>工作表.28</title>
					<path d="M0 182.14 L22.68 182.14" class="st4"/>
				</g>
				<g id="shape29-78">
					<title>工作表.29</title>
					<path d="M0 182.14 L22.68 182.14" class="st4"/>
				</g>
				<g id="shape30-81" transform="translate(204.814,125.444) rotate(90)">
					<title>工作表.30</title>
					<path d="M0 182.14 L56.69 182.14" class="st4"/>
				</g>
				<g id="shape31-84" transform="translate(182.137,125.444) rotate(90)">
					<title>工作表.31</title>
					<path d="M0 182.14 L56.69 182.14" class="st4"/>
				</g>
			</g>
			<g id="group32-87" transform="translate(87.8843,182.137) rotate(-90)">
				<title>工作表.32</title>
				<g id="shape33-88" transform="translate(-7.99361E-14,-56.6929)">
					<title>工作表.33</title>
					<path d="M0 182.14 L22.68 182.14" class="st4"/>
				</g>
				<g id="shape34-91">
					<title>工作表.34</title>
					<path d="M0 182.14 L22.68 182.14" class="st4"/>
				</g>
				<g id="shape35-94" transform="translate(204.814,125.444) rotate(90)">
					<title>工作表.35</title>
					<path d="M0 182.14 L56.69 182.14" class="st4"/>
				</g>
				<g id="shape36-97" transform="translate(182.137,125.444) rotate(90)">
					<title>工作表.36</title>
					<path d="M0 182.14 L56.69 182.14" class="st4"/>
				</g>
			</g>
			<g id="group37-100" transform="translate(-25.5015,68.7515) rotate(-90)">
				<title>工作表.37</title>
				<g id="shape38-101" transform="translate(-7.99361E-14,-56.6929)">
					<title>工作表.38</title>
					<path d="M0 182.14 L22.68 182.14" class="st3"/>
				</g>
				<g id="shape39-104">
					<title>工作表.39</title>
					<path d="M0 182.14 L22.68 182.14" class="st3"/>
				</g>
				<g id="shape40-107" transform="translate(204.814,125.444) rotate(90)">
					<title>工作表.40</title>
					<path d="M0 182.14 L56.69 182.14" class="st3"/>
				</g>
				<g id="shape41-110" transform="translate(182.137,125.444) rotate(90)">
					<title>工作表.41</title>
					<path d="M0 182.14 L56.69 182.14" class="st3"/>
				</g>
			</g>
			<g id="group42-113" transform="translate(-25.5015,91.4287) rotate(-90)">
				<title>工作表.42</title>
				<g id="shape43-114" transform="translate(-7.99361E-14,-56.6929)">
					<title>工作表.43</title>
					<path d="M0 182.14 L22.68 182.14" class="st3"/>
				</g>
				<g id="shape44-117">
					<title>工作表.44</title>
					<path d="M0 182.14 L22.68 182.14" class="st3"/>
				</g>
				<g id="shape45-120" transform="translate(204.814,125.444) rotate(90)">
					<title>工作表.45</title>
					<path d="M0 182.14 L56.69 182.14" class="st3"/>
				</g>
				<g id="shape46-123" transform="translate(182.137,125.444) rotate(90)">
					<title>工作表.46</title>
					<path d="M0 182.14 L56.69 182.14" class="st3"/>
				</g>
			</g>
			<g id="group47-126" transform="translate(-25.5015,114.106) rotate(-90)">
				<title>工作表.47</title>
				<g id="shape48-127" transform="translate(-7.99361E-14,-56.6929)">
					<title>工作表.48</title>
					<path d="M0 182.14 L22.68 182.14" class="st3"/>
				</g>
				<g id="shape49-130">
					<title>工作表.49</title>
					<path d="M0 182.14 L22.68 182.14" class="st3"/>
				</g>
				<g id="shape50-133" transform="translate(204.814,125.444) rotate(90)">
					<title>工作表.50</title>
					<path d="M0 182.14 L56.69 182.14" class="st3"/>
				</g>
				<g id="shape51-136" transform="translate(182.137,125.444) rotate(90)">
					<title>工作表.51</title>
					<path d="M0 182.14 L56.69 182.14" class="st3"/>
				</g>
			</g>
			<g id="group52-139" transform="translate(-25.5015,136.783) rotate(-90)">
				<title>工作表.52</title>
				<g id="shape53-140" transform="translate(-7.99361E-14,-56.6929)">
					<title>工作表.53</title>
					<path d="M0 182.14 L22.68 182.14" class="st3"/>
				</g>
				<g id="shape54-143">
					<title>工作表.54</title>
					<path d="M0 182.14 L22.68 182.14" class="st3"/>
				</g>
				<g id="shape55-146" transform="translate(204.814,125.444) rotate(90)">
					<title>工作表.55</title>
					<path d="M0 182.14 L56.69 182.14" class="st3"/>
				</g>
				<g id="shape56-149" transform="translate(182.137,125.444) rotate(90)">
					<title>工作表.56</title>
					<path d="M0 182.14 L56.69 182.14" class="st3"/>
				</g>
			</g>
			<g id="group57-152" transform="translate(-25.5015,159.46) rotate(-90)">
				<title>工作表.57</title>
				<g id="shape58-153" transform="translate(-7.99361E-14,-56.6929)">
					<title>工作表.58</title>
					<path d="M0 182.14 L22.68 182.14" class="st3"/>
				</g>
				<g id="shape59-156">
					<title>工作表.59</title>
					<path d="M0 182.14 L22.68 182.14" class="st3"/>
				</g>
				<g id="shape60-159" transform="translate(204.814,125.444) rotate(90)">
					<title>工作表.60</title>
					<path d="M0 182.14 L56.69 182.14" class="st3"/>
				</g>
				<g id="shape61-162" transform="translate(182.137,125.444) rotate(90)">
					<title>工作表.61</title>
					<path d="M0 182.14 L56.69 182.14" class="st3"/>
				</g>
			</g>
			<g id="group62-165" transform="translate(-25.5015,182.137) rotate(-90)">
				<title>工作表.62</title>
				<g id="shape63-166" transform="translate(-7.99361E-14,-56.6929)">
					<title>工作表.63</title>
					<path d="M0 182.14 L22.68 182.14" class="st3"/>
				</g>
				<g id="shape64-169">
					<title>工作表.64</title>
					<path d="M0 182.14 L22.68 182.14" class="st3"/>
				</g>
				<g id="shape65-172" transform="translate(204.814,125.444) rotate(90)">
					<title>工作表.65</title>
					<path d="M0 182.14 L56.69 182.14" class="st3"/>
				</g>
				<g id="shape66-175" transform="translate(182.137,125.444) rotate(90)">
					<title>工作表.66</title>
					<path d="M0 182.14 L56.69 182.14" class="st3"/>
				</g>
			</g>
			<g id="shape70-178" transform="translate(218.569,6.53956) rotate(62.2204)">
				<title>工作表.70</title>
				<path d="M0 182.14 L89.71 182.14" class="st4"/>
			</g>
			<g id="shape71-181" transform="translate(-103.722,6.53956) rotate(-62.2204)">
				<title>工作表.71</title>
				<path d="M0 182.14 L89.71 182.14" class="st4"/>
			</g>
			<g id="shape72-184" transform="translate(156.636,-170.079)">
				<title>工作表.72</title>
				<path d="M0 182.14 L56.69 182.14" class="st4"/>
			</g>
			<g id="shape67-187" transform="translate(156.636,-11.3386)">
				<title>工作表.67</title>
				<path d="M0 182.14 L56.69 182.14" class="st4"/>
			</g>
			<g id="shape68-190" transform="translate(328.162,-49.2008) rotate(70.3462)">
				<title>工作表.68</title>
				<path d="M0 182.14 L168.56 182.14" class="st5"/>
			</g>
			<g id="shape69-193" transform="translate(-14.8905,109.539) rotate(-70.3462)">
				<title>工作表.69</title>
				<path d="M0 182.14 L168.56 182.14" class="st5"/>
			</g>
		</g>
	</g>
</svg>
