<?xml version="1.0" encoding="UTF-8" standalone="no"?>
<!DOCTYPE svg PUBLIC "-//W3C//DTD SVG 1.1//EN" "http://www.w3.org/Graphics/SVG/1.1/DTD/svg11.dtd">
<!-- 由 Microsoft Visio, SVG Export 產生 y08.0106.svg 頁-1 -->
<svg xmlns="http://www.w3.org/2000/svg" xmlns:xlink="http://www.w3.org/1999/xlink" xmlns:ev="http://www.w3.org/2001/xml-events"
		width="2.28576in" height="3.1303in" viewBox="0 0 164.575 225.381" xml:space="preserve" color-interpolation-filters="sRGB"
		class="st6">
	

	<style type="text/css">
	<![CDATA[
		.st1 {stroke:#000000;stroke-dasharray:7,5;stroke-linecap:round;stroke-linejoin:round;stroke-width:1}
		.st2 {fill:none;stroke:#000000;stroke-dasharray:7,5;stroke-linecap:round;stroke-linejoin:round;stroke-width:1}
		.st3 {stroke:#000000;stroke-linecap:round;stroke-linejoin:round;stroke-width:1}
		.st4 {fill:none;stroke:none;stroke-linecap:round;stroke-linejoin:round;stroke-width:1}
		.st5 {fill:#000000;font-family:新細明體;font-size:12pt}
		.st6 {fill:none;fill-rule:evenodd;font-size:12px;overflow:visible;stroke-linecap:square;stroke-miterlimit:3}
	]]>
	</style>

	<g>
		<title>頁-1</title>
		<g id="group48-1" transform="translate(0.5,-0.5)">
			<title>工作表.48</title>
			<g id="shape10-2" transform="translate(-14.3012,-126.865) rotate(-19.243)">
				<title>工作表.10</title>
				<path d="M0 225.38 L9.03 225.38" class="st1"/>
			</g>
			<g id="shape11-5" transform="translate(3.53479,-103.244) rotate(-18.6481)">
				<title>工作表.11</title>
				<path d="M0 225.38 L10.84 225.38" class="st1"/>
			</g>
			<g id="shape12-8" transform="translate(13.8448,-77.0998) rotate(-19.9474)">
				<title>工作表.12</title>
				<path d="M0 225.38 L12.65 225.38" class="st1"/>
			</g>
			<g id="shape13-11" transform="translate(40.6372,-57.2033) rotate(-16.5362)">
				<title>工作表.13</title>
				<path d="M0 225.38 L15.42 225.38" class="st1"/>
			</g>
			<g id="shape5-14" transform="translate(11.7295,-8.73394)">
				<title>工作表.5</title>
				<path d="M27.5 225.38 A27.4961 27.4961 -180 0 0 0 197.89 L0 225.38 L27.5 225.38 Z" class="st2"/>
			</g>
			<g id="shape3-16" transform="translate(195.821,-128.472) rotate(54.8061)">
				<title>工作表.3</title>
				<path d="M0 225.38 L263.62 225.38" class="st1"/>
			</g>
			<g id="shape14-19" transform="translate(221.557,-28.1869) rotate(56.8703)">
				<title>工作表.14</title>
				<path d="M0 225.38 L85.26 225.38" class="st1"/>
			</g>
			<g id="shape19-22" transform="translate(-213.744,216.657) rotate(-89.9791)">
				<title>工作表.19</title>
				<path d="M0 225.38 L83.56 225.38" class="st3"/>
			</g>
			<g id="shape20-25" transform="translate(11.6378,-8.64223)">
				<title>工作表.20</title>
				<path d="M0 225.38 L68.03 225.38" class="st3"/>
			</g>
			<g id="shape22-28" transform="translate(95.4734,-8.1626) rotate(-0.306027)">
				<title>工作表.22</title>
				<path d="M0 225.38 L66.9 225.38" class="st3"/>
			</g>
			<g id="shape23-31" transform="translate(-213.742,115.337) rotate(-89.7885)">
				<title>工作表.23</title>
				<path d="M0 225.38 L115.17 225.38" class="st3"/>
			</g>
			<g id="shape24-34" transform="translate(-39.252,-118.557) rotate(-18.6481)">
				<title>工作表.24</title>
				<path d="M0 225.38 L11.65 225.38" class="st1"/>
			</g>
			<g id="shape31-37" transform="translate(-22.242,-94.5455) rotate(-18.6481)">
				<title>工作表.31</title>
				<path d="M0 225.38 L10.64 225.38" class="st1"/>
			</g>
			<g id="shape32-40" transform="translate(-12.0401,-67.781) rotate(-19.9474)">
				<title>工作表.32</title>
				<path d="M0 225.38 L9.93 225.38" class="st1"/>
			</g>
			<g id="shape33-43" transform="translate(15.2631,-49.6698) rotate(-16.5362)">
				<title>工作表.33</title>
				<path d="M0 225.38 L10.9 225.38" class="st1"/>
			</g>
			<g id="shape34-46" transform="translate(0,-90.7087)">
				<title>工作表.34</title>
				<desc>意</desc>
				<rect x="0" y="205.381" width="23.2756" height="20" class="st4"/>
				<text x="4" y="220.18" class="st5">意</text>			</g>
			<g id="shape37-49" transform="translate(-82.5728,-82.1737) rotate(-35.2)">
				<title>工作表.37</title>
				<desc>眼</desc>
				<rect x="0" y="205.381" width="20.0001" height="20" class="st4"/>
				<text x="4" y="220.36" class="st5">眼</text>			</g>
			<g id="shape38-52" transform="translate(-66.5908,-55.6614) rotate(-35.2)">
				<title>工作表.38</title>
				<desc>耳</desc>
				<rect x="0" y="205.381" width="20.0001" height="20" class="st4"/>
				<text x="4" y="220.36" class="st5">耳</text>			</g>
			<g id="shape39-55" transform="translate(-51.225,-31.6249) rotate(-35.2)">
				<title>工作表.39</title>
				<desc>鼻</desc>
				<rect x="0" y="205.381" width="20.0001" height="20" class="st4"/>
				<text x="4" y="220.36" class="st5">鼻</text>			</g>
			<g id="shape40-58" transform="translate(-36.885,-8.94774) rotate(-35.2)">
				<title>工作表.40</title>
				<desc>舌</desc>
				<rect x="0" y="205.381" width="20.0001" height="20" class="st4"/>
				<text x="4" y="220.36" class="st5">舌</text>			</g>
			<g id="shape41-61" transform="translate(76.677,-2.84217E-14)">
				<title>工作表.41</title>
				<desc>身</desc>
				<rect x="0" y="205.381" width="20.0001" height="20" class="st4"/>
				<text x="4" y="220.36" class="st5">身</text>			</g>
		</g>
	</g>
</svg>
