<?xml version="1.0" encoding="UTF-8" standalone="no"?>
<!DOCTYPE svg PUBLIC "-//W3C//DTD SVG 1.1//EN" "http://www.w3.org/Graphics/SVG/1.1/DTD/svg11.dtd">
<!-- 由 Microsoft Visio, SVG Export 產生 y10.0068.svg 頁-1 -->
<svg xmlns="http://www.w3.org/2000/svg" xmlns:xlink="http://www.w3.org/1999/xlink" xmlns:ev="http://www.w3.org/2001/xml-events"
		width="6.41666in" height="0.954882in" viewBox="0 0 462 68.7515" xml:space="preserve" color-interpolation-filters="sRGB"
		class="st4">
	

	<style type="text/css">
	<![CDATA[
		.st1 {fill:none;stroke:none;stroke-linecap:round;stroke-linejoin:round;stroke-width:0.72}
		.st2 {fill:#000000;font-family:新細明體;font-size:12pt}
		.st3 {stroke:#000000;stroke-linecap:round;stroke-linejoin:round;stroke-width:0.72}
		.st4 {fill:none;fill-rule:evenodd;font-size:12px;overflow:visible;stroke-linecap:square;stroke-miterlimit:3}
	]]>
	</style>

	<g>
		<title>頁-1</title>
		<g id="group17-1" transform="translate(0.36,-0.36)">
			<title>工作表.17</title>
			<g id="shape1-2" transform="translate(-3.9968E-14,-37.6772)">
				<title>工作表.1</title>
				<desc>生滅相續的作用</desc>
				<rect x="0" y="48.909" width="122.063" height="19.8425" class="st1"/>
				<text x="5.03" y="63.81" class="st2">生滅相續的作用</text>			</g>
			<g id="shape2-5" transform="translate(3.19744E-13,-12.874)">
				<title>工作表.2</title>
				<desc>恒住自性的法體</desc>
				<rect x="0" y="48.909" width="122.063" height="19.8425" class="st1"/>
				<text x="5.03" y="63.81" class="st2">恒住自性的法體</text>			</g>
			<g id="shape3-8" transform="translate(161.978,-7.10543E-14)">
				<title>工作表.3</title>
				<desc>不可說我</desc>
				<rect x="0" y="48.909" width="75.2047" height="19.8425" class="st1"/>
				<text x="5.6" y="63.81" class="st2">不可說我</text>			</g>
			<g id="shape4-11" transform="translate(161.978,-24.0945)">
				<title>工作表.4</title>
				<desc>實法我</desc>
				<rect x="0" y="48.909" width="75.2047" height="19.8425" class="st1"/>
				<text x="0.25em 1.85em 3.45em" y="63.81" class="st2">實法我</text>			</g>
			<g id="shape5-14" transform="translate(161.978,-48.189)">
				<title>工作表.5</title>
				<desc>假名我</desc>
				<rect x="0" y="48.909" width="75.2047" height="19.8425" class="st1"/>
				<text x="0.25em 1.85em 3.45em" y="63.81" class="st2">假名我</text>			</g>
			<g id="shape6-17" transform="translate(276.854,-34.6063)">
				<title>工作表.6</title>
				<desc>不一不異而異……有　部</desc>
				<rect x="0" y="48.909" width="184.425" height="19.8425" class="st1"/>
				<text x="4.21" y="63.81" class="st2">不一不異而異……有　部</text>			</g>
			<g id="shape7-20" transform="translate(276.854,0)">
				<title>工作表.7</title>
				<desc>不一不異而一……犢子部</desc>
				<rect x="0" y="48.909" width="184.425" height="19.8425" class="st1"/>
				<text x="4.21" y="63.81" class="st2">不一不異而一……犢子部</text>			</g>
			<g id="shape8-23" transform="translate(276.941,127.109) rotate(180)">
				<title>工作表.8</title>
				<path d="M0 68.75 L41.33 68.75" class="st3"/>
			</g>
			<g id="shape11-26" transform="translate(145.531,123.193) rotate(-164.801)">
				<title>工作表.11</title>
				<path d="M0 68.75 L44.06 68.75" class="st3"/>
			</g>
			<g id="shape12-29" transform="translate(181.579,100.09) rotate(164.801)">
				<title>工作表.12</title>
				<path d="M0 68.75 L44.06 68.75" class="st3"/>
			</g>
			<g id="shape13-32" transform="translate(120.121,110.14) rotate(-140.82)">
				<title>工作表.13</title>
				<path d="M0 68.75 L54.85 68.75" class="st3"/>
			</g>
			<g id="shape14-35" transform="translate(181.579,76.988) rotate(164.801)">
				<title>工作表.14</title>
				<path d="M0 68.75 L44.06 68.75" class="st3"/>
			</g>
			<g id="group15-38" transform="translate(235.606,-34.0158)">
				<title>工作表.15</title>
				<g id="shape9-39" transform="translate(18.1875,-20.2279) rotate(15.3396)">
					<title>工作表.9</title>
					<path d="M0 68.75 L42.86 68.75" class="st3"/>
				</g>
				<g id="shape10-42" transform="translate(-18.1875,2.44928) rotate(-15.3396)">
					<title>工作表.10</title>
					<path d="M0 68.75 L42.86 68.75" class="st3"/>
				</g>
			</g>
		</g>
	</g>
</svg>
