<?xml version="1.0" encoding="UTF-8" standalone="no"?>
<!DOCTYPE svg PUBLIC "-//W3C//DTD SVG 1.1//EN" "http://www.w3.org/Graphics/SVG/1.1/DTD/svg11.dtd">
<!-- 以上檔頭是 Heaven 人工加入。後面檔名請勿刪除 y10.0129.svg -->
<svg xmlns="http://www.w3.org/2000/svg" xmlns:xlink="http://www.w3.org/1999/xlink" xmlns:ev="http://www.w3.org/2001/xml-events"
		width="7.09782in" height="2.65643in" viewBox="0 0 511.043 191.263" xml:space="preserve" color-interpolation-filters="sRGB"
		class="st4">
	

	<style type="text/css">
	<![CDATA[
		.st1 {fill:none;stroke:none;stroke-linecap:round;stroke-linejoin:round;stroke-width:0.72}
		.st2 {fill:#000000;font-family:新細明體;font-size:12pt}
		.st3 {stroke:#000000;stroke-linecap:round;stroke-linejoin:round;stroke-width:0.72}
		.st4 {fill:none;fill-rule:evenodd;font-size:12px;overflow:visible;stroke-linecap:square;stroke-miterlimit:3}
	]]>
	</style>

	<g>
		<title>頁-1</title>
		<g id="group31-1" transform="translate(0.36,-0.36)">
			<title>工作表.31</title>
			<g id="shape1-2" transform="translate(325.984,-170.701)">
				<title>工作表.1</title>
				<desc>心相應行</desc>
				<rect x="0" y="171.421" width="72.4567" height="19.8425" class="st1"/>
				<text x="4.23" y="186.33" class="st2">心相應行</text>			</g>
			<g id="shape2-5" transform="translate(325.984,-1.25056E-12)">
				<title>工作表.2</title>
				<desc>心不相應行</desc>
				<rect x="0" y="171.421" width="72.4567" height="19.8425" class="st1"/>
				<text x="4.23" y="186.33" class="st2">心不相應行</text>			</g>
			<g id="shape3-8" transform="translate(326.071,-113.386)">
				<title>工作表.3</title>
				<desc>非心相應行非心不相應行</desc>
				<rect x="0" y="171.421" width="184.252" height="19.8425" class="st1"/>
				<text x="4.13" y="186.33" class="st2">非心相應行非心不相應行</text>			</g>
			<g id="shape4-11" transform="translate(325.124,-56.6929)">
				<title>工作表.4</title>
				<desc>亦心相應行亦不相應行</desc>
				<rect x="0" y="171.421" width="168.661" height="19.8425" class="st1"/>
				<text x="4.33" y="186.33" class="st2">亦心相應行亦不相應行</text>			</g>
			<g id="shape5-14" transform="translate(4.79616E-14,-113.386)">
				<title>工作表.5</title>
				<desc>一切有系</desc>
				<rect x="0" y="171.421" width="72.4567" height="19.8425" class="st1"/>
				<text x="4.23" y="186.33" class="st2">一切有系</text>			</g>
			<g id="shape6-17" transform="translate(6.23501E-13,-28.3465)">
				<title>工作表.6</title>
				<desc>分別說系</desc>
				<rect x="0" y="171.421" width="72.4567" height="19.8425" class="st1"/>
				<text x="4.23" y="186.33" class="st2">分別說系</text>			</g>
			<g id="shape7-20" transform="translate(1.1191E-13,-56.6929)">
				<title>工作表.7</title>
				<desc>犢子系</desc>
				<rect x="0" y="171.421" width="72.4567" height="19.8425" class="st1"/>
				<text x="0.25em 1.764em 3.279em" y="186.33" class="st2">犢子系</text>			</g>
			<g id="shape8-23">
				<title>工作表.8</title>
				<desc>大眾系</desc>
				<rect x="0" y="171.421" width="72.4567" height="19.8425" class="st1"/>
				<text x="0.25em 1.764em 3.279em" y="186.33" class="st2">大眾系</text>			</g>
			<g id="shape9-26" transform="translate(211.927,-170.39)">
				<title>工作表.9</title>
				<desc>正統派</desc>
				<rect x="0" y="171.421" width="56.0709" height="19.8425" class="st1"/>
				<text x="4.04" y="186.33" class="st2">正統派</text>			</g>
			<g id="shape10-29" transform="translate(211.475,-141.732)">
				<title>工作表.10</title>
				<desc>法救</desc>
				<rect x="0" y="171.421" width="42.2087" height="19.8425" class="st1"/>
				<text x="5.1" y="186.33" class="st2">法救</text>			</g>
			<g id="shape11-32" transform="translate(211.5,202.527) rotate(180)">
				<title>工作表.11</title>
				<path d="M0 191.26 L7.44 191.26" class="st3"/>
			</g>
			<g id="shape12-35" transform="translate(211.5,230.873) rotate(180)">
				<title>工作表.12</title>
				<path d="M0 191.26 L7.44 191.26" class="st3"/>
			</g>
			<g id="shape13-38" transform="translate(204.059,216.7) rotate(180)">
				<title>工作表.13</title>
				<path d="M0 191.26 L35.9 191.26" class="st3"/>
			</g>
			<g id="shape14-41" transform="translate(395.322,11.5743) rotate(90)">
				<title>工作表.14</title>
				<path d="M0 191.26 L28.04 191.26" class="st3"/>
			</g>
			<g id="shape15-44" transform="translate(126.204,-156.528)">
				<title>工作表.15</title>
				<desc>有部</desc>
				<rect x="0" y="171.421" width="42.2087" height="19.8425" class="st1"/>
				<text x="5.1" y="186.33" class="st2">有部</text>			</g>
			<g id="shape16-47" transform="translate(126.204,-113.386)">
				<title>工作表.16</title>
				<desc>經部</desc>
				<rect x="0" y="171.421" width="42.2087" height="19.8425" class="st1"/>
				<text x="5.1" y="186.33" class="st2">經部</text>			</g>
			<g id="shape17-50" transform="translate(127.559,-85.0394)">
				<title>工作表.17</title>
				<desc>成實論師</desc>
				<rect x="0" y="171.421" width="72.4567" height="19.8425" class="st1"/>
				<text x="4.23" y="186.33" class="st2">成實論師</text>			</g>
			<g id="shape18-53" transform="translate(126.461,216.078) rotate(180)">
				<title>工作表.18</title>
				<path d="M0 191.26 L7.44 191.26" class="st3"/>
			</g>
			<g id="shape19-56" transform="translate(126.461,287.566) rotate(180)">
				<title>工作表.19</title>
				<path d="M0 191.26 L7.44 191.26" class="st3"/>
			</g>
			<g id="shape20-59" transform="translate(119.02,259.22) rotate(180)">
				<title>工作表.20</title>
				<path d="M0 191.26 L45.46 191.26" class="st3"/>
			</g>
			<g id="shape21-62" transform="translate(310.283,24.8145) rotate(90)">
				<title>工作表.21</title>
				<path d="M0 191.26 L71.49 191.26" class="st3"/>
			</g>
			<g id="shape22-65" transform="translate(268.193,-180)">
				<title>工作表.22</title>
				<path d="M0 191.26 L56.69 191.26" class="st3"/>
			</g>
			<g id="shape23-68" transform="translate(168.156,-123.307)">
				<title>工作表.23</title>
				<path d="M0 191.26 L156.73 191.26" class="st3"/>
			</g>
			<g id="shape24-71" transform="translate(91.233,-62.838) rotate(-33.6901)">
				<title>工作表.24</title>
				<path d="M0 191.26 L153.31 191.26" class="st3"/>
			</g>
			<g id="shape25-74" transform="translate(48.5832,67.9562) rotate(-90)">
				<title>工作表.25</title>
				<path d="M0 191.26 L15.59 191.26" class="st3"/>
			</g>
			<g id="shape26-77" transform="translate(424.363,-46.8181) rotate(63.3444)">
				<title>工作表.26</title>
				<path d="M0 191.26 L159.28 191.26" class="st3"/>
			</g>
			<g id="shape27-80" transform="translate(73.5551,-9.92126)">
				<title>工作表.27</title>
				<path d="M0 191.26 L251.33 191.26" class="st3"/>
			</g>
			<g id="shape28-83" transform="translate(-0.670445,335.686) rotate(-143.801)">
				<title>工作表.28</title>
				<path d="M0 191.26 L48 191.26" class="st3"/>
			</g>
			<g id="shape29-86" transform="translate(73.5551,-66.6142)">
				<title>工作表.29</title>
				<path d="M0 191.26 L251.33 191.26" class="st3"/>
			</g>
			<g id="shape30-89" transform="translate(233.214,-111.902) rotate(19.8862)">
				<title>工作表.30</title>
				<path d="M0 191.26 L166.67 191.26" class="st3"/>
			</g>
		</g>
	</g>
</svg>
