<?xml version="1.0" encoding="UTF-8" standalone="no"?>
<!DOCTYPE svg PUBLIC "-//W3C//DTD SVG 1.1//EN" "http://www.w3.org/Graphics/SVG/1.1/DTD/svg11.dtd">
<!-- 由 Microsoft Visio, SVG Export 產生 y10.0094.svg 頁-1 -->
<svg xmlns="http://www.w3.org/2000/svg" xmlns:xlink="http://www.w3.org/1999/xlink" xmlns:ev="http://www.w3.org/2001/xml-events"
		width="4.18058in" height="2.05724in" viewBox="0 0 301.001 148.122" xml:space="preserve" color-interpolation-filters="sRGB"
		class="st4">
	

	<style type="text/css">
	<![CDATA[
		.st1 {fill:none;stroke:none;stroke-linecap:round;stroke-linejoin:round;stroke-width:0.72}
		.st2 {fill:#000000;font-family:新細明體;font-size:12pt}
		.st3 {stroke:#000000;stroke-linecap:round;stroke-linejoin:round;stroke-width:0.72}
		.st4 {fill:none;fill-rule:evenodd;font-size:12px;overflow:visible;stroke-linecap:square;stroke-miterlimit:3}
	]]>
	</style>

	<g>
		<title>頁-1</title>
		<g id="group21-1" transform="translate(0.36,-0.36)">
			<title>工作表.21</title>
			<g id="shape1-2" transform="translate(211.526,-113.386)">
				<title>工作表.1</title>
				<desc>心通三性家</desc>
				<rect x="0" y="128.279" width="88.7559" height="19.8425" class="st1"/>
				<text x="4.38" y="143.18" class="st2">心通三性家</text>			</g>
			<g id="shape2-5" transform="translate(211.526,-56.6929)">
				<title>工作表.2</title>
				<desc>心性無記家</desc>
				<rect x="0" y="128.279" width="88.7559" height="19.8425" class="st1"/>
				<text x="4.38" y="143.18" class="st2">心性無記家</text>			</g>
			<g id="shape3-8" transform="translate(211.526,-1.0516E-12)">
				<title>工作表.3</title>
				<desc>心性本淨家</desc>
				<rect x="0" y="128.279" width="88.7559" height="19.8425" class="st1"/>
				<text x="4.38" y="143.18" class="st2">心性本淨家</text>			</g>
			<g id="shape4-11" transform="translate(0,-113.386)">
				<title>工作表.4</title>
				<desc>一切有系</desc>
				<rect x="0" y="128.279" width="72.6811" height="19.8425" class="st1"/>
				<text x="4.34" y="143.18" class="st2">一切有系</text>			</g>
			<g id="shape5-14" transform="translate(113.171,-99.2126)">
				<title>工作表.5</title>
				<desc>有部</desc>
				<rect x="0" y="128.279" width="42.5197" height="19.8425" class="st1"/>
				<text x="5.26" y="143.18" class="st2">有部</text>			</g>
			<g id="shape6-17" transform="translate(113.171,-127.559)">
				<title>工作表.6</title>
				<desc>經部</desc>
				<rect x="0" y="128.279" width="42.5197" height="19.8425" class="st1"/>
				<text x="5.26" y="143.18" class="st2">經部</text>			</g>
			<g id="shape7-20" transform="translate(113.466,158.763) rotate(180)">
				<title>工作表.7</title>
				<path d="M0 148.12 L6.73 148.12" class="st3"/>
			</g>
			<g id="shape8-23" transform="translate(113.466,187.109) rotate(180)">
				<title>工作表.8</title>
				<path d="M0 148.12 L7.09 148.12" class="st3"/>
			</g>
			<g id="shape9-26" transform="translate(-41.7311,37.1363) rotate(-89.2838)">
				<title>工作表.9</title>
				<path d="M0 148.12 L28.35 148.12" class="st3"/>
			</g>
			<g id="shape10-29" transform="translate(70.3563,-123.307)">
				<title>工作表.10</title>
				<path d="M0 148.12 L36.2 148.12" class="st3"/>
			</g>
			<g id="shape11-32" transform="translate(1.27898E-13,-56.6929)">
				<title>工作表.11</title>
				<desc>犢子系</desc>
				<rect x="0" y="128.279" width="72.6811" height="19.8425" class="st1"/>
				<text x="0.25em 1.771em 3.293em" y="143.18" class="st2">犢子系</text>			</g>
			<g id="shape12-35">
				<title>工作表.12</title>
				<desc>大眾系</desc>
				<rect x="0" y="128.279" width="72.6811" height="19.8425" class="st1"/>
				<text x="0.25em 1.771em 3.293em" y="143.18" class="st2">大眾系</text>			</g>
			<g id="shape13-38" transform="translate(3.19744E-13,-28.3465)">
				<title>工作表.13</title>
				<desc>分別說系</desc>
				<rect x="0" y="128.279" width="72.6811" height="19.8425" class="st1"/>
				<text x="4.34" y="143.18" class="st2">分別說系</text>			</g>
			<g id="shape14-41" transform="translate(191.467,-133.021) rotate(14.0945)">
				<title>工作表.14</title>
				<path d="M0 148.12 L58.2 148.12" class="st3"/>
			</g>
			<g id="shape15-44" transform="translate(119.325,-104.675) rotate(-14.0945)">
				<title>工作表.15</title>
				<path d="M0 148.12 L58.2 148.12" class="st3"/>
			</g>
			<g id="shape16-47" transform="translate(122.726,199.82) rotate(-143.011)">
				<title>工作表.16</title>
				<path d="M0 148.12 L70.67 148.12" class="st3"/>
			</g>
			<g id="shape17-50" transform="translate(70.3563,-66.6142)">
				<title>工作表.17</title>
				<path d="M0 148.12 L141.49 148.12" class="st3"/>
			</g>
			<g id="shape18-53" transform="translate(70.3563,-9.92126)">
				<title>工作表.18</title>
				<path d="M0 148.12 L141.49 148.12" class="st3"/>
			</g>
			<g id="shape19-56" transform="translate(41.2591,-35.3817) rotate(-11.3289)">
				<title>工作表.19</title>
				<path d="M0 148.12 L144.3 148.12" class="st3"/>
			</g>
			<g id="shape20-59" transform="translate(99.4535,-35.3817) rotate(11.3289)">
				<title>工作表.20</title>
				<path d="M0 148.12 L144.3 148.12" class="st3"/>
			</g>
		</g>
	</g>
</svg>
