<?xml version="1.0" encoding="UTF-8" standalone="no"?>
<!DOCTYPE svg PUBLIC "-//W3C//DTD SVG 1.1//EN" "http://www.w3.org/Graphics/SVG/1.1/DTD/svg11.dtd">
<!-- 由 Microsoft Visio, SVG Export 產生 y10.0063.svg 頁-1 -->
<svg xmlns="http://www.w3.org/2000/svg" xmlns:xlink="http://www.w3.org/1999/xlink" xmlns:ev="http://www.w3.org/2001/xml-events"
		width="6.91612in" height="4.12926in" viewBox="0 0 497.96 297.307" xml:space="preserve" color-interpolation-filters="sRGB"
		class="st7">
	

	<style type="text/css">
	<![CDATA[
		.st1 {stroke:#000000;stroke-linecap:round;stroke-linejoin:round;stroke-width:0.72}
		.st2 {stroke:#000000;stroke-dasharray:5.04,3.6;stroke-linecap:round;stroke-linejoin:round;stroke-width:0.72}
		.st3 {stroke:#000000;stroke-dasharray:10.8,6.48;stroke-linecap:round;stroke-linejoin:round;stroke-width:0.72}
		.st4 {fill:none;stroke:none;stroke-linecap:round;stroke-linejoin:round;stroke-width:0.72}
		.st5 {fill:#000000;font-family:新細明體;font-size:12pt}
		.st6 {fill:none;stroke:#000000;stroke-linecap:round;stroke-linejoin:round;stroke-width:0.24}
		.st7 {fill:none;fill-rule:evenodd;font-size:12px;overflow:visible;stroke-linecap:square;stroke-miterlimit:3}
	]]>
	</style>

	<g>
		<title>頁-1</title>
		<g id="group64-1" transform="translate(0.12,-0.36)">
			<title>工作表.64</title>
			<g id="shape45-2" transform="translate(308.428,-19.4267) rotate(26.2)">
				<title>工作表.45</title>
				<path d="M3.09 185.57 L1.58 187.32 A2.34216 2.34216 -180 0 0 1.58 190.39 L1.58 190.39 A2.34216 2.34216 0 0 1 1.58
							 193.45 L1.44 193.61 A2.59311 2.59311 -180 0 0 1.44 197 L1.44 197 A2.59311 2.59311 0 0 1 1.44 200.39
							 L1.44 200.39 A2.59311 2.59311 -180 0 0 1.44 203.78 L1.77 204.17 A2.17486 2.17486 0 0 1 1.77 207.01 L1.77
							 207.01 A2.17486 2.17486 -180 0 0 1.77 209.85 L1.77 209.85 A2.49242 2.49242 0 0 1 1.86 212.99 L1.48 213.49
							 A2.49242 2.49242 -180 0 0 1.58 216.63 L1.58 216.63 A2.34216 2.34216 0 0 1 1.58 219.7 L1.39 219.92 A2.50946
							 2.50946 -180 0 0 1.39 223.2 L1.53 223.36 A2.25851 2.25851 0 0 1 1.53 226.31 L1.53 226.31 A2.25851 2.25851
							 -180 0 0 1.53 229.27 L1.58 229.32 A2.67675 2.67675 0 0 1 1.58 232.82 L1.44 232.99 A2.42581 2.42581 -180
							 0 0 1.44 236.16 L1.44 236.16 A2.42581 2.42581 0 0 1 1.44 239.33 L1.44 239.33 A2.59311 2.59311 -180 0
							 0 1.44 242.72 L1.53 242.83 A2.59311 2.59311 0 0 1 1.53 246.22 L1.39 246.38 A2.34216 2.34216 -180 0 0
							 1.39 249.45 L1.39 249.45 A2.34216 2.34216 0 0 1 1.39 252.51 L1.39 252.51 A2.50946 2.50946 -180 0 0 1.39
							 255.79 L1.53 255.95 A2.59311 2.59311 0 0 1 1.53 259.34 L1.53 259.34 A2.59311 2.59311 -180 0 0 1.53 262.73
							 L1.62 262.84 A2.42581 2.42581 0 0 1 1.62 266.02 L1.62 266.02 A2.42581 2.42581 -180 0 0 1.62 269.19 L1.62
							 269.19 A2.59311 2.59311 0 0 1 1.62 272.58 L1.48 272.74 A2.34216 2.34216 -180 0 0 1.48 275.8 L1.48 275.8
							 A2.34216 2.34216 0 0 1 1.48 278.87 L1.39 278.98 A2.67675 2.67675 -180 0 0 1.39 282.48 L1.62 282.75 A2.25851
							 2.25851 0 0 1 1.62 285.7 L1.62 285.7 A2.25851 2.25851 -180 0 0 1.62 288.66 L1.67 288.71 A2.67675 2.67675
							 0 0 1 1.67 292.21 L1.26 292.69 A4.85487 4.85487 -180 0 0 0.08 295.63 L0 297.31" class="st1"/>
			</g>
			<g id="shape47-5" transform="translate(492.3,279.314) rotate(116.903)">
				<title>工作表.47</title>
				<path d="M0 297.31 L110.69 297.31" class="st2"/>
			</g>
			<g id="shape46-8" transform="translate(496.647,281.901) rotate(116.588)">
				<title>工作表.46</title>
				<path d="M0 297.31 L119.79 297.31" class="st1"/>
			</g>
			<g id="shape44-11" transform="translate(46.2184,-22.0252) rotate(-24)">
				<title>工作表.44</title>
				<path d="M3.21 187.45 L1.7 189.18 A2.28632 2.28632 -180 0 0 1.7 192.19 L1.7 192.19 A2.28632 2.28632 0 0 1 1.7 195.21
							 L1.56 195.37 A2.53128 2.53128 -180 0 0 1.56 198.71 L1.56 198.71 A2.53128 2.53128 0 0 1 1.56 202.05 L1.56
							 202.05 A2.53128 2.53128 -180 0 0 1.56 205.38 L1.89 205.76 A2.12301 2.12301 0 0 1 1.89 208.56 L1.89 208.56
							 A2.12301 2.12301 -180 0 0 1.89 211.36 L1.89 211.36 A2.43306 2.43306 0 0 1 1.98 214.46 L1.61 214.94 A2.43306
							 2.43306 -180 0 0 1.7 218.04 L1.7 218.04 A2.28632 2.28632 0 0 1 1.7 221.05 L1.51 221.27 A2.44963 2.44963
							 -180 0 0 1.51 224.5 L1.65 224.66 A2.20466 2.20466 0 0 1 1.65 227.57 L1.65 227.57 A2.20466 2.20466 -180
							 0 0 1.65 230.48 L1.7 230.53 A2.61293 2.61293 0 0 1 1.7 233.98 L1.56 234.14 A2.36797 2.36797 -180 0 0
							 1.56 237.26 L1.56 237.26 A2.36797 2.36797 0 0 1 1.56 240.39 L1.56 240.39 A2.53128 2.53128 -180 0 0 1.56
							 243.73 L1.65 243.83 A2.53128 2.53128 0 0 1 1.65 247.17 L1.51 247.33 A2.28632 2.28632 -180 0 0 1.51 250.35
							 L1.51 250.35 A2.28632 2.28632 0 0 1 1.51 253.36 L1.51 253.36 A2.44963 2.44963 -180 0 0 1.51 256.6 L1.65
							 256.76 A2.53128 2.53128 0 0 1 1.65 260.1 L1.65 260.1 A2.53128 2.53128 -180 0 0 1.65 263.43 L1.75 263.54
							 A2.36797 2.36797 0 0 1 1.75 266.67 L1.75 266.67 A2.36797 2.36797 -180 0 0 1.75 269.79 L1.75 269.79 A2.53128
							 2.53128 0 0 1 1.75 273.13 L1.61 273.29 A2.28632 2.28632 -180 0 0 1.61 276.3 L1.61 276.3 A2.28632 2.28632
							 0 0 1 1.61 279.32 L1.51 279.43 A2.61293 2.61293 -180 0 0 1.51 282.87 L1.75 283.14 A2.20466 2.20466 0
							 0 1 1.75 286.05 L1.75 286.05 A2.20466 2.20466 -180 0 0 1.75 288.96 L1.8 289.01 A2.61293 2.61293 0 0
							 1 1.8 292.46 L1.7 292.57 A2.36018 2.36018 -180 0 0 1.75 295.74 L3.21 297.31" class="st1"/>
			</g>
			<g id="shape43-14" transform="translate(173.586,-41.3465)">
				<title>工作表.43</title>
				<path d="M2.35 190.68 L0.84 192.31 A2.09545 2.09545 -180 0 0 0.84 195.16 L0.84 195.16 A2.09545 2.09545 0 0 1 0.84
							 198.01 L0.7 198.16 A2.31997 2.31997 -180 0 0 0.7 201.32 L0.7 201.32 A2.31997 2.31997 0 0 1 0.7 204.47
							 L0.7 204.47 A2.31997 2.31997 -180 0 0 0.7 207.63 L1.03 207.99 A1.94578 1.94578 0 0 1 1.03 210.63 L1.03
							 210.63 A1.94578 1.94578 -180 0 0 1.03 213.28 L1.03 213.28 A2.23018 2.23018 0 0 1 1.12 216.21 L0.75 216.66
							 A2.23018 2.23018 -180 0 0 0.84 219.59 L0.84 219.59 A2.09545 2.09545 0 0 1 0.84 222.44 L0.65 222.65 A2.24513
							 2.24513 -180 0 0 0.65 225.7 L0.79 225.85 A2.02061 2.02061 0 0 1 0.79 228.6 L0.79 228.6 A2.02061 2.02061
							 -180 0 0 0.79 231.35 L0.84 231.4 A2.3948 2.3948 0 0 1 0.84 234.66 L0.7 234.81 A2.17029 2.17029 -180
							 0 0 0.7 237.77 L0.7 237.77 A2.17029 2.17029 0 0 1 0.7 240.72 L0.7 240.72 A2.31997 2.31997 -180 0 0 0.7
							 243.88 L0.79 243.98 A2.31997 2.31997 0 0 1 0.79 247.13 L0.65 247.29 A2.09545 2.09545 -180 0 0 0.65 250.14
							 L0.65 250.14 A2.09545 2.09545 0 0 1 0.65 252.99 L0.65 252.99 A2.24513 2.24513 -180 0 0 0.65 256.04 L0.79
							 256.2 A2.31997 2.31997 0 0 1 0.79 259.35 L0.79 259.35 A2.31997 2.31997 -180 0 0 0.79 262.51 L0.89 262.61
							 A2.17029 2.17029 0 0 1 0.89 265.56 L0.89 265.56 A2.17029 2.17029 -180 0 0 0.89 268.52 L0.89 268.52 A2.31997
							 2.31997 0 0 1 0.89 271.67 L0.74 271.82 A2.09545 2.09545 -180 0 0 0.74 274.68 L0.74 274.68 A2.09545 2.09545
							 0 0 1 0.74 277.53 L0.65 277.63 A2.3948 2.3948 -180 0 0 0.65 280.89 L0.89 281.14 A2.02061 2.02061 0 0
							 1 0.89 283.89 L0.89 283.89 A2.02061 2.02061 -180 0 0 0.89 286.64 L0.93 286.69 A2.3948 2.3948 0 0 1 0.93
							 289.95 L0.84 290.05 A2.16725 2.16725 -180 0 0 0.89 293.05 L1.22 293.39 A2.09781 2.09781 0 0 1 1.55 295.92
							 L0.74 297.31" class="st1"/>
			</g>
			<g id="shape42-17" transform="translate(473.757,147.559) rotate(89.6185)">
				<title>工作表.42</title>
				<path d="M0 297.31 L106.42 297.31" class="st1"/>
			</g>
			<g id="shape41-20" transform="translate(-12.079,-11.0019) rotate(-25.8)">
				<title>工作表.41</title>
				<path d="M3.21 177.94 L1.7 179.81 A2.60796 2.60796 -180 0 0 1.7 183.09 L1.7 183.09 A2.60796 2.60796 0 0 1 1.7 186.37
							 L1.56 186.54 A2.88738 2.88738 -180 0 0 1.56 190.17 L1.56 190.17 A2.88738 2.88738 0 0 1 1.56 193.8 L1.56
							 193.8 A2.88738 2.88738 -180 0 0 1.56 197.43 L1.89 197.84 A2.42168 2.42168 0 0 1 1.89 200.88 L1.89 200.88
							 A2.42168 2.42168 -180 0 0 1.89 203.92 L1.89 203.92 A2.77492 2.77492 0 0 1 1.99 207.27 L1.6 207.82 A2.77492
							 2.77492 -180 0 0 1.7 211.18 L1.7 211.18 A2.60796 2.60796 0 0 1 1.7 214.45 L1.51 214.69 A2.79424 2.79424
							 -180 0 0 1.51 218.2 L1.65 218.37 A2.51482 2.51482 0 0 1 1.65 221.53 L1.65 221.53 A2.51482 2.51482 -180
							 0 0 1.65 224.69 L1.7 224.75 A2.98053 2.98053 0 0 1 1.7 228.5 L1.56 228.67 A2.7011 2.7011 -180 0 0 1.56
							 232.07 L1.56 232.07 A2.7011 2.7011 0 0 1 1.56 235.46 L1.56 235.46 A2.88738 2.88738 -180 0 0 1.56 239.09
							 L1.65 239.2 A2.88738 2.88738 0 0 1 1.65 242.83 L1.51 243.01 A2.60796 2.60796 -180 0 0 1.51 246.28 L1.51
							 246.28 A2.60796 2.60796 0 0 1 1.51 249.56 L1.51 249.56 A2.79424 2.79424 -180 0 0 1.51 253.07 L1.65 253.25
							 A2.88738 2.88738 0 0 1 1.65 256.87 L1.65 256.87 A2.88738 2.88738 -180 0 0 1.65 260.5 L1.75 260.62 A2.7011
							 2.7011 0 0 1 1.75 264.01 L1.75 264.01 A2.7011 2.7011 -180 0 0 1.75 267.41 L1.75 267.41 A2.88738 2.88738
							 0 0 1 1.75 271.03 L1.61 271.21 A2.60796 2.60796 -180 0 0 1.61 274.49 L1.61 274.49 A2.60796 2.60796 0
							 0 1 1.61 277.76 L1.51 277.88 A2.98053 2.98053 -180 0 0 1.51 281.63 L1.75 281.92 A2.51482 2.51482 0 0
							 1 1.75 285.08 L1.75 285.08 A2.51482 2.51482 -180 0 0 1.75 288.24 L1.8 288.3 A2.98053 2.98053 0 0 1 1.8
							 292.04 L1.69 292.17 A2.6848 2.6848 -180 0 0 1.75 295.61 L3.21 297.31" class="st1"/>
			</g>
			<g id="shape39-23" transform="translate(279.833,12.2906) rotate(63.5108)">
				<title>工作表.39</title>
				<path d="M0 297.31 L112.22 297.31" class="st2"/>
			</g>
			<g id="shape40-26" transform="translate(-70.9325,-17.4414) rotate(-26.2)">
				<title>工作表.40</title>
				<path d="M3.21 183.92 L1.7 185.7 A2.40296 2.40296 -180 0 0 1.7 188.81 L1.7 188.81 A2.40296 2.40296 0 0 1 1.7 191.92
							 L1.56 192.09 A2.66042 2.66042 -180 0 0 1.56 195.54 L1.56 195.54 A2.66042 2.66042 0 0 1 1.56 198.98 L1.56
							 198.98 A2.66042 2.66042 -180 0 0 1.56 202.43 L1.89 202.82 A2.23132 2.23132 0 0 1 1.89 205.71 L1.89 205.71
							 A2.23132 2.23132 -180 0 0 1.89 208.6 L1.89 208.6 A2.55704 2.55704 0 0 1 1.99 211.79 L1.6 212.3 A2.55704
							 2.55704 -180 0 0 1.7 215.49 L1.7 215.49 A2.40296 2.40296 0 0 1 1.7 218.6 L1.51 218.83 A2.5746 2.5746
							 -180 0 0 1.51 222.16 L1.65 222.33 A2.31714 2.31714 0 0 1 1.65 225.33 L1.65 225.33 A2.31714 2.31714 -180
							 0 0 1.65 228.33 L1.7 228.39 A2.74624 2.74624 0 0 1 1.7 231.94 L1.56 232.11 A2.48878 2.48878 -180 0 0
							 1.56 235.33 L1.56 235.33 A2.48878 2.48878 0 0 1 1.56 238.56 L1.56 238.56 A2.66042 2.66042 -180 0 0 1.56
							 242 L1.65 242.11 A2.66042 2.66042 0 0 1 1.65 245.56 L1.51 245.73 A2.40296 2.40296 -180 0 0 1.51 248.84
							 L1.51 248.84 A2.40296 2.40296 0 0 1 1.51 251.95 L1.51 251.95 A2.5746 2.5746 -180 0 0 1.51 255.29 L1.65
							 255.45 A2.66042 2.66042 0 0 1 1.65 258.9 L1.65 258.9 A2.66042 2.66042 -180 0 0 1.65 262.35 L1.75 262.46
							 A2.48878 2.48878 0 0 1 1.75 265.68 L1.75 265.68 A2.48878 2.48878 -180 0 0 1.75 268.9 L1.75 268.9 A2.66042
							 2.66042 0 0 1 1.75 272.35 L1.61 272.52 A2.40296 2.40296 -180 0 0 1.61 275.63 L1.61 275.63 A2.40296 2.40296
							 0 0 1 1.61 278.74 L1.51 278.85 A2.74624 2.74624 -180 0 0 1.51 282.41 L1.75 282.69 A2.31714 2.31714 0
							 0 1 1.75 285.69 L1.75 285.69 A2.31714 2.31714 -180 0 0 1.75 288.69 L1.8 288.75 A2.74624 2.74624 0 0
							 1 1.8 292.3 L1.69 292.42 A2.47797 2.47797 -180 0 0 1.75 295.69 L3.21 297.31" class="st1"/>
			</g>
			<g id="shape38-29" transform="translate(276.229,15.947) rotate(63.4596)">
				<title>工作表.38</title>
				<path d="M0 297.31 L119.79 297.31" class="st1"/>
			</g>
			<g id="shape34-32" transform="translate(386.012,276.357) rotate(115.395)">
				<title>工作表.34</title>
				<path d="M0 297.31 L118.56 297.31" class="st2"/>
			</g>
			<g id="shape36-35" transform="translate(361.223,149.922) rotate(90.0738)">
				<title>工作表.36</title>
				<path d="M0 297.31 L106.42 297.31" class="st1"/>
			</g>
			<g id="shape33-38" transform="translate(439.846,281.895) rotate(116.54)">
				<title>工作表.33</title>
				<path d="M0 297.31 L119.5 297.31" class="st2"/>
			</g>
			<g id="shape32-41" transform="translate(474.463,45.5266) rotate(90.4407)">
				<title>工作表.32</title>
				<path d="M0 297.31 L92.13 297.31" class="st2"/>
			</g>
			<g id="shape24-44" transform="translate(240.945,-154.854)">
				<title>工作表.24</title>
				<path d="M0 297.31 L49.61 297.31" class="st3"/>
			</g>
			<g id="shape1-47" transform="translate(53.8583,-255.24)">
				<title>工作表.1</title>
				<desc>初念</desc>
				<rect x="0" y="255.96" width="19.8425" height="41.3465" class="st4"/>
				<text x="9.92" y="260.63" writing-mode="tb-rl" class="st5">初念</text>			</g>
			<g id="shape2-50" transform="translate(110.551,-255.24)">
				<title>工作表.2</title>
				<desc>次念</desc>
				<rect x="0" y="255.96" width="19.8425" height="41.3465" class="st4"/>
				<text x="9.92" y="260.63" writing-mode="tb-rl" class="st5">次念</text>			</g>
			<g id="shape3-53" transform="translate(167.244,-255.24)">
				<title>工作表.3</title>
				<desc>後念</desc>
				<rect x="0" y="255.96" width="19.8425" height="41.3465" class="st4"/>
				<text x="9.92" y="260.63" writing-mode="tb-rl" class="st5">後念</text>			</g>
			<g id="shape4-56" transform="translate(330.7,253.467) rotate(135)">
				<title>工作表.4</title>
				<path d="M0 297.31 L40.09 297.31" class="st1"/>
			</g>
			<g id="shape5-59" transform="translate(-118.102,281.814) rotate(-135)">
				<title>工作表.5</title>
				<path d="M0 297.31 L40.09 297.31" class="st1"/>
			</g>
			<g id="shape6-62" transform="translate(387.393,253.467) rotate(135)">
				<title>工作表.6</title>
				<path d="M0 297.31 L40.09 297.31" class="st1"/>
			</g>
			<g id="shape7-65" transform="translate(274.007,253.467) rotate(135)">
				<title>工作表.7</title>
				<path d="M0 297.31 L40.09 297.31" class="st1"/>
			</g>
			<g id="shape8-68" transform="translate(-61.4086,281.814) rotate(-135)">
				<title>工作表.8</title>
				<path d="M0 297.31 L40.09 297.31" class="st1"/>
			</g>
			<g id="shape9-71" transform="translate(-4.71571,281.814) rotate(-135)">
				<title>工作表.9</title>
				<path d="M0 297.31 L40.09 297.31" class="st1"/>
			</g>
			<g id="shape10-74" transform="translate(290.551,-244.146)">
				<title>工作表.10</title>
				<desc>剎那生滅</desc>
				<rect x="0" y="277.464" width="72.4567" height="19.8425" class="st4"/>
				<text x="4.23" y="292.37" class="st5">剎那生滅</text>			</g>
			<g id="shape11-77" transform="translate(63.7795,-254.067)">
				<title>工作表.11</title>
				<path d="M0 297.31 L226.77 297.31" class="st3"/>
			</g>
			<g id="shape12-80" transform="translate(290.551,-215.799)">
				<title>工作表.12</title>
				<desc>假名相續</desc>
				<rect x="0" y="277.464" width="72.4567" height="19.8425" class="st4"/>
				<text x="4.23" y="292.37" class="st5">假名相續</text>			</g>
			<g id="shape13-83" transform="translate(35.4331,-225.72)">
				<title>工作表.13</title>
				<path d="M0 297.31 L255.12 297.31" class="st3"/>
			</g>
			<g id="shape14-86" transform="translate(361.417,-254.067)">
				<title>工作表.14</title>
				<path d="M0 297.31 L7.09 297.31" class="st1"/>
			</g>
			<g id="shape15-89" transform="translate(361.417,-225.72)">
				<title>工作表.15</title>
				<path d="M0 297.31 L7.09 297.31" class="st1"/>
			</g>
			<g id="shape16-92" transform="translate(665.811,43.2397) rotate(90)">
				<title>工作表.16</title>
				<path d="M0 297.31 L28.35 297.31" class="st1"/>
			</g>
			<g id="shape17-95" transform="translate(368.504,-239.894)">
				<title>工作表.17</title>
				<path d="M0 297.31 L7.09 297.31" class="st1"/>
			</g>
			<g id="shape18-98" transform="translate(375.591,-229.972)">
				<title>工作表.18</title>
				<desc>作用現象界</desc>
				<rect x="0" y="277.464" width="121.89" height="19.8425" class="st4"/>
				<text x="4.95" y="292.37" class="st5">作用（現象界）</text>			</g>
			<g id="shape25-101" transform="translate(290.551,-144.933)">
				<title>工作表.25</title>
				<desc>法住法性</desc>
				<rect x="0" y="277.464" width="72.4567" height="19.8425" class="st4"/>
				<text x="4.23" y="292.37" class="st5">法住法性</text>			</g>
			<g id="shape26-104" transform="translate(290.551,-31.4252)">
				<title>工作表.26</title>
				<desc>性類差別</desc>
				<rect x="0" y="277.464" width="72.4567" height="19.8425" class="st4"/>
				<text x="4.23" y="292.37" class="st5">性類差別</text>			</g>
			<g id="shape27-107" transform="translate(53.8583,5.68434E-14)">
				<title>工作表.27</title>
				<desc>過去</desc>
				<rect x="0" y="255.96" width="19.8425" height="41.3465" class="st4"/>
				<text x="9.92" y="260.63" writing-mode="tb-rl" class="st5">過去</text>			</g>
			<g id="shape28-110" transform="translate(110.551,5.68434E-14)">
				<title>工作表.28</title>
				<desc>現在</desc>
				<rect x="0" y="255.96" width="19.8425" height="41.3465" class="st4"/>
				<text x="9.92" y="260.63" writing-mode="tb-rl" class="st5">現在</text>			</g>
			<g id="shape29-113" transform="translate(167.244,5.68434E-14)">
				<title>工作表.29</title>
				<desc>未來</desc>
				<rect x="0" y="255.96" width="19.8425" height="41.3465" class="st4"/>
				<text x="9.92" y="260.63" writing-mode="tb-rl" class="st5">未來</text>			</g>
			<g id="shape30-116" transform="translate(63.7795,-41.3465)">
				<title>工作表.30</title>
				<path d="M0 297.31 L226.77 297.31" class="st3"/>
			</g>
			<g id="shape35-119" transform="translate(60.5669,-162.149)">
				<title>工作表.35</title>
				<path d="M3.21 205.39 L1.7 206.83 A1.74341 1.74341 -180 0 0 1.7 209.35 L1.7 209.35 A1.74341 1.74341 0 0 1 1.7 211.88
							 L1.56 212.01 A1.93021 1.93021 -180 0 0 1.56 214.81 L1.56 214.81 A1.93021 1.93021 0 0 1 1.56 217.6 L1.56
							 217.6 A1.93021 1.93021 -180 0 0 1.56 220.39 L1.89 220.71 A1.61888 1.61888 0 0 1 1.89 223.05 L1.89 223.05
							 A1.61888 1.61888 -180 0 0 1.89 225.39 L1.89 225.39 A1.85595 1.85595 0 0 1 1.97 228 L1.62 228.38 A1.85595
							 1.85595 -180 0 0 1.7 230.98 L1.7 230.98 A1.74341 1.74341 0 0 1 1.7 233.5 L1.51 233.68 A1.86794 1.86794
							 -180 0 0 1.51 236.39 L1.65 236.52 A1.68115 1.68115 0 0 1 1.65 238.96 L1.65 238.96 A1.68115 1.68115 -180
							 0 0 1.65 241.39 L1.7 241.43 A1.99247 1.99247 0 0 1 1.7 244.32 L1.56 244.45 A1.80568 1.80568 -180 0 0
							 1.56 247.07 L1.56 247.07 A1.80568 1.80568 0 0 1 1.56 249.68 L1.56 249.68 A1.93021 1.93021 -180 0 0 1.56
							 252.47 L1.65 252.56 A1.93021 1.93021 0 0 1 1.65 255.36 L1.51 255.49 A1.74341 1.74341 -180 0 0 1.51 258.02
							 L1.51 258.02 A1.74341 1.74341 0 0 1 1.51 260.54 L1.51 260.54 A1.86794 1.86794 -180 0 0 1.51 263.24 L1.65
							 263.38 A1.93021 1.93021 0 0 1 1.65 266.17 L1.65 266.17 A1.93021 1.93021 -180 0 0 1.65 268.97 L1.75 269.06
							 A1.80568 1.80568 0 0 1 1.75 271.67 L1.75 271.67 A1.80568 1.80568 -180 0 0 1.75 274.28 L1.75 274.28 A1.93021
							 1.93021 0 0 1 1.75 277.08 L1.61 277.21 A1.74341 1.74341 -180 0 0 1.61 279.73 L1.61 279.73 A1.74341 1.74341
							 0 0 1 1.61 282.26 L1.51 282.35 A1.99247 1.99247 -180 0 0 1.51 285.23 L1.75 285.46 A1.68115 1.68115 0
							 0 1 1.75 287.89 L1.75 287.89 A1.68115 1.68115 -180 0 0 1.75 290.32 L1.8 290.37 A1.99247 1.99247 0 0
							 1 1.8 293.25 L1.7 293.34 A1.81061 1.81061 -180 0 0 1.75 296 L3.21 297.31" class="st1"/>
			</g>
			<g id="shape19-122" transform="translate(56.8301,-147.768)">
				<title>圓形</title>
				<path d="M0 290.22 A7.08661 7.08661 0 1 1 14.17 290.22 A7.08661 7.08661 0 1 1 -0 290.22 Z" class="st6"/>
			</g>
			<g id="shape20-124" transform="translate(-1.19904E-14,-147.768)">
				<title>圓形.20</title>
				<path d="M0 290.22 A7.08661 7.08661 0 1 1 14.17 290.22 A7.08661 7.08661 0 1 1 -0 290.22 Z" class="st6"/>
			</g>
			<g id="shape21-126" transform="translate(113.386,-147.768)">
				<title>圓形.21</title>
				<path d="M0 290.22 A7.08661 7.08661 0 1 1 14.17 290.22 A7.08661 7.08661 0 1 1 -0 290.22 Z" class="st6"/>
			</g>
			<g id="shape22-128" transform="translate(169.37,-147.768)">
				<title>圓形.22</title>
				<path d="M0 290.22 A7.08661 7.08661 0 1 1 14.17 290.22 A7.08661 7.08661 0 1 1 -0 290.22 Z" class="st6"/>
			</g>
			<g id="shape23-130" transform="translate(226.772,-147.768)">
				<title>圓形.23</title>
				<path d="M0 290.22 A7.08661 7.08661 0 1 1 14.17 290.22 A7.08661 7.08661 0 1 1 -0 290.22 Z" class="st6"/>
			</g>
			<g id="shape37-132" transform="translate(363.789,148.561) rotate(89.9442)">
				<title>工作表.37</title>
				<path d="M0 297.31 L107.11 297.31" class="st2"/>
			</g>
			<g id="shape48-135" transform="translate(361.417,-154.854)">
				<title>工作表.48</title>
				<path d="M0 297.31 L7.09 297.31" class="st1"/>
			</g>
			<g id="shape49-138" transform="translate(361.417,-41.3465)">
				<title>工作表.49</title>
				<path d="M0 297.31 L7.09 297.31" class="st1"/>
			</g>
			<g id="shape50-141" transform="translate(665.811,142.452) rotate(90)">
				<title>工作表.50</title>
				<path d="M0 297.31 L113.51 297.31" class="st1"/>
			</g>
			<g id="shape51-144" transform="translate(368.504,-98.1614)">
				<title>工作表.51</title>
				<path d="M0 297.31 L7.09 297.31" class="st1"/>
			</g>
			<g id="shape52-147" transform="translate(375.591,-88.2402)">
				<title>工作表.52</title>
				<desc>法體本體界</desc>
				<rect x="0" y="277.464" width="121.89" height="19.8425" class="st4"/>
				<text x="4.95" y="292.37" class="st5">法體（本體界）</text>			</g>
			<g id="shape53-150" transform="translate(14.1732,-154.854)">
				<title>工作表.53</title>
				<path d="M0 297.31 L42.66 297.31" class="st3"/>
			</g>
			<g id="shape54-153" transform="translate(71.0033,-154.854)">
				<title>工作表.54</title>
				<path d="M0 297.31 L42.38 297.31" class="st3"/>
			</g>
			<g id="shape55-156" transform="translate(127.559,-154.854)">
				<title>工作表.55</title>
				<path d="M0 297.31 L41.81 297.31" class="st3"/>
			</g>
			<g id="shape59-159" transform="translate(183.543,-154.854)">
				<title>工作表.59</title>
				<path d="M0 297.31 L43.23 297.31" class="st3"/>
			</g>
			<g id="shape60-162" transform="translate(417.779,149.921) rotate(90.0737)">
				<title>工作表.60</title>
				<path d="M0 297.31 L106.63 297.31" class="st1"/>
			</g>
			<g id="shape61-165" transform="translate(417.916,43.351) rotate(90.085)">
				<title>工作表.61</title>
				<path d="M0 297.31 L92.46 297.31" class="st1"/>
			</g>
		</g>
	</g>
</svg>
