<?xml version="1.0" encoding="UTF-8" standalone="no"?>
<!DOCTYPE svg PUBLIC "-//W3C//DTD SVG 1.1//EN" "http://www.w3.org/Graphics/SVG/1.1/DTD/svg11.dtd">
<!-- 由 Microsoft Visio, SVG Export 產生 y11.0131.svg 頁-1 -->
<svg xmlns="http://www.w3.org/2000/svg" xmlns:xlink="http://www.w3.org/1999/xlink" xmlns:ev="http://www.w3.org/2001/xml-events"
		width="4.80076in" height="4.16023in" viewBox="0 0 345.654 299.537" xml:space="preserve" color-interpolation-filters="sRGB"
		class="st5">
	

	<style type="text/css">
	<![CDATA[
		.st1 {fill:none;stroke:none;stroke-linecap:round;stroke-linejoin:round;stroke-width:0.72}
		.st2 {fill:#000000;font-family:新細明體;font-size:12pt}
		.st3 {stroke:#000000;stroke-linecap:round;stroke-linejoin:round;stroke-width:0.72}
		.st4 {stroke:#000000;stroke-dasharray:5.04,3.6;stroke-linecap:round;stroke-linejoin:round;stroke-width:0.72}
		.st5 {fill:none;fill-rule:evenodd;font-size:12px;overflow:visible;stroke-linecap:square;stroke-miterlimit:3}
	]]>
	</style>

	<g>
		<title>頁-1</title>
		<g id="group39-1" transform="translate(18.6457,-32.2952)">
			<title>工作表.39</title>
			<g id="group12-2" transform="translate(103.162,-139.322)">
				<title>工作表.12</title>
				<g id="shape3-3" transform="translate(37.2913,-53.8583)">
					<title>工作表.3</title>
					<desc>真妄二諦</desc>
					<rect x="0" y="225.836" width="25.5118" height="73.7008" class="st1"/>
					<text x="12.76" y="230.69" writing-mode="tb-rl" class="st2">真妄二諦</text>				</g>
				<g id="shape6-6" transform="translate(65.6378,-0.464567)">
					<title>工作表.6</title>
					<desc>妄　</desc>
					<rect x="0" y="257.481" width="25.5118" height="42.0551" class="st1"/>
					<text x="12.76" y="262.51" writing-mode="tb-rl" class="st2">妄</text>				</g>
				<g id="shape7-9" transform="translate(8.94488,1.13687E-13)">
					<title>工作表.7</title>
					<desc>真　</desc>
					<rect x="0" y="257.481" width="25.5118" height="42.0551" class="st1"/>
					<text x="12.76" y="262.51" writing-mode="tb-rl" class="st2">真</text>				</g>
				<g id="shape8-12" transform="translate(349.584,242.844) rotate(90)">
					<title>工作表.8</title>
					<path d="M0 299.54 L8.5 299.54" class="st3"/>
				</g>
				<g id="shape9-15" transform="translate(321.237,251.348) rotate(90)">
					<title>工作表.9</title>
					<path d="M0 299.54 L8.22 299.54" class="st3"/>
				</g>
				<g id="shape10-18" transform="translate(377.93,251.348) rotate(90)">
					<title>工作表.10</title>
					<path d="M0 299.54 L8.22 299.54" class="st3"/>
				</g>
				<g id="shape11-21" transform="translate(21.7008,-48.189)">
					<title>工作表.11</title>
					<path d="M0 299.54 L56.69 299.54" class="st3"/>
				</g>
			</g>
			<g id="group13-24" transform="translate(475.946,331.136) rotate(120)">
				<title>工作表.13</title>
				<g id="shape14-25" transform="translate(37.2913,-53.8583)">
					<title>工作表.14</title>
					<desc>實假二諦</desc>
					<rect x="0" y="225.836" width="25.5118" height="73.7008" class="st1"/>
					<text x="12.76" y="230.69" writing-mode="tb-rl" class="st2">實假二諦</text>				</g>
				<g id="shape15-28" transform="translate(65.6378,-0.464567)">
					<title>工作表.15</title>
					<desc>假　</desc>
					<rect x="0" y="257.481" width="25.5118" height="42.0551" class="st1"/>
					<text x="12.76" y="262.51" writing-mode="tb-rl" class="st2">假</text>				</g>
				<g id="shape16-31" transform="translate(8.94488,0)">
					<title>工作表.16</title>
					<desc>實　</desc>
					<rect x="0" y="257.481" width="25.5118" height="42.0551" class="st1"/>
					<text x="12.76" y="262.51" writing-mode="tb-rl" class="st2">實</text>				</g>
				<g id="shape17-34" transform="translate(349.584,242.844) rotate(90)">
					<title>工作表.17</title>
					<path d="M0 299.54 L8.5 299.54" class="st3"/>
				</g>
				<g id="shape18-37" transform="translate(321.237,251.348) rotate(90)">
					<title>工作表.18</title>
					<path d="M0 299.54 L8.22 299.54" class="st3"/>
				</g>
				<g id="shape19-40" transform="translate(377.93,251.348) rotate(90)">
					<title>工作表.19</title>
					<path d="M0 299.54 L8.22 299.54" class="st3"/>
				</g>
				<g id="shape20-43" transform="translate(21.7008,-48.189)">
					<title>工作表.20</title>
					<path d="M0 299.54 L56.69 299.54" class="st3"/>
				</g>
			</g>
			<g id="group21-46" transform="translate(-117.535,417.704) rotate(-120)">
				<title>工作表.21</title>
				<g id="shape22-47" transform="translate(37.2913,-53.8583)">
					<title>工作表.22</title>
					<desc>理事二諦</desc>
					<rect x="0" y="225.836" width="25.5118" height="73.7008" class="st1"/>
					<text x="12.76" y="230.69" writing-mode="tb-rl" class="st2">理事二諦</text>				</g>
				<g id="shape23-50" transform="translate(65.6378,-0.464567)">
					<title>工作表.23</title>
					<desc>理　</desc>
					<rect x="0" y="257.481" width="25.5118" height="42.0551" class="st1"/>
					<text x="12.76" y="262.51" writing-mode="tb-rl" class="st2">理</text>				</g>
				<g id="shape24-53" transform="translate(8.94488,5.68434E-14)">
					<title>工作表.24</title>
					<desc>事　</desc>
					<rect x="0" y="257.481" width="25.5118" height="42.0551" class="st1"/>
					<text x="12.76" y="262.51" writing-mode="tb-rl" class="st2">事</text>				</g>
				<g id="shape25-56" transform="translate(349.584,242.844) rotate(90)">
					<title>工作表.25</title>
					<path d="M0 299.54 L8.5 299.54" class="st3"/>
				</g>
				<g id="shape26-59" transform="translate(321.237,251.348) rotate(90)">
					<title>工作表.26</title>
					<path d="M0 299.54 L8.22 299.54" class="st3"/>
				</g>
				<g id="shape27-62" transform="translate(377.93,251.348) rotate(90)">
					<title>工作表.27</title>
					<path d="M0 299.54 L8.22 299.54" class="st3"/>
				</g>
				<g id="shape28-65" transform="translate(21.7008,-48.189)">
					<title>工作表.28</title>
					<path d="M0 299.54 L56.69 299.54" class="st3"/>
				</g>
			</g>
			<g id="shape1-68" transform="translate(439.121,-9.70706) rotate(59.3028)">
				<title>工作表.1</title>
				<path d="M0 299.54 L76.13 299.54" class="st3"/>
			</g>
			<g id="shape2-71" transform="translate(479.838,115.825) rotate(84.7552)">
				<title>工作表.2</title>
				<path d="M0 299.54 L115.04 299.54" class="st3"/>
			</g>
			<g id="shape4-74" transform="translate(441.754,291.596) rotate(119.696)">
				<title>工作表.4</title>
				<path d="M0 299.54 L131.74 299.54" class="st3"/>
			</g>
			<g id="shape5-77" transform="translate(353.003,388.824) rotate(145.084)">
				<title>工作表.5</title>
				<path d="M0 299.54 L114.16 299.54" class="st4"/>
			</g>
			<g id="shape32-80" transform="translate(294.146,-103.908) rotate(34.4126)">
				<title>工作表.32</title>
				<path d="M0 299.54 L115.83 299.54" class="st3"/>
			</g>
			<g id="shape33-83" transform="translate(383.219,-8.36729) rotate(59.6004)">
				<title>工作表.33</title>
				<path d="M0 299.54 L132.82 299.54" class="st4"/>
			</g>
			<g id="shape34-86" transform="translate(423.563,165.58) rotate(94.2836)">
				<title>工作表.34</title>
				<path d="M0 299.54 L114.76 299.54" class="st3"/>
			</g>
			<g id="shape35-89" transform="translate(385.653,290.551) rotate(119.466)">
				<title>工作表.35</title>
				<path d="M0 299.54 L75.05 299.54" class="st3"/>
			</g>
			<g id="shape36-92" transform="translate(220.156,508.202) rotate(-179.95)">
				<title>工作表.36</title>
				<path d="M0 299.54 L132.47 299.54" class="st3"/>
			</g>
			<g id="shape37-95" transform="translate(347.918,479.711) rotate(154.808)">
				<title>工作表.37</title>
				<path d="M0 299.54 L115.07 299.54" class="st3"/>
			</g>
			<g id="shape38-98" transform="translate(191.613,557.299) rotate(-179.912)">
				<title>工作表.38</title>
				<path d="M0 299.54 L75.78 299.54" class="st3"/>
			</g>
		</g>
	</g>
</svg>
