<?xml version="1.0" encoding="UTF-8" standalone="no"?>
<!DOCTYPE svg PUBLIC "-//W3C//DTD SVG 1.1//EN" "http://www.w3.org/Graphics/SVG/1.1/DTD/svg11.dtd">
<!-- 由 Microsoft Visio, SVG Export 產生 y13.0296.svg 頁-1 -->
<svg xmlns="http://www.w3.org/2000/svg" xmlns:xlink="http://www.w3.org/1999/xlink" xmlns:ev="http://www.w3.org/2001/xml-events"
		width="5.54898in" height="1.6911in" viewBox="0 0 398.807 105.759" xml:space="preserve" color-interpolation-filters="sRGB"
		class="st5">

	<style type="text/css">
	<![CDATA[
		.st1 {fill:none;stroke:none;stroke-linecap:round;stroke-linejoin:round;stroke-width:0.72}
		.st2 {fill:#000000;font-family:新細明體;font-size:12pt}
		.st3 {font-family:細明體;font-size:1em}
		.st4 {stroke:#000000;stroke-linecap:round;stroke-linejoin:round;stroke-width:0.72}
		.st5 {fill:none;fill-rule:evenodd;font-size:12px;overflow:visible;stroke-linecap:square;stroke-miterlimit:3}
	]]>
	</style>

	<g>
		<title>頁-1</title>
		<g id="group68-1" transform="translate(0.36,-0.36)">
			<title>工作表.68</title>
			<g id="shape17-50" transform="translate(39.063,-85.0394)">
				<title>工作表.17</title>
				<desc>信果──研究教理及諸行共果</desc>
				<rect x="0" y="85.917" width="218.268" height="19.8425" class="st1"/>
				<text x="5.13" y="100.64" class="st2">信果──研究教理及諸行共果</text>			</g>
			<g id="shape18-53" transform="translate(39.063,-56.6929)">
				<title>工作表.18</title>
				<desc>德果──受持戒律及諸行共果</desc>
				<rect x="0" y="85.917" width="218.268" height="19.8425" class="st1"/>
				<text x="5.13" y="100.64" class="st2">德果──受持戒律及諸行共果</text>			</g>
			<g id="shape19-56" transform="translate(39.063,-28.3465)">
				<title>工作表.19</title>
				<desc>定果──修習禪觀及諸行共果</desc>
				<rect x="0" y="85.917" width="218.268" height="19.8425" class="st1"/>
				<text x="5.13" y="100.64" class="st2">定果──修習禪觀及諸行共果</text>			</g>
			<g id="shape20-59" transform="translate(39.063,0)">
				<title>工作表.20</title>
				<desc>慧果──修勝禪觀及諸行共果</desc>
				<rect x="0" y="85.917" width="218.268" height="19.8425" class="st1"/>
				<text x="5.13" y="100.64" class="st2">慧果──修勝禪觀及諸行共果</text>			</g>
			<g id="shape21-62" transform="translate(310.039,0)">
				<title>工作表.21</title>
				<desc>聖眾……佛</desc>
				<rect x="0" y="85.917" width="88.0472" height="19.8425" class="st1"/>
				<text x="4.02" y="100.64" class="st2">聖眾<tspan class="st3">……</tspan><tspan class="st3">佛</tspan></text>			</g>
			<g id="shape22-67" transform="translate(310.039,-28.3465)">
				<title>工作表.22</title>
				<desc>賢眾　　　</desc>
				<rect x="0" y="85.917" width="88.0472" height="19.8425" class="st1"/>
				<text x="4.02" y="100.64" class="st2">賢眾</text>			</g>
			<g id="shape23-70" transform="translate(310.039,-56.6929)">
				<title>工作表.23</title>
				<desc>僧眾　　　</desc>
				<rect x="0" y="85.917" width="88.0472" height="19.8425" class="st1"/>
				<text x="4.02" y="100.64" class="st2">僧眾</text>			</g>
			<g id="shape24-73" transform="translate(310.039,-85.0394)">
				<title>工作表.24</title>
				<desc>信眾　　　</desc>
				<rect x="0" y="85.917" width="88.0472" height="19.8425" class="st1"/>
				<text x="4.02" y="100.64" class="st2">信眾</text>			</g>
			<g id="shape25-76" transform="translate(252.602,-434.9606)">
				<title>工作表.25</title>
				<path d="M0 445.76 L56.69 445.76" class="st4"/>
			</g>
			<g id="shape26-79" transform="translate(252.602,-406.6142)">
				<title>工作表.26</title>
				<path d="M0 445.76 L56.69 445.76" class="st4"/>
			</g>
			<g id="shape27-82" transform="translate(252.602,-378.2677)">
				<title>工作表.27</title>
				<path d="M0 445.76 L56.69 445.76" class="st4"/>
			</g>
			<g id="shape28-85" transform="translate(252.602,-349.92126)">
				<title>工作表.28</title>
				<path d="M0 445.76 L56.69 445.76" class="st4"/>
			</g>
			<g id="shape29-88" transform="translate(451.952,-387.9006) rotate(26.5651)">
				<title>工作表.29</title>
				<path d="M0 445.76 L63.38 445.76" class="st4"/>
			</g>
			<g id="shape30-91" transform="translate(567.802,-304.4007) rotate(45)">
				<title>工作表.30</title>
				<path d="M0 445.76 L80.18 445.76" class="st4"/>
			</g>
			<g id="shape31-94" transform="translate(53.2527,-331.02765) rotate(-26.5651)">
				<title>工作表.31</title>
				<path d="M0 445.76 L63.38 445.76" class="st4"/>
			</g>
			<g id="shape32-97" transform="translate(451.952,-359.5541) rotate(26.5651)">
				<title>工作表.32</title>
				<path d="M0 445.76 L63.38 445.76" class="st4"/>
			</g>
			<g id="shape33-100" transform="translate(567.802,-276.0543) rotate(45)">
				<title>工作表.33</title>
				<path d="M0 445.76 L80.18 445.76" class="st4"/>
			</g>
			<g id="shape34-103" transform="translate(451.952,-331.20765) rotate(26.5651)">
				<title>工作表.34</title>
				<path d="M0 445.76 L63.38 445.76" class="st4"/>
			</g>
			<g id="shape51-139" transform="translate(0,-42.2087)">
				<title>工作表.51</title>
				<desc>果　</desc>
				<rect x="0" y="85.917" width="40.5669" height="19.8425" class="st1"/>
				<text x="4.28" y="100.82" class="st2">果</text>
			</g>
			<g id="shape52-142" transform="translate(25.8307,-52.1299)">
				<title>工作表.52</title>
				<path d="M0 105.76 L7.09 105.76" class="st4"/>
			</g>
			<g id="shape56-154" transform="translate(32.9173,-9.61024)">
				<title>工作表.56</title>
				<path d="M0 105.76 L7.09 105.76" class="st4"/>
			</g>
			<g id="shape57-157" transform="translate(32.9173,-94.6496)">
				<title>工作表.57</title>
				<path d="M0 105.76 L7.09 105.76" class="st4"/>
			</g>
			<g id="shape67-187" transform="translate(-72.842,96.149) rotate(-90)">
				<title>工作表.67</title>
				<path d="M0 105.76 L85.04 105.76" class="st4"/>
			</g>
		</g>
	</g>
</svg>
