<?xml version="1.0" encoding="UTF-8" standalone="no"?>
<!DOCTYPE svg PUBLIC "-//W3C//DTD SVG 1.1//EN" "http://www.w3.org/Graphics/SVG/1.1/DTD/svg11.dtd">
<!-- 由 Microsoft Visio, SVG Export 產生 y14.0066.svg 頁-1 -->
<svg xmlns="http://www.w3.org/2000/svg" xmlns:xlink="http://www.w3.org/1999/xlink" xmlns:ev="http://www.w3.org/2001/xml-events"
		width="6.50606in" height="2.64819in" viewBox="0 0 468.437 190.67" xml:space="preserve" color-interpolation-filters="sRGB"
		class="st5">
	

	<style type="text/css">
	<![CDATA[
		.st1 {fill:none;stroke:none;stroke-linecap:round;stroke-linejoin:round;stroke-width:0.72}
		.st2 {fill:#000000;font-family:新細明體;font-size:12pt}
		.st3 {font-family:Times New Roman;font-size:1em}
		.st4 {stroke:#000000;stroke-linecap:round;stroke-linejoin:round;stroke-width:0.72}
		.st5 {fill:none;fill-rule:evenodd;font-size:12px;overflow:visible;stroke-linecap:square;stroke-miterlimit:3}
	]]>
	</style>

	<g>
		<title>頁-1</title>
		<g id="group24-1" transform="translate(0.36,-0.36)">
			<title>工作表.24</title>
			<g id="shape1-2" transform="translate(1.20041,-170.107)">
				<title>工作表.1</title>
				<desc>布施</desc>
				<rect x="0" y="170.827" width="44.1102" height="19.8425" class="st1"/>
				<text x="6.06" y="185.73" class="st2">布施</text>			</g>
			<g id="shape2-5" transform="translate(1.15094,-141.761)">
				<title>工作表.2</title>
				<desc>持戒</desc>
				<rect x="0" y="170.827" width="44.1102" height="19.8425" class="st1"/>
				<text x="6.06" y="185.73" class="st2">持戒</text>			</g>
			<g id="shape3-8" transform="translate(1.10146,-113.414)">
				<title>工作表.3</title>
				<desc>禪定</desc>
				<rect x="0" y="170.827" width="44.1102" height="19.8425" class="st1"/>
				<text x="6.06" y="185.73" class="st2">禪定</text>			</g>
			<g id="shape4-11" transform="translate(1.05199,-85.0679)">
				<title>工作表.4</title>
				<desc>智慧</desc>
				<rect x="0" y="170.827" width="44.1102" height="19.8425" class="st1"/>
				<text x="6.06" y="185.73" class="st2">智慧</text>			</g>
			<g id="shape5-14" transform="translate(1.00252,-56.7215)">
				<title>工作表.5</title>
				<desc>忍辱</desc>
				<rect x="0" y="170.827" width="44.1102" height="19.8425" class="st1"/>
				<text x="6.06" y="185.73" class="st2">忍辱</text>			</g>
			<g id="shape6-17" transform="translate(0.953042,-28.3751)">
				<title>工作表.6</title>
				<desc>精進</desc>
				<rect x="0" y="170.827" width="44.1102" height="19.8425" class="st1"/>
				<text x="6.06" y="185.73" class="st2">精進</text>			</g>
			<g id="shape7-20">
				<title>工作表.7</title>
				<desc>慈悲方便</desc>
				<rect x="0" y="170.827" width="78.748" height="19.8425" class="st1"/>
				<text x="7.37" y="185.73" class="st2">慈悲方便</text>			</g>
			<g id="shape8-23" transform="translate(172.342,-169.729)">
				<title>工作表.8</title>
				<desc>人天法　(世間法)</desc>
				<rect x="0" y="170.827" width="135.528" height="19.8425" class="st1"/>
				<text x="6.44" y="185.73" class="st2">人天法　<tspan class="st3">(</tspan>世間法<tspan class="st3">)</tspan></text>			</g>
			<g id="shape9-28" transform="translate(172.243,-113.036)">
				<title>工作表.9</title>
				<desc>聲聞法　(出世法)</desc>
				<rect x="0" y="170.827" width="135.528" height="19.8425" class="st1"/>
				<text x="6.44" y="185.73" class="st2">聲聞法　<tspan class="st3">(</tspan>出世法<tspan class="st3">)</tspan></text>			</g>
			<g id="shape10-33" transform="translate(173.543,-56.2191)">
				<title>工作表.10</title>
				<desc>菩薩法　(入世而向出世出世而能入世)</desc>
				<rect x="0" y="170.827" width="294.173" height="19.8425" class="st1"/>
				<text x="5.76" y="185.73" class="st2">菩薩法　<tspan class="st3">(</tspan>入世而向出世，出世而能入世<tspan class="st3">)</tspan></text>			</g>
			<g id="shape11-38" transform="translate(45.7891,-179.989) rotate(0.1)">
				<title>工作表.11</title>
				<path d="M0 190.67 L127.56 190.67" class="st4"/>
			</g>
			<g id="shape12-41" transform="translate(45.5912,-66.6037) rotate(0.1)">
				<title>工作表.12</title>
				<path d="M0 190.67 L127.56 190.67" class="st4"/>
			</g>
			<g id="shape13-44" transform="translate(45.6901,-123.297) rotate(0.1)">
				<title>工作表.13</title>
				<path d="M0 190.67 L127.56 190.67" class="st4"/>
			</g>
			<g id="shape14-47" transform="translate(4.36967,-147.175) rotate(-12.4288)">
				<title>工作表.14</title>
				<path d="M0 190.67 L130.67 190.67" class="st4"/>
			</g>
			<g id="shape15-50" transform="translate(-31.7767,-106.998) rotate(-23.8625)">
				<title>工作表.15</title>
				<path d="M0 190.67 L139.59 190.67" class="st4"/>
			</g>
			<g id="shape16-53" transform="translate(87.0937,-147.03) rotate(12.6288)">
				<title>工作表.16</title>
				<path d="M0 190.67 L130.67 190.67" class="st4"/>
			</g>
			<g id="shape17-56" transform="translate(4.27073,-90.4819) rotate(-12.4288)">
				<title>工作表.17</title>
				<path d="M0 190.67 L130.67 190.67" class="st4"/>
			</g>
			<g id="shape18-59" transform="translate(172.379,-131.607) rotate(41.7335)">
				<title>工作表.18</title>
				<path d="M0 190.67 L170.67 190.67" class="st4"/>
			</g>
			<g id="shape19-62" transform="translate(151.448,-119.435) rotate(33.7901)">
				<title>工作表.19</title>
				<path d="M0 190.67 L153.31 190.67" class="st4"/>
			</g>
			<g id="shape20-65" transform="translate(123.1,-106.728) rotate(24.0625)">
				<title>工作表.20</title>
				<path d="M0 190.67 L139.59 190.67" class="st4"/>
			</g>
			<g id="shape21-68" transform="translate(86.9947,-90.3375) rotate(12.6288)">
				<title>工作表.21</title>
				<path d="M0 190.67 L130.67 190.67" class="st4"/>
			</g>
			<g id="shape22-71" transform="translate(4.17178,-33.7891) rotate(-12.4288)">
				<title>工作表.22</title>
				<path d="M0 190.67 L130.67 190.67" class="st4"/>
			</g>
			<g id="shape23-74" transform="translate(-20.8037,15.0955) rotate(-29.6449)">
				<title>工作表.23</title>
				<path d="M0 190.67 L114.27 190.67" class="st4"/>
			</g>
		</g>
	</g>
</svg>
