<?xml version="1.0" encoding="UTF-8" standalone="no"?>
<!DOCTYPE svg PUBLIC "-//W3C//DTD SVG 1.1//EN" "http://www.w3.org/Graphics/SVG/1.1/DTD/svg11.dtd">
<!-- 由 Microsoft Visio, SVG Export 產生 y14.0153.svg 頁-1 -->
<svg xmlns="http://www.w3.org/2000/svg" xmlns:xlink="http://www.w3.org/1999/xlink" xmlns:ev="http://www.w3.org/2001/xml-events"
		width="7.31556in" height="1.47282in" viewBox="0 0 526.72 106.043" xml:space="preserve" color-interpolation-filters="sRGB"
		class="st5">
	

	<style type="text/css">
	<![CDATA[
		.st1 {fill:none;stroke:none;stroke-linecap:round;stroke-linejoin:round;stroke-width:0.72}
		.st2 {fill:#000000;font-family:新細明體;font-size:12pt}
		.st3 {stroke:#000000;stroke-linecap:round;stroke-linejoin:round;stroke-width:0.72}
		.st4 {stroke:#000000;stroke-dasharray:5.04,3.6;stroke-linecap:round;stroke-linejoin:round;stroke-width:0.72}
		.st5 {fill:none;fill-rule:evenodd;font-size:12px;overflow:visible;stroke-linecap:square;stroke-miterlimit:3}
	]]>
	</style>

	<g>
		<title>頁-1</title>
		<g id="group32-1" transform="translate(0.36,-0.36)">
			<title>工作表.32</title>
			<g id="shape1-2" transform="translate(1.59872E-14,-42.5197)">
				<title>工作表.1</title>
				<desc>自心癡闇</desc>
				<rect x="0" y="86.2003" width="72.4567" height="19.8425" class="st1"/>
				<text x="4.23" y="101.1" class="st2">自心癡闇</text>			</g>
			<g id="shape2-5" transform="translate(453.543,-42.5197)">
				<title>工作表.2</title>
				<desc>人類顛倒</desc>
				<rect x="0" y="86.2003" width="72.4567" height="19.8425" class="st1"/>
				<text x="4.23" y="101.1" class="st2">人類顛倒</text>			</g>
			<g id="shape3-8" transform="translate(323.15,-85.0394)">
				<title>工作表.3</title>
				<desc>思想諍執</desc>
				<rect x="0" y="86.2003" width="72.4567" height="19.8425" class="st1"/>
				<text x="4.23" y="101.1" class="st2">思想諍執</text>			</g>
			<g id="shape4-11" transform="translate(323.15,-42.5197)">
				<title>工作表.4</title>
				<desc>法制諍執</desc>
				<rect x="0" y="86.2003" width="72.4567" height="19.8425" class="st1"/>
				<text x="4.23" y="101.1" class="st2">法制諍執</text>			</g>
			<g id="shape5-14" transform="translate(323.15,-8.3844E-13)">
				<title>工作表.5</title>
				<desc>經濟諍執</desc>
				<rect x="0" y="86.2003" width="72.4567" height="19.8425" class="st1"/>
				<text x="4.23" y="101.1" class="st2">經濟諍執</text>			</g>
			<g id="shape6-17" transform="translate(209.409,-85.4803)">
				<title>工作表.6</title>
				<desc>心境事</desc>
				<rect x="0" y="86.2003" width="57.5748" height="19.8425" class="st1"/>
				<text x="4.79" y="101.1" class="st2">心境事</text>			</g>
			<g id="shape7-20" transform="translate(209.409,-42.0787)">
				<title>工作表.7</title>
				<desc>自他事</desc>
				<rect x="0" y="86.2003" width="57.5748" height="19.8425" class="st1"/>
				<text x="4.79" y="101.1" class="st2">自他事</text>			</g>
			<g id="shape8-23" transform="translate(209.409,-5.25802E-13)">
				<title>工作表.8</title>
				<desc>我物事</desc>
				<rect x="0" y="86.2003" width="57.5748" height="19.8425" class="st1"/>
				<text x="4.79" y="101.1" class="st2">我物事</text>			</g>
			<g id="shape9-26" transform="translate(124.689,-85.0394)">
				<title>工作表.9</title>
				<desc>見　</desc>
				<rect x="0" y="86.2003" width="42.5197" height="19.8425" class="st1"/>
				<text x="5.26" y="101.1" class="st2">見</text>			</g>
			<g id="shape10-29" transform="translate(124.689,-42.5197)">
				<title>工作表.10</title>
				<desc>慢　</desc>
				<rect x="0" y="86.2003" width="42.5197" height="19.8425" class="st1"/>
				<text x="5.26" y="101.1" class="st2">慢</text>			</g>
			<g id="shape11-32" transform="translate(124.689,-1.42109E-14)">
				<title>工作表.11</title>
				<desc>愛　</desc>
				<rect x="0" y="86.2003" width="42.5197" height="19.8425" class="st1"/>
				<text x="5.26" y="101.1" class="st2">愛</text>			</g>
			<g id="shape12-35" transform="translate(71.6614,-52.4409)">
				<title>工作表.12</title>
				<path d="M0 106.04 L53.03 106.04" class="st3"/>
			</g>
			<g id="shape13-38" transform="translate(153.035,-9.92126)">
				<title>工作表.13</title>
				<path d="M0 106.04 L56.69 106.04" class="st3"/>
			</g>
			<g id="shape14-41" transform="translate(153.035,-52.4409)">
				<title>工作表.14</title>
				<path d="M0 106.04 L56.69 106.04" class="st3"/>
			</g>
			<g id="shape15-44" transform="translate(153.035,-94.9606)">
				<title>工作表.15</title>
				<path d="M0 106.04 L56.69 106.04" class="st3"/>
			</g>
			<g id="shape16-47" transform="translate(266.421,-52.4409)">
				<title>工作表.16</title>
				<path d="M0 106.04 L56.45 106.04" class="st3"/>
			</g>
			<g id="shape17-50" transform="translate(266.421,-9.92126)">
				<title>工作表.17</title>
				<path d="M0 106.04 L56.45 106.04" class="st3"/>
			</g>
			<g id="shape18-53" transform="translate(266.421,-94.9606)">
				<title>工作表.18</title>
				<path d="M0 106.04 L56.45 106.04" class="st3"/>
			</g>
			<g id="shape19-56" transform="translate(393.98,-52.4409)">
				<title>工作表.19</title>
				<path d="M0 106.04 L56.69 106.04" class="st3"/>
			</g>
			<g id="shape20-59" transform="translate(58.3517,178.853) rotate(-141.276)">
				<title>工作表.20</title>
				<path d="M0 106.04 L67.97 106.04" class="st3"/>
			</g>
			<g id="shape21-62" transform="translate(191.026,93.8134) rotate(141.276)">
				<title>工作表.21</title>
				<path d="M0 106.04 L67.97 106.04" class="st3"/>
			</g>
			<g id="shape22-65" transform="translate(89.4097,-31.2324) rotate(-36.8699)">
				<title>工作表.22</title>
				<path d="M0 106.04 L70.87 106.04" class="st4"/>
			</g>
			<g id="shape23-68" transform="translate(216.661,-73.7521) rotate(36.8699)">
				<title>工作表.23</title>
				<path d="M0 106.04 L70.87 106.04" class="st4"/>
			</g>
			<g id="shape24-71" transform="translate(89.4097,11.2873) rotate(-36.8699)">
				<title>工作表.24</title>
				<path d="M0 106.04 L70.87 106.04" class="st4"/>
			</g>
			<g id="shape25-74" transform="translate(216.661,-31.2324) rotate(36.8699)">
				<title>工作表.25</title>
				<path d="M0 106.04 L70.87 106.04" class="st4"/>
			</g>
			<g id="shape26-77" transform="translate(330.643,-73.4869) rotate(37.108)">
				<title>工作表.26</title>
				<path d="M0 106.04 L70.48 106.04" class="st4"/>
			</g>
			<g id="shape27-80" transform="translate(202.688,-30.9672) rotate(-37.108)">
				<title>工作表.27</title>
				<path d="M0 106.04 L70.48 106.04" class="st4"/>
			</g>
			<g id="shape28-83" transform="translate(202.688,11.5525) rotate(-37.108)">
				<title>工作表.28</title>
				<path d="M0 106.04 L70.48 106.04" class="st4"/>
			</g>
			<g id="shape29-86" transform="translate(330.643,-30.9672) rotate(37.108)">
				<title>工作表.29</title>
				<path d="M0 106.04 L70.48 106.04" class="st4"/>
			</g>
			<g id="shape30-89" transform="translate(330.355,11.2873) rotate(-36.8699)">
				<title>工作表.30</title>
				<path d="M0 106.04 L70.87 106.04" class="st3"/>
			</g>
			<g id="shape31-92" transform="translate(457.606,-73.7521) rotate(36.8699)">
				<title>工作表.31</title>
				<path d="M0 106.04 L70.87 106.04" class="st3"/>
			</g>
		</g>
	</g>
</svg>
