<?xml version="1.0" encoding="UTF-8" standalone="no"?>
<!DOCTYPE svg PUBLIC "-//W3C//DTD SVG 1.1//EN" "http://www.w3.org/Graphics/SVG/1.1/DTD/svg11.dtd">
<!-- 由 Microsoft Visio, SVG Export 產生 y14.0052.svg 頁-1 -->
<svg xmlns="http://www.w3.org/2000/svg" xmlns:xlink="http://www.w3.org/1999/xlink" xmlns:ev="http://www.w3.org/2001/xml-events"
		width="2.01787in" height="1.86039in" viewBox="0 0 145.287 133.948" xml:space="preserve" color-interpolation-filters="sRGB"
		class="st5">
	

	<style type="text/css">
	<![CDATA[
		.st1 {fill:none;stroke:none;stroke-linecap:round;stroke-linejoin:round;stroke-width:0.72}
		.st2 {fill:#000000;font-family:新細明體;font-size:12pt}
		.st3 {stroke:#000000;stroke-linecap:round;stroke-linejoin:round;stroke-width:0.72}
		.st4 {stroke:#000000;stroke-dasharray:5.04,3.6;stroke-linecap:round;stroke-linejoin:round;stroke-width:0.72}
		.st5 {fill:none;fill-rule:evenodd;font-size:12px;overflow:visible;stroke-linecap:square;stroke-miterlimit:3}
	]]>
	</style>

	<g>
		<title>頁-1</title>
		<g id="group12-1" transform="translate(0.36,-0.36)">
			<title>工作表.12</title>
			<g id="shape1-2" transform="translate(-1.59872E-14,-113.386)">
				<title>工作表.1</title>
				<desc>德行</desc>
				<rect x="0" y="114.106" width="45.3543" height="19.8425" class="st1"/>
				<text x="6.68" y="129.01" class="st2">德行</text>			</g>
			<g id="shape2-5" transform="translate(-1.59872E-14,-85.0394)">
				<title>工作表.2</title>
				<desc>苦行</desc>
				<rect x="0" y="114.106" width="45.3543" height="19.8425" class="st1"/>
				<text x="6.68" y="129.01" class="st2">苦行</text>			</g>
			<g id="shape3-8" transform="translate(1.79856E-13,-56.6929)">
				<title>工作表.3</title>
				<desc>隱遁</desc>
				<rect x="0" y="114.106" width="45.3543" height="19.8425" class="st1"/>
				<text x="6.68" y="129.01" class="st2">隱遁</text>			</g>
			<g id="shape4-11" transform="translate(3.67706E-13,-28.3465)">
				<title>工作表.4</title>
				<desc>瑜伽</desc>
				<rect x="0" y="114.106" width="45.3543" height="19.8425" class="st1"/>
				<text x="6.68" y="129.01" class="st2">瑜伽</text>			</g>
			<g id="shape5-14" transform="translate(99.2126,-113.386)">
				<title>工作表.5</title>
				<desc>戒　</desc>
				<rect x="0" y="114.106" width="45.3543" height="19.8425" class="st1"/>
				<text x="6.68" y="129.01" class="st2">戒</text>			</g>
			<g id="shape6-17" transform="translate(99.2126,-28.3465)">
				<title>工作表.6</title>
				<desc>定　</desc>
				<rect x="0" y="114.106" width="45.3543" height="19.8425" class="st1"/>
				<text x="6.68" y="129.01" class="st2">定</text>			</g>
			<g id="shape7-20" transform="translate(99.2126,2.84217E-14)">
				<title>工作表.7</title>
				<desc>慧　</desc>
				<rect x="0" y="114.106" width="45.3543" height="19.8425" class="st1"/>
				<text x="6.68" y="129.01" class="st2">慧</text>			</g>
			<g id="shape8-23" transform="translate(42.752,-123.307)">
				<title>工作表.8</title>
				<path d="M0 133.95 L56.69 133.95" class="st3"/>
			</g>
			<g id="shape9-26" transform="translate(42.752,-38.2677)">
				<title>工作表.9</title>
				<path d="M0 133.95 L56.69 133.95" class="st3"/>
			</g>
			<g id="shape10-29" transform="translate(-17.1516,-80.8193) rotate(-26.5651)">
				<title>工作表.10</title>
				<path d="M0 133.95 L63.38 133.95" class="st4"/>
			</g>
			<g id="shape11-32" transform="translate(102.655,-52.4729) rotate(26.5651)">
				<title>工作表.11</title>
				<path d="M0 133.95 L63.38 133.95" class="st4"/>
			</g>
		</g>
	</g>
</svg>
