<?xml version="1.0" encoding="UTF-8" standalone="no"?>
<!DOCTYPE svg PUBLIC "-//W3C//DTD SVG 1.1//EN" "http://www.w3.org/Graphics/SVG/1.1/DTD/svg11.dtd">
<!-- 由 Microsoft Visio, SVG Export 產生 y16.0192.svg 頁-1 -->
<svg xmlns="http://www.w3.org/2000/svg" xmlns:xlink="http://www.w3.org/1999/xlink" xmlns:ev="http://www.w3.org/2001/xml-events"
		width="7.89976in" height="2.82496in" viewBox="0 0 568.783 203.397" xml:space="preserve" color-interpolation-filters="sRGB"
		class="st5">
	<style type="text/css">
	<![CDATA[
		.st1 {fill:none;stroke:none;stroke-linecap:round;stroke-linejoin:round;stroke-width:0.72}
		.st2 {fill:#000000;font-family:新細明體;font-size:12pt}
		.st3 {stroke:#000000;stroke-dasharray:5.04,3.6;stroke-linecap:round;stroke-linejoin:round;stroke-width:0.72}
		.st4 {stroke:#000000;stroke-linecap:round;stroke-linejoin:round;stroke-width:0.72}
		.st5 {fill:none;fill-rule:evenodd;font-size:12px;overflow:visible;stroke-linecap:square;stroke-miterlimit:3}
	]]>
	</style>

	<g>
		<title>頁-1</title>
		<g id="group37-1" transform="translate(0.36,-0.36)">
			<title>工作表.37</title>
			<g id="shape1-2">
				<title>工作表.1</title>
				<desc>涅槃寂靜──從緣起寂滅性說──一實相的圓見三印──菩薩行時代普賢行</desc>
				<rect x="0" y="183.555" width="568.063" height="19.8425" class="st1"/>
				<text x="4.03" y="198.28" class="st2">涅槃寂靜──從緣起寂滅性說──一實相的圓見三印──菩薩行時代（普賢行）</text>			</g>
			<g id="shape2-5" transform="translate(0,-182.835)">
				<title>工作表.2</title>
				<desc>諸行無常──從緣起生滅相說──三法印的漸入一滅──聲聞行時代己利行</desc>
				<rect x="0" y="183.555" width="568.063" height="19.8425" class="st1"/>
				<text x="4.03" y="198.28" class="st2">諸行無常──從緣起生滅相說──三法印的漸入一滅──聲聞行時代（己利行）</text>			</g>
			<g id="shape3-8" transform="translate(0.0354331,-92.6929)">
				<title>工作表.3</title>
				<desc>諸法無我</desc>
				<rect x="0" y="183.555" width="73.1654" height="19.8425" class="st1"/>
				<text x="4.58" y="198.28" class="st2">諸法無我</text>			</g>
			<g id="shape4-11" transform="translate(259.727,19.5945) rotate(66.4742)">
				<title>工作表.4</title>
				<path d="M0 203.4 L87.8 203.4" class="st3"/>
			</g>
			<g id="shape5-14" transform="translate(258.998,183.625) rotate(-65.9651) scale(1,-1)">
				<title>工作表.5</title>
				<path d="M0 203.4 L85.35 203.4" class="st3"/>
			</g>
			<g id="shape11-17" transform="translate(128.409,-146.268)">
				<title>工作表.11</title>
				<desc>無常……無我……不生</desc>
				<rect x="0" y="183.555" width="168.094" height="19.8425" class="st1"/>
				<text x="4.05" y="198.28" class="st2">無常……無我……不生</text>			</g>
			<g id="shape12-20" transform="translate(326.279,19.1452) rotate(90)">
				<title>工作表.12</title>
				<path d="M0 203.4 L28.06 203.4" class="st4"/>
			</g>
			<g id="shape13-23" transform="translate(122.882,-156.189)">
				<title>工作表.13</title>
				<path d="M0 203.4 L7.09 203.4" class="st4"/>
			</g>
			<g id="shape14-26" transform="translate(295.937,-146.268)">
				<title>工作表.14</title>
				<desc>證入涅槃</desc>
				<rect x="0" y="183.555" width="72" height="19.8425" class="st1"/>
				<text x="4" y="198.28" class="st2">證入涅槃</text>			</g>
			<g id="group19-29" transform="translate(161.138,57.1294) rotate(-90)">
				<title>工作表.19</title>
				<g id="shape15-30" transform="translate(0,-65.1969)">
					<title>工作表.15</title>
					<path d="M0 203.4 L19.84 203.4" class="st4"/>
				</g>
				<g id="shape16-33">
					<title>工作表.16</title>
					<path d="M0 203.4 L19.84 203.4" class="st4"/>
				</g>
				<g id="shape17-36" transform="translate(223.24,138.2) rotate(90)">
					<title>工作表.17</title>
					<path d="M0 203.4 L65.2 203.4" class="st4"/>
				</g>
				<g id="shape18-39" transform="translate(203.397,138.2) rotate(90)">
					<title>工作表.18</title>
					<path d="M0 203.4 L65.2 203.4" class="st4"/>
				</g>
			</g>
			<g id="shape20-42" transform="translate(126.476,-73.1339)">
				<title>工作表.20</title>
				<desc>無自性空無我性…</desc>
				<rect x="0" y="183.555" width="168.094" height="19.8425" class="st1"/>
				<text x="4.05" y="198.28" class="st2">無自性空（無我性）…</text>			</g>
			<g id="shape21-45" transform="translate(190.772,-109.701)">
				<title>工作表.21</title>
				<desc>無常性</desc>
				<rect x="0" y="183.555" width="88.1575" height="19.8425" class="st1"/>
				<text x="4.08" y="198.28" class="st2">（無常性）</text>			</g>
			<g id="shape22-48" transform="translate(190.772,-36.5669)">
				<title>工作表.22</title>
				<desc>無生性</desc>
				<rect x="0" y="183.555" width="88.1575" height="19.8425" class="st1"/>
				<text x="4.08" y="198.28" class="st2">（無生性）</text>			</g>
			<g id="shape24-51" transform="translate(126.662,232.253) rotate(-123.381)">
				<title>工作表.24</title>
				<path d="M0 203.4 L43.79 203.4" class="st3"/>
			</g>
			<g id="shape23-54" transform="translate(126.662,8.43073) rotate(-56.6185) scale(-1,1)">
				<title>工作表.23</title>
				<path d="M0 203.4 L43.79 203.4" class="st3"/>
			</g>
			<g id="shape25-57" transform="translate(295.937,-73.1339)">
				<title>工作表.25</title>
				<desc>自性寂滅</desc>
				<rect x="0" y="183.555" width="72" height="19.8425" class="st1"/>
				<text x="4" y="198.28" class="st2">自性寂滅</text>			</g>
			<g id="group26-60" transform="translate(161.138,130.263) rotate(-90)">
				<title>工作表.26</title>
				<g id="shape27-61" transform="translate(0,-65.1969)">
					<title>工作表.27</title>
					<path d="M0 203.4 L19.84 203.4" class="st4"/>
				</g>
				<g id="shape28-64">
					<title>工作表.28</title>
					<path d="M0 203.4 L19.84 203.4" class="st4"/>
				</g>
				<g id="shape29-67" transform="translate(223.24,138.2) rotate(90)">
					<title>工作表.29</title>
					<path d="M0 203.4 L65.2 203.4" class="st4"/>
				</g>
				<g id="shape30-70" transform="translate(203.397,138.2) rotate(90)">
					<title>工作表.30</title>
					<path d="M0 203.4 L65.2 203.4" class="st4"/>
				</g>
			</g>
			<g id="shape31-73" transform="translate(122.882,-83.0551)">
				<title>工作表.31</title>
				<path d="M0 203.4 L7.09 203.4" class="st4"/>
			</g>
			<g id="shape32-76" transform="translate(326.279,120.342) rotate(90)">
				<title>工作表.32</title>
				<path d="M0 203.4 L64.63 203.4" class="st4"/>
			</g>
			<g id="shape33-79" transform="translate(195.449,-83.0551)">
				<title>工作表.33</title>
				<path d="M0 203.4 L2.83 203.4" class="st4"/>
			</g>
			<g id="shape34-82" transform="translate(198.283,-119.622)">
				<title>工作表.34</title>
				<path d="M0 203.4 L2.83 203.4" class="st4"/>
			</g>
			<g id="shape35-85" transform="translate(198.283,-46.4882)">
				<title>工作表.35</title>
				<path d="M0 203.4 L2.83 203.4" class="st4"/>
			</g>
			<g id="shape36-88" transform="translate(-5.1137,156.909) rotate(-90)">
				<title>工作表.36</title>
				<path d="M0 203.4 L73.13 203.4" class="st4"/>
			</g>
		</g>
	</g>
</svg>
