<?xml version="1.0" encoding="UTF-8" standalone="no"?>
<!DOCTYPE svg PUBLIC "-//W3C//DTD SVG 1.1//EN" "http://www.w3.org/Graphics/SVG/1.1/DTD/svg11.dtd">
<!-- 由 Microsoft Visio, SVG Export 產生 y20.0108.svg 頁-1 -->
<svg xmlns="http://www.w3.org/2000/svg" xmlns:xlink="http://www.w3.org/1999/xlink" xmlns:ev="http://www.w3.org/2001/xml-events"
		width="2.83942in" height="6.4619in" viewBox="0 0 204.438 465.257" xml:space="preserve" color-interpolation-filters="sRGB"
		class="st5">
	<style type="text/css">
	<![CDATA[
		.st1 {fill:none;stroke:#000000;stroke-linecap:round;stroke-linejoin:round;stroke-opacity:0;stroke-width:1}
		.st2 {fill:#000000;font-family:新細明體;font-size:12pt}
		.st3 {stroke:#000000;stroke-linecap:round;stroke-linejoin:round;stroke-width:1}
		.st4 {stroke:#000000;stroke-dasharray:7,5;stroke-linecap:round;stroke-linejoin:round;stroke-width:1}
		.st5 {fill:none;fill-rule:evenodd;font-size:12px;overflow:visible;stroke-linecap:square;stroke-miterlimit:3}
	]]>
	</style>

	<g>
		<title>頁-1</title>
		<g id="group24-1" transform="translate(0.5,-0.5)">
			<title>工作表.24</title>
			<g id="shape2-2" transform="translate(183.595,-312.103)">
				<title>工作表.2</title>
				<desc>阿毘曇論</desc>
				<rect x="0" y="387.721" width="19.8425" height="77.5359" class="st1"/>
				<text x="9.92" y="394.49" writing-mode="tb-rl" class="st2">阿毘曇論</text>			</g>
			<g id="shape3-5" transform="translate(55.9843,-282.839)">
				<title>工作表.3</title>
				<desc>性空大乘經</desc>
				<rect x="0" y="372.214" width="19.8425" height="93.0431" class="st1"/>
				<text x="9.92" y="378.74" writing-mode="tb-rl" class="st2">性空大乘經</text>			</g>
			<g id="shape4-8" transform="translate(27.6378,-166.619)">
				<title>工作表.4</title>
				<desc>真常大乘經</desc>
				<rect x="0" y="372.214" width="19.8425" height="93.0431" class="st1"/>
				<text x="9.92" y="378.74" writing-mode="tb-rl" class="st2">真常大乘經</text>			</g>
			<g id="shape5-11" transform="translate(98.5039,-87.2487)">
				<title>工作表.5</title>
				<desc>中觀復興</desc>
				<rect x="0" y="387.721" width="19.8425" height="77.5359" class="st1"/>
				<text x="9.92" y="394.49" writing-mode="tb-rl" class="st2">中觀復興</text>			</g>
			<g id="shape6-14" transform="translate(99.2126,-226.459)">
				<title>工作表.6</title>
				<desc>中觀</desc>
				<rect x="0" y="414.858" width="19.8425" height="50.3983" class="st1"/>
				<text x="9.92" y="424.06" writing-mode="tb-rl" class="st2">中觀</text>			</g>
			<g id="shape8-17">
				<title>工作表.8</title>
				<desc>密教</desc>
				<rect x="0" y="414.858" width="19.8425" height="50.3983" class="st1"/>
				<text x="9.92" y="424.06" writing-mode="tb-rl" class="st2">密教</text>			</g>
			<g id="shape7-20" transform="translate(126.85,-413.858)">
				<title>工作表.7</title>
				<desc>佛教</desc>
				<rect x="0" y="414.858" width="19.8425" height="50.3983" class="st1"/>
				<text x="9.92" y="424.06" writing-mode="tb-rl" class="st2">佛教</text>			</g>
			<g id="shape1-23" transform="translate(155.906,-177.957)">
				<title>工作表.1</title>
				<desc>瑜伽</desc>
				<rect x="0" y="414.858" width="19.8425" height="50.3983" class="st1"/>
				<text x="9.92" y="424.06" writing-mode="tb-rl" class="st2">瑜伽</text>			</g>
			<g id="shape9-26" transform="translate(51.7323,-220.477)">
				<title>工作表.9</title>
				<path d="M0 465.26 L113.39 465.26" class="st3"/>
			</g>
			<g id="shape13-29" transform="translate(376.144,-352.6) rotate(30.9638)">
				<title>工作表.13</title>
				<path d="M0 465.26 L66.11 465.26" class="st3"/>
			</g>
			<g id="shape14-32" transform="translate(398.39,431.087) rotate(145.784)">
				<title>工作表.14</title>
				<path d="M0 465.26 L85.7 465.26" class="st3"/>
			</g>
			<g id="shape15-35" transform="translate(531.162,46.3543) rotate(90)">
				<title>工作表.15</title>
				<path d="M0 465.26 L48.19 465.26" class="st3"/>
			</g>
			<g id="shape10-38" transform="translate(108.425,-220.477)">
				<title>工作表.10</title>
				<path d="M56.69 465.26 L85.04 366.04 L0 417.07" class="st3"/>
			</g>
			<g id="shape11-41" transform="translate(65.9055,-220.477)">
				<title>工作表.11</title>
				<path d="M99.21 465.26 L0 451.08 L0 397.23 L42.52 417.07" class="st3"/>
			</g>
			<g id="shape12-44" transform="translate(423.326,474.598) rotate(129.806)">
				<title>工作表.12</title>
				<path d="M0 465.26 L44.28 465.26" class="st3"/>
			</g>
			<g id="shape16-47" transform="translate(502.816,173.913) rotate(90)">
				<title>工作表.16</title>
				<path d="M0 465.26 L36.85 465.26" class="st3"/>
			</g>
			<g id="shape17-50" transform="translate(573.682,230.606) rotate(90)">
				<title>工作表.17</title>
				<path d="M0 465.26 L76.54 465.26" class="st3"/>
			</g>
			<g id="shape18-53" transform="translate(9.2126,-41.8944)">
				<title>工作表.18</title>
				<path d="M155.91 323.52 L155.91 428.41 L0 465.26" class="st3"/>
			</g>
			<g id="shape19-56" transform="translate(321.209,786.086) rotate(152.784)">
				<title>工作表.19</title>
				<path d="M0 465.26 L111.56 465.26" class="st3"/>
			</g>
			<g id="shape20-59" transform="translate(491.246,401.748) rotate(102.804)">
				<title>工作表.20</title>
				<path d="M0 465.26 L127.91 465.26" class="st3"/>
			</g>
			<g id="shape21-62" transform="translate(474.469,386.512) rotate(90)">
				<title>工作表.21</title>
				<path d="M0 465.26 L36.85 465.26" class="st3"/>
			</g>
			<g id="shape22-65" transform="translate(221.266,-220.759) rotate(14.0362)">
				<title>工作表.22</title>
				<path d="M0 465.26 L58.44 465.26" class="st4"/>
			</g>
			<g id="shape23-68" transform="translate(356.043,705.907) rotate(155.772)">
				<title>工作表.23</title>
				<path d="M0 465.26 L62.17 465.26" class="st4"/>
			</g>
		</g>
	</g>
</svg>
