<?xml version="1.0" encoding="UTF-8" standalone="no"?>
<!DOCTYPE svg PUBLIC "-//W3C//DTD SVG 1.1//EN" "http://www.w3.org/Graphics/SVG/1.1/DTD/svg11.dtd">
<!-- 由 Microsoft Visio, SVG Export 產生 y22.0030.svg 頁-1 -->
<svg xmlns="http://www.w3.org/2000/svg" xmlns:xlink="http://www.w3.org/1999/xlink" xmlns:ev="http://www.w3.org/2001/xml-events"
		width="7.90759in" height="1.47413in" viewBox="0 0 569.346 106.137" xml:space="preserve" color-interpolation-filters="sRGB"
		class="st7">
	<style type="text/css">
	<![CDATA[
		.st1 {fill:none;stroke:#000000;stroke-linecap:round;stroke-linejoin:round;stroke-opacity:0;stroke-width:1}
		.st2 {fill:#000000;font-family:新細明體;font-size:12pt}
		.st3 {stroke:#000000;stroke-linecap:round;stroke-linejoin:round;stroke-width:1}
		.st4 {fill:none;stroke:#000000;stroke-linecap:round;stroke-linejoin:round;stroke-opacity:0;stroke-width:0.75}
		.st5 {fill:#000000;font-family:新細明體;font-size:1.00001em}
		.st6 {stroke:#000000;stroke-dasharray:3,3;stroke-linecap:round;stroke-linejoin:round;stroke-width:1}
		.st7 {fill:none;fill-rule:evenodd;font-size:12px;overflow:visible;stroke-linecap:square;stroke-miterlimit:3}
	]]>
	</style>

	<g>
		<title>頁-1</title>
		<g id="group30-1" transform="translate(0.5,-0.5)">
			<title>工作表.30</title>
			<g id="shape1-2" transform="translate(0,-42.6472)">
				<title>工作表.1</title>
				<desc>兩晉之性空</desc>
				<rect x="0" y="86.2945" width="90.7087" height="19.8425" class="st1"/>
				<text x="5.35" y="101.02" class="st2">兩晉之性空</text>			</g>
			<g id="shape6-5" transform="translate(102.047,5.68434E-14)">
				<title>工作表.6</title>
				<desc>唯心</desc>
				<rect x="0" y="86.2945" width="45.6094" height="19.8425" class="st1"/>
				<text x="6.8" y="101.02" class="st2">唯心</text>			</g>
			<g id="shape7-8" transform="translate(101.792,-85.2945)">
				<title>工作表.7</title>
				<desc>真常</desc>
				<rect x="0" y="86.2945" width="45.6094" height="19.8425" class="st1"/>
				<text x="6.8" y="101.02" class="st2">真常</text>			</g>
			<g id="shape8-11" transform="translate(409.606,-85.0394)">
				<title>工作表.8</title>
				<desc>妙有</desc>
				<rect x="0" y="86.2945" width="45.6094" height="19.8425" class="st1"/>
				<text x="6.8" y="101.02" class="st2">妙有</text>			</g>
			<g id="shape9-14" transform="translate(409.606,-42.5197)">
				<title>工作表.9</title>
				<desc>真空</desc>
				<rect x="0" y="86.2945" width="45.6094" height="19.8425" class="st1"/>
				<text x="6.8" y="101.02" class="st2">真空</text>			</g>
			<g id="shape10-17" transform="translate(409.606,-1.10845E-12)">
				<title>工作表.10</title>
				<desc>圓中</desc>
				<rect x="0" y="86.2945" width="45.6094" height="19.8425" class="st1"/>
				<text x="6.8" y="101.02" class="st2">圓中</text>			</g>
			<g id="shape11-20" transform="translate(508.819,-0.127559)">
				<title>工作表.11</title>
				<desc>天台系</desc>
				<rect x="0" y="86.2945" width="59.5276" height="19.8425" class="st1"/>
				<text x="5.76" y="101.02" class="st2">天台系</text>			</g>
			<g id="shape12-23" transform="translate(508.819,-28.474)">
				<title>工作表.12</title>
				<desc>三論系</desc>
				<rect x="0" y="86.2945" width="59.5276" height="19.8425" class="st1"/>
				<text x="5.76" y="101.02" class="st2">三論系</text>			</g>
			<g id="shape13-26" transform="translate(508.819,-56.8205)">
				<title>工作表.13</title>
				<desc>成論系</desc>
				<rect x="0" y="86.2945" width="59.5276" height="19.8425" class="st1"/>
				<text x="5.76" y="101.02" class="st2">成論系</text>			</g>
			<g id="shape14-29" transform="translate(508.819,-85.1669)">
				<title>工作表.14</title>
				<desc>涅槃系</desc>
				<rect x="0" y="86.2945" width="59.5276" height="19.8425" class="st1"/>
				<text x="5.76" y="101.02" class="st2">涅槃系</text>			</g>
			<g id="shape15-32" transform="translate(455.216,-95.0882)">
				<title>工作表.15</title>
				<path d="M0 106.14 L53.6 106.14" class="st3"/>
			</g>
			<g id="shape16-35" transform="translate(484.858,-48.3453) rotate(16.2171)">
				<title>工作表.16</title>
				<path d="M0 106.14 L55.82 106.14" class="st3"/>
			</g>
			<g id="shape17-38" transform="translate(409.604,0.251909) rotate(-25.4516)">
				<title>工作表.17</title>
				<path d="M0 106.14 L59.36 106.14" class="st3"/>
			</g>
			<g id="shape18-41" transform="translate(428.084,-49.0422) rotate(-14.8107)">
				<title>工作表.18</title>
				<path d="M0 106.14 L55.45 106.14" class="st3"/>
			</g>
			<g id="shape19-44" transform="translate(455.216,-10.0488)">
				<title>工作表.19</title>
				<path d="M0 106.14 L53.6 106.14" class="st3"/>
			</g>
			<g id="shape20-47" transform="translate(229.504,-56.8205)">
				<title>工作表.20</title>
				<desc>南土之真空妙有論</desc>
				<rect x="0" y="86.2945" width="143.858" height="19.8425" class="st4"/>
				<text x="7.93" y="101.02" class="st2">南土之真空妙有論</text>			</g>
			<g id="shape21-50" transform="translate(229.504,-27.411)">
				<title>工作表.21</title>
				<desc>北土之真常唯心論</desc>
				<rect x="0" y="86.2945" width="143.858" height="19.8425" class="st4"/>
				<text x="7.93" y="101.02" class="st2">北土之真常唯心論</text>			</g>
			<g id="shape23-53" transform="translate(354.331,-31.1811)">
				<title>工作表.23</title>
				<desc>別詳</desc>
				<rect x="0" y="86.2945" width="45.6094" height="19.8425" class="st1"/>
				<text x="10.8" y="99.82" class="st5">別詳</text>			</g>
			<g id="shape22-56" transform="translate(366.126,-66.7417)">
				<title>工作表.22</title>
				<path d="M0 106.14 L29.31 106.14" class="st3"/>
			</g>
			<g id="shape24-59" transform="translate(395.433,-95.0882)">
				<title>工作表.24</title>
				<path d="M0 106.14 L14.17 106.14" class="st3"/>
			</g>
			<g id="shape25-62" transform="translate(395.433,-52.5685)">
				<title>工作表.25</title>
				<path d="M0 106.14 L14.17 106.14" class="st3"/>
			</g>
			<g id="shape26-65" transform="translate(395.433,-10.0488)">
				<title>工作表.26</title>
				<path d="M0 106.14 L14.17 106.14" class="st3"/>
			</g>
			<g id="shape27-68" transform="translate(501.57,11.0488) rotate(90)">
				<title>工作表.27</title>
				<path d="M0 106.14 L85.04 106.14" class="st3"/>
			</g>
			<g id="shape2-71" transform="translate(90.7087,-52.5685)">
				<title>工作表.2</title>
				<path d="M0 106.14 L14.17 106.14" class="st3"/>
			</g>
			<g id="shape3-74" transform="translate(93.161,-51.9193) rotate(-6.34019)">
				<title>工作表.3</title>
				<path d="M0 106.14 L128.34 106.14" class="st3"/>
			</g>
			<g id="shape4-77" transform="translate(114.002,-4.57189) rotate(-18.4867)">
				<title>工作表.4</title>
				<path d="M0 106.14 L89.4 106.14" class="st3"/>
			</g>
			<g id="shape5-80" transform="translate(126.304,67.7417) rotate(-90)">
				<title>工作表.5</title>
				<path d="M28.35 106.14 L57.4 21.1 L0 106.14" class="st3"/>
			</g>
			<g id="shape28-83" transform="translate(117.431,-51.9828) rotate(6.40997)">
				<title>工作表.28</title>
				<path d="M0 106.14 L127.66 106.14" class="st6"/>
			</g>
			<g id="shape29-86" transform="translate(89.4527,7.7511) rotate(-34.0726)">
				<title>工作表.29</title>
				<path d="M0 106.14 L100.57 106.14" class="st6"/>
			</g>
		</g>
	</g>
</svg>
