<?xml version="1.0" encoding="UTF-8" standalone="no"?>
<!DOCTYPE svg PUBLIC "-//W3C//DTD SVG 1.1//EN" "http://www.w3.org/Graphics/SVG/1.1/DTD/svg11.dtd">
<!-- 由 Microsoft Visio, SVG Export 產生 y22.0049.svg 頁-1 -->
<svg xmlns="http://www.w3.org/2000/svg" xmlns:xlink="http://www.w3.org/1999/xlink" xmlns:ev="http://www.w3.org/2001/xml-events"
		width="8.12413in" height="1.47413in" viewBox="0 0 584.937 106.137" xml:space="preserve" color-interpolation-filters="sRGB"
		class="st7">
	<style type="text/css">
	<![CDATA[
		.st1 {stroke:#000000;stroke-linecap:round;stroke-linejoin:round;stroke-width:1}
		.st2 {stroke:#000000;stroke-dasharray:3,3;stroke-linecap:round;stroke-linejoin:round;stroke-width:1}
		.st3 {fill:none;stroke:#000000;stroke-linecap:round;stroke-linejoin:round;stroke-opacity:0;stroke-width:1}
		.st4 {fill:#000000;font-family:新細明體;font-size:12pt}
		.st5 {fill:none;stroke:#000000;stroke-linecap:round;stroke-linejoin:round;stroke-opacity:0;stroke-width:0.75}
		.st6 {fill:#000000;font-family:新細明體;font-size:1.00001em}
		.st7 {fill:none;fill-rule:evenodd;font-size:12px;overflow:visible;stroke-linecap:square;stroke-miterlimit:3}
	]]>
	</style>

	<g>
		<title>頁-1</title>
		<g id="group32-1" transform="translate(0.5,-0.5)">
			<title>工作表.32</title>
			<g id="shape15-2" transform="translate(467.972,-95.0882)">
				<title>工作表.15</title>
				<path d="M0 106.14 L53.6 106.14" class="st1"/>
			</g>
			<g id="shape16-5" transform="translate(497.613,-48.3453) rotate(16.2171)">
				<title>工作表.16</title>
				<path d="M0 106.14 L55.82 106.14" class="st1"/>
			</g>
			<g id="shape18-8" transform="translate(440.84,-49.0422) rotate(-14.8107)">
				<title>工作表.18</title>
				<path d="M0 106.14 L55.45 106.14" class="st1"/>
			</g>
			<g id="shape19-11" transform="translate(467.844,-10.0488)">
				<title>工作表.19</title>
				<path d="M0 106.14 L53.6 106.14" class="st1"/>
			</g>
			<g id="shape22-14" transform="translate(366.126,-38.3953)">
				<title>工作表.22</title>
				<path d="M0 106.14 L29.31 106.14" class="st1"/>
			</g>
			<g id="shape24-17" transform="translate(395.433,-95.0882)">
				<title>工作表.24</title>
				<path d="M0 106.14 L14.17 106.14" class="st1"/>
			</g>
			<g id="shape25-20" transform="translate(395.433,-52.5685)">
				<title>工作表.25</title>
				<path d="M0 106.14 L14.17 106.14" class="st1"/>
			</g>
			<g id="shape26-23" transform="translate(395.433,-10.0488)">
				<title>工作表.26</title>
				<path d="M0 106.14 L14.17 106.14" class="st1"/>
			</g>
			<g id="shape27-26" transform="translate(501.57,11.0488) rotate(90)">
				<title>工作表.27</title>
				<path d="M0 106.14 L85.04 106.14" class="st1"/>
			</g>
			<g id="shape2-29" transform="translate(90.7087,-52.5685)">
				<title>工作表.2</title>
				<path d="M0 106.14 L14.17 106.14" class="st1"/>
			</g>
			<g id="shape3-32" transform="translate(93.161,-51.9193) rotate(-6.34019)">
				<title>工作表.3</title>
				<path d="M0 106.14 L128.34 106.14" class="st1"/>
			</g>
			<g id="shape4-35" transform="translate(114.002,-4.57189) rotate(-18.4867)">
				<title>工作表.4</title>
				<path d="M0 106.14 L89.4 106.14" class="st1"/>
			</g>
			<g id="shape5-38" transform="translate(126.304,67.7417) rotate(-90)">
				<title>工作表.5</title>
				<path d="M28.35 106.14 L57.4 21.1 L0 106.14" class="st1"/>
			</g>
			<g id="shape28-41" transform="translate(117.431,-51.9828) rotate(6.40997)">
				<title>工作表.28</title>
				<path d="M0 106.14 L127.66 106.14" class="st2"/>
			</g>
			<g id="shape29-44" transform="translate(89.4527,7.7511) rotate(-34.0726)">
				<title>工作表.29</title>
				<path d="M0 106.14 L100.57 106.14" class="st2"/>
			</g>
			<g id="shape30-47" transform="translate(518.312,-82.3907) rotate(28.3133)">
				<title>工作表.30</title>
				<path d="M0 106.14 L60.13 106.14" class="st1"/>
			</g>
			<g id="shape1-50" transform="translate(0,-42.6472)">
				<title>工作表.1</title>
				<desc>兩晉之性空</desc>
				<rect x="0" y="86.2945" width="90.7087" height="19.8425" class="st3"/>
				<text x="5.35" y="101.02" class="st4">兩晉之性空</text>			</g>
			<g id="shape6-53" transform="translate(102.047,5.68434E-14)">
				<title>工作表.6</title>
				<desc>唯心</desc>
				<rect x="0" y="86.2945" width="45.6094" height="19.8425" class="st3"/>
				<text x="6.8" y="101.02" class="st4">唯心</text>			</g>
			<g id="shape7-56" transform="translate(101.792,-85.2945)">
				<title>工作表.7</title>
				<desc>真常</desc>
				<rect x="0" y="86.2945" width="45.6094" height="19.8425" class="st3"/>
				<text x="6.8" y="101.02" class="st4">真常</text>			</g>
			<g id="shape8-59" transform="translate(411.024,-85.2945)">
				<title>工作表.8</title>
				<desc>真淨心</desc>
				<rect x="0" y="86.2945" width="56.948" height="19.8425" class="st3"/>
				<text x="4.47" y="101.02" class="st4">真淨心</text>			</g>
			<g id="shape11-62" transform="translate(524.409,-0.127559)">
				<title>工作表.11</title>
				<desc>賢首系</desc>
				<rect x="0" y="86.2945" width="59.5276" height="19.8425" class="st3"/>
				<text x="5.76" y="101.02" class="st4">賢首系</text>			</g>
			<g id="shape12-65" transform="translate(524.409,-28.474)">
				<title>工作表.12</title>
				<desc>玄奘系</desc>
				<rect x="0" y="86.2945" width="59.5276" height="19.8425" class="st3"/>
				<text x="5.76" y="101.02" class="st4">玄奘系</text>			</g>
			<g id="shape13-68" transform="translate(524.409,-56.8205)">
				<title>工作表.13</title>
				<desc>真諦系</desc>
				<rect x="0" y="86.2945" width="59.5276" height="19.8425" class="st3"/>
				<text x="5.76" y="101.02" class="st4">真諦系</text>			</g>
			<g id="shape14-71" transform="translate(524.409,-85.1669)">
				<title>工作表.14</title>
				<desc>流支系</desc>
				<rect x="0" y="86.2945" width="59.5276" height="19.8425" class="st3"/>
				<text x="5.76" y="101.02" class="st4">流支系</text>			</g>
			<g id="shape20-74" transform="translate(229.504,-56.8205)">
				<title>工作表.20</title>
				<desc>南土之真空妙有論</desc>
				<rect x="0" y="86.2945" width="143.858" height="19.8425" class="st5"/>
				<text x="7.93" y="101.02" class="st4">南土之真空妙有論</text>			</g>
			<g id="shape21-77" transform="translate(229.504,-27.411)">
				<title>工作表.21</title>
				<desc>北土之真常唯心論</desc>
				<rect x="0" y="86.2945" width="143.858" height="19.8425" class="st5"/>
				<text x="7.93" y="101.02" class="st4">北土之真常唯心論</text>			</g>
			<g id="shape23-80" transform="translate(354.331,-59.7827)">
				<title>工作表.23</title>
				<desc>見前</desc>
				<rect x="0" y="86.2945" width="45.6094" height="19.8425" class="st3"/>
				<text x="10.8" y="99.82" class="st6">見前</text>			</g>
			<g id="shape9-83" transform="translate(411.024,-42.7748)">
				<title>工作表.9</title>
				<desc>虛妄心</desc>
				<rect x="0" y="86.2945" width="56.948" height="19.8425" class="st3"/>
				<text x="4.47" y="101.02" class="st4">虛妄心</text>			</g>
			<g id="shape10-86" transform="translate(410.896,-0.255118)">
				<title>工作表.10</title>
				<desc>圓常心</desc>
				<rect x="0" y="86.2945" width="56.948" height="19.8425" class="st3"/>
				<text x="4.47" y="101.02" class="st4">圓常心</text>			</g>
		</g>
	</g>
</svg>
