<?xml version="1.0" encoding="UTF-8" standalone="no"?>
<!DOCTYPE svg PUBLIC "-//W3C//DTD SVG 1.1//EN" "http://www.w3.org/Graphics/SVG/1.1/DTD/svg11.dtd">
<!-- 由 Microsoft Visio, SVG Export 產生 y22.0102.svg 頁-1 -->
<svg xmlns="http://www.w3.org/2000/svg" xmlns:xlink="http://www.w3.org/1999/xlink" xmlns:ev="http://www.w3.org/2001/xml-events"
		width="5.22203in" height="8.20287in" viewBox="0 0 375.986 590.606" xml:space="preserve" color-interpolation-filters="sRGB"
		class="st11">
	<style type="text/css">
	<![CDATA[
		.st1 {fill:none;stroke:#000000;stroke-linecap:round;stroke-linejoin:round;stroke-opacity:0;stroke-width:1}
		.st2 {fill:#000000;font-family:標楷體;font-size:12pt}
		.st3 {fill:#000000;font-family:新細明體;font-size:12pt}
		.st4 {fill:none;stroke:#000000;stroke-linecap:round;stroke-linejoin:round;stroke-opacity:0;stroke-width:0.75}
		.st5 {fill:none;stroke:#000000;stroke-linecap:round;stroke-linejoin:round;stroke-width:1.5}
		.st6 {stroke:#000000;stroke-linecap:round;stroke-linejoin:round;stroke-width:1.5}
		.st7 {stroke:#000000;stroke-dasharray:4.5,4.5;stroke-linecap:round;stroke-linejoin:round;stroke-width:1.5}
		.st8 {marker-end:url(#mrkr5-123);stroke:#000000;stroke-linecap:round;stroke-linejoin:round;stroke-width:1.5}
		.st9 {fill:#000000;fill-opacity:1;stroke:#000000;stroke-opacity:1;stroke-width:0.37313432835821}
		.st10 {marker-start:url(#mrkr5-129);stroke:#000000;stroke-linecap:round;stroke-linejoin:round;stroke-width:1.5}
		.st11 {fill:none;fill-rule:evenodd;font-size:12px;overflow:visible;stroke-linecap:square;stroke-miterlimit:3}
	]]>
	</style>

	<defs id="Markers">
		<g id="lend5">
			<path d="M 2 1 L 0 0 L 1.98117 -0.993387 C 1.67173 -0.364515 1.67301 0.372641 1.98465 1.00043 " style="stroke:none"/>
		</g>
		<marker id="mrkr5-123" class="st9" refX="-4.69" orient="auto" markerUnits="strokeWidth" overflow="visible">
			<use xlink:href="#lend5" transform="scale(-2.68,-2.68) "/>
		</marker>
		<marker id="mrkr5-129" class="st9" refX="4.45" orient="auto" markerUnits="strokeWidth" overflow="visible">
			<use xlink:href="#lend5" transform="scale(2.68) "/>
		</marker>
	</defs>
	<g>
		<title>頁-1</title>
		<g id="group62-1" transform="translate(0.375,-0.5)">
			<title>工作表.62</title>
			<g id="shape8-2" transform="translate(171.142,-515.906)">
				<title>工作表.8</title>
				<desc>菩薩為本</desc>
				<rect x="0" y="516.906" width="19.8425" height="73.7008" class="st1"/>
				<text x="9.92" y="521.76" writing-mode="tb-rl" class="st2">菩薩為本</text>			</g>
			<g id="shape10-5" transform="translate(185.315,-481.89)">
				<title>工作表.10</title>
				<desc>大小</desc>
				<rect x="0" y="545.252" width="19.8425" height="45.3543" class="st1"/>
				<text x="9.92" y="551.93" writing-mode="tb-rl" class="st3">大小</text>			</g>
			<g id="shape11-8" transform="translate(156.969,-481.89)">
				<title>工作表.11</title>
				<desc>兼暢</desc>
				<rect x="0" y="545.252" width="19.8425" height="45.3543" class="st1"/>
				<text x="9.92" y="551.93" writing-mode="tb-rl" class="st3">兼暢</text>			</g>
			<g id="shape12-11" transform="translate(156.969,-320.315)">
				<title>工作表.12</title>
				<desc>吠陀創始時代</desc>
				<rect x="0" y="449.526" width="19.8425" height="141.08" class="st4"/>
				<text x="9.92" y="456.07" writing-mode="tb-rl" class="st3">（吠陀創始時代）</text>			</g>
			<g id="shape13-14" transform="translate(185.315,-320.967)">
				<title>工作表.13</title>
				<desc>重 人 事</desc>
				<rect x="0" y="449.526" width="19.8425" height="141.08" class="st4"/>
				<text x="9.92" y="471.13" writing-mode="tb-rl" class="st3">重      人      事</text>			</g>
			<g id="shape14-17" transform="translate(355.394,-308.063)">
				<title>工作表.14</title>
				<desc>菩薩分流傾向如來</desc>
				<rect x="0" y="450.795" width="19.8425" height="139.811" class="st4"/>
				<text x="9.92" y="456.7" writing-mode="tb-rl" class="st2">菩薩分流傾向如來</text>			</g>
			<g id="shape15-20" transform="translate(1.59872E-14,-308.063)">
				<title>工作表.15</title>
				<desc>傾向菩薩聲聞分流</desc>
				<rect x="0" y="450.795" width="19.8425" height="139.811" class="st4"/>
				<text x="9.92" y="456.7" writing-mode="tb-rl" class="st2">傾向菩薩聲聞分流</text>			</g>
			<g id="shape16-23" transform="translate(118.701,-195.591)">
				<title>工作表.16</title>
				<ellipse cx="62.3622" cy="528.244" rx="62.3622" ry="62.3622" class="st5"/>
			</g>
			<g id="shape17-25" transform="translate(171.014,-263.622)">
				<title>工作表.17</title>
				<desc>人間樂</desc>
				<rect x="0" y="533.658" width="19.8425" height="56.948" class="st1"/>
				<text x="9.92" y="538.13" writing-mode="tb-rl" class="st3">人間樂</text>			</g>
			<g id="shape19-28" transform="translate(156.969,-221.936)">
				<title>工作表.19</title>
				<desc>佛教</desc>
				<rect x="0" y="549.532" width="19.8425" height="41.074" class="st1"/>
				<text x="9.92" y="554.07" writing-mode="tb-rl" class="st3">佛教</text>			</g>
			<g id="shape20-31" transform="translate(185.315,-221.603)">
				<title>工作表.20</title>
				<desc>神教</desc>
				<rect x="0" y="549.249" width="19.8425" height="41.3575" class="st1"/>
				<text x="9.92" y="553.93" writing-mode="tb-rl" class="st3">神教</text>			</g>
			<g id="shape22-34" transform="translate(771.669,326.984) rotate(90)">
				<title>工作表.22</title>
				<path d="M0 590.61 L68.03 590.61" class="st6"/>
			</g>
			<g id="shape24-37" transform="translate(213.789,-215.178)">
				<title>工作表.24</title>
				<desc>天上樂</desc>
				<rect x="0" y="533.658" width="19.8425" height="56.948" class="st1"/>
				<text x="9.92" y="538.13" writing-mode="tb-rl" class="st3">天上樂</text>			</g>
			<g id="shape25-40" transform="translate(128.75,-215.306)">
				<title>工作表.25</title>
				<desc>究竟樂</desc>
				<rect x="0" y="533.658" width="19.8425" height="56.948" class="st1"/>
				<text x="9.92" y="538.13" writing-mode="tb-rl" class="st3">究竟樂</text>			</g>
			<g id="shape27-43" transform="translate(544.639,-116.082) rotate(45)">
				<title>工作表.27</title>
				<path d="M-0 590.61 A28.0694 25.3722 79.86 0 1 35.98 590.61" class="st7"/>
			</g>
			<g id="shape26-46" transform="translate(-208.212,-90.6375) rotate(-45)">
				<title>工作表.26</title>
				<path d="M-0 590.61 A34.2439 25.5862 86.59 0 1 36.21 590.61" class="st7"/>
			</g>
			<g id="shape28-49" transform="translate(100.276,-79.3701)">
				<title>工作表.28</title>
				<desc>教派興起時代</desc>
				<rect x="0" y="448.396" width="19.8425" height="142.211" class="st4"/>
				<text x="9.92" y="455.5" writing-mode="tb-rl" class="st3">（教派興起時代）</text>			</g>
			<g id="shape29-52" transform="translate(242.008,-79.7869)">
				<title>工作表.29</title>
				<desc>梵教極盛時代</desc>
				<rect x="0" y="449.291" width="19.8425" height="141.315" class="st4"/>
				<text x="9.92" y="455.95" writing-mode="tb-rl" class="st3">（梵教極盛時代）</text>			</g>
			<g id="shape30-55" transform="translate(270.354,-79.5785)">
				<title>工作表.30</title>
				<desc>求 天 樂</desc>
				<rect x="0" y="449.291" width="19.8425" height="141.315" class="st4"/>
				<text x="9.92" y="471.01" writing-mode="tb-rl" class="st3">求      天      樂</text>			</g>
			<g id="shape31-58" transform="translate(327.047,-104.882)">
				<title>工作表.31</title>
				<desc>如來為本</desc>
				<rect x="0" y="516.906" width="19.8425" height="73.7008" class="st1"/>
				<text x="9.92" y="521.76" writing-mode="tb-rl" class="st2">如來為本</text>			</g>
			<g id="shape32-61" transform="translate(29.4094,-104.882)">
				<title>工作表.32</title>
				<desc>聲聞為本</desc>
				<rect x="0" y="516.906" width="19.8425" height="73.7008" class="st1"/>
				<text x="9.92" y="521.76" writing-mode="tb-rl" class="st2">聲聞為本</text>			</g>
			<g id="shape33-64" transform="translate(338.386,-70.8661)">
				<title>工作表.33</title>
				<desc>佛梵</desc>
				<rect x="0" y="545.252" width="19.8425" height="45.3543" class="st1"/>
				<text x="9.92" y="551.93" writing-mode="tb-rl" class="st2">佛梵</text>			</g>
			<g id="shape34-67" transform="translate(40.748,-70.8661)">
				<title>工作表.34</title>
				<desc>解脫</desc>
				<rect x="0" y="545.252" width="19.8425" height="45.3543" class="st1"/>
				<text x="9.92" y="551.93" writing-mode="tb-rl" class="st2">解脫</text>			</g>
			<g id="shape35-70" transform="translate(315.709,-70.8661)">
				<title>工作表.35</title>
				<desc>一如</desc>
				<rect x="0" y="545.252" width="19.8425" height="45.3543" class="st1"/>
				<text x="9.92" y="551.93" writing-mode="tb-rl" class="st2">一如</text>			</g>
			<g id="shape36-73" transform="translate(15.2362,-70.8661)">
				<title>工作表.36</title>
				<desc>同歸</desc>
				<rect x="0" y="545.252" width="19.8425" height="45.3543" class="st1"/>
				<text x="9.92" y="551.93" writing-mode="tb-rl" class="st2">同歸</text>			</g>
			<g id="shape37-76" transform="translate(314.291,-178.583)">
				<title>工作表.37</title>
				<path d="M0 590.61 L42.52 590.61" class="st6"/>
			</g>
			<g id="shape38-79" transform="translate(947.417,412.024) rotate(90)">
				<title>工作表.38</title>
				<path d="M0 590.61 L107.72 590.61" class="st6"/>
			</g>
			<g id="shape39-82" transform="translate(314.291,-70.8661)">
				<title>工作表.39</title>
				<path d="M0 590.61 L42.52 590.61" class="st6"/>
			</g>
			<g id="shape40-85" transform="translate(904.898,412.024) rotate(90)">
				<title>工作表.40</title>
				<path d="M0 590.61 L107.72 590.61" class="st6"/>
			</g>
			<g id="shape41-88" transform="translate(16.6535,-70.8661)">
				<title>工作表.41</title>
				<path d="M0 590.61 L42.52 590.61" class="st6"/>
			</g>
			<g id="shape42-91" transform="translate(16.6535,-178.583)">
				<title>工作表.42</title>
				<path d="M0 590.61 L42.52 590.61" class="st6"/>
			</g>
			<g id="shape43-94" transform="translate(649.78,412.024) rotate(90)">
				<title>工作表.43</title>
				<path d="M0 590.61 L107.72 590.61" class="st6"/>
			</g>
			<g id="shape44-97" transform="translate(607.26,412.024) rotate(90)">
				<title>工作表.44</title>
				<path d="M0 590.61 L107.72 590.61" class="st6"/>
			</g>
			<g id="shape45-100" transform="translate(339.803,0)">
				<title>工作表.45</title>
				<desc>佛教融吠</desc>
				<rect x="0" y="516.906" width="19.8425" height="73.7008" class="st1"/>
				<text x="9.92" y="521.76" writing-mode="tb-rl" class="st3">佛教融吠</text>			</g>
			<g id="shape46-103" transform="translate(314.291,-4.54747E-13)">
				<title>工作表.46</title>
				<desc>陀而衰滅</desc>
				<rect x="0" y="516.906" width="19.8425" height="73.7008" class="st1"/>
				<text x="9.92" y="521.76" writing-mode="tb-rl" class="st3">陀而衰滅</text>			</g>
			<g id="shape47-106" transform="translate(16.6535,-4.54747E-13)">
				<title>工作表.47</title>
				<desc>陀而創始</desc>
				<rect x="0" y="516.906" width="19.8425" height="73.7008" class="st1"/>
				<text x="9.92" y="521.76" writing-mode="tb-rl" class="st3">陀而創始</text>			</g>
			<g id="shape48-109" transform="translate(42.1654,-4.54747E-13)">
				<title>工作表.48</title>
				<desc>佛教反吠</desc>
				<rect x="0" y="516.906" width="19.8425" height="73.7008" class="st1"/>
				<text x="9.92" y="521.76" writing-mode="tb-rl" class="st3">佛教反吠</text>			</g>
			<g id="shape49-112" transform="translate(181.063,-178.583)">
				<title>工作表.49</title>
				<path d="M0 278.8 L170.08 378.01 L155.91 590.61" class="st7"/>
			</g>
			<g id="shape51-115" transform="translate(25.1575,-178.583)">
				<title>工作表.51</title>
				<path d="M155.91 278.8 L0 378.01 L11.88 590.61" class="st7"/>
			</g>
			<g id="shape52-118" transform="translate(769.708,26.8323) rotate(71.5651)">
				<title>工作表.52</title>
				<path d="M0 590.61 L172.24 590.61" class="st8"/>
			</g>
			<g id="shape53-124" transform="translate(124.37,-155.906)">
				<title>工作表.53</title>
				<path d="M6.67 590.61 L7.03 590.61 L113.39 590.61" class="st10"/>
			</g>
			<g id="shape54-130" transform="translate(152.461,-263.622)">
				<title>工作表.54</title>
				<path d="M0 590.61 L56.95 590.61" class="st6"/>
			</g>
			<g id="shape55-133" transform="translate(-381.197,369.504) rotate(-90)">
				<title>工作表.55</title>
				<path d="M0 590.61 L42.52 590.61" class="st6"/>
			</g>
			<g id="shape56-136" transform="translate(209.409,960.11) rotate(180)">
				<title>工作表.56</title>
				<path d="M0 590.61 L56.69 590.61" class="st6"/>
			</g>
			<g id="shape57-139" transform="translate(743.068,326.984) rotate(90)">
				<title>工作表.57</title>
				<path d="M0 590.61 L42.26 590.61" class="st6"/>
			</g>
			<g id="shape59-142" transform="translate(71.9291,-78.2813)">
				<title>工作表.59</title>
				<desc>趣 解 脫</desc>
				<rect x="0" y="449.291" width="19.8425" height="141.315" class="st4"/>
				<text x="9.92" y="471.01" writing-mode="tb-rl" class="st3">趣      解      脫</text>			</g>
		</g>
	</g>
</svg>
