<?xml version="1.0" encoding="UTF-8" standalone="no"?>
<!DOCTYPE svg PUBLIC "-//W3C//DTD SVG 1.1//EN" "http://www.w3.org/Graphics/SVG/1.1/DTD/svg11.dtd">
<!-- 由 Microsoft Visio, SVG Export 產生 y22.0126.svg 頁-1 -->
<svg xmlns="http://www.w3.org/2000/svg" xmlns:xlink="http://www.w3.org/1999/xlink" xmlns:ev="http://www.w3.org/2001/xml-events"
		width="2.13201in" height="2.11841in" viewBox="0 0 153.505 152.525" xml:space="preserve" color-interpolation-filters="sRGB"
		class="st3">
	<style type="text/css">
	<![CDATA[
		.st1 {fill:none;stroke:none;stroke-linecap:butt;stroke-width:0.75}
		.st2 {fill:#000000;stroke:none;stroke-linecap:butt;stroke-width:0.75}
		.st3 {fill:none;fill-rule:evenodd;font-size:12px;overflow:visible;stroke-linecap:square;stroke-miterlimit:3}
	]]>
	</style>

	<g>
		<title>頁-1</title>
		<g id="group5-1" transform="translate(0.75,-0.75)">
			<title>工作表.5</title>
			<g id="shape2-2">
				<title>工作表.2</title>
				<path d="M0 152.53 C0 102.18 0 51.84 0 1.5 C50.67 1.5 101.34 1.5 152 1.5 C152 51.84 152 102.18 152 152.53 C101.34
							 152.53 50.67 152.53 0 152.53 ZM52.81 23.51 C57.85 32.3 54.32 39.13 49.8 45.47 C41.35 57.32 34.59 70.26
							 21.58 79.34 C19.86 80.54 19.63 85.11 20.78 87.3 C22.62 90.85 26.2 89.11 28.86 87.3 C31.03 85.84 32.85
							 83.98 35.02 82.53 C43.53 76.85 52.03 71.15 60.76 65.75 C62.07 64.94 64.97 65.14 66.47 65.89 C67.52 66.41
							 67.83 68.68 67.73 70.14 C67.65 71.45 66.71 72.79 65.88 73.97 C60.29 81.99 55.91 90.69 47.01 96.77 C45.22
							 97.99 45.88 101.93 45.41 104.62 C47.8 103.63 50.48 102.97 52.53 101.59 C56.69 98.79 60.13 95.06 64.55
							 92.71 C73.99 87.71 84.03 91.31 86.21 99.97 C90.95 118.71 77.24 134.09 55.41 134.51 C52.96 134.56 50.51
							 134.52 48.05 134.52 C48.01 135.26 47.97 136 47.93 136.74 C55.52 138.05 63.04 139.92 70.7 140.53 C81.89
							 141.42 88.23 137.66 91.26 128.26 C93.11 122.55 93.92 116.45 94.12 110.5 C94.6 96.03 90.14 90.91 74.25
							 86.6 C69.7 85.37 68.91 83.36 71.44 79.94 C73.31 77.41 75.68 74.9 76.45 72.09 C77.18 69.46 77.23 65.62
							 75.51 63.82 C73.82 62.04 69.36 61.24 66.42 61.66 C61.99 62.29 57.87 64.48 53.52 65.75 C51.42 66.36 49.09
							 66.36 44.84 66.89 C47.23 63.48 48.45 61.68 49.74 59.92 C54.04 54.01 58.98 48.38 62.54 42.14 C67.05 34.27
							 63.93 28.3 52.81 23.51 ZM107.29 51.71 C106.89 52.45 106.49 53.2 106.09 53.94 C106.57 54.58 106.99 55.27
							 107.54 55.86 C112.61 61.34 121.64 63.65 123.86 71.51 C124.03 72.11 126.23 72.54 127.51 72.6 C130.71
							 72.75 133.99 73 137.1 72.51 C139.31 72.17 141.29 70.69 143.36 69.72 C142.21 67.9 141.57 65.14 139.82
							 64.41 C129.12 59.92 118.16 55.89 107.29 51.71 Z" class="st1"/>
			</g>
			<g id="shape3-4" transform="translate(19.4415,-19.1078)">
				<title>工作表.3</title>
				<path d="M33.18 34.62 C44.3 39.41 47.42 45.38 42.91 53.25 C39.34 59.48 34.41 65.11 30.1 71.02 C28.82 72.79 27.59
							 74.59 25.21 77.99 C29.45 77.46 31.78 77.46 33.88 76.85 C38.24 75.59 42.35 73.4 46.79 72.77 C49.73 72.35
							 54.19 73.15 55.88 74.92 C57.6 76.72 57.55 80.56 56.82 83.2 C56.05 86.01 53.68 88.52 51.8 91.04 C49.27
							 94.46 50.07 96.48 54.62 97.71 C70.51 102.02 74.97 107.14 74.48 121.6 C74.29 127.55 73.47 133.65 71.63
							 139.37 C68.6 148.77 62.26 152.53 51.06 151.63 C43.41 151.02 35.88 149.15 28.3 147.84 C28.34 147.1 28.38
							 146.36 28.42 145.62 C30.87 145.62 33.32 145.66 35.78 145.62 C57.6 145.2 71.32 129.81 66.58 111.07 C64.39
							 102.42 54.35 98.81 44.92 103.82 C40.49 106.16 37.06 109.9 32.9 112.69 C30.85 114.07 28.17 114.74 25.77
							 115.73 C26.24 113.04 25.59 109.09 27.37 107.87 C36.27 101.8 40.66 93.09 46.25 85.08 C47.07 83.89 48.01
							 82.55 48.1 81.24 C48.2 79.79 47.88 77.52 46.84 77 C45.33 76.25 42.43 76.05 41.13 76.85 C32.39 82.26
							 23.89 87.95 15.39 93.63 C13.21 95.08 11.39 96.94 9.23 98.41 C6.56 100.21 2.99 101.95 1.14 98.41 C0 96.22
							 0.23 91.65 1.95 90.45 C14.96 81.36 21.71 68.43 30.16 56.58 C34.68 50.24 38.21 43.41 33.18 34.62 Z"
						class="st2"/>
			</g>
			<g id="shape4-6" transform="translate(105.895,-87.528)">
				<title>工作表.4</title>
				<path d="M1.21 131.24 C12.08 135.42 23.03 139.45 33.74 143.93 C35.49 144.67 36.12 147.43 37.28 149.25 C35.2 150.22
							 33.22 151.7 31.01 152.04 C27.91 152.53 24.62 152.28 21.43 152.13 C20.14 152.07 17.94 151.64 17.77 151.03
							 C15.55 143.18 6.52 140.86 1.45 135.39 C0.9 134.79 0.48 134.11 0 133.47 C0.4 132.73 0.8 131.98 1.21 131.24
							 Z" class="st2"/>
			</g>
		</g>
	</g>
</svg>
