<?xml version="1.0" encoding="UTF-8" standalone="no"?>
<!DOCTYPE svg PUBLIC "-//W3C//DTD SVG 1.1//EN" "http://www.w3.org/Graphics/SVG/1.1/DTD/svg11.dtd">
<!-- 由 Microsoft Visio, SVG Export 產生 y28.0075.svg 頁-1 -->
<svg xmlns="http://www.w3.org/2000/svg" xmlns:xlink="http://www.w3.org/1999/xlink" xmlns:ev="http://www.w3.org/2001/xml-events"
		width="1.43897in" height="4.62065in" viewBox="0 0 103.606 332.687" xml:space="preserve" color-interpolation-filters="sRGB"
		class="st8">
	<style type="text/css">
	<![CDATA[
		.st1 {fill:none;stroke:none;stroke-linecap:round;stroke-linejoin:round;stroke-width:0.75}
		.st2 {fill:#000000;font-family:新細明體;font-size:12pt}
		.st3 {fill:#d3d3ab;fill-opacity:0;stroke:#000000;stroke-linecap:round;stroke-linejoin:round;stroke-width:0.25}
		.st4 {fill:#000000;stroke:#000000;stroke-linecap:round;stroke-linejoin:round;stroke-width:0.24}
		.st5 {stroke:#000000;stroke-dasharray:0,7.5;stroke-linecap:round;stroke-linejoin:round;stroke-width:1.5}
		.st6 {marker-end:url(#mrkr5-107);stroke:#000000;stroke-linecap:round;stroke-linejoin:round;stroke-width:1.5}
		.st7 {fill:#000000;fill-opacity:1;stroke:#000000;stroke-opacity:1;stroke-width:0.37313432835821}
		.st8 {fill:none;fill-rule:evenodd;font-size:12px;overflow:visible;stroke-linecap:square;stroke-miterlimit:3}
	]]>
	</style>

	<defs id="Markers">
		<g id="lend5">
			<path d="M 2 1 L 0 0 L 1.98117 -0.993387 C 1.67173 -0.364515 1.67301 0.372641 1.98465 1.00043 " style="stroke:none"/>
		</g>
		<marker id="mrkr5-107" class="st7" refX="-4.69" orient="auto" markerUnits="strokeWidth" overflow="visible">
			<use xlink:href="#lend5" transform="scale(-2.68,-2.68) "/>
		</marker>
	</defs>
	<g>
		<title>頁-1</title>
		<g id="group61-1" transform="translate(0.197735,-0.375)">
			<title>工作表.61</title>
			<g id="shape50-2" transform="translate(42.06,-126.142)">
				<title>工作表.50</title>
				<desc>實相</desc>
				<rect x="0" y="292.435" width="19.8425" height="40.252" class="st1"/>
				<text x="9.92" y="296.56" writing-mode="tb-rl" class="st2">實相</text>			</g>
			<g id="shape2-5" transform="translate(5.63482,-95.9528)">
				<title>圓形</title>
				<path d="M0 286.62 A46.063 46.063 0 0 1 92.13 286.62 A46.063 46.063 0 1 1 0 286.62 Z" class="st3"/>
			</g>
			<g id="shape3-7" transform="translate(48.8632,-187.937)">
				<title>三角形</title>
				<path d="M6.11 332.69 L2.83 327.02 L-0.44 332.69 L6.11 332.69 Z" class="st4"/>
			</g>
			<g id="shape4-9" transform="translate(96.1011,-185.429) rotate(7)">
				<title>三角形.4</title>
				<path d="M6.11 332.69 L2.83 327.02 L-0.44 332.69 L6.11 332.69 Z" class="st4"/>
			</g>
			<g id="shape6-11" transform="translate(159.307,-172.351) rotate(17)">
				<title>三角形.6</title>
				<path d="M6.11 332.69 L2.83 327.02 L-0.44 332.69 L6.11 332.69 Z" class="st4"/>
			</g>
			<g id="shape7-13" transform="translate(203.7,-156.136) rotate(24)">
				<title>三角形.7</title>
				<path d="M6.11 332.69 L2.83 327.02 L-0.44 332.69 L6.11 332.69 Z" class="st4"/>
			</g>
			<g id="shape8-15" transform="translate(-6.91876,-183.57) rotate(-8.5)">
				<title>三角形.8</title>
				<path d="M6.11 332.69 L2.83 327.02 L-0.44 332.69 L6.11 332.69 Z" class="st4"/>
			</g>
			<g id="shape9-17" transform="translate(-61.592,-170.694) rotate(-17)">
				<title>三角形.9</title>
				<path d="M6.11 332.69 L2.83 327.02 L-0.44 332.69 L6.11 332.69 Z" class="st4"/>
			</g>
			<g id="shape10-19" transform="translate(-111.182,-151.283) rotate(-25)">
				<title>三角形.10</title>
				<path d="M6.11 332.69 L2.83 327.02 L-0.44 332.69 L6.11 332.69 Z" class="st4"/>
			</g>
			<g id="shape12-21" transform="translate(255.654,-128.37) rotate(33)">
				<title>三角形.12</title>
				<path d="M6.11 332.69 L2.83 327.02 L-0.44 332.69 L6.11 332.69 Z" class="st4"/>
			</g>
			<g id="shape13-23" transform="translate(-162.255,-121.804) rotate(-34)">
				<title>三角形.13</title>
				<path d="M6.11 332.69 L2.83 327.02 L-0.44 332.69 L6.11 332.69 Z" class="st4"/>
			</g>
			<g id="shape14-25" transform="translate(302.757,-92.9443) rotate(42)">
				<title>三角形.14</title>
				<path d="M6.11 332.69 L2.83 327.02 L-0.44 332.69 L6.11 332.69 Z" class="st4"/>
			</g>
			<g id="shape15-27" transform="translate(-203.809,-88.8883) rotate(-42)">
				<title>三角形.15</title>
				<path d="M6.11 332.69 L2.83 327.02 L-0.44 332.69 L6.11 332.69 Z" class="st4"/>
			</g>
			<g id="shape16-29" transform="translate(343.739,-50.4336) rotate(51)">
				<title>三角形.16</title>
				<path d="M6.11 332.69 L2.83 327.02 L-0.44 332.69 L6.11 332.69 Z" class="st4"/>
			</g>
			<g id="shape17-31" transform="translate(-244.026,-45.8066) rotate(-51)">
				<title>三角形.17</title>
				<path d="M6.11 332.69 L2.83 327.02 L-0.44 332.69 L6.11 332.69 Z" class="st4"/>
			</g>
			<g id="shape18-33" transform="translate(377.578,-2.22161) rotate(60)">
				<title>三角形.18</title>
				<path d="M6.11 332.69 L2.83 327.02 L-0.44 332.69 L6.11 332.69 Z" class="st4"/>
			</g>
			<g id="shape19-35" transform="translate(-277.172,3.00032) rotate(-60)">
				<title>三角形.19</title>
				<path d="M6.11 332.69 L2.83 327.02 L-0.44 332.69 L6.11 332.69 Z" class="st4"/>
			</g>
			<g id="shape20-37" transform="translate(-298.184,45.5363) rotate(-67)">
				<title>三角形.20</title>
				<path d="M6.11 332.69 L2.83 327.02 L-0.44 332.69 L6.11 332.69 Z" class="st4"/>
			</g>
			<g id="shape21-39" transform="translate(396.766,34.4684) rotate(66)">
				<title>三角形.21</title>
				<path d="M6.11 332.69 L2.83 327.02 L-0.44 332.69 L6.11 332.69 Z" class="st4"/>
			</g>
			<g id="shape22-41" transform="translate(-317.773,107.185) rotate(-77)">
				<title>三角形.22</title>
				<path d="M6.11 332.69 L2.83 327.02 L-0.44 332.69 L6.11 332.69 Z" class="st4"/>
			</g>
			<g id="shape23-43" transform="translate(416.721,89.986) rotate(75)">
				<title>三角形.23</title>
				<path d="M6.11 332.69 L2.83 327.02 L-0.44 332.69 L6.11 332.69 Z" class="st4"/>
			</g>
			<g id="shape24-45" transform="translate(-325.287,153.896) rotate(-84)">
				<title>三角形.24</title>
				<path d="M6.11 332.69 L2.83 327.02 L-0.44 332.69 L6.11 332.69 Z" class="st4"/>
			</g>
			<g id="shape25-47" transform="translate(-326.023,218.554) rotate(-94)">
				<title>三角形.25</title>
				<path d="M6.11 332.69 L2.83 327.02 L-0.44 332.69 L6.11 332.69 Z" class="st4"/>
			</g>
			<g id="shape26-49" transform="translate(-317.065,276.704) rotate(-103)">
				<title>三角形.26</title>
				<path d="M6.11 332.69 L2.83 327.02 L-0.44 332.69 L6.11 332.69 Z" class="st4"/>
			</g>
			<g id="shape27-51" transform="translate(-305.431,316.427) rotate(-109)">
				<title>三角形.27</title>
				<path d="M6.11 332.69 L2.83 327.02 L-0.44 332.69 L6.11 332.69 Z" class="st4"/>
			</g>
			<g id="shape28-53" transform="translate(-284.613,365.128) rotate(-117)">
				<title>三角形.28</title>
				<path d="M6.11 332.69 L2.83 327.02 L-0.44 332.69 L6.11 332.69 Z" class="st4"/>
			</g>
			<g id="shape29-55" transform="translate(-253.435,415.123) rotate(-126)">
				<title>三角形.29</title>
				<path d="M6.11 332.69 L2.83 327.02 L-0.44 332.69 L6.11 332.69 Z" class="st4"/>
			</g>
			<g id="shape30-57" transform="translate(428.531,153.607) rotate(85)">
				<title>三角形.30</title>
				<path d="M6.11 332.69 L2.83 327.02 L-0.44 332.69 L6.11 332.69 Z" class="st4"/>
			</g>
			<g id="shape31-59" transform="translate(430.306,189.254) rotate(90)">
				<title>三角形.31</title>
				<path d="M6.11 332.69 L2.83 327.02 L-0.44 332.69 L6.11 332.69 Z" class="st4"/>
			</g>
			<g id="shape32-61" transform="translate(426.032,248.033) rotate(99)">
				<title>三角形.32</title>
				<path d="M6.11 332.69 L2.83 327.02 L-0.44 332.69 L6.11 332.69 Z" class="st4"/>
			</g>
			<g id="shape33-63" transform="translate(410.768,311.02) rotate(109)">
				<title>三角形.33</title>
				<path d="M6.11 332.69 L2.83 327.02 L-0.44 332.69 L6.11 332.69 Z" class="st4"/>
			</g>
			<g id="shape34-65" transform="translate(390.564,360.077) rotate(117)">
				<title>三角形.34</title>
				<path d="M6.11 332.69 L2.83 327.02 L-0.44 332.69 L6.11 332.69 Z" class="st4"/>
			</g>
			<g id="shape35-67" transform="translate(360.163,410.514) rotate(126)">
				<title>三角形.35</title>
				<path d="M6.11 332.69 L2.83 327.02 L-0.44 332.69 L6.11 332.69 Z" class="st4"/>
			</g>
			<g id="shape36-69" transform="translate(326.153,451.571) rotate(134)">
				<title>三角形.36</title>
				<path d="M6.11 332.69 L2.83 327.02 L-0.44 332.69 L6.11 332.69 Z" class="st4"/>
			</g>
			<g id="shape37-71" transform="translate(287.012,487.438) rotate(142)">
				<title>三角形.37</title>
				<path d="M6.11 332.69 L2.83 327.02 L-0.44 332.69 L6.11 332.69 Z" class="st4"/>
			</g>
			<g id="shape38-73" transform="translate(243.173,517.498) rotate(150)">
				<title>三角形.38</title>
				<path d="M6.11 332.69 L2.83 327.02 L-0.44 332.69 L6.11 332.69 Z" class="st4"/>
			</g>
			<g id="shape39-75" transform="translate(-129.251,523.416) rotate(-151)">
				<title>三角形.39</title>
				<path d="M6.11 332.69 L2.83 327.02 L-0.44 332.69 L6.11 332.69 Z" class="st4"/>
			</g>
			<g id="shape40-77" transform="translate(-174.262,494.648) rotate(-143)">
				<title>三角形.40</title>
				<path d="M6.11 332.69 L2.83 327.02 L-0.44 332.69 L6.11 332.69 Z" class="st4"/>
			</g>
			<g id="shape41-79" transform="translate(-218.987,455.592) rotate(-134)">
				<title>三角形.41</title>
				<path d="M6.11 332.69 L2.83 327.02 L-0.44 332.69 L6.11 332.69 Z" class="st4"/>
			</g>
			<g id="shape42-81" transform="translate(195.647,541.029) rotate(158)">
				<title>三角形.42</title>
				<path d="M6.11 332.69 L2.83 327.02 L-0.44 332.69 L6.11 332.69 Z" class="st4"/>
			</g>
			<g id="shape43-83" transform="translate(-78.2442,546.555) rotate(-159.5)">
				<title>三角形.43</title>
				<path d="M6.11 332.69 L2.83 327.02 L-0.44 332.69 L6.11 332.69 Z" class="st4"/>
			</g>
			<g id="shape44-85" transform="translate(133.812,560.374) rotate(168)">
				<title>三角形.44</title>
				<path d="M6.11 332.69 L2.83 327.02 L-0.44 332.69 L6.11 332.69 Z" class="st4"/>
			</g>
			<g id="shape45-87" transform="translate(-27.1631,561.295) rotate(-167.5)">
				<title>三角形.45</title>
				<path d="M6.11 332.69 L2.83 327.02 L-0.44 332.69 L6.11 332.69 Z" class="st4"/>
			</g>
			<g id="shape46-89" transform="translate(87.0597,567.788) rotate(175)">
				<title>三角形.46</title>
				<path d="M6.11 332.69 L2.83 327.02 L-0.44 332.69 L6.11 332.69 Z" class="st4"/>
			</g>
			<g id="shape47-91" transform="translate(28.2662,568.788) rotate(-176)">
				<title>三角形.47</title>
				<path d="M6.11 332.69 L2.83 327.02 L-0.44 332.69 L6.11 332.69 Z" class="st4"/>
			</g>
			<g id="shape51-93" transform="translate(384.385,144.608) rotate(90)">
				<title>工作表.51</title>
				<path d="M0 332.69 L29.06 332.69" class="st5"/>
			</g>
			<g id="shape52-96" transform="translate(141.271,-116.975) rotate(15.6192)">
				<title>工作表.52</title>
				<path d="M0 332.69 L41.17 332.69" class="st5"/>
			</g>
			<g id="shape53-99" transform="translate(91.6797,533.703) rotate(173.098)">
				<title>工作表.53</title>
				<path d="M0 332.69 L42.72 332.69" class="st5"/>
			</g>
			<g id="shape54-102" transform="translate(341.073,-19.5346) rotate(60.4367)">
				<title>工作表.54</title>
				<path d="M0 332.69 L73.33 332.69" class="st6"/>
			</g>
			<g id="shape55-108" transform="translate(-267.971,24.6864) rotate(-56.4477)">
				<title>工作表.55</title>
				<path d="M0 332.69 L69.7 332.69" class="st6"/>
			</g>
			<g id="shape57-113" transform="translate(74.2332,-1.13687E-13)">
				<title>工作表.57</title>
				<desc>涅槃寂靜印</desc>
				<rect x="0" y="244.53" width="19.8425" height="88.1575" class="st1"/>
				<text x="9.92" y="248.61" writing-mode="tb-rl" class="st2">涅槃寂靜印</text>			</g>
			<g id="shape58-116" transform="translate(10.5954,-5.68434E-14)">
				<title>工作表.58</title>
				<desc>諸行無常印</desc>
				<rect x="0" y="244.53" width="19.8425" height="88.1575" class="st1"/>
				<text x="9.92" y="248.61" writing-mode="tb-rl" class="st2">諸行無常印</text>			</g>
			<g id="shape59-119" transform="translate(41.7229,-195.874)">
				<title>工作表.59</title>
				<desc>諸法無我空印</desc>
				<rect x="0" y="196.624" width="19.8425" height="136.063" class="st1"/>
				<text x="9.92" y="200.66" writing-mode="tb-rl" class="st2">諸法無我（空）印</text>			</g>
		</g>
	</g>
</svg>
