<?xml version="1.0" encoding="UTF-8" standalone="no"?>
<!DOCTYPE svg PUBLIC "-//W3C//DTD SVG 1.1//EN" "http://www.w3.org/Graphics/SVG/1.1/DTD/svg11.dtd">
<!-- 由 Microsoft Visio, SVG Export 產生 y28.0101.svg 頁-1 -->
<svg xmlns="http://www.w3.org/2000/svg" xmlns:xlink="http://www.w3.org/1999/xlink" xmlns:ev="http://www.w3.org/2001/xml-events"
		width="7.94401in" height="2.65168in" viewBox="0 0 571.969 190.921" xml:space="preserve" color-interpolation-filters="sRGB"
		class="st6">
	<style type="text/css">
	<![CDATA[
		.st1 {fill:none;stroke:#ffffff;stroke-linecap:round;stroke-linejoin:round;stroke-opacity:0;stroke-width:1}
		.st2 {fill:#000000;font-family:新細明體;font-size:12pt}
		.st3 {fill:none;stroke:#000000;stroke-linecap:round;stroke-linejoin:round;stroke-opacity:0;stroke-width:1}
		.st4 {stroke:#000000;stroke-linecap:round;stroke-linejoin:round;stroke-width:1}
		.st5 {stroke:#000000;stroke-dasharray:3,3;stroke-linecap:round;stroke-linejoin:round;stroke-width:1}
		.st6 {fill:none;fill-rule:evenodd;font-size:12px;overflow:visible;stroke-linecap:square;stroke-miterlimit:3}
	]]>
	</style>

	<g>
		<title>頁-1</title>
		<g id="group46-1" transform="translate(0.5,-0.5)">
			<title>工作表.46</title>
			<g id="shape6-2" transform="translate(-2.39808E-14,-85.0394)">
				<title>工作表.6</title>
				<desc>印度的時代根性</desc>
				<rect x="0" y="171.079" width="122.315" height="19.8425" class="st1"/>
				<text x="5.16" y="185.8" class="st2">印度的時代根性</text>			</g>
			<g id="shape7-5" transform="translate(143.15,-143.15)">
				<title>工作表.7</title>
				<desc>樂行者</desc>
				<rect x="0" y="171.079" width="59.5276" height="19.8425" class="st3"/>
				<text x="5.76" y="185.8" class="st2">樂行者</text>			</g>
			<g id="shape2-8" transform="translate(263.622,-170.079)">
				<title>工作表.2</title>
				<desc>祭 祀</desc>
				<rect x="0" y="171.079" width="59.5276" height="19.8425" class="st3"/>
				<text x="5.45" y="185.8" class="st2">祭    祀</text>			</g>
			<g id="shape8-11" transform="translate(263.622,-141.732)">
				<title>工作表.8</title>
				<desc>布 施</desc>
				<rect x="0" y="171.079" width="59.5276" height="19.8425" class="st3"/>
				<text x="5.45" y="185.8" class="st2">布    施</text>			</g>
			<g id="shape9-14" transform="translate(263.622,-113.386)">
				<title>工作表.9</title>
				<desc>持 戒</desc>
				<rect x="0" y="171.079" width="59.5276" height="19.8425" class="st3"/>
				<text x="5.45" y="185.8" class="st2">持    戒</text>			</g>
			<g id="shape10-17" transform="translate(263.622,-85.0394)">
				<title>工作表.10</title>
				<desc>苦 行</desc>
				<rect x="0" y="171.079" width="59.5276" height="19.8425" class="st3"/>
				<text x="5.45" y="185.8" class="st2">苦    行</text>			</g>
			<g id="shape11-20" transform="translate(263.622,-56.6929)">
				<title>工作表.11</title>
				<desc>淡 泊</desc>
				<rect x="0" y="171.079" width="59.5276" height="19.8425" class="st3"/>
				<text x="5.45" y="185.8" class="st2">淡    泊</text>			</g>
			<g id="shape12-23" transform="translate(263.622,-28.3465)">
				<title>工作表.12</title>
				<desc>禪 定</desc>
				<rect x="0" y="171.079" width="59.5276" height="19.8425" class="st3"/>
				<text x="5.45" y="185.8" class="st2">禪    定</text>			</g>
			<g id="shape13-26" transform="translate(263.622,0)">
				<title>工作表.13</title>
				<desc>無我慧</desc>
				<rect x="0" y="171.079" width="59.5276" height="19.8425" class="st3"/>
				<text x="5.76" y="185.8" class="st2">無我慧</text>			</g>
			<g id="shape14-29" transform="translate(143.15,-28.3465)">
				<title>工作表.14</title>
				<desc>苦行者</desc>
				<rect x="0" y="171.079" width="59.5276" height="19.8425" class="st3"/>
				<text x="5.76" y="185.8" class="st2">苦行者</text>			</g>
			<g id="shape15-32" transform="translate(377.008,-141.732)">
				<title>工作表.15</title>
				<desc>人 乘</desc>
				<rect x="0" y="171.079" width="59.5276" height="19.8425" class="st3"/>
				<text x="5.45" y="185.8" class="st2">人    乘</text>			</g>
			<g id="shape16-35" transform="translate(377.008,-85.0394)">
				<title>工作表.16</title>
				<desc>天 乘</desc>
				<rect x="0" y="171.079" width="59.5276" height="19.8425" class="st3"/>
				<text x="5.45" y="185.8" class="st2">天    乘</text>			</g>
			<g id="shape17-38" transform="translate(375.591,-28.3465)">
				<title>工作表.17</title>
				<desc>出世法</desc>
				<rect x="0" y="171.079" width="59.5276" height="19.8425" class="st3"/>
				<text x="5.76" y="185.8" class="st2">出世法</text>			</g>
			<g id="shape18-41" transform="translate(461.622,-85.0394)">
				<title>工作表.18</title>
				<desc>佛教中道之行</desc>
				<rect x="0" y="171.079" width="109.346" height="19.8425" class="st1"/>
				<text x="6.67" y="185.8" class="st2">佛教中道之行</text>			</g>
			<g id="shape19-44" transform="translate(72.5351,13.6247) rotate(-43.2643)">
				<title>工作表.19</title>
				<path d="M0 190.92 L82.72 190.92" class="st4"/>
			</g>
			<g id="shape20-47" transform="translate(122.16,-20.4588) rotate(-24.9439)">
				<title>工作表.20</title>
				<path d="M0 190.92 L67.21 190.92" class="st4"/>
			</g>
			<g id="shape21-50" transform="translate(202.677,-38.2677)">
				<title>工作表.21</title>
				<path d="M0 190.92 L60.94 190.92" class="st4"/>
			</g>
			<g id="shape22-53" transform="translate(47.0579,42.0481) rotate(-54.5969)">
				<title>工作表.22</title>
				<path d="M0 190.92 L105.2 190.92" class="st5"/>
			</g>
			<g id="shape23-56" transform="translate(122.16,-133.845) rotate(-24.9439)">
				<title>工作表.23</title>
				<path d="M0 190.92 L67.21 190.92" class="st4"/>
			</g>
			<g id="shape24-59" transform="translate(283.195,-133.845) rotate(24.9439)">
				<title>工作表.24</title>
				<path d="M0 190.92 L67.21 190.92" class="st4"/>
			</g>
			<g id="shape25-62" transform="translate(202.677,-151.654)">
				<title>工作表.25</title>
				<path d="M0 190.92 L60.94 190.92" class="st4"/>
			</g>
			<g id="shape26-65" transform="translate(136.063,-38.2677)">
				<title>工作表.26</title>
				<path d="M0 190.92 L13.46 190.92" class="st4"/>
			</g>
			<g id="shape27-68" transform="translate(136.063,-151.654)">
				<title>工作表.27</title>
				<path d="M0 190.92 L13.46 190.92" class="st4"/>
			</g>
			<g id="shape28-71" transform="translate(122.315,-94.9606)">
				<title>工作表.28</title>
				<path d="M0 190.92 L13.46 190.92" class="st4"/>
			</g>
			<g id="shape1-74" transform="translate(-54.8583,152.654) rotate(-90)">
				<title>工作表.1</title>
				<path d="M0 190.92 L113.39 190.92" class="st4"/>
			</g>
			<g id="shape29-77" transform="translate(434.409,-151.654)">
				<title>工作表.29</title>
				<path d="M0 190.92 L13.46 190.92" class="st4"/>
			</g>
			<g id="shape30-80" transform="translate(434.409,-94.9606)">
				<title>工作表.30</title>
				<path d="M0 190.92 L27.21 190.92" class="st4"/>
			</g>
			<g id="shape31-83" transform="translate(434.409,-38.2677)">
				<title>工作表.31</title>
				<path d="M0 190.92 L13.46 190.92" class="st4"/>
			</g>
			<g id="shape4-86" transform="translate(256.953,152.654) rotate(-90)">
				<title>工作表.4</title>
				<path d="M0 190.92 L113.39 190.92" class="st4"/>
			</g>
			<g id="shape32-89" transform="translate(320.315,-38.2677)">
				<title>工作表.32</title>
				<path d="M0 190.92 L60.94 190.92" class="st4"/>
			</g>
			<g id="shape33-92" transform="translate(239.798,7.88766) rotate(-24.9439)">
				<title>工作表.33</title>
				<path d="M0 190.92 L67.21 190.92" class="st4"/>
			</g>
			<g id="shape34-95" transform="translate(400.832,-48.8053) rotate(24.9439)">
				<title>工作表.34</title>
				<path d="M0 190.92 L67.21 190.92" class="st4"/>
			</g>
			<g id="shape35-98" transform="translate(399.415,-105.498) rotate(24.9439)">
				<title>工作表.35</title>
				<path d="M0 190.92 L67.21 190.92" class="st4"/>
			</g>
			<g id="shape37-101" transform="translate(239.64,-106.079) rotate(-24.5276)">
				<title>工作表.37</title>
				<path d="M0 190.92 L67.63 190.92" class="st4"/>
			</g>
			<g id="shape36-104" transform="translate(320.315,-151.654)">
				<title>工作表.36</title>
				<path d="M0 190.92 L60.94 190.92" class="st4"/>
			</g>
			<g id="shape38-107" transform="translate(188.993,14.0362) rotate(-43.7526)">
				<title>工作表.38</title>
				<path d="M0 190.92 L81.11 190.92" class="st5"/>
			</g>
			<g id="shape39-110" transform="translate(238.103,-47.5557) rotate(-25.8187)">
				<title>工作表.39</title>
				<path d="M0 190.92 L65.09 190.92" class="st5"/>
			</g>
			<g id="shape40-113" transform="translate(451.985,-98.9856) rotate(43.6028)">
				<title>工作表.40</title>
				<path d="M0 190.92 L82.2 190.92" class="st5"/>
			</g>
			<g id="shape41-116" transform="translate(490.297,-49.035) rotate(62.4509)">
				<title>工作表.41</title>
				<path d="M0 190.92 L127.13 190.92" class="st5"/>
			</g>
			<g id="shape45-119" transform="translate(473.547,-44.9314) rotate(53.9337)">
				<title>工作表.45</title>
				<path d="M0 190.92 L105.38 190.92" class="st4"/>
			</g>
		</g>
	</g>
</svg>
