<?xml version="1.0" encoding="UTF-8" standalone="no"?>
<!DOCTYPE svg PUBLIC "-//W3C//DTD SVG 1.1//EN" "http://www.w3.org/Graphics/SVG/1.1/DTD/svg11.dtd">
<!-- 由 Microsoft Visio, SVG Export 產生 y28.0072.svg 頁-1 -->
<svg xmlns="http://www.w3.org/2000/svg" xmlns:xlink="http://www.w3.org/1999/xlink" xmlns:ev="http://www.w3.org/2001/xml-events"
		width="1.53877in" height="1.53877in" viewBox="0 0 110.791 110.791" xml:space="preserve" color-interpolation-filters="sRGB"
		class="st4">
	<style type="text/css">
	<![CDATA[
		.st1 {fill:#d3d3ab;fill-opacity:0;stroke:#000000;stroke-linecap:round;stroke-linejoin:round;stroke-width:0.25}
		.st2 {fill:#000000;stroke:#000000;stroke-linecap:round;stroke-linejoin:round;stroke-width:0.24}
		.st3 {stroke:#000000;stroke-linecap:round;stroke-linejoin:round;stroke-opacity:0;stroke-width:0.24}
		.st4 {fill:none;fill-rule:evenodd;font-size:12px;overflow:visible;stroke-linecap:square;stroke-miterlimit:3}
	]]>
	</style>

	<g>
		<title>頁-1</title>
		<g id="group50-1" transform="translate(0.12,-0.12)">
			<title>工作表.50</title>
			<g id="shape2-2" transform="translate(10.6299,-9.2126)">
				<title>圓形</title>
				<path d="M0 64.73 A46.063 46.063 0 0 1 92.13 64.73 A46.063 46.063 0 1 1 0 64.73 Z" class="st1"/>
			</g>
			<g id="shape3-4" transform="translate(53.8583,-101.197)">
				<title>三角形</title>
				<path d="M6.11 110.79 L2.83 105.12 L-0.44 110.79 L6.11 110.79 Z" class="st2"/>
			</g>
			<g id="shape4-6" transform="translate(74.0539,-100.343) rotate(7)">
				<title>三角形.4</title>
				<path d="M6.11 110.79 L2.83 105.12 L-0.44 110.79 L6.11 110.79 Z" class="st2"/>
			</g>
			<g id="shape6-8" transform="translate(99.4257,-95.3069) rotate(17)">
				<title>三角形.6</title>
				<path d="M6.11 110.79 L2.83 105.12 L-0.44 110.79 L6.11 110.79 Z" class="st2"/>
			</g>
			<g id="shape7-10" transform="translate(118.442,-88.5798) rotate(24)">
				<title>三角形.7</title>
				<path d="M6.11 110.79 L2.83 105.12 L-0.44 110.79 L6.11 110.79 Z" class="st2"/>
			</g>
			<g id="shape8-12" transform="translate(30.8746,-99.267) rotate(-8.5)">
				<title>三角形.8</title>
				<path d="M6.11 110.79 L2.83 105.12 L-0.44 110.79 L6.11 110.79 Z" class="st2"/>
			</g>
			<g id="shape9-14" transform="translate(8.27912,-93.6494) rotate(-17)">
				<title>三角形.9</title>
				<path d="M6.11 110.79 L2.83 105.12 L-0.44 110.79 L6.11 110.79 Z" class="st2"/>
			</g>
			<g id="shape10-16" transform="translate(-12.4092,-85.3326) rotate(-25)">
				<title>三角形.10</title>
				<path d="M6.11 110.79 L2.83 105.12 L-0.44 110.79 L6.11 110.79 Z" class="st2"/>
			</g>
			<g id="shape12-18" transform="translate(139.796,-77.4281) rotate(33)">
				<title>三角形.12</title>
				<path d="M6.11 110.79 L2.83 105.12 L-0.44 110.79 L6.11 110.79 Z" class="st2"/>
			</g>
			<g id="shape13-20" transform="translate(-33.1777,-72.9995) rotate(-34)">
				<title>三角形.13</title>
				<path d="M6.11 110.79 L2.83 105.12 L-0.44 110.79 L6.11 110.79 Z" class="st2"/>
			</g>
			<g id="shape14-22" transform="translate(159.275,-63.1993) rotate(42)">
				<title>三角形.14</title>
				<path d="M6.11 110.79 L2.83 105.12 L-0.44 110.79 L6.11 110.79 Z" class="st2"/>
			</g>
			<g id="shape15-24" transform="translate(-50.3366,-59.1432) rotate(-42)">
				<title>三角形.15</title>
				<path d="M6.11 110.79 L2.83 105.12 L-0.44 110.79 L6.11 110.79 Z" class="st2"/>
			</g>
			<g id="shape16-26" transform="translate(176.289,-45.9457) rotate(51)">
				<title>三角形.16</title>
				<path d="M6.11 110.79 L2.83 105.12 L-0.44 110.79 L6.11 110.79 Z" class="st2"/>
			</g>
			<g id="shape17-28" transform="translate(-66.5858,-41.3187) rotate(-51)">
				<title>三角形.17</title>
				<path d="M6.11 110.79 L2.83 105.12 L-0.44 110.79 L6.11 110.79 Z" class="st2"/>
			</g>
			<g id="shape18-30" transform="translate(190.406,-26.4294) rotate(60)">
				<title>三角形.18</title>
				<path d="M6.11 110.79 L2.83 105.12 L-0.44 110.79 L6.11 110.79 Z" class="st2"/>
			</g>
			<g id="shape19-32" transform="translate(-80.0098,-21.2074) rotate(-60)">
				<title>三角形.19</title>
				<path d="M6.11 110.79 L2.83 105.12 L-0.44 110.79 L6.11 110.79 Z" class="st2"/>
			</g>
			<g id="shape20-34" transform="translate(-88.9326,-2.91779) rotate(-67)">
				<title>三角形.20</title>
				<path d="M6.11 110.79 L2.83 105.12 L-0.44 110.79 L6.11 110.79 Z" class="st2"/>
			</g>
			<g id="shape21-36" transform="translate(199.049,-10.4341) rotate(66)">
				<title>三角形.21</title>
				<path d="M6.11 110.79 L2.83 105.12 L-0.44 110.79 L6.11 110.79 Z" class="st2"/>
			</g>
			<g id="shape22-38" transform="translate(-96.5697,21.9452) rotate(-77)">
				<title>三角形.22</title>
				<path d="M6.11 110.79 L2.83 105.12 L-0.44 110.79 L6.11 110.79 Z" class="st2"/>
			</g>
			<g id="shape23-40" transform="translate(207.381,12.2612) rotate(75)">
				<title>三角形.23</title>
				<path d="M6.11 110.79 L2.83 105.12 L-0.44 110.79 L6.11 110.79 Z" class="st2"/>
			</g>
			<g id="shape24-42" transform="translate(-99.612,41.935) rotate(-84)">
				<title>三角形.24</title>
				<path d="M6.11 110.79 L2.83 105.12 L-0.44 110.79 L6.11 110.79 Z" class="st2"/>
			</g>
			<g id="shape25-44" transform="translate(-99.673,67.9196) rotate(-94)">
				<title>三角形.25</title>
				<path d="M6.11 110.79 L2.83 105.12 L-0.44 110.79 L6.11 110.79 Z" class="st2"/>
			</g>
			<g id="shape26-46" transform="translate(-95.8613,91.6329) rotate(-103)">
				<title>三角形.26</title>
				<path d="M6.11 110.79 L2.83 105.12 L-0.44 110.79 L6.11 110.79 Z" class="st2"/>
			</g>
			<g id="shape27-48" transform="translate(-90.6297,109.029) rotate(-109)">
				<title>三角形.27</title>
				<path d="M6.11 110.79 L2.83 105.12 L-0.44 110.79 L6.11 110.79 Z" class="st2"/>
			</g>
			<g id="shape28-50" transform="translate(-81.9069,129.234) rotate(-117)">
				<title>三角形.28</title>
				<path d="M6.11 110.79 L2.83 105.12 L-0.44 110.79 L6.11 110.79 Z" class="st2"/>
			</g>
			<g id="shape29-52" transform="translate(-68.9225,149.54) rotate(-126)">
				<title>三角形.29</title>
				<path d="M6.11 110.79 L2.83 105.12 L-0.44 110.79 L6.11 110.79 Z" class="st2"/>
			</g>
			<g id="shape30-54" transform="translate(212.475,37.7907) rotate(85)">
				<title>三角形.30</title>
				<path d="M6.11 110.79 L2.83 105.12 L-0.44 110.79 L6.11 110.79 Z" class="st2"/>
			</g>
			<g id="shape31-56" transform="translate(213.405,54.0983) rotate(90)">
				<title>三角形.31</title>
				<path d="M6.11 110.79 L2.83 105.12 L-0.44 110.79 L6.11 110.79 Z" class="st2"/>
			</g>
			<g id="shape32-58" transform="translate(211.863,78.1652) rotate(99)">
				<title>三角形.32</title>
				<path d="M6.11 110.79 L2.83 105.12 L-0.44 110.79 L6.11 110.79 Z" class="st2"/>
			</g>
			<g id="shape33-60" transform="translate(205.956,103.622) rotate(109)">
				<title>三角形.33</title>
				<path d="M6.11 110.79 L2.83 105.12 L-0.44 110.79 L6.11 110.79 Z" class="st2"/>
			</g>
			<g id="shape34-62" transform="translate(197.849,124.183) rotate(117)">
				<title>三角形.34</title>
				<path d="M6.11 110.79 L2.83 105.12 L-0.44 110.79 L6.11 110.79 Z" class="st2"/>
			</g>
			<g id="shape35-64" transform="translate(185.641,144.931) rotate(126)">
				<title>三角形.35</title>
				<path d="M6.11 110.79 L2.83 105.12 L-0.44 110.79 L6.11 110.79 Z" class="st2"/>
			</g>
			<g id="shape36-66" transform="translate(171.53,162.273) rotate(134)">
				<title>三角形.36</title>
				<path d="M6.11 110.79 L2.83 105.12 L-0.44 110.79 L6.11 110.79 Z" class="st2"/>
			</g>
			<g id="shape37-68" transform="translate(155.394,177.426) rotate(142)">
				<title>三角形.37</title>
				<path d="M6.11 110.79 L2.83 105.12 L-0.44 110.79 L6.11 110.79 Z" class="st2"/>
			</g>
			<g id="shape38-70" transform="translate(137.22,190.175) rotate(150)">
				<title>三角形.38</title>
				<path d="M6.11 110.79 L2.83 105.12 L-0.44 110.79 L6.11 110.79 Z" class="st2"/>
			</g>
			<g id="shape39-72" transform="translate(-16.6788,194.186) rotate(-151)">
				<title>三角形.39</title>
				<path d="M6.11 110.79 L2.83 105.12 L-0.44 110.79 L6.11 110.79 Z" class="st2"/>
			</g>
			<g id="shape40-74" transform="translate(-35.7269,182.278) rotate(-143)">
				<title>三角形.40</title>
				<path d="M6.11 110.79 L2.83 105.12 L-0.44 110.79 L6.11 110.79 Z" class="st2"/>
			</g>
			<g id="shape41-76" transform="translate(-54.3737,166.295) rotate(-134)">
				<title>三角形.41</title>
				<path d="M6.11 110.79 L2.83 105.12 L-0.44 110.79 L6.11 110.79 Z" class="st2"/>
			</g>
			<g id="shape42-78" transform="translate(117.518,200.135) rotate(158)">
				<title>三角形.42</title>
				<path d="M6.11 110.79 L2.83 105.12 L-0.44 110.79 L6.11 110.79 Z" class="st2"/>
			</g>
			<g id="shape43-80" transform="translate(4.46051,203.556) rotate(-159.5)">
				<title>三角形.43</title>
				<path d="M6.11 110.79 L2.83 105.12 L-0.44 110.79 L6.11 110.79 Z" class="st2"/>
			</g>
			<g id="shape44-82" transform="translate(92.6728,208.171) rotate(168)">
				<title>三角形.44</title>
				<path d="M6.11 110.79 L2.83 105.12 L-0.44 110.79 L6.11 110.79 Z" class="st2"/>
			</g>
			<g id="shape45-84" transform="translate(25.8591,209.503) rotate(-167.5)">
				<title>三角形.45</title>
				<path d="M6.11 110.79 L2.83 105.12 L-0.44 110.79 L6.11 110.79 Z" class="st2"/>
			</g>
			<g id="shape46-86" transform="translate(72.7153,211.581) rotate(175)">
				<title>三角形.46</title>
				<path d="M6.11 110.79 L2.83 105.12 L-0.44 110.79 L6.11 110.79 Z" class="st2"/>
			</g>
			<g id="shape47-88" transform="translate(48.74,212.277) rotate(-176)">
				<title>三角形.47</title>
				<path d="M6.11 110.79 L2.83 105.12 L-0.44 110.79 L6.11 110.79 Z" class="st2"/>
			</g>
			<g id="group49-90">
				<title>工作表.49</title>
				<g id="shape1-91" transform="translate(6.39488E-14,-110.551)">
					<title>工作表.1</title>
					<path d="M0 110.79 L110.55 110.79" class="st3"/>
				</g>
				<g id="shape5-94" transform="translate(-110.791,110.791) rotate(-90)">
					<title>工作表.5</title>
					<path d="M0 110.79 L110.55 110.79" class="st3"/>
				</g>
				<g id="shape11-97" transform="translate(-0.24,110.791) rotate(-90)">
					<title>工作表.11</title>
					<path d="M0 110.79 L110.55 110.79" class="st3"/>
				</g>
				<g id="shape48-100">
					<title>工作表.48</title>
					<path d="M0 110.79 L110.55 110.79" class="st3"/>
				</g>
			</g>
		</g>
	</g>
</svg>
