<?xml version="1.0" encoding="UTF-8" standalone="no"?>
<!DOCTYPE svg PUBLIC "-//W3C//DTD SVG 1.1//EN" "http://www.w3.org/Graphics/SVG/1.1/DTD/svg11.dtd">
<!-- 由 Microsoft Visio, SVG Export 產生 y30.0044.svg 頁-1 -->
<svg xmlns="http://www.w3.org/2000/svg" xmlns:xlink="http://www.w3.org/1999/xlink" xmlns:ev="http://www.w3.org/2001/xml-events"
		width="5.63992in" height="2.26339in" viewBox="0 0 406.074 162.964" xml:space="preserve" color-interpolation-filters="sRGB"
		class="st7">
	<style type="text/css">
	<![CDATA[
		.st1 {fill:none;stroke:none;stroke-linecap:round;stroke-linejoin:round;stroke-width:0.72}
		.st2 {fill:#000000;font-family:新細明體;font-size:12pt}
		.st3 {fill:#000000;font-family:Times New Roman;font-size:12pt}
		.st4 {font-family:新細明體;font-size:1em}
		.st5 {fill:#ffffff;stroke:#000000;stroke-linecap:round;stroke-linejoin:round;stroke-width:0.72}
		.st6 {font-family:Times New Roman;font-size:1em}
		.st7 {fill:none;fill-rule:evenodd;font-size:12px;overflow:visible;stroke-linecap:square;stroke-miterlimit:3}
	]]>
	</style>

	<g>
		<title>頁-1</title>
		<g id="group30-1" transform="translate(0.36,-0.36)">
			<title>工作表.30</title>
			<g id="shape1-2" transform="translate(0,-142.402)">
				<title>工作表.1</title>
				<desc>《雜阿含經》</desc>
				<rect x="0" y="143.122" width="106.299" height="19.8425" class="st1"/>
				<text x="4" y="158.03" class="st2">《雜阿含經》</text>			</g>
			<g id="shape2-5" transform="translate(184.252,-142.402)">
				<title>工作表.2</title>
				<desc>《相應部》</desc>
				<rect x="0" y="143.122" width="92.126" height="19.8425" class="st1"/>
				<text x="4" y="158.03" class="st2">《相應部》</text>			</g>
			<g id="shape3-8" transform="translate(-1.59872E-14,-114.055)">
				<title>工作表.3</title>
				<desc>五陰誦第一品</desc>
				<rect x="0" y="143.122" width="106.299" height="19.8425" class="st1"/>
				<text x="4" y="158.03" class="st2">五陰誦第一品</text>			</g>
			<g id="shape4-11" transform="translate(0,-85.7087)">
				<title>工作表.4</title>
				<desc>六入處誦第二品</desc>
				<rect x="0" y="143.122" width="120.472" height="19.8425" class="st1"/>
				<text x="4" y="158.03" class="st2">六入處誦第二品</text>			</g>
			<g id="shape5-14" transform="translate(0,-57.3622)">
				<title>工作表.5</title>
				<desc>雜因誦第三品</desc>
				<rect x="0" y="143.122" width="106.299" height="19.8425" class="st1"/>
				<text x="4" y="158.03" class="st2">雜因誦第三品</text>			</g>
			<g id="shape6-17" transform="translate(0,-29.0157)">
				<title>工作表.6</title>
				<desc>道品誦第四品</desc>
				<rect x="0" y="143.122" width="106.299" height="19.8425" class="st1"/>
				<text x="4" y="158.03" class="st2">道品誦第四品</text>			</g>
			<g id="shape7-20">
				<title>工作表.7</title>
				<desc>八眾誦第五品</desc>
				<rect x="0" y="143.122" width="105.764" height="19.8425" class="st1"/>
				<text x="4" y="158.03" class="st2">八眾誦第五品</text>			</g>
			<g id="shape8-23" transform="translate(184.252,-114.055)">
				<title>工作表.8</title>
				<desc>I有偈篇</desc>
				<rect x="0" y="143.122" width="63.7795" height="19.8425" class="st1"/>
				<text x="4" y="158.03" class="st3">I<tspan class="st4">有偈篇</tspan></text>			</g>
			<g id="shape9-27" transform="translate(184.252,-85.7087)">
				<title>工作表.9</title>
				<desc>II因緣篇</desc>
				<rect x="0" y="143.122" width="70.8661" height="19.8425" class="st1"/>
				<text x="4" y="158.03" class="st3">II<tspan class="st4">因緣篇</tspan></text>			</g>
			<g id="shape10-31" transform="translate(184.252,-57.3622)">
				<title>工作表.10</title>
				<desc>III蘊篇</desc>
				<rect x="0" y="143.122" width="56.6929" height="19.8425" class="st1"/>
				<text x="4" y="158.03" class="st3">III<tspan class="st4">蘊篇</tspan></text>			</g>
			<g id="shape11-35" transform="translate(184.252,-29.0157)">
				<title>工作表.11</title>
				<desc>IV六處篇</desc>
				<rect x="0" y="143.122" width="73.7008" height="19.8425" class="st1"/>
				<text x="4" y="158.03" class="st3">IV<tspan class="st4">六處篇</tspan></text>			</g>
			<g id="shape12-39" transform="translate(184.252,-5.68434E-14)">
				<title>工作表.12</title>
				<desc>V大篇</desc>
				<rect x="0" y="143.122" width="53.8583" height="19.8425" class="st1"/>
				<text x="4" y="158.03" class="st3">V<tspan class="st4">大篇</tspan></text>			</g>
			<g id="shape14-43" transform="translate(121.89,-38.937)">
				<title>工作表.14</title>
				<path d="M0 106.27 L62.36 162.96 L0 106.27 Z" class="st5"/>
			</g>
			<g id="shape15-45" transform="translate(107.717,-67.2835)">
				<title>工作表.15</title>
				<path d="M0 162.96 L76.54 134.62 L0 162.96 Z" class="st5"/>
			</g>
			<g id="shape16-47" transform="translate(107.717,-10.5906)">
				<title>工作表.16</title>
				<path d="M0 134.62 L76.54 162.96 L0 134.62 Z" class="st5"/>
			</g>
			<g id="shape18-49" transform="translate(235.276,-114.055)">
				<title>工作表.18</title>
				<desc>Sagātha-vagga</desc>
				<rect x="0" y="143.122" width="138.898" height="19.8425" class="st1"/>
				<text x="4" y="158.03" class="st2">（<tspan class="st6">Sag</tspan><tspan class="st6">ā</tspan><tspan class="st6">tha</tspan><tspan
							class="st6">-</tspan><tspan class="st6">vagga</tspan>）</text>			</g>
			<g id="shape19-57" transform="translate(240.945,-85.7087)">
				<title>工作表.19</title>
				<desc>Nidāna-vagga</desc>
				<rect x="0" y="143.122" width="138.362" height="19.8425" class="st1"/>
				<text x="4" y="158.03" class="st2">（<tspan class="st6">Nid</tspan><tspan class="st6">ā</tspan><tspan class="st6">na</tspan><tspan
							class="st6">-</tspan><tspan class="st6">vagga</tspan>）</text>			</g>
			<g id="shape20-65" transform="translate(230.315,-57.3622)">
				<title>工作表.20</title>
				<desc>Khandha-vagga</desc>
				<rect x="0" y="143.122" width="145.984" height="19.8425" class="st1"/>
				<text x="4" y="158.03" class="st2">（<tspan class="st6">Khandha</tspan><tspan class="st6">-</tspan><tspan
							class="st6">vagga</tspan>）</text>			</g>
			<g id="shape21-71" transform="translate(246.614,-29.0157)">
				<title>工作表.21</title>
				<desc>Saḷāyatana-vagga</desc>
				<rect x="0" y="143.122" width="158.74" height="19.8425" class="st1"/>
				<text x="4" y="158.03" class="st2">（<tspan class="st6">Sa</tspan><tspan class="st6">ḷā</tspan><tspan class="st6">yatana</tspan><tspan
							class="st6">-</tspan><tspan class="st6">vagga</tspan>）</text>			</g>
			<g id="shape22-79" transform="translate(225.354,-2.84217E-14)">
				<title>工作表.22</title>
				<desc>Mahā-vagga</desc>
				<rect x="0" y="143.122" width="127.559" height="19.8425" class="st1"/>
				<text x="4" y="158.03" class="st2">（<tspan class="st6">Mah</tspan><tspan class="st6">ā</tspan><tspan class="st6">-</tspan><tspan
							class="st6">vagga</tspan>）</text>			</g>
			<g id="shape17-86" transform="translate(107.717,-10.5906)">
				<title>工作表.17</title>
				<path d="M0 162.96 L76.54 49.58 L0 162.96 Z" class="st5"/>
			</g>
			<g id="shape13-88" transform="translate(107.717,-67.2835)">
				<title>工作表.13</title>
				<path d="M0 106.27 L76.54 162.96 L0 106.27 Z" class="st5"/>
			</g>
		</g>
	</g>
</svg>
