<?xml version="1.0" encoding="UTF-8" standalone="no"?>
<!DOCTYPE svg PUBLIC "-//W3C//DTD SVG 1.1//EN" "http://www.w3.org/Graphics/SVG/1.1/DTD/svg11.dtd">
<!-- 由 Microsoft Visio, SVG Export 產生 y33.0257-2.svg 頁-1 -->
<svg xmlns="http://www.w3.org/2000/svg" xmlns:xlink="http://www.w3.org/1999/xlink" xmlns:ev="http://www.w3.org/2001/xml-events"
		width="5.13026in" height="3.29955in" viewBox="0 0 369.379 237.568" xml:space="preserve" color-interpolation-filters="sRGB"
		class="st9">
	<style type="text/css">
	<![CDATA[
		.st1 {fill:none;stroke:none;stroke-linecap:round;stroke-linejoin:round;stroke-width:0.75}
		.st2 {fill:#000000;font-family:新細明體;font-size:12pt}
		.st3 {fill:none;stroke:#000000;stroke-linecap:round;stroke-linejoin:round;stroke-width:1}
		.st4 {stroke:#000000;stroke-linecap:round;stroke-linejoin:round;stroke-width:1}
		.st5 {marker-end:url(#mrkr7-61);stroke:#000000;stroke-dasharray:3,3;stroke-linecap:round;stroke-linejoin:round;stroke-width:1}
		.st6 {fill:#000000;fill-opacity:1;stroke:#000000;stroke-opacity:1;stroke-width:0.28409090909091}
		.st7 {marker-end:url(#mrkr7-61);stroke:#000000;stroke-linecap:round;stroke-linejoin:round;stroke-width:1}
		.st8 {stroke:#000000;stroke-dasharray:3,3;stroke-linecap:round;stroke-linejoin:round;stroke-width:1}
		.st9 {fill:none;fill-rule:evenodd;font-size:12px;overflow:visible;stroke-linecap:square;stroke-miterlimit:3}
	]]>
	</style>

	<defs id="Markers">
		<g id="lend7">
			<path
					d="M 1.84309 -0.959456 C 1.43792 -0.380801 0.784503 -0.0260255 0.078527 -0.00137091 L 0.0785229 0.00137043 C 0.784499 0.0260231 1.43791 0.380798 1.84309 0.959452 "
					style="stroke-linecap:round;stroke-linejoin:round;fill:none"/>
		</g>
		<marker id="mrkr7-61" class="st6" orient="auto" markerUnits="strokeWidth" overflow="visible">
			<use xlink:href="#lend7" transform="scale(-3.52,-3.52) "/>
		</marker>
	</defs>
	<g>
		<title>頁-1</title>
		<g id="group112-1" transform="translate(0.5,-0.5)">
			<title>工作表.112</title>
			<g id="shape77-2" transform="translate(8.31335E-13,-131.811)">
				<title>工作表.77</title>
				<desc>決擇分之綜合</desc>
				<rect x="0" y="217.725" width="104.882" height="19.8425" class="st1"/>
				<text x="4.44" y="232.45" class="st2">決擇分之綜合</text>			</g>
			<g id="shape78-5" transform="translate(-34.2712,-120.968) rotate(-45)">
				<title>工作表.78</title>
				<desc>種子</desc>
				<rect x="0" y="217.725" width="42.5197" height="19.8425" class="st1"/>
				<text x="5.26" y="232.45" class="st2">種子</text>			</g>
			<g id="shape80-8" transform="translate(232.441,-216.85)">
				<title>工作表.80</title>
				<desc>唯識論加種子</desc>
				<rect x="0" y="217.725" width="136.063" height="19.8425" class="st1"/>
				<text x="4.03" y="232.45" class="st2">（唯識論加種子）</text>			</g>
			<g id="shape81-11" transform="translate(233.858,-174.331)">
				<title>工作表.81</title>
				<desc>似根</desc>
				<rect x="0" y="217.725" width="42.5197" height="19.8425" class="st1"/>
				<text x="5.26" y="232.45" class="st2">似根</text>			</g>
			<g id="shape82-14" transform="translate(233.858,-145.984)">
				<title>工作表.82</title>
				<desc>似塵</desc>
				<rect x="0" y="217.725" width="42.5197" height="19.8425" class="st1"/>
				<text x="5.26" y="232.45" class="st2">似塵</text>			</g>
			<g id="shape84-17" transform="translate(233.858,-103.465)">
				<title>工作表.84</title>
				<desc>似我</desc>
				<rect x="0" y="217.725" width="42.5197" height="19.8425" class="st1"/>
				<text x="5.26" y="232.45" class="st2">似我</text>			</g>
			<g id="shape86-20" transform="translate(233.858,-46.7717)">
				<title>工作表.86</title>
				<desc>似了</desc>
				<rect x="0" y="217.725" width="42.5197" height="19.8425" class="st1"/>
				<text x="5.26" y="232.45" class="st2">似了</text>			</g>
			<g id="shape87-23" transform="translate(148.819,-4.25197)">
				<title>工作表.87</title>
				<desc>分別</desc>
				<rect x="0" y="217.725" width="42.5197" height="19.8425" class="st1"/>
				<text x="5.26" y="232.45" class="st2">分別</text>			</g>
			<g id="shape88-26" transform="translate(218.268,-4.25197)">
				<title>工作表.88</title>
				<desc>所分別</desc>
				<rect x="0" y="217.725" width="56.6929" height="19.8425" class="st1"/>
				<text x="4.35" y="232.45" class="st2">所分別</text>			</g>
			<g id="shape62-29" transform="translate(155.906,-99.2126)">
				<title>工作表.62</title>
				<desc>意</desc>
				<ellipse cx="14.1732" cy="223.395" rx="14.1732" ry="14.1732" class="st3"/>
				<text x="6.17" y="228.19" class="st2">意</text>			</g>
			<g id="shape83-32" transform="translate(155.906,-42.5197)">
				<title>工作表.83</title>
				<desc>識</desc>
				<ellipse cx="14.1732" cy="223.395" rx="14.1732" ry="14.1732" class="st3"/>
				<text x="6.17" y="228.19" class="st2">識</text>			</g>
			<g id="shape85-35" transform="translate(155.906,-170.079)">
				<title>工作表.85</title>
				<desc>心</desc>
				<ellipse cx="14.1732" cy="223.395" rx="14.1732" ry="14.1732" class="st3"/>
				<text x="6.17" y="228.19" class="st2">心</text>			</g>
			<g id="shape25-38" transform="translate(-129.851,110.009) rotate(-90)">
				<title>工作表.25</title>
				<path d="M0 237.57 L28.35 237.57" class="st4"/>
			</g>
			<g id="shape79-41" transform="translate(3.19744E-14,-155.906)">
				<title>工作表.79</title>
				<path d="M0 237.57 L107.72 237.57" class="st4"/>
			</g>
			<g id="shape89-44" transform="translate(1.27898E-13,-127.559)">
				<title>工作表.89</title>
				<path d="M0 237.57 L107.72 237.57" class="st4"/>
			</g>
			<g id="shape90-47" transform="translate(-237.568,110.009) rotate(-90)">
				<title>工作表.90</title>
				<path d="M0 237.57 L28.35 237.57" class="st4"/>
			</g>
			<g id="shape93-50" transform="translate(-67.4892,166.702) rotate(-90)">
				<title>工作表.93</title>
				<path d="M0 237.57 L28.35 237.57" class="st4"/>
			</g>
			<g id="shape94-53" transform="translate(-67.4892,110.009) rotate(-90)">
				<title>工作表.94</title>
				<path d="M0 237.57 L42.52 237.57" class="st4"/>
			</g>
			<g id="shape95-56" transform="translate(52.473,-158.526) rotate(-33.6901)">
				<title>工作表.95</title>
				<path d="M0 237.57 L51.1 237.57" class="st5"/>
			</g>
			<g id="shape96-62" transform="translate(184.252,-184.252)">
				<title>工作表.96</title>
				<path d="M0 237.57 L51.02 237.57" class="st7"/>
			</g>
			<g id="shape97-67" transform="translate(299.625,-154.356) rotate(29.0546)">
				<title>工作表.97</title>
				<path d="M0 237.57 L58.37 237.57" class="st7"/>
			</g>
			<g id="shape98-72" transform="translate(184.252,-113.386)">
				<title>工作表.98</title>
				<path d="M0 237.57 L51.02 237.57" class="st7"/>
			</g>
			<g id="shape99-77" transform="translate(184.252,-56.6929)">
				<title>工作表.99</title>
				<path d="M0 237.57 L51.02 237.57" class="st7"/>
			</g>
			<g id="shape100-82" transform="translate(-67.4892,209.221) rotate(-90)">
				<title>工作表.100</title>
				<path d="M0 237.57 L14.17 237.57" class="st4"/>
			</g>
			<g id="shape92-85" transform="translate(148.819,-28.3465)">
				<title>工作表.92</title>
				<path d="M0 237.57 L42.52 237.57" class="st4"/>
			</g>
			<g id="shape102-88" transform="translate(148.819,-8.52651E-14)">
				<title>工作表.102</title>
				<path d="M0 237.57 L42.52 237.57" class="st4"/>
			</g>
			<g id="shape103-91" transform="translate(-88.749,237.568) rotate(-90)">
				<title>工作表.103</title>
				<path d="M0 237.57 L28.35 237.57" class="st4"/>
			</g>
			<g id="shape104-94" transform="translate(-46.2293,237.568) rotate(-90)">
				<title>工作表.104</title>
				<path d="M0 237.57 L28.35 237.57" class="st4"/>
			</g>
			<g id="shape64-97" transform="translate(45.8967,237.568) rotate(-90)">
				<title>工作表.64</title>
				<path d="M0 237.57 L28.35 237.57" class="st4"/>
			</g>
			<g id="shape101-100" transform="translate(212.598,-3.69482E-13)">
				<title>工作表.101</title>
				<path d="M0 237.57 L70.87 237.57" class="st4"/>
			</g>
			<g id="shape106-103" transform="translate(212.598,-28.3465)">
				<title>工作表.106</title>
				<path d="M0 237.57 L70.87 237.57" class="st4"/>
			</g>
			<g id="shape107-106" transform="translate(-24.9695,237.568) rotate(-90)">
				<title>工作表.107</title>
				<path d="M0 237.57 L28.35 237.57" class="st4"/>
			</g>
			<g id="shape91-109" transform="translate(240.945,-212.598)">
				<title>工作表.91</title>
				<path d="M0 237.57 L90.71 237.57" class="st8"/>
			</g>
			<g id="shape105-112" transform="translate(122.851,-188.742) rotate(5.71059)">
				<title>工作表.105</title>
				<path d="M0 237.57 L56.98 237.57" class="st8"/>
			</g>
			<g id="shape111-115" transform="translate(395.517,-155.013) rotate(45)">
				<title>工作表.111</title>
				<path d="M0 237.57 L16.97 237.57" class="st8"/>
			</g>
		</g>
	</g>
</svg>
