<?xml version="1.0" encoding="UTF-8" standalone="no"?>
<!DOCTYPE svg PUBLIC "-//W3C//DTD SVG 1.1//EN" "http://www.w3.org/Graphics/SVG/1.1/DTD/svg11.dtd">
<!-- 由 Microsoft Visio, SVG Export 產生 y33.0008.svg 頁-1 -->
<svg xmlns="http://www.w3.org/2000/svg" xmlns:xlink="http://www.w3.org/1999/xlink" xmlns:ev="http://www.w3.org/2001/xml-events"
		width="6.18626in" height="9.35287in" viewBox="0 0 445.411 673.407" xml:space="preserve" color-interpolation-filters="sRGB"
		class="st11">
	<style type="text/css">
	<![CDATA[
		.st1 {fill:none;stroke:none;stroke-linecap:round;stroke-linejoin:round;stroke-width:0.75}
		.st2 {fill:#000000;font-family:新細明體;font-size:12pt}
		.st3 {font-size:1em}
		.st4 {fill:#000000;font-family:新細明體;font-size:1.16666em}
		.st5 {fill:none;stroke:#000000;stroke-linecap:round;stroke-linejoin:round;stroke-width:1.5}
		.st6 {stroke:#000000;stroke-linecap:round;stroke-linejoin:round;stroke-width:1.5}
		.st7 {fill:none;stroke:#000000;stroke-linecap:round;stroke-linejoin:round;stroke-opacity:0;stroke-width:1}
		.st8 {stroke:#000000;stroke-dasharray:4.5,4.5;stroke-linecap:round;stroke-linejoin:round;stroke-width:1.5}
		.st9 {marker-end:url(#mrkr5-117);stroke:#000000;stroke-linecap:round;stroke-linejoin:round;stroke-width:1.5}
		.st10 {fill:#000000;fill-opacity:1;stroke:#000000;stroke-opacity:1;stroke-width:0.37313432835821}
		.st11 {fill:none;fill-rule:evenodd;font-size:12px;overflow:visible;stroke-linecap:square;stroke-miterlimit:3}
	]]>
	</style>

	<defs id="Markers">
		<g id="lend5">
			<path d="M 2 1 L 0 0 L 1.98117 -0.993387 C 1.67173 -0.364515 1.67301 0.372641 1.98465 1.00043 " style="stroke:none"/>
		</g>
		<marker id="mrkr5-117" class="st10" refX="-4.69" orient="auto" markerUnits="strokeWidth" overflow="visible">
			<use xlink:href="#lend5" transform="scale(-2.68,-2.68) "/>
		</marker>
	</defs>
	<g>
		<title>頁-1</title>
		<g id="group73-1" transform="translate(0.375,-0.375)">
			<title>工作表.73</title>
			<g id="shape1-2" transform="translate(424.818,-354.331)">
				<title>工作表.1</title>
				<desc>菩薩分流傾向如來</desc>
				<rect x="0" y="537.344" width="19.8425" height="136.063" class="st1"/>
				<text x="9.92" y="541.38" writing-mode="tb-rl" class="st2">菩薩分流傾向如來</text>			</g>
			<g id="shape2-5" transform="translate(367.307,-102.899)">
				<title>工作表.2</title>
				<desc>如來為本</desc>
				<rect x="0" y="595.74" width="19.8425" height="77.667" class="st1"/>
				<text x="9.92" y="602.57" writing-mode="tb-rl" class="st2">如來為本</text>			</g>
			<g id="shape3-8" transform="translate(381.873,-73.7008)">
				<title>工作表.3</title>
				<desc>佛梵</desc>
				<rect x="0" y="630.887" width="19.8425" height="42.5197" class="st1"/>
				<text x="9.92" y="636.15" writing-mode="tb-rl" class="st2">佛梵</text>			</g>
			<g id="shape4-11" transform="translate(382.047,0)">
				<title>工作表.4</title>
				<desc>佛教融吠</desc>
				<rect x="0" y="596.871" width="19.8425" height="76.5354" class="st1"/>
				<text x="9.92" y="603.14" writing-mode="tb-rl" class="st2">佛教融吠</text>			</g>
			<g id="shape5-14" transform="translate(353.952,-76.5354)">
				<title>工作表.5</title>
				<desc>一如</desc>
				<rect x="0" y="632.307" width="19.8425" height="41.1001" class="st1"/>
				<text x="9.92" y="636.86" writing-mode="tb-rl" class="st2">一如</text>			</g>
			<g id="shape6-17" transform="translate(353.984,0)">
				<title>工作表.6</title>
				<desc>陀而衰滅</desc>
				<rect x="0" y="597.443" width="19.8425" height="75.964" class="st1"/>
				<text x="9.92" y="603.42" writing-mode="tb-rl" class="st2">陀而衰滅</text>			</g>
			<g id="shape7-20" transform="translate(212.22,-595.276)">
				<title>工作表.7</title>
				<desc>菩薩為本</desc>
				<rect x="0" y="596.026" width="19.8425" height="77.3813" class="st1"/>
				<text x="9.92" y="602.72" writing-mode="tb-rl" class="st2">菩薩為本</text>			</g>
			<g id="shape8-23" transform="translate(226.393,-562.403)">
				<title>工作表.8</title>
				<desc>大小</desc>
				<rect x="0" y="629.195" width="19.8425" height="44.2114" class="st1"/>
				<text x="9.92" y="635.3" writing-mode="tb-rl" class="st2">大小</text>			</g>
			<g id="shape9-26" transform="translate(198.047,-563.532)">
				<title>工作表.9</title>
				<desc>兼暢</desc>
				<rect x="0" y="630.325" width="19.8425" height="43.0821" class="st1"/>
				<text x="9.92" y="635.87" writing-mode="tb-rl" class="st2">兼暢</text>			</g>
			<g id="shape11-29" transform="translate(198.047,-382.677)">
				<title>工作表.11</title>
				<desc>吠陀創始時代</desc>
				<rect x="0" y="531.675" width="19.8425" height="141.732" class="st1"/>
				<text x="9.92" y="33.48em" writing-mode="tb-rl" class="st2">（<tspan x="9.92" y="34.531em 35.582em 36.633em 37.685em
								 38.736em 39.787em" class="st3">吠陀創始時代</tspan><tspan x="9.92" y="40.838em" class="st3">）</tspan></text>			</g>
			<g id="shape14-34" transform="translate(212.22,-303.307)">
				<title>工作表.14</title>
				<desc>人間樂</desc>
				<rect x="0" y="616.714" width="19.8425" height="56.6929" class="st1"/>
				<text x="9.92" y="624.06" writing-mode="tb-rl" class="st4">人間樂</text>			</g>
			<g id="shape19-37" transform="translate(1.59872E-14,-370.774)">
				<title>工作表.19</title>
				<desc>傾向菩薩聲聞分流</desc>
				<rect x="0" y="536.215" width="19.8425" height="137.192" class="st1"/>
				<text x="9.92" y="540.81" writing-mode="tb-rl" class="st2">傾向菩薩聲聞分流</text>			</g>
			<g id="shape20-40" transform="translate(127.18,-90.7087)">
				<title>工作表.20</title>
				<desc>教派興起時代</desc>
				<rect x="0" y="531.675" width="19.8425" height="141.732" class="st1"/>
				<text x="9.92" y="38.263em" writing-mode="tb-rl" class="st4">（<tspan x="9.92" y="39.485em 40.706em 41.928em 43.15em
								 44.372em 45.593em" class="st3">教派興起時代</tspan><tspan x="9.92" y="46.815em" class="st3">）</tspan></text>			</g>
			<g id="shape22-45" transform="translate(68.786,-73.1384)">
				<title>工作表.22</title>
				<desc>解脫</desc>
				<rect x="0" y="630.325" width="19.8425" height="43.0821" class="st1"/>
				<text x="9.92" y="635.87" writing-mode="tb-rl" class="st2">解脫</text>			</g>
			<g id="shape23-48" transform="translate(69.8884,0)">
				<title>工作表.23</title>
				<desc>佛教反吠</desc>
				<rect x="0" y="598.014" width="19.8425" height="75.3925" class="st1"/>
				<text x="9.92" y="603.71" writing-mode="tb-rl" class="st2">佛教反吠</text>			</g>
			<g id="shape24-51" transform="translate(42.1418,-73.7008)">
				<title>工作表.24</title>
				<desc>同歸</desc>
				<rect x="0" y="629.758" width="19.8425" height="43.649" class="st1"/>
				<text x="9.92" y="635.58" writing-mode="tb-rl" class="st2">同歸</text>			</g>
			<g id="shape25-54" transform="translate(41.3229,-2.83465)">
				<title>工作表.25</title>
				<desc>陀而創始</desc>
				<rect x="0" y="600.844" width="19.8425" height="72.5624" class="st1"/>
				<text x="9.92" y="605.13" writing-mode="tb-rl" class="st2">陀而創始</text>			</g>
			<g id="shape26-57" transform="translate(297.259,-90.7087)">
				<title>工作表.26</title>
				<desc>梵教極盛時代</desc>
				<rect x="0" y="531.675" width="19.8425" height="141.732" class="st1"/>
				<text x="9.92" y="38.263em" writing-mode="tb-rl" class="st4">（<tspan x="9.92" y="39.485em 40.706em 41.928em 43.15em
								 44.372em 45.593em" class="st3">梵教極盛時代</tspan><tspan x="9.92" y="46.815em" class="st3">）</tspan></text>			</g>
			<g id="shape17-62" transform="translate(226.393,-398.268)">
				<title>工作表.17</title>
				<desc>重人事</desc>
				<rect x="0" y="562.856" width="19.8425" height="110.551" class="st1"/>
				<text x="9.92" y="35.429em 38.133em 40.838em" writing-mode="tb-rl" class="st2">重人事</text>			</g>
			<g id="shape27-65" transform="translate(151.629,-218.268)">
				<title>圓形</title>
				<path d="M0 602.72 A70.689 70.689 0 1 1 141.38 602.72 A70.689 70.689 0 0 1 0 602.72 Z" class="st5"/>
			</g>
			<g id="shape12-67" transform="translate(255.156,-246.191)">
				<title>工作表.12</title>
				<desc>天上樂</desc>
				<rect x="0" y="617.285" width="19.8425" height="56.1214" class="st1"/>
				<text x="9.92" y="621.35" writing-mode="tb-rl" class="st2">天上樂</text>			</g>
			<g id="shape13-70" transform="translate(226.976,-246.477)">
				<title>工作表.13</title>
				<desc>神　教</desc>
				<rect x="0" y="614.451" width="19.8425" height="58.9561" class="st1"/>
				<text x="9.92" y="622.93" writing-mode="tb-rl" class="st4">神　教</text>			</g>
			<g id="shape15-73" transform="translate(198.911,-245.906)">
				<title>工作表.15</title>
				<desc>佛　教</desc>
				<rect x="0" y="615.585" width="19.8425" height="57.8222" class="st1"/>
				<text x="9.92" y="623.5" writing-mode="tb-rl" class="st4">佛　教</text>			</g>
			<g id="shape16-76" transform="translate(169.7,-244.488)">
				<title>工作表.16</title>
				<desc>究竟樂</desc>
				<rect x="0" y="613.879" width="19.8425" height="59.5276" class="st1"/>
				<text x="9.92" y="619.64" writing-mode="tb-rl" class="st2">究竟樂</text>			</g>
			<g id="group33-79" transform="translate(193.795,-218.268)">
				<title>工作表.33</title>
				<g id="shape28-80" transform="translate(0,-85.0394)">
					<title>工作表.28</title>
					<path d="M0 673.41 L56.69 673.41" class="st6"/>
				</g>
				<g id="shape29-83" transform="translate(-3.39393,-27.6292) rotate(-0.288768)">
					<title>工作表.29</title>
					<path d="M0 673.41 L56.69 673.41" class="st6"/>
				</g>
				<g id="shape30-86" transform="translate(730.1,589.362) rotate(90)">
					<title>工作表.30</title>
					<path d="M0 673.41 L55.84 673.41" class="st6"/>
				</g>
				<g id="shape31-89" transform="translate(673.407,588.368) rotate(90)">
					<title>工作表.31</title>
					<path d="M0 673.41 L57.4 673.41" class="st6"/>
				</g>
				<g id="shape32-92" transform="translate(701.752,586.965) rotate(89.8806)">
					<title>工作表.32</title>
					<path d="M0 673.41 L85.04 673.41" class="st6"/>
				</g>
			</g>
			<g id="shape34-95" transform="translate(307.18,-317.48)">
				<title>工作表.34</title>
				<rect x="0" y="645.06" width="28.3465" height="28.3465" class="st7"/>
			</g>
			<g id="shape35-97" transform="translate(-225.861,-106.071) rotate(-45)">
				<title>工作表.35</title>
				<path d="M0 673.41 A28.3465 28.3465 148.28 0 1 40.09 673.41" class="st8"/>
			</g>
			<g id="shape36-100" transform="translate(641.619,-134.417) rotate(45)">
				<title>工作表.36</title>
				<path d="M0 673.41 A28.3465 28.3465 148.28 0 1 40.09 673.41" class="st8"/>
			</g>
			<g id="shape10-103" transform="translate(107.338,-107.717)">
				<title>工作表.10</title>
				<desc>趣解脫</desc>
				<rect x="0" y="565.69" width="19.8425" height="107.717" class="st1"/>
				<text x="9.92" y="35.606em 38.222em 40.838em" writing-mode="tb-rl" class="st2">趣解脫</text>			</g>
			<g id="shape37-106" transform="translate(319.936,-107.717)">
				<title>工作表.37</title>
				<desc>求天樂</desc>
				<rect x="0" y="565.69" width="19.8425" height="107.717" class="st1"/>
				<text x="9.92" y="35.606em 38.222em 40.838em" writing-mode="tb-rl" class="st2">求天樂</text>			</g>
			<g id="shape40-109" transform="translate(55.4961,-102.899)">
				<title>工作表.40</title>
				<desc>聲聞為本</desc>
				<rect x="0" y="595.74" width="19.8425" height="77.667" class="st1"/>
				<text x="9.92" y="602.57" writing-mode="tb-rl" class="st2">聲聞為本</text>			</g>
			<g id="shape18-112" transform="translate(886.941,8.3589) rotate(70.9308)">
				<title>工作表.18</title>
				<path d="M0 673.41 L235.9 673.41" class="st9"/>
			</g>
			<g id="shape21-118" transform="translate(349.133,-76.5354)">
				<title>工作表.21</title>
				<path d="M0.57 574.19 L57.26 574.19 L57.26 673.41 L0 673.41 L0 574.19" class="st6"/>
			</g>
			<g id="shape38-121" transform="translate(37.3222,-76.5354)">
				<title>工作表.38</title>
				<path d="M0.57 574.19 L57.26 574.19 L57.26 673.41 L0 673.41 L0 574.19" class="st6"/>
			</g>
			<g id="shape39-124" transform="translate(597.521,659.885) rotate(146.121)">
				<title>工作表.39</title>
				<path d="M0 673.41 L239 673.41" class="st8"/>
			</g>
			<g id="shape41-127" transform="translate(623.71,-439.765) rotate(36.6071)">
				<title>工作表.41</title>
				<path d="M0 673.41 L247.18 673.41" class="st8"/>
			</g>
			<g id="shape42-130" transform="translate(1084.4,361.363) rotate(99.6734)">
				<title>工作表.42</title>
				<path d="M0 673.41 L253.05 673.41" class="st8"/>
			</g>
			<g id="shape43-133" transform="translate(688.531,126.809) rotate(80.8377)">
				<title>工作表.43</title>
				<path d="M0 673.41 L267.03 673.41" class="st8"/>
			</g>
			<g id="shape44-136" transform="translate(293.007,1185.24) rotate(180)">
				<title>工作表.44</title>
				<path d="M0 673.41 L134.7 673.41" class="st9"/>
			</g>
		</g>
	</g>
</svg>
