<?xml version="1.0" encoding="UTF-8" standalone="no"?>
<!DOCTYPE svg PUBLIC "-//W3C//DTD SVG 1.1//EN" "http://www.w3.org/Graphics/SVG/1.1/DTD/svg11.dtd">
<!-- 由 Microsoft Visio, SVG Export 產生 y33.0256.svg 頁-1 -->
<svg xmlns="http://www.w3.org/2000/svg" xmlns:xlink="http://www.w3.org/1999/xlink" xmlns:ev="http://www.w3.org/2001/xml-events"
		width="2.85548in" height="7.42241in" viewBox="0 0 205.594 534.413" xml:space="preserve" color-interpolation-filters="sRGB"
		class="st7">
	<style type="text/css">
	<![CDATA[
		.st1 {fill:none;stroke:none;stroke-linecap:round;stroke-linejoin:round;stroke-width:1.5}
		.st2 {fill:#000000;font-family:新細明體;font-size:12pt}
		.st3 {stroke:#000000;stroke-linecap:round;stroke-linejoin:round;stroke-width:1.5}
		.st4 {marker-end:url(#mrkr7-86);stroke:#000000;stroke-linecap:round;stroke-linejoin:round;stroke-width:1.5}
		.st5 {fill:#000000;fill-opacity:1;stroke:#000000;stroke-opacity:1;stroke-width:0.37313432835821}
		.st6 {stroke:#000000;stroke-dasharray:4.5,4.5;stroke-linecap:round;stroke-linejoin:round;stroke-width:1.5}
		.st7 {fill:none;fill-rule:evenodd;font-size:12px;overflow:visible;stroke-linecap:square;stroke-miterlimit:3}
	]]>
	</style>

	<defs id="Markers">
		<g id="lend7">
			<path
					d="M 1.84309 -0.959456 C 1.43792 -0.380801 0.784503 -0.0260255 0.078527 -0.00137091 L 0.0785229 0.00137043 C 0.784499 0.0260231 1.43791 0.380798 1.84309 0.959452 "
					style="stroke-linecap:round;stroke-linejoin:round;fill:none"/>
		</g>
		<marker id="mrkr7-86" class="st5" orient="auto" markerUnits="strokeWidth" overflow="visible">
			<use xlink:href="#lend7" transform="scale(-2.68,-2.68) "/>
		</marker>
	</defs>
	<g>
		<title>頁-1</title>
		<g id="group42-1" transform="translate(0.75,-0.75)">
			<title>工作表.42</title>
			<g id="shape1-2" transform="translate(85.0394,-442.205)">
				<title>工作表.1</title>
				<desc>瑜伽之深入</desc>
				<rect x="0" y="443.705" width="19.8425" height="90.7087" class="st1"/>
				<text x="9.92" y="449.06" writing-mode="tb-rl" class="st2">瑜伽之深入</text>			</g>
			<g id="shape2-5" transform="translate(141.732,-377.008)">
				<title>工作表.2</title>
				<desc>眼</desc>
				<rect x="0" y="511.736" width="19.8425" height="22.6772" class="st1"/>
				<text x="9.92" y="515.74" writing-mode="tb-rl" class="st2">眼</text>			</g>
			<g id="shape3-8" transform="translate(170.079,-348.661)">
				<title>工作表.3</title>
				<desc>意</desc>
				<rect x="0" y="511.736" width="19.8425" height="22.6772" class="st1"/>
				<text x="9.92" y="515.74" writing-mode="tb-rl" class="st2">意</text>			</g>
			<g id="shape4-11" transform="translate(113.386,-377.008)">
				<title>工作表.4</title>
				<desc>耳</desc>
				<rect x="0" y="511.736" width="19.8425" height="22.6772" class="st1"/>
				<text x="9.92" y="515.74" writing-mode="tb-rl" class="st2">耳</text>			</g>
			<g id="shape5-14" transform="translate(85.0394,-377.008)">
				<title>工作表.5</title>
				<desc>鼻</desc>
				<rect x="0" y="511.736" width="19.8425" height="22.6772" class="st1"/>
				<text x="9.92" y="515.74" writing-mode="tb-rl" class="st2">鼻</text>			</g>
			<g id="shape6-17" transform="translate(56.6929,-377.008)">
				<title>工作表.6</title>
				<desc>舌</desc>
				<rect x="0" y="511.736" width="19.8425" height="22.6772" class="st1"/>
				<text x="9.92" y="515.74" writing-mode="tb-rl" class="st2">舌</text>			</g>
			<g id="shape7-20" transform="translate(28.3465,-377.008)">
				<title>工作表.7</title>
				<desc>身</desc>
				<rect x="0" y="511.736" width="19.8425" height="22.6772" class="st1"/>
				<text x="9.92" y="515.74" writing-mode="tb-rl" class="st2">身</text>			</g>
			<g id="shape8-23" transform="translate(2.9976E-14,-379.843)">
				<title>工作表.8</title>
				<desc>五識</desc>
				<rect x="0" y="460.713" width="19.8425" height="73.7008" class="st1"/>
				<text x="9.92" y="465.56" writing-mode="tb-rl" class="st2">（五識）</text>			</g>
			<g id="shape9-26" transform="translate(85.0394,-263.622)">
				<title>工作表.9</title>
				<desc>識</desc>
				<rect x="0" y="511.736" width="19.8425" height="22.6772" class="st1"/>
				<text x="9.92" y="515.74" writing-mode="tb-rl" class="st2">識</text>			</g>
			<g id="shape10-29" transform="translate(42.5197,-229.606)">
				<title>工作表.10</title>
				<desc>間斷識</desc>
				<rect x="0" y="443.705" width="19.8425" height="90.7087" class="st1"/>
				<text x="9.92" y="449.06" writing-mode="tb-rl" class="st2">（間斷識）</text>			</g>
			<g id="shape11-32" transform="translate(42.5197,-116.22)">
				<title>工作表.11</title>
				<desc>恒行意</desc>
				<rect x="0" y="443.705" width="19.8425" height="90.7087" class="st1"/>
				<text x="9.92" y="449.06" writing-mode="tb-rl" class="st2">（恒行意）</text>			</g>
			<g id="shape12-35" transform="translate(85.0394,-150.236)">
				<title>工作表.12</title>
				<desc>意</desc>
				<rect x="0" y="511.736" width="19.8425" height="22.6772" class="st1"/>
				<text x="9.92" y="515.74" writing-mode="tb-rl" class="st2">意</text>			</g>
			<g id="shape13-38" transform="translate(85.0394,-51.0236)">
				<title>工作表.13</title>
				<desc>心</desc>
				<rect x="0" y="511.736" width="19.8425" height="22.6772" class="st1"/>
				<text x="9.92" y="515.74" writing-mode="tb-rl" class="st2">心</text>			</g>
			<g id="shape14-41" transform="translate(42.5197,0)">
				<title>工作表.14</title>
				<desc>種子心</desc>
				<rect x="0" y="443.705" width="19.8425" height="90.7087" class="st1"/>
				<text x="9.92" y="449.06" writing-mode="tb-rl" class="st2">（種子心）</text>			</g>
			<g id="shape15-44" transform="translate(9.39249E-14,-133.228)">
				<title>工作表.15</title>
				<desc>現行界</desc>
				<rect x="0" y="477.72" width="19.8425" height="56.6929" class="st1"/>
				<text x="9.92" y="482.07" writing-mode="tb-rl" class="st2">現行界</text>			</g>
			<g id="shape16-47" transform="translate(184.252,-76.5354)">
				<title>工作表.16</title>
				<desc>種子界</desc>
				<rect x="0" y="477.72" width="19.8425" height="56.6929" class="st1"/>
				<text x="9.92" y="482.07" writing-mode="tb-rl" class="st2">種子界</text>			</g>
			<g id="shape18-50" transform="translate(629.374,160.24) rotate(90)">
				<title>工作表.18</title>
				<path d="M0 534.41 L85.04 534.41" class="st3"/>
			</g>
			<g id="group23-53" transform="translate(80.7874,-445.039)">
				<title>工作表.23</title>
				<g id="shape19-54" transform="translate(534.413,449.374) rotate(90)">
					<title>工作表.19</title>
					<path d="M0 534.41 L85.04 534.41" class="st3"/>
				</g>
				<g id="shape20-57" transform="translate(562.76,449.374) rotate(90)">
					<title>工作表.20</title>
					<path d="M0 534.41 L85.04 534.41" class="st3"/>
				</g>
				<g id="shape21-60" transform="translate(0,-85.0394)">
					<title>工作表.21</title>
					<path d="M0 534.41 L28.35 534.41" class="st3"/>
				</g>
				<g id="shape22-63">
					<title>工作表.22</title>
					<path d="M0 534.41 L28.35 534.41" class="st3"/>
				</g>
			</g>
			<g id="shape26-66" transform="translate(630.296,329.237) rotate(108.435)">
				<title>工作表.26</title>
				<path d="M0 534.41 L89.64 534.41" class="st3"/>
			</g>
			<g id="shape27-69" transform="translate(596.312,456.679) rotate(123.69)">
				<title>工作表.27</title>
				<path d="M0 534.41 L102.2 534.41" class="st3"/>
			</g>
			<g id="shape28-72" transform="translate(543.845,123.185) rotate(87.546)">
				<title>工作表.28</title>
				<path d="M0 534.41 L198.61 534.41" class="st3"/>
			</g>
			<g id="shape29-75" transform="translate(482.927,-136.199) rotate(56.3099)">
				<title>工作表.29</title>
				<path d="M0 534.41 L102.2 534.41" class="st3"/>
			</g>
			<g id="shape30-78" transform="translate(573.603,-8.75619) rotate(71.5651)">
				<title>工作表.30</title>
				<path d="M0 534.41 L89.64 534.41" class="st3"/>
			</g>
			<g id="shape31-81" transform="translate(629.374,270.791) rotate(90)">
				<title>工作表.31</title>
				<path d="M0 534.41 L85.04 534.41" class="st4"/>
			</g>
			<g id="shape32-87" transform="translate(629.374,384.177) rotate(90)">
				<title>工作表.32</title>
				<path d="M0 534.41 L73.7 534.41" class="st4"/>
			</g>
			<g id="shape33-92" transform="translate(713.62,217.693) rotate(93.1221)">
				<title>工作表.33</title>
				<path d="M0 534.41 L156.14 534.41" class="st3"/>
			</g>
			<g id="shape35-95" transform="translate(614.444,643.482) rotate(124.019)">
				<title>工作表.35</title>
				<path d="M-0 534.41 A116.508 45.6664 163.38 0 1 136.8 534.41" class="st3"/>
			</g>
			<g id="shape36-98" transform="translate(446.728,55.3877) rotate(55.9807)">
				<title>工作表.36</title>
				<path d="M-0 516.74 A103.666 55.955 -165.5 0 0 136.8 516.74" class="st3"/>
			</g>
			<g id="shape37-101" transform="translate(-164.691,783.242) rotate(-150.931)">
				<title>工作表.37</title>
				<path d="M-0 534.41 A69.8765 49.9778 153.78 0 1 90.73 534.41" class="st6"/>
			</g>
			<g id="shape38-104" transform="translate(440.262,734.404) rotate(150.289)">
				<title>工作表.38</title>
				<path d="M-0 534.41 A84.2941 34.7861 21.55 0 1 92.6 534.41" class="st6"/>
			</g>
			<g id="shape34-107" transform="translate(-9.84646,942.228) rotate(-168.69)">
				<title>工作表.34</title>
				<path d="M-0 534.41 A77.1405 57.3358 122.02 0 1 86.72 534.41" class="st6"/>
			</g>
			<g id="shape39-110" transform="translate(-157.236,-53.4426) rotate(-28.1585)">
				<title>工作表.39</title>
				<path d="M0 534.41 L71.08 534.41" class="st6"/>
			</g>
			<g id="shape40-113" transform="translate(314.486,-126.604) rotate(17.1027)">
				<title>工作表.40</title>
				<path d="M-0 534.41 A36.5609 12.9739 160.17 0 1 38.56 534.41" class="st6"/>
			</g>
			<g id="shape41-116" transform="translate(728.587,395.516) rotate(90)">
				<title>工作表.41</title>
				<path d="M0 534.41 L8.5 534.41" class="st6"/>
			</g>
		</g>
	</g>
</svg>
