<?xml version="1.0" encoding="UTF-8" standalone="no"?>
<!DOCTYPE svg PUBLIC "-//W3C//DTD SVG 1.1//EN" "http://www.w3.org/Graphics/SVG/1.1/DTD/svg11.dtd">
<!-- 由 Microsoft Visio, SVG Export 產生 y35.0327.svg 頁-1 -->
<svg xmlns="http://www.w3.org/2000/svg" xmlns:xlink="http://www.w3.org/1999/xlink" xmlns:ev="http://www.w3.org/2001/xml-events"
		width="8.86138in" height="6.42241in" viewBox="0 0 638.02 462.413" xml:space="preserve" color-interpolation-filters="sRGB"
		class="st6">
	<style type="text/css">
	<![CDATA[
		.st1 {fill:none;stroke:none;stroke-linecap:round;stroke-linejoin:round;stroke-width:1.5}
		.st2 {fill:#000000;font-family:新細明體;font-size:12pt}
		.st3 {font-size:1em}
		.st4 {stroke:#000000;stroke-linecap:round;stroke-linejoin:round;stroke-width:1.5}
		.st5 {stroke:#000000;stroke-dasharray:0,7.5;stroke-linecap:round;stroke-linejoin:round;stroke-width:2.5}
		.st6 {fill:none;fill-rule:evenodd;font-size:12px;overflow:visible;stroke-linecap:square;stroke-miterlimit:3}
	]]>
	</style>

	<g>
		<title>頁-1</title>
		<g id="group98-1" transform="translate(0.75,-0.75)">
			<title>工作表.98</title>
			<g id="shape2-2" transform="translate(7.99361E-14,-441.071)">
				<title>工作表.2</title>
				<desc>﹝十誦律﹞</desc>
				<rect x="0" y="442.571" width="88.1575" height="19.8425" class="st1"/>
				<text x="4.08" y="457.29" class="st2">﹝十誦律﹞</text>			</g>
			<g id="shape3-5" transform="translate(128.126,-441.071)">
				<title>工作表.3</title>
				<desc>﹝根有律﹞</desc>
				<rect x="0" y="442.571" width="88.1575" height="19.8425" class="st1"/>
				<text x="4.08" y="457.29" class="st2">﹝根有律﹞</text>			</g>
			<g id="shape4-8" transform="translate(255.969,-441.071)">
				<title>工作表.4</title>
				<desc>﹝四分律﹞</desc>
				<rect x="0" y="442.571" width="88.1575" height="19.8425" class="st1"/>
				<text x="4.08" y="457.29" class="st2">﹝四分律﹞</text>			</g>
			<g id="shape5-11" transform="translate(415.984,-441.071)">
				<title>工作表.5</title>
				<desc>﹝銅鍱律﹞</desc>
				<rect x="0" y="442.571" width="88.1575" height="19.8425" class="st1"/>
				<text x="4.08" y="457.29" class="st2">﹝銅鍱律﹞</text>			</g>
			<g id="shape6-14" transform="translate(544.11,-441.071)">
				<title>工作表.6</title>
				<desc>﹝五分律﹞</desc>
				<rect x="0" y="442.571" width="88.1575" height="19.8425" class="st1"/>
				<text x="4.08" y="457.29" class="st2">﹝五分律﹞</text>			</g>
			<g id="shape7-17" transform="translate(1.59872E-13,-404.504)">
				<title>工作表.7</title>
				<desc>遮──────　遮布薩────　遮──</desc>
				<rect x="0" y="442.571" width="344.126" height="19.8425" class="st1"/>
				<text x="20.62" y="457.29" class="st2">遮──────　遮布薩────　遮──</text>			</g>
			<g id="shape8-20" transform="translate(-7.79377E-14,-402.236)">
				<title>工作表.8</title>
				<desc>13</desc>
				<rect x="0" y="438.035" width="24.378" height="24.378" class="st1"/>
				<text x="4.67" y="455.02" class="st2">13</text>			</g>
			<g id="shape9-23" transform="translate(128.126,-402.236)">
				<title>工作表.9</title>
				<desc>14</desc>
				<rect x="0" y="438.035" width="24.378" height="24.378" class="st1"/>
				<text x="4.67" y="455.02" class="st2">14</text>			</g>
			<g id="shape10-26" transform="translate(255.969,-402.236)">
				<title>工作表.10</title>
				<desc>14</desc>
				<rect x="0" y="438.035" width="24.378" height="24.378" class="st1"/>
				<text x="4.67" y="455.02" class="st2">14</text>			</g>
			<g id="shape11-29" transform="translate(415.984,-404.504)">
				<title>工作表.11</title>
				<desc>滅　諍────　滅　諍</desc>
				<rect x="0" y="442.571" width="216" height="19.8425" class="st1"/>
				<text x="20.62" y="457.29" class="st2">滅　諍────　滅　諍</text>			</g>
			<g id="shape12-32" transform="translate(415.913,-402.236)">
				<title>工作表.12</title>
				<desc>14</desc>
				<rect x="0" y="438.035" width="24.378" height="24.378" class="st1"/>
				<text x="4.67" y="455.02" class="st2">14</text>			</g>
			<g id="shape13-35" transform="translate(543.472,-402.236)">
				<title>工作表.13</title>
				<desc>10</desc>
				<rect x="0" y="438.035" width="24.378" height="24.378" class="st1"/>
				<text x="4.67" y="455.02" class="st2">10</text>			</g>
			<g id="shape14-38" transform="translate(544.11,-367.937)">
				<title>工作表.14</title>
				<desc>　羯磨</desc>
				<rect x="0" y="442.571" width="92.4094" height="19.8425" class="st1"/>
				<text x="6.2" y="457.29" class="st2">（　羯磨）</text>			</g>
			<g id="shape15-41" transform="translate(560.126,-365.669)">
				<title>工作表.15</title>
				<desc>11</desc>
				<rect x="0" y="438.035" width="24.378" height="24.378" class="st1"/>
				<text x="4.67" y="455.02" class="st2">11</text>			</g>
			<g id="shape23-44" transform="translate(415.984,-331.37)">
				<title>工作表.23</title>
				<desc>雜　事</desc>
				<rect x="0" y="442.571" width="88.1575" height="19.8425" class="st1"/>
				<text x="20.62" y="457.29" class="st2">雜　事</text>			</g>
			<g id="shape24-47" transform="translate(415.984,-329.102)">
				<title>工作表.24</title>
				<desc>15</desc>
				<rect x="0" y="438.035" width="24.378" height="24.378" class="st1"/>
				<text x="4.67" y="455.02" class="st2">15</text>			</g>
			<g id="shape26-50" transform="translate(544.11,-331.37)">
				<title>工作表.26</title>
				<desc>破　僧</desc>
				<rect x="0" y="442.571" width="88.1575" height="19.8425" class="st1"/>
				<text x="20.62" y="457.29" class="st2">破　僧</text>			</g>
			<g id="shape27-53" transform="translate(544.11,-329.102)">
				<title>工作表.27</title>
				<desc>12</desc>
				<rect x="0" y="438.035" width="24.378" height="24.378" class="st1"/>
				<text x="4.67" y="455.02" class="st2">12</text>			</g>
			<g id="shape16-56" transform="translate(0,-331.37)">
				<title>工作表.16</title>
				<desc>臥　具────　臥　具</desc>
				<rect x="0" y="442.571" width="216" height="19.8425" class="st1"/>
				<text x="20.62" y="457.29" class="st2">臥　具────　臥　具</text>			</g>
			<g id="shape17-59" transform="translate(5.19584E-14,-331.37)">
				<title>工作表.17</title>
				<desc>14</desc>
				<rect x="0" y="442.571" width="24.378" height="19.8425" class="st1"/>
				<text x="4.67" y="457.29" class="st2">14</text>			</g>
			<g id="shape18-62" transform="translate(128.126,-331.37)">
				<title>工作表.18</title>
				<desc>15</desc>
				<rect x="0" y="442.571" width="24.378" height="19.8425" class="st1"/>
				<text x="4.67" y="457.29" class="st2">15</text>			</g>
			<g id="shape31-65" transform="translate(415.984,-294.803)">
				<title>工作表.31</title>
				<desc>臥坐具────　臥　具</desc>
				<rect x="0" y="442.571" width="216" height="19.8425" class="st1"/>
				<text x="20.62" y="457.29" class="st2">臥坐具────　臥　具</text>			</g>
			<g id="shape32-68" transform="translate(415.984,-292.535)">
				<title>工作表.32</title>
				<desc>16</desc>
				<rect x="0" y="438.035" width="24.378" height="24.378" class="st1"/>
				<text x="4.67" y="455.02" class="st2">16</text>			</g>
			<g id="shape33-71" transform="translate(544.11,-292.535)">
				<title>工作表.33</title>
				<desc>13</desc>
				<rect x="0" y="438.035" width="24.378" height="24.378" class="st1"/>
				<text x="4.67" y="455.02" class="st2">13</text>			</g>
			<g id="shape35-74" transform="translate(0,-258.236)">
				<title>工作表.35</title>
				<desc>調　達────　破　僧</desc>
				<rect x="0" y="442.571" width="216" height="19.8425" class="st1"/>
				<text x="20.62" y="457.29" class="st2">調　達────　破　僧</text>			</g>
			<g id="shape36-77" transform="translate(6.85452E-13,-255.969)">
				<title>工作表.36</title>
				<desc>16</desc>
				<rect x="0" y="438.035" width="24.378" height="24.378" class="st1"/>
				<text x="4.67" y="455.02" class="st2">16</text>			</g>
			<g id="shape37-80" transform="translate(128.126,-258.236)">
				<title>工作表.37</title>
				<desc>17</desc>
				<rect x="0" y="442.571" width="24.378" height="19.8425" class="st1"/>
				<text x="4.67" y="457.29" class="st2">17</text>			</g>
			<g id="shape41-83" transform="translate(415.984,-258.236)">
				<title>工作表.41</title>
				<desc>破　僧</desc>
				<rect x="0" y="442.571" width="88.1575" height="19.8425" class="st1"/>
				<text x="20.62" y="457.29" class="st2">破　僧</text>			</g>
			<g id="shape42-86" transform="translate(415.984,-255.969)">
				<title>工作表.42</title>
				<desc>17</desc>
				<rect x="0" y="438.035" width="24.378" height="24.378" class="st1"/>
				<text x="4.67" y="455.02" class="st2">17</text>			</g>
			<g id="shape38-89" transform="translate(544.11,-258.236)">
				<title>工作表.38</title>
				<desc>雜</desc>
				<rect x="0" y="442.571" width="56.126" height="19.8425" class="st1"/>
				<text x="20.62" y="457.29" class="st2">雜</text>			</g>
			<g id="shape43-92" transform="translate(544.11,-258.236)">
				<title>工作表.43</title>
				<desc>14</desc>
				<rect x="0" y="442.571" width="24.378" height="19.8425" class="st1"/>
				<text x="4.67" y="457.29" class="st2">14</text>			</g>
			<g id="shape34-95" transform="translate(1.07114E-12,-185.102)">
				<title>工作表.34</title>
				<desc>雜誦──────雜──　</desc>
				<rect x="0" y="442.571" width="200.126" height="19.8425" class="st1"/>
				<text x="4.06" y="457.29" class="st2">雜誦──────雜──</text>			</g>
			<g id="shape44-98" transform="translate(175.748,-185.102)">
				<title>工作表.44</title>
				<desc>2</desc>
				<rect x="0" y="442.571" width="24.378" height="19.8425" class="st1"/>
				<text x="8.43" y="457.29" class="st2">2</text>			</g>
			<g id="shape21-101" transform="translate(1.59872E-13,-294.803)">
				<title>工作表.21</title>
				<desc>諍　事────　諍　事────　滅　諍</desc>
				<rect x="0" y="442.571" width="344.126" height="19.8425" class="st1"/>
				<text x="20.62" y="457.29" class="st2">諍　事────　諍　事────　滅　諍</text>			</g>
			<g id="shape22-104" transform="translate(3.03757E-13,-294.803)">
				<title>工作表.22</title>
				<desc>15</desc>
				<rect x="0" y="442.571" width="24.378" height="19.8425" class="st1"/>
				<text x="4.67" y="457.29" class="st2">15</text>			</g>
			<g id="shape25-107" transform="translate(128.126,-294.803)">
				<title>工作表.25</title>
				<desc>16</desc>
				<rect x="0" y="442.571" width="24.378" height="19.8425" class="st1"/>
				<text x="4.67" y="457.29" class="st2">16</text>			</g>
			<g id="shape28-110" transform="translate(255.969,-292.535)">
				<title>工作表.28</title>
				<desc>16</desc>
				<rect x="0" y="438.035" width="24.378" height="24.378" class="st1"/>
				<text x="4.67" y="455.02" class="st2">16</text>			</g>
			<g id="shape47-113" transform="translate(255.969,-221.669)">
				<title>工作表.47</title>
				<desc>法────────　儀　法────　威　儀</desc>
				<rect x="0" y="442.571" width="376.157" height="19.8425" class="st1"/>
				<text x="20.62" y="457.29" class="st2">法────────　儀　法────　威　儀</text>			</g>
			<g id="shape48-116" transform="translate(255.969,-219.402)">
				<title>工作表.48</title>
				<desc>18</desc>
				<rect x="0" y="438.035" width="24.378" height="24.378" class="st1"/>
				<text x="4.67" y="455.02" class="st2">18</text>			</g>
			<g id="shape49-119" transform="translate(415.984,-219.402)">
				<title>工作表.49</title>
				<desc>18</desc>
				<rect x="0" y="438.035" width="24.378" height="24.378" class="st1"/>
				<text x="4.67" y="455.02" class="st2">18</text>			</g>
			<g id="shape50-122" transform="translate(544.11,-219.402)">
				<title>工作表.50</title>
				<desc>15</desc>
				<rect x="0" y="438.035" width="24.378" height="24.378" class="st1"/>
				<text x="4.67" y="455.02" class="st2">15</text>			</g>
			<g id="shape46-125" transform="translate(525.827,-148.535)">
				<title>工作表.46</title>
				<desc>　別住</desc>
				<rect x="0" y="442.571" width="92.4094" height="19.8425" class="st1"/>
				<text x="6.2" y="457.29" class="st2">（　別住）</text>			</g>
			<g id="shape51-128" transform="translate(544.11,-146.268)">
				<title>工作表.51</title>
				<desc>17</desc>
				<rect x="0" y="438.035" width="24.378" height="24.378" class="st1"/>
				<text x="4.67" y="455.02" class="st2">17</text>			</g>
			<g id="shape19-131" transform="translate(255.969,-331.37)">
				<title>工作表.19</title>
				<desc>破　僧</desc>
				<rect x="0" y="442.571" width="88.1575" height="19.8425" class="st1"/>
				<text x="20.62" y="457.29" class="st2">破　僧</text>			</g>
			<g id="shape20-134" transform="translate(255.969,-329.102)">
				<title>工作表.20</title>
				<desc>15</desc>
				<rect x="0" y="438.035" width="24.378" height="24.378" class="st1"/>
				<text x="4.67" y="455.02" class="st2">15</text>			</g>
			<g id="shape54-137" transform="translate(255.969,-182.173)">
				<title>工作表.54</title>
				<desc>房　舍</desc>
				<rect x="0" y="442.571" width="88.1575" height="19.8425" class="st1"/>
				<text x="20.62" y="457.29" class="st2">房　舍</text>			</g>
			<g id="shape55-140" transform="translate(255.969,-182.173)">
				<title>工作表.55</title>
				<desc>19</desc>
				<rect x="0" y="442.571" width="24.378" height="19.8425" class="st1"/>
				<text x="4.67" y="457.29" class="st2">19</text>			</g>
			<g id="shape53-143" transform="translate(415.984,-182.173)">
				<title>工作表.53</title>
				<desc>遮說戒────　遮布薩</desc>
				<rect x="0" y="442.571" width="216" height="19.8425" class="st1"/>
				<text x="20.62" y="457.29" class="st2">遮說戒────　遮布薩</text>			</g>
			<g id="shape56-146" transform="translate(415.984,-179.906)">
				<title>工作表.56</title>
				<desc>19</desc>
				<rect x="0" y="438.035" width="24.378" height="24.378" class="st1"/>
				<text x="4.67" y="455.02" class="st2">19</text>			</g>
			<g id="shape57-149" transform="translate(544.11,-179.906)">
				<title>工作表.57</title>
				<desc>16</desc>
				<rect x="0" y="438.035" width="24.378" height="24.378" class="st1"/>
				<text x="4.67" y="455.02" class="st2">16</text>			</g>
			<g id="shape30-152" transform="translate(175.748,-221.669)">
				<title>工作表.30</title>
				<desc>1</desc>
				<rect x="0" y="442.571" width="24.378" height="19.8425" class="st1"/>
				<text x="8.43" y="457.29" class="st2">1</text>			</g>
			<g id="shape52-155" transform="translate(175.748,-111.969)">
				<title>工作表.52</title>
				<desc>3</desc>
				<rect x="0" y="442.571" width="24.378" height="19.8425" class="st1"/>
				<text x="8.43" y="457.29" class="st2">3</text>			</g>
			<g id="shape58-158" transform="translate(255.969,-111.307)">
				<title>工作表.58</title>
				<desc>雜──</desc>
				<rect x="0" y="442.571" width="88.1575" height="19.8425" class="st1"/>
				<text x="20.62" y="457.29" class="st2">雜──</text>			</g>
			<g id="shape59-161" transform="translate(255.969,-111.307)">
				<title>工作表.59</title>
				<desc>20</desc>
				<rect x="0" y="442.571" width="24.378" height="19.8425" class="st1"/>
				<text x="4.67" y="457.29" class="st2">20</text>			</g>
			<g id="shape39-164" transform="translate(255.969,-258.236)">
				<title>工作表.39</title>
				<desc>比丘尼</desc>
				<rect x="0" y="442.571" width="88.1575" height="19.8425" class="st1"/>
				<text x="20.62" y="457.29" class="st2">比丘尼</text>			</g>
			<g id="shape40-167" transform="translate(255.969,-255.969)">
				<title>工作表.40</title>
				<desc>17</desc>
				<rect x="0" y="438.035" width="24.378" height="24.378" class="st1"/>
				<text x="4.67" y="455.02" class="st2">17</text>			</g>
			<g id="shape60-170" transform="translate(544.11,-111.307)">
				<title>工作表.60</title>
				<desc>調　伏</desc>
				<rect x="0" y="442.571" width="88.1575" height="19.8425" class="st1"/>
				<text x="20.62" y="457.29" class="st2">調　伏</text>			</g>
			<g id="shape61-173" transform="translate(544.11,-109.039)">
				<title>工作表.61</title>
				<desc>18</desc>
				<rect x="0" y="438.035" width="24.378" height="24.378" class="st1"/>
				<text x="4.67" y="455.02" class="st2">18</text>			</g>
			<g id="shape64-176" transform="translate(1.51879E-12,-65.4803)">
				<title>工作表.64</title>
				<desc>五百比丘結 集三藏法</desc>
				<rect x="0" y="422.728" width="92.4094" height="39.685" class="st1"/>
				<text x="4" y="437.77" class="st2">五百比丘結 <tspan x="4" dy="1.2em" class="st3">集三藏法</tspan></text>			</g>
			<g id="shape65-180" transform="translate(1.51879E-12,-28.9134)">
				<title>工作表.65</title>
				<desc>七百比丘集 滅惡法</desc>
				<rect x="0" y="422.728" width="92.4094" height="39.685" class="st1"/>
				<text x="4" y="437.77" class="st2">七百比丘集 <tspan x="4" dy="1.2em" class="st3">滅惡法</tspan></text>			</g>
			<g id="shape45-184" transform="translate(79.937,-75.4016)">
				<title>工作表.45</title>
				<desc>─────五百結集──　　　　　─────　五　百</desc>
				<rect x="0" y="442.571" width="408.189" height="19.8425" class="st1"/>
				<text x="4.1" y="457.29" class="st2">─────五百結集──　　　　　─────　五　百</text>			</g>
			<g id="shape66-187" transform="translate(79.937,-38.8346)">
				<title>工作表.66</title>
				<desc>─────七百結集──　七百集法毘尼───　七　百</desc>
				<rect x="0" y="442.571" width="408.189" height="19.8425" class="st1"/>
				<text x="4.1" y="457.29" class="st2">─────七百結集──　七百集法毘尼───　七　百</text>			</g>
			<g id="shape62-190" transform="translate(415.984,-111.307)">
				<title>工作表.62</title>
				<desc>比丘尼</desc>
				<rect x="0" y="442.571" width="88.1575" height="19.8425" class="st1"/>
				<text x="20.62" y="457.29" class="st2">比丘尼</text>			</g>
			<g id="shape63-193" transform="translate(415.984,-109.039)">
				<title>工作表.63</title>
				<desc>20</desc>
				<rect x="0" y="438.035" width="24.378" height="24.378" class="st1"/>
				<text x="4.67" y="455.02" class="st2">20</text>			</g>
			<g id="shape69-196" transform="translate(544.11,-75.4016)">
				<title>工作表.69</title>
				<desc>比丘尼</desc>
				<rect x="0" y="442.571" width="88.1575" height="19.8425" class="st1"/>
				<text x="20.62" y="457.29" class="st2">比丘尼</text>			</g>
			<g id="shape70-199" transform="translate(544.11,-73.1339)">
				<title>工作表.70</title>
				<desc>19</desc>
				<rect x="0" y="438.035" width="24.378" height="24.378" class="st1"/>
				<text x="4.67" y="455.02" class="st2">19</text>			</g>
			<g id="shape72-202" transform="translate(544.11,-38.8346)">
				<title>工作表.72</title>
				<desc>五百集</desc>
				<rect x="0" y="442.571" width="88.1575" height="19.8425" class="st1"/>
				<text x="20.62" y="457.29" class="st2">五百集</text>			</g>
			<g id="shape73-205" transform="translate(544.11,-36.5669)">
				<title>工作表.73</title>
				<desc>20</desc>
				<rect x="0" y="438.035" width="24.378" height="24.378" class="st1"/>
				<text x="4.67" y="455.02" class="st2">20</text>			</g>
			<g id="shape75-208" transform="translate(544.11,-2.26772)">
				<title>工作表.75</title>
				<desc>七百集</desc>
				<rect x="0" y="442.571" width="88.1575" height="19.8425" class="st1"/>
				<text x="20.62" y="457.29" class="st2">七百集</text>			</g>
			<g id="shape76-211" transform="translate(544.11,1.13687E-13)">
				<title>工作表.76</title>
				<desc>21</desc>
				<rect x="0" y="438.035" width="24.378" height="24.378" class="st1"/>
				<text x="4.67" y="455.02" class="st2">21</text>			</g>
			<g id="shape67-214" transform="translate(415.984,-73.1339)">
				<title>工作表.67</title>
				<desc>21</desc>
				<rect x="0" y="438.035" width="24.378" height="24.378" class="st1"/>
				<text x="4.67" y="455.02" class="st2">21</text>			</g>
			<g id="shape68-217" transform="translate(415.984,-36.5669)">
				<title>工作表.68</title>
				<desc>22</desc>
				<rect x="0" y="438.035" width="24.378" height="24.378" class="st1"/>
				<text x="4.67" y="455.02" class="st2">22</text>			</g>
			<g id="shape71-220" transform="translate(255.969,-73.1339)">
				<title>工作表.71</title>
				<desc>21</desc>
				<rect x="0" y="438.035" width="24.378" height="24.378" class="st1"/>
				<text x="4.67" y="455.02" class="st2">21</text>			</g>
			<g id="shape74-223" transform="translate(255.969,-36.5669)">
				<title>工作表.74</title>
				<desc>22</desc>
				<rect x="0" y="438.035" width="24.378" height="24.378" class="st1"/>
				<text x="4.67" y="455.02" class="st2">22</text>			</g>
			<g id="shape77-226" transform="translate(272.126,-65.4803)">
				<title>工作表.77</title>
				<desc>集法毘尼 五百人</desc>
				<rect x="0" y="422.728" width="72" height="39.685" class="st1"/>
				<text x="4" y="437.77" class="st2">集法毘尼 <tspan x="4" dy="1.2em" class="st3">五百人</tspan></text>			</g>
			<g id="shape78-230" transform="translate(312.931,775.502) rotate(-149.496)">
				<title>工作表.78</title>
				<path d="M0 462.41 L70.74 462.41" class="st4"/>
			</g>
			<g id="shape79-233" transform="translate(-4.28331,453.975) rotate(-113.401)">
				<title>工作表.79</title>
				<path d="M0 462.41 L241.95 462.41" class="st4"/>
			</g>
			<g id="shape80-236" transform="translate(312.931,811.407) rotate(-149.496)">
				<title>工作表.80</title>
				<path d="M0 462.41 L70.74 462.41" class="st4"/>
			</g>
			<g id="shape81-239" transform="translate(312.931,847.974) rotate(-149.496)">
				<title>工作表.81</title>
				<path d="M0 462.41 L70.74 462.41" class="st4"/>
			</g>
			<g id="shape82-242" transform="translate(195.094,492.145) rotate(-130.321)">
				<title>工作表.82</title>
				<path d="M0 462.41 L94.19 462.41" class="st4"/>
			</g>
			<g id="shape83-245" transform="translate(902.496,417.962) rotate(129.936)">
				<title>工作表.83</title>
				<path d="M0 462.41 L95.38 462.41" class="st4"/>
			</g>
			<g id="shape84-248" transform="translate(30.0258,589.525) rotate(-122.483)">
				<title>工作表.84</title>
				<path d="M0 462.41 L174.18 462.41" class="st4"/>
			</g>
			<g id="shape85-251" transform="translate(770.798,349.657) rotate(130.675)">
				<title>工作表.85</title>
				<path d="M0 462.41 L143.52 462.41" class="st4"/>
			</g>
			<g id="shape86-254" transform="translate(843.668,306.262) rotate(113.563)">
				<title>工作表.86</title>
				<path d="M0 462.41 L239.67 462.41" class="st4"/>
			</g>
			<g id="shape87-257" transform="translate(776.426,452.399) rotate(129.593)">
				<title>工作表.87</title>
				<path d="M0 462.41 L146.77 462.41" class="st4"/>
			</g>
			<g id="shape88-260" transform="translate(133.92,557.478) rotate(-141.766)">
				<title>工作表.88</title>
				<path d="M0 462.41 L119.09 462.41" class="st4"/>
			</g>
			<g id="shape89-263" transform="translate(-278.446,393.383) rotate(-96.953)">
				<title>工作表.89</title>
				<path d="M0 462.41 L70.25 462.41" class="st4"/>
			</g>
			<g id="shape90-266" transform="translate(630.014,341.261) rotate(103.601)">
				<title>工作表.90</title>
				<path d="M0 462.41 L36.16 462.41" class="st4"/>
			</g>
			<g id="shape91-269" transform="translate(-196.174,91.5331) rotate(-57.7125)">
				<title>工作表.91</title>
				<path d="M0 462.41 L122.05 462.41" class="st4"/>
			</g>
			<g id="shape92-272" transform="translate(-140.44,-52.0204) rotate(-46.4564)">
				<title>工作表.92</title>
				<path d="M0 462.41 L94.64 462.41" class="st4"/>
			</g>
			<g id="shape93-275" transform="translate(584.414,-16.4348) rotate(57.4259)">
				<title>工作表.93</title>
				<path d="M0 462.41 L121.1 462.41" class="st4"/>
			</g>
			<g id="shape94-278" transform="translate(609.469,423.582) rotate(130.897)">
				<title>工作表.94</title>
				<path d="M0 462.41 L95.25 462.41" class="st4"/>
			</g>
			<g id="shape95-281" transform="translate(-164.656,449.697) rotate(-113.334)">
				<title>工作表.95</title>
				<path d="M0 462.41 L157.44 462.41" class="st4"/>
			</g>
			<g id="shape96-284" transform="translate(-293.352,444.471) rotate(-98.3787)">
				<title>工作表.96</title>
				<path d="M0 462.41 L110.88 462.41" class="st5"/>
			</g>
			<g id="shape97-287" transform="translate(-295.493,464.419) rotate(-96.3023)">
				<title>工作表.97</title>
				<path d="M0 462.41 L147.06 462.41" class="st5"/>
			</g>
		</g>
	</g>
</svg>
