<?xml version="1.0" encoding="UTF-8" standalone="no"?>
<!DOCTYPE svg PUBLIC "-//W3C//DTD SVG 1.1//EN" "http://www.w3.org/Graphics/SVG/1.1/DTD/svg11.dtd">
<!-- 由 Microsoft Visio, SVG Export 產生 y35.0808.svg 頁-1 -->
<svg xmlns="http://www.w3.org/2000/svg" xmlns:xlink="http://www.w3.org/1999/xlink" xmlns:ev="http://www.w3.org/2001/xml-events"
		width="6.82452in" height="1.0952in" viewBox="0 0 491.366 78.8545" xml:space="preserve" color-interpolation-filters="sRGB"
		class="st4">
	<style type="text/css">
	<![CDATA[
		.st1 {fill:none;stroke:none;stroke-linecap:round;stroke-linejoin:round;stroke-width:0.75}
		.st2 {fill:#000000;font-family:新細明體;font-size:1.00001em}
		.st3 {stroke:#000000;stroke-linecap:round;stroke-linejoin:round;stroke-width:1}
		.st4 {fill:none;fill-rule:evenodd;font-size:12px;overflow:visible;stroke-linecap:square;stroke-miterlimit:3}
	]]>
	</style>

	<g>
		<title>頁-1</title>
		<g id="group18-1" transform="translate(0.375,-0.375)">
			<title>工作表.18</title>
			<g id="shape1-2" transform="translate(7.99361E-15,-55.7008)">
				<title>工作表.1</title>
				<desc>修多羅相應</desc>
				<rect x="0" y="56.4508" width="95.1213" height="22.4037" class="st1"/>
				<text x="5.56" y="71.25" class="st2">修多羅（相應）</text>			</g>
			<g id="shape2-5" transform="translate(1.19904E-14,-28.3465)">
				<title>工作表.2</title>
				<desc>祇夜雜</desc>
				<rect x="0" y="56.4508" width="71.1212" height="22.4037" class="st1"/>
				<text x="5.56" y="71.25" class="st2">祇夜（雜）</text>			</g>
			<g id="shape3-8" transform="translate(134.816,-42.5197)">
				<title>工作表.3</title>
				<desc>相應雜</desc>
				<rect x="0" y="56.4508" width="71.1212" height="22.4037" class="st1"/>
				<text x="5.56" y="71.25" class="st2">相應（雜）</text>			</g>
			<g id="shape4-11" transform="translate(254.126,-42.5197)">
				<title>工作表.4</title>
				<desc>中</desc>
				<rect x="0" y="56.4508" width="23.1208" height="22.4037" class="st1"/>
				<text x="5.56" y="71.25" class="st2">中</text>			</g>
			<g id="shape5-14" transform="translate(307.984,-42.5197)">
				<title>工作表.5</title>
				<desc>長</desc>
				<rect x="0" y="56.4508" width="23.1208" height="22.4037" class="st1"/>
				<text x="5.56" y="71.25" class="st2">長</text>			</g>
			<g id="shape6-17" transform="translate(361.843,-42.5197)">
				<title>工作表.6</title>
				<desc>增一</desc>
				<rect x="0" y="56.4508" width="35.1209" height="22.4037" class="st1"/>
				<text x="5.56" y="71.25" class="st2">增一</text>			</g>
			<g id="shape7-20" transform="translate(134.816,-13.8998)">
				<title>工作表.7</title>
				<desc>伽陀‧優陀那</desc>
				<rect x="0" y="56.4508" width="83.1212" height="22.4037" class="st1"/>
				<text x="5.56" y="71.25" class="st2">伽陀‧優陀那</text>			</g>
			<g id="shape8-23" transform="translate(431.495,-13.8998)">
				<title>工作表.8</title>
				<desc>小雜</desc>
				<rect x="0" y="56.4508" width="59.1211" height="22.4037" class="st1"/>
				<text x="5.56" y="71.25" class="st2">小（雜）</text>			</g>
			<g id="shape9-26">
				<title>工作表.9</title>
				<desc>記說</desc>
				<rect x="0" y="56.4508" width="35.1209" height="22.4037" class="st1"/>
				<text x="5.56" y="71.25" class="st2">記說</text>			</g>
			<g id="shape10-29" transform="translate(121.637,-63.1661) rotate(19.6495)">
				<title>工作表.10</title>
				<path d="M0 78.85 L42.15 78.85" class="st3"/>
			</g>
			<g id="shape11-32" transform="translate(53.9935,-37.529) rotate(-12.545)">
				<title>工作表.11</title>
				<path d="M0 78.85 L65.25 78.85" class="st3"/>
			</g>
			<g id="shape12-35" transform="translate(88.2488,-37.529) rotate(12.545)">
				<title>工作表.12</title>
				<path d="M0 78.85 L65.25 78.85" class="st3"/>
			</g>
			<g id="shape13-38" transform="translate(35.1209,-11.0651)">
				<title>工作表.13</title>
				<path d="M0 78.85 L60.26 78.85 L99.69 36.33" class="st3"/>
			</g>
			<g id="shape14-41" transform="translate(205.937,-53.5848)">
				<title>工作表.14</title>
				<path d="M0 78.85 L48.19 78.85" class="st3"/>
			</g>
			<g id="shape15-44" transform="translate(277.247,-53.5848)">
				<title>工作表.15</title>
				<path d="M0 78.85 L30.74 78.85" class="st3"/>
			</g>
			<g id="shape16-47" transform="translate(331.105,-53.5848)">
				<title>工作表.16</title>
				<path d="M0 78.85 L30.74 78.85" class="st3"/>
			</g>
			<g id="shape17-50" transform="translate(217.937,-25.2384)">
				<title>工作表.17</title>
				<path d="M0 78.85 L213.56 78.85" class="st3"/>
			</g>
		</g>
	</g>
</svg>
