<?xml version="1.0" encoding="UTF-8" standalone="no"?>
<!DOCTYPE svg PUBLIC "-//W3C//DTD SVG 1.1//EN" "http://www.w3.org/Graphics/SVG/1.1/DTD/svg11.dtd">
<!-- 由 Microsoft Visio, SVG Export 產生 y35.0672.svg 頁-1 -->
<svg xmlns="http://www.w3.org/2000/svg" xmlns:xlink="http://www.w3.org/1999/xlink" xmlns:ev="http://www.w3.org/2001/xml-events"
		width="2.69572in" height="4.42074in" viewBox="0 0 194.092 318.293" xml:space="preserve" color-interpolation-filters="sRGB"
		class="st4">
	<style type="text/css">
	<![CDATA[
		.st1 {fill:none;stroke:none;stroke-linecap:round;stroke-linejoin:round;stroke-width:0.75}
		.st2 {fill:#000000;font-family:新細明體;font-size:1.00001em}
		.st3 {stroke:#000000;stroke-linecap:round;stroke-linejoin:round;stroke-width:1}
		.st4 {fill:none;fill-rule:evenodd;font-size:12px;overflow:visible;stroke-linecap:square;stroke-miterlimit:3}
	]]>
	</style>

	<g>
		<title>頁-1</title>
		<g id="group43-1" transform="translate(0.375,-0.375)">
			<title>工作表.43</title>
			<g id="shape1-2" transform="translate(-7.99361E-15,-295.05)">
				<title>工作表.1</title>
				<desc>卷三八</desc>
				<rect x="0" y="295.889" width="47.121" height="22.4037" class="st1"/>
				<text x="5.56" y="310.69" class="st2">卷三八</text>			</g>
			<g id="shape2-5" transform="translate(86.2202,-295.139)">
				<title>工作表.2</title>
				<desc>比丘眾</desc>
				<rect x="0" y="295.889" width="47.121" height="22.4037" class="st1"/>
				<text x="5.56" y="310.69" class="st2">比丘眾</text>			</g>
			<g id="shape3-8" transform="translate(-7.99361E-15,-270.073)">
				<title>工作表.3</title>
				<desc>卷三九</desc>
				<rect x="0" y="295.889" width="47.121" height="22.4037" class="st1"/>
				<text x="5.56" y="310.69" class="st2">卷三九</text>			</g>
			<g id="shape4-11" transform="translate(86.2202,-269.901)">
				<title>工作表.4</title>
				<desc>魔眾</desc>
				<rect x="0" y="295.889" width="35.1209" height="22.4037" class="st1"/>
				<text x="5.56" y="310.69" class="st2">魔眾</text>			</g>
			<g id="shape5-14" transform="translate(-7.99361E-15,-244.835)">
				<title>工作表.5</title>
				<desc>卷四〇</desc>
				<rect x="0" y="295.889" width="47.121" height="22.4037" class="st1"/>
				<text x="5.56" y="310.69" class="st2">卷四〇</text>			</g>
			<g id="shape6-17" transform="translate(86.2202,-244.663)">
				<title>工作表.6</title>
				<desc>帝釋眾</desc>
				<rect x="0" y="295.889" width="47.121" height="22.4037" class="st1"/>
				<text x="5.56" y="310.69" class="st2">帝釋眾</text>			</g>
			<g id="shape7-20" transform="translate(-7.99361E-15,-219.596)">
				<title>工作表.7</title>
				<desc>卷四六</desc>
				<rect x="0" y="295.889" width="47.121" height="22.4037" class="st1"/>
				<text x="5.56" y="310.69" class="st2">卷四六</text>			</g>
			<g id="shape8-23" transform="translate(-7.99361E-15,-194.084)">
				<title>工作表.8</title>
				<desc>卷四二</desc>
				<rect x="0" y="295.889" width="47.121" height="22.4037" class="st1"/>
				<text x="5.56" y="310.69" class="st2">卷四二</text>			</g>
			<g id="shape9-26" transform="translate(86.2202,-194.084)">
				<title>工作表.9</title>
				<desc>剎帝利眾</desc>
				<rect x="0" y="295.889" width="59.1211" height="22.4037" class="st1"/>
				<text x="5.56" y="310.69" class="st2">剎帝利眾</text>			</g>
			<g id="shape10-29" transform="translate(-7.99361E-15,-168.299)">
				<title>工作表.10</title>
				<desc>卷　四</desc>
				<rect x="0" y="295.889" width="47.121" height="22.4037" class="st1"/>
				<text x="5.56" y="310.69" class="st2">卷　四</text>			</g>
			<g id="shape11-32" transform="translate(86.2202,-168.299)">
				<title>工作表.11</title>
				<desc>婆羅門眾</desc>
				<rect x="0" y="295.889" width="59.1211" height="22.4037" class="st1"/>
				<text x="5.56" y="310.69" class="st2">婆羅門眾</text>			</g>
			<g id="shape12-35" transform="translate(1.59872E-14,-142.514)">
				<title>工作表.12</title>
				<desc>卷四四</desc>
				<rect x="0" y="295.889" width="47.121" height="22.4037" class="st1"/>
				<text x="5.56" y="310.69" class="st2">卷四四</text>			</g>
			<g id="shape13-38" transform="translate(86.2202,-142.514)">
				<title>工作表.13</title>
				<desc>梵天眾</desc>
				<rect x="0" y="295.889" width="47.121" height="22.4037" class="st1"/>
				<text x="5.56" y="310.69" class="st2">梵天眾</text>			</g>
			<g id="shape14-41" transform="translate(-7.99361E-15,-118.762)">
				<title>工作表.14</title>
				<desc>卷四五</desc>
				<rect x="0" y="295.889" width="47.121" height="22.4037" class="st1"/>
				<text x="5.56" y="310.69" class="st2">卷四五</text>			</g>
			<g id="shape15-44" transform="translate(86.2202,-117.549)">
				<title>工作表.15</title>
				<desc>比丘尼眾</desc>
				<rect x="0" y="295.889" width="59.1211" height="22.4037" class="st1"/>
				<text x="5.56" y="310.69" class="st2">比丘尼眾</text>			</g>
			<g id="shape16-47" transform="translate(-7.99361E-15,-95.0092)">
				<title>工作表.16</title>
				<desc>卷三六</desc>
				<rect x="0" y="295.889" width="47.121" height="22.4037" class="st1"/>
				<text x="5.56" y="310.69" class="st2">卷三六</text>			</g>
			<g id="shape17-50" transform="translate(86.2202,-95.0092)">
				<title>工作表.17</title>
				<desc>婆耆沙尊長眾</desc>
				<rect x="0" y="295.889" width="107.121" height="22.4037" class="st1"/>
				<text x="5.56" y="310.69" class="st2">婆耆沙（尊長）眾</text>			</g>
			<g id="shape18-53" transform="translate(-7.99361E-15,-71.2569)">
				<title>工作表.18</title>
				<desc>卷二二</desc>
				<rect x="0" y="295.889" width="47.121" height="22.4037" class="st1"/>
				<text x="5.56" y="310.69" class="st2">卷二二</text>			</g>
			<g id="shape19-56" transform="translate(-7.99361E-15,-47.5046)">
				<title>工作表.19</title>
				<desc>卷四八</desc>
				<rect x="0" y="295.889" width="47.121" height="22.4037" class="st1"/>
				<text x="5.56" y="310.69" class="st2">卷四八</text>			</g>
			<g id="shape20-59" transform="translate(86.2202,-47.5046)">
				<title>工作表.20</title>
				<desc>天子天女眾</desc>
				<rect x="0" y="295.889" width="95.1213" height="22.4037" class="st1"/>
				<text x="5.56" y="310.69" class="st2">天子（天女）眾</text>			</g>
			<g id="shape21-62" transform="translate(-7.99361E-15,-23.7523)">
				<title>工作表.21</title>
				<desc>卷四九</desc>
				<rect x="0" y="295.889" width="47.121" height="22.4037" class="st1"/>
				<text x="5.56" y="310.69" class="st2">卷四九</text>			</g>
			<g id="shape22-65" transform="translate(86.2202,-23.7523)">
				<title>工作表.22</title>
				<desc>夜叉眾</desc>
				<rect x="0" y="295.889" width="47.121" height="22.4037" class="st1"/>
				<text x="5.56" y="310.69" class="st2">夜叉眾</text>			</g>
			<g id="shape23-68">
				<title>工作表.23</title>
				<desc>卷五〇</desc>
				<rect x="0" y="295.889" width="47.121" height="22.4037" class="st1"/>
				<text x="5.56" y="310.69" class="st2">卷五〇</text>			</g>
			<g id="shape24-71" transform="translate(86.2202,1.13687E-13)">
				<title>工作表.24</title>
				<desc>林神眾</desc>
				<rect x="0" y="295.889" width="47.121" height="22.4037" class="st1"/>
				<text x="5.56" y="310.69" class="st2">林神眾</text>			</g>
			<g id="shape25-74" transform="translate(47.121,-307.197)">
				<title>工作表.25</title>
				<path d="M0 318.29 L39.1 318.29" class="st3"/>
			</g>
			<g id="shape26-77" transform="translate(47.121,-280.268)">
				<title>工作表.26</title>
				<path d="M0 318.29 L39.1 318.29" class="st3"/>
			</g>
			<g id="shape27-80" transform="translate(47.121,-256.173)">
				<title>工作表.27</title>
				<path d="M0 318.29 L39.1 318.29" class="st3"/>
			</g>
			<g id="shape28-83" transform="translate(47.121,-205.149)">
				<title>工作表.28</title>
				<path d="M0 318.29 L39.1 318.29" class="st3"/>
			</g>
			<g id="shape29-86" transform="translate(47.121,-205.149)">
				<title>工作表.29</title>
				<path d="M39.1 318.29 L0 292.78 L39.1 267.27" class="st3"/>
			</g>
			<g id="shape30-89" transform="translate(47.121,-179.638)">
				<title>工作表.30</title>
				<path d="M0 318.29 L39.1 318.29" class="st3"/>
			</g>
			<g id="shape31-92" transform="translate(221.053,-153.424) rotate(33.124)">
				<title>工作表.31</title>
				<path d="M0 318.29 L46.69 318.29" class="st3"/>
			</g>
			<g id="shape32-95" transform="translate(47.121,-154.126)">
				<title>工作表.32</title>
				<path d="M39.1 292.78 L0 318.29 L39.1 318.29" class="st3"/>
			</g>
			<g id="shape34-98" transform="translate(47.121,-128.614)">
				<title>工作表.34</title>
				<path d="M0 318.29 L39.1 318.29" class="st3"/>
			</g>
			<g id="shape35-101" transform="translate(47.121,-105.937)">
				<title>工作表.35</title>
				<path d="M0 318.29 L39.1 318.29" class="st3"/>
			</g>
			<g id="shape36-104" transform="translate(245.912,465.014) rotate(149.887)">
				<title>工作表.36</title>
				<path d="M0 318.29 L45.2 318.29" class="st3"/>
			</g>
			<g id="shape37-107" transform="translate(294.289,11.8107) rotate(50.945)">
				<title>工作表.37</title>
				<path d="M0 318.29 L62.06 318.29" class="st3"/>
			</g>
			<g id="shape38-110" transform="translate(221.053,-31.5339) rotate(33.124)">
				<title>工作表.38</title>
				<path d="M0 318.29 L46.69 318.29" class="st3"/>
			</g>
			<g id="shape39-113" transform="translate(47.121,-57.7479)">
				<title>工作表.39</title>
				<path d="M0 318.29 L39.1 318.29" class="st3"/>
			</g>
			<g id="shape40-116" transform="translate(47.121,-9.55892)">
				<title>工作表.40</title>
				<path d="M39.1 318.29 L0 292.78 L39.1 270.1" class="st3"/>
			</g>
			<g id="shape41-119" transform="translate(47.121,-35.0707)">
				<title>工作表.41</title>
				<path d="M0 318.29 L39.1 318.29" class="st3"/>
			</g>
			<g id="shape42-122" transform="translate(47.121,-9.55892)">
				<title>工作表.42</title>
				<path d="M0 318.29 L39.1 318.29" class="st3"/>
			</g>
		</g>
	</g>
</svg>
