<?xml version="1.0" encoding="UTF-8" standalone="no"?>
<!DOCTYPE svg PUBLIC "-//W3C//DTD SVG 1.1//EN" "http://www.w3.org/Graphics/SVG/1.1/DTD/svg11.dtd">
<!-- 由 Microsoft Visio, SVG Export 產生 y35.0326.svg 頁-1 -->
<svg xmlns="http://www.w3.org/2000/svg" xmlns:xlink="http://www.w3.org/1999/xlink" xmlns:ev="http://www.w3.org/2001/xml-events"
		width="8.5675in" height="2.8668in" viewBox="0 0 616.86 206.41" xml:space="preserve" color-interpolation-filters="sRGB"
		class="st4">
	<style type="text/css">
	<![CDATA[
		.st1 {fill:none;stroke:none;stroke-linecap:round;stroke-linejoin:round;stroke-width:0.75}
		.st2 {fill:#000000;font-family:新細明體;font-size:12pt}
		.st3 {stroke:#000000;stroke-linecap:round;stroke-linejoin:round;stroke-width:0.24}
		.st4 {fill:none;fill-rule:evenodd;font-size:12px;overflow:visible;stroke-linecap:square;stroke-miterlimit:3}
	]]>
	</style>

	<g>
		<title>頁-1</title>
		<g id="group50-1" transform="translate(0.375,-3.35758)">
			<title>工作表.50</title>
			<g id="shape2-2" transform="translate(0,-73.1339)">
				<title>工作表.2</title>
				<desc>般茶盧伽───　黃　赤────　呵　責────　羯　磨────　羯　磨</desc>
				<rect x="0" y="186.567" width="600.094" height="19.8425" class="st1"/>
				<text x="20.62" y="201.29" class="st2">般茶盧伽───　黃　赤────　呵　責────　羯　磨────　羯　磨</text>			</g>
			<g id="shape3-5" transform="translate(1.59872E-14,-18.2835)">
				<title>工作表.3</title>
				<desc>僧殘悔</desc>
				<rect x="0" y="186.567" width="88.1575" height="19.8425" class="st1"/>
				<text x="20.62" y="201.29" class="st2">僧殘悔</text>			</g>
			<g id="shape5-8" transform="translate(383.953,-182.835)">
				<title>工作表.5</title>
				<desc>〔銅鍱律〕</desc>
				<rect x="0" y="186.567" width="88.1575" height="19.8425" class="st1"/>
				<text x="4" y="201.29" class="st2">〔銅鍱律〕</text>			</g>
			<g id="shape8-11" transform="translate(3.83693E-13,-146.268)">
				<title>工作表.8</title>
				<desc>俱舍彌────　拘舍彌────　拘睒彌</desc>
				<rect x="0" y="186.567" width="344.126" height="19.8425" class="st1"/>
				<text x="20.62" y="201.29" class="st2">俱舍彌────　拘舍彌────　拘睒彌</text>			</g>
			<g id="shape9-14" transform="translate(2.3781E-13,-146.268)">
				<title>工作表.9</title>
				<desc>9.</desc>
				<rect x="0" y="186.567" width="24.378" height="19.8425" class="st1"/>
				<text x="6.55" y="201.29" class="st2">9.</text>			</g>
			<g id="shape10-17" transform="translate(127.984,-146.268)">
				<title>工作表.10</title>
				<desc>9.</desc>
				<rect x="0" y="186.567" width="24.378" height="19.8425" class="st1"/>
				<text x="6.55" y="201.29" class="st2">9.</text>			</g>
			<g id="shape11-20" transform="translate(256.11,-146.268)">
				<title>工作表.11</title>
				<desc>9.</desc>
				<rect x="0" y="186.567" width="24.378" height="19.8425" class="st1"/>
				<text x="6.55" y="201.29" class="st2">9.</text>			</g>
			<g id="shape16-23" transform="translate(383.953,-146.268)">
				<title>工作表.16</title>
				<desc>瞻　波</desc>
				<rect x="0" y="186.567" width="88.1575" height="19.8425" class="st1"/>
				<text x="20.62" y="201.29" class="st2">瞻　波</text>			</g>
			<g id="shape12-26" transform="translate(383.953,-146.268)">
				<title>工作表.12</title>
				<desc>9.</desc>
				<rect x="0" y="186.567" width="24.378" height="19.8425" class="st1"/>
				<text x="6.55" y="201.29" class="st2">9.</text>			</g>
			<g id="shape23-29" transform="translate(511.937,-109.701)">
				<title>工作表.23</title>
				<desc>滅　諍</desc>
				<rect x="0" y="186.567" width="88.1575" height="19.8425" class="st1"/>
				<text x="20.62" y="201.29" class="st2">滅　諍</text>			</g>
			<g id="shape13-32" transform="translate(511.937,-109.701)">
				<title>工作表.13</title>
				<desc>10</desc>
				<rect x="0" y="186.567" width="24.378" height="19.8425" class="st1"/>
				<text x="4.67" y="201.29" class="st2">10</text>			</g>
			<g id="shape14-35" transform="translate(1.59872E-14,-182.835)">
				<title>工作表.14</title>
				<desc>〔十誦律〕</desc>
				<rect x="0" y="186.567" width="88.1575" height="19.8425" class="st1"/>
				<text x="4" y="201.29" class="st2">〔十誦律〕</text>			</g>
			<g id="shape15-38" transform="translate(255.969,-182.835)">
				<title>工作表.15</title>
				<desc>〔四分律〕</desc>
				<rect x="0" y="186.567" width="88.1575" height="19.8425" class="st1"/>
				<text x="4" y="201.29" class="st2">〔四分律〕</text>			</g>
			<g id="shape17-41" transform="translate(511.937,-182.835)">
				<title>工作表.17</title>
				<desc>〔五分律〕</desc>
				<rect x="0" y="186.567" width="88.1575" height="19.8425" class="st1"/>
				<text x="4" y="201.29" class="st2">〔五分律〕</text>			</g>
			<g id="shape18-44" transform="translate(127.984,-182.835)">
				<title>工作表.18</title>
				<desc>〔根有律〕</desc>
				<rect x="0" y="186.567" width="88.1575" height="19.8425" class="st1"/>
				<text x="4" y="201.29" class="st2">〔根有律〕</text>			</g>
			<g id="shape1-47" transform="translate(0,-109.701)">
				<title>工作表.1</title>
				<desc>瞻　波────　羯　磨────　瞻　波</desc>
				<rect x="0" y="186.567" width="344.126" height="19.8425" class="st1"/>
				<text x="20.62" y="201.29" class="st2">瞻　波────　羯　磨────　瞻　波</text>			</g>
			<g id="shape19-50" transform="translate(2.3781E-13,-109.701)">
				<title>工作表.19</title>
				<desc>10</desc>
				<rect x="0" y="186.567" width="24.378" height="19.8425" class="st1"/>
				<text x="4.67" y="201.29" class="st2">10</text>			</g>
			<g id="shape20-53" transform="translate(127.984,-109.701)">
				<title>工作表.20</title>
				<desc>10</desc>
				<rect x="0" y="186.567" width="24.378" height="19.8425" class="st1"/>
				<text x="4.67" y="204.97" class="st2">10</text>			</g>
			<g id="shape21-56" transform="translate(256.11,-109.701)">
				<title>工作表.21</title>
				<desc>10</desc>
				<rect x="0" y="186.567" width="24.378" height="19.8425" class="st1"/>
				<text x="4.67" y="204.97" class="st2">10</text>			</g>
			<g id="shape22-59" transform="translate(383.953,-109.701)">
				<title>工作表.22</title>
				<desc>拘睒彌</desc>
				<rect x="0" y="186.567" width="88.1575" height="19.8425" class="st1"/>
				<text x="20.62" y="201.29" class="st2">拘睒彌</text>			</g>
			<g id="shape24-62" transform="translate(383.953,-109.701)">
				<title>工作表.24</title>
				<desc>10</desc>
				<rect x="0" y="186.567" width="24.378" height="19.8425" class="st1"/>
				<text x="4.67" y="204.97" class="st2">10</text>			</g>
			<g id="shape25-65" transform="translate(2.3781E-13,-73.1339)">
				<title>工作表.25</title>
				<desc>11</desc>
				<rect x="0" y="186.567" width="24.378" height="19.8425" class="st1"/>
				<text x="4.67" y="204.97" class="st2">11</text>			</g>
			<g id="shape26-68" transform="translate(127.984,-73.1339)">
				<title>工作表.26</title>
				<desc>11</desc>
				<rect x="0" y="186.567" width="24.378" height="19.8425" class="st1"/>
				<text x="4.67" y="204.97" class="st2">11</text>			</g>
			<g id="shape27-71" transform="translate(256.11,-73.1339)">
				<title>工作表.27</title>
				<desc>11</desc>
				<rect x="0" y="186.567" width="24.378" height="19.8425" class="st1"/>
				<text x="4.67" y="204.97" class="st2">11</text>			</g>
			<g id="shape28-74" transform="translate(383.953,-73.1339)">
				<title>工作表.28</title>
				<desc>11</desc>
				<rect x="0" y="186.567" width="24.378" height="19.8425" class="st1"/>
				<text x="4.67" y="204.97" class="st2">11</text>			</g>
			<g id="shape29-77" transform="translate(511.937,-73.1339)">
				<title>工作表.29</title>
				<desc>11</desc>
				<rect x="0" y="186.567" width="24.378" height="19.8425" class="st1"/>
				<text x="4.67" y="201.29" class="st2">11</text>			</g>
			<g id="shape30-80" transform="translate(127.984,-36.5669)">
				<title>工作表.30</title>
				<desc>補特伽羅───　人──</desc>
				<rect x="0" y="186.567" width="232.157" height="19.8425" class="st1"/>
				<text x="20.62" y="201.29" class="st2">補特伽羅───　人──</text>			</g>
			<g id="shape31-83" transform="translate(2.3781E-13,-18.2835)">
				<title>工作表.31</title>
				<desc>12</desc>
				<rect x="0" y="186.567" width="24.378" height="19.8425" class="st1"/>
				<text x="4.67" y="204.97" class="st2">12</text>			</g>
			<g id="shape32-86" transform="translate(127.984,-36.5669)">
				<title>工作表.32</title>
				<desc>12</desc>
				<rect x="0" y="186.567" width="24.378" height="19.8425" class="st1"/>
				<text x="4.67" y="204.97" class="st2">12</text>			</g>
			<g id="shape33-89" transform="translate(256.11,-36.5669)">
				<title>工作表.33</title>
				<desc>12</desc>
				<rect x="0" y="186.567" width="24.378" height="19.8425" class="st1"/>
				<text x="4.67" y="204.97" class="st2">12</text>			</g>
			<g id="shape34-92" transform="translate(383.953,-36.5669)">
				<title>工作表.34</title>
				<desc>別　住────　別　住</desc>
				<rect x="0" y="186.567" width="232.157" height="19.8425" class="st1"/>
				<text x="20.62" y="201.29" class="st2">別　住────　別　住</text>			</g>
			<g id="shape35-95" transform="translate(383.953,-36.5669)">
				<title>工作表.35</title>
				<desc>12</desc>
				<rect x="0" y="186.567" width="24.378" height="19.8425" class="st1"/>
				<text x="4.67" y="204.97" class="st2">12</text>			</g>
			<g id="shape36-98" transform="translate(511.937,-36.5669)">
				<title>工作表.36</title>
				<desc>17</desc>
				<rect x="0" y="186.567" width="24.378" height="19.8425" class="st1"/>
				<text x="4.67" y="201.29" class="st2">17</text>			</g>
			<g id="shape37-101" transform="translate(383.953,-6.25278E-13)">
				<title>工作表.37</title>
				<desc>集──</desc>
				<rect x="0" y="186.567" width="88.1575" height="19.8425" class="st1"/>
				<text x="20.62" y="201.29" class="st2">集──</text>			</g>
			<g id="shape38-104" transform="translate(127.984,8.52651E-14)">
				<title>工作表.38</title>
				<desc>別　住────　覆　藏</desc>
				<rect x="0" y="186.567" width="232.157" height="19.8425" class="st1"/>
				<text x="20.62" y="201.29" class="st2">別　住────　覆　藏</text>			</g>
			<g id="shape39-107" transform="translate(127.984,8.52651E-14)">
				<title>工作表.39</title>
				<desc>13</desc>
				<rect x="0" y="186.567" width="24.378" height="19.8425" class="st1"/>
				<text x="4.67" y="204.97" class="st2">13</text>			</g>
			<g id="shape40-110" transform="translate(256.11,8.52651E-14)">
				<title>工作表.40</title>
				<desc>13</desc>
				<rect x="0" y="186.567" width="24.378" height="19.8425" class="st1"/>
				<text x="4.67" y="204.97" class="st2">13</text>			</g>
			<g id="shape41-113" transform="translate(383.953,-5.68434E-13)">
				<title>工作表.41</title>
				<desc>13</desc>
				<rect x="0" y="186.567" width="24.378" height="19.8425" class="st1"/>
				<text x="4.67" y="204.97" class="st2">13</text>			</g>
			<g id="shape4-116" transform="translate(63.9051,392.7) rotate(-161.914)">
				<title>工作表.4</title>
				<path d="M0 206.41 L58.89 206.41" class="st3"/>
			</g>
			<g id="shape6-119" transform="translate(191.794,356.221) rotate(161.993)">
				<title>工作表.6</title>
				<path d="M0 206.41 L58.87 206.41" class="st3"/>
			</g>
			<g id="shape7-122" transform="translate(413.355,302.508) rotate(-150.214)">
				<title>工作表.7</title>
				<path d="M0 206.41 L73.64 206.41" class="st3"/>
			</g>
			<g id="shape42-125" transform="translate(360.154,258.747) rotate(-131.012)">
				<title>工作表.42</title>
				<path d="M0 206.41 L97.41 206.41" class="st3"/>
			</g>
			<g id="group46-128" transform="translate(181.512,196.829) rotate(-90)">
				<title>工作表.46</title>
				<g id="shape44-129" transform="translate(-178.852,103.372) rotate(-60.0535)">
					<title>工作表.44</title>
					<path d="M0 206.41 L73.93 206.41" class="st3"/>
				</g>
				<g id="shape45-132" transform="translate(-143.399,307.453) rotate(-119.31)">
					<title>工作表.45</title>
					<path d="M0 206.41 L73.47 206.41" class="st3"/>
				</g>
			</g>
			<g id="shape48-135" transform="translate(284.883,265.697) rotate(-150.053)">
				<title>工作表.48</title>
				<path d="M0 206.41 L73.93 206.41" class="st3"/>
			</g>
			<g id="shape49-138" transform="translate(488.965,230.243) rotate(150.69)">
				<title>工作表.49</title>
				<path d="M0 206.41 L73.47 206.41" class="st3"/>
			</g>
			<g id="shape47-141" transform="translate(671.319,259.191) rotate(131.154)">
				<title>工作表.47</title>
				<path d="M0 206.41 L97.13 206.41" class="st3"/>
			</g>
		</g>
	</g>
</svg>
