<?xml version="1.0" encoding="UTF-8" standalone="no"?>
<!DOCTYPE svg PUBLIC "-//W3C//DTD SVG 1.1//EN" "http://www.w3.org/Graphics/SVG/1.1/DTD/svg11.dtd">
<!-- 由 Microsoft Visio, SVG Export 產生 y35.0455.svg 頁-1 -->
<svg xmlns="http://www.w3.org/2000/svg" xmlns:xlink="http://www.w3.org/1999/xlink" xmlns:ev="http://www.w3.org/2001/xml-events"
		width="7.45333in" height="4.349in" viewBox="0 0 536.64 313.128" xml:space="preserve" color-interpolation-filters="sRGB"
		class="st5">
	<style type="text/css">
	<![CDATA[
		.st1 {fill:none;stroke:none;stroke-linecap:round;stroke-linejoin:round;stroke-width:0.75}
		.st2 {fill:#000000;font-family:新細明體;font-size:12pt}
		.st3 {stroke:#000000;stroke-linecap:round;stroke-linejoin:round;stroke-width:1}
		.st4 {stroke:#000000;stroke-dasharray:3,3;stroke-linecap:round;stroke-linejoin:round;stroke-width:1}
		.st5 {fill:none;fill-rule:evenodd;font-size:12px;overflow:visible;stroke-linecap:square;stroke-miterlimit:3}
	]]>
	</style>

	<g>
		<title>頁-1</title>
		<g id="group30-1" transform="translate(0.375,-0.375)">
			<title>工作表.30</title>
			<g id="shape1-2" transform="translate(415.701,-36.5669)">
				<title>工作表.1</title>
				<desc>五、摩納毘迦</desc>
				<rect x="0" y="293.285" width="120.189" height="19.8425" class="st1"/>
				<text x="4.09" y="308.01" class="st2">五、摩納毘迦？</text>			</g>
			<g id="shape2-5">
				<title>工作表.2</title>
				<desc>十誦「毘尼」</desc>
				<rect x="0" y="293.285" width="104.031" height="19.8425" class="st1"/>
				<text x="4.02" y="308.01" class="st2">十誦「毘尼」</text>			</g>
			<g id="shape3-8" transform="translate(207.921,-292.535)">
				<title>工作表.3</title>
				<desc>〔十誦律〕</desc>
				<rect x="0" y="293.285" width="88.1575" height="19.8425" class="st1"/>
				<text x="4.08" y="308.01" class="st2">〔十誦律〕</text>			</g>
			<g id="shape4-11" transform="translate(415.701,-292.535)">
				<title>工作表.4</title>
				<desc>〔根有律〕</desc>
				<rect x="0" y="293.285" width="88.1575" height="19.8425" class="st1"/>
				<text x="4.08" y="308.01" class="st2">〔根有律〕</text>			</g>
			<g id="shape5-14" transform="translate(207.921,-255.969)">
				<title>工作表.5</title>
				<desc>一、因緣</desc>
				<rect x="0" y="293.285" width="72" height="19.8425" class="st1"/>
				<text x="4" y="308.01" class="st2">一、因緣</text>			</g>
			<g id="shape6-17" transform="translate(207.921,-219.402)">
				<title>工作表.6</title>
				<desc>二、雜</desc>
				<rect x="0" y="293.285" width="56.126" height="19.8425" class="st1"/>
				<text x="4.06" y="308.01" class="st2">二、雜</text>			</g>
			<g id="shape7-20" transform="translate(207.921,-182.835)">
				<title>工作表.7</title>
				<desc>三、增一法</desc>
				<rect x="0" y="293.285" width="88.1575" height="19.8425" class="st1"/>
				<text x="4.08" y="308.01" class="st2">三、增一法</text>			</g>
			<g id="shape8-23" transform="translate(207.921,-146.268)">
				<title>工作表.8</title>
				<desc>四、眾事分</desc>
				<rect x="0" y="293.285" width="88.1575" height="19.8425" class="st1"/>
				<text x="4.08" y="308.01" class="st2">四、眾事分</text>			</g>
			<g id="shape9-26" transform="translate(207.921,-109.701)">
				<title>工作表.9</title>
				<desc>五、優波離問</desc>
				<rect x="0" y="293.285" width="104.031" height="19.8425" class="st1"/>
				<text x="4.02" y="308.01" class="st2">五、優波離問</text>			</g>
			<g id="shape10-29" transform="translate(207.921,-73.1339)">
				<title>工作表.10</title>
				<desc>六、摩得勒伽</desc>
				<rect x="0" y="293.285" width="104.031" height="19.8425" class="st1"/>
				<text x="4.02" y="308.01" class="st2">六、摩得勒伽</text>			</g>
			<g id="shape11-32" transform="translate(207.921,-36.5669)">
				<title>工作表.11</title>
				<desc>七、毘尼相</desc>
				<rect x="0" y="293.285" width="88.1575" height="19.8425" class="st1"/>
				<text x="4.08" y="308.01" class="st2">七、毘尼相</text>			</g>
			<g id="shape12-35" transform="translate(207.921,-5.68434E-13)">
				<title>工作表.12</title>
				<desc>八、毘尼雜</desc>
				<rect x="0" y="293.285" width="88.1575" height="19.8425" class="st1"/>
				<text x="4.08" y="308.01" class="st2">八、毘尼雜</text>			</g>
			<g id="shape13-38" transform="translate(415.701,-1.3074E-12)">
				<title>工作表.13</title>
				<desc>六、毘尼得迦</desc>
				<rect x="0" y="293.285" width="104.031" height="19.8425" class="st1"/>
				<text x="4.02" y="308.01" class="st2">六、毘尼得迦</text>			</g>
			<g id="shape14-41" transform="translate(415.701,-73.1339)">
				<title>工作表.14</title>
				<desc>七、本母</desc>
				<rect x="0" y="293.285" width="72" height="19.8425" class="st1"/>
				<text x="4" y="308.01" class="st2">七、本母</text>			</g>
			<g id="shape15-44" transform="translate(415.701,-109.701)">
				<title>工作表.15</title>
				<desc>四、鄔波離問</desc>
				<rect x="0" y="293.285" width="104.031" height="19.8425" class="st1"/>
				<text x="4.02" y="308.01" class="st2">四、鄔波離問</text>			</g>
			<g id="shape16-47" transform="translate(415.701,-182.835)">
				<title>工作表.16</title>
				<desc>三、增一法</desc>
				<rect x="0" y="293.285" width="88.1575" height="19.8425" class="st1"/>
				<text x="4.08" y="308.01" class="st2">三、增一法</text>			</g>
			<g id="shape17-50" transform="translate(415.701,-219.402)">
				<title>工作表.17</title>
				<desc>二、目得迦</desc>
				<rect x="0" y="293.285" width="88.1575" height="19.8425" class="st1"/>
				<text x="4.08" y="308.01" class="st2">二、目得迦</text>			</g>
			<g id="shape18-53" transform="translate(415.701,-255.969)">
				<title>工作表.18</title>
				<desc>一、尼陀那</desc>
				<rect x="0" y="293.285" width="88.1575" height="19.8425" class="st1"/>
				<text x="4.08" y="308.01" class="st2">一、尼陀那</text>			</g>
			<g id="shape19-56" transform="translate(-7.99361E-15,-182.835)">
				<title>工作表.19</title>
				<desc>八誦「增一法」</desc>
				<rect x="0" y="293.285" width="120.189" height="19.8425" class="st1"/>
				<text x="4.09" y="308.01" class="st2">八誦「增一法」</text>			</g>
			<g id="shape20-59" transform="translate(2.31815E-13,-109.701)">
				<title>工作表.20</title>
				<desc>九誦「優波離問」</desc>
				<rect x="0" y="293.285" width="136.063" height="19.8425" class="st1"/>
				<text x="4.03" y="308.01" class="st2">九誦「優波離問」</text>			</g>
			<g id="shape21-62" transform="translate(207.921,616.335) rotate(180)">
				<title>工作表.21</title>
				<path d="M0 313.13 L108.99 313.13" class="st3"/>
			</g>
			<g id="shape22-65" transform="translate(307.52,563.505) rotate(161.453)">
				<title>工作表.22</title>
				<path d="M0 313.13 L114.96 313.13" class="st4"/>
			</g>
			<g id="shape23-68" transform="translate(382.393,490.09) rotate(146.138)">
				<title>工作表.23</title>
				<path d="M0 313.13 L131.25 313.13" class="st4"/>
			</g>
			<g id="shape24-71" transform="translate(207.921,506.634) rotate(180)">
				<title>工作表.24</title>
				<path d="M0 313.13 L76.39 313.13" class="st3"/>
			</g>
			<g id="shape25-74" transform="translate(342.345,439.462) rotate(154.577)">
				<title>工作表.25</title>
				<path d="M0 313.13 L85.84 313.13" class="st4"/>
			</g>
			<g id="shape26-77" transform="translate(93.3283,448.062) rotate(-158.533)">
				<title>工作表.26</title>
				<path d="M0 313.13 L99.15 313.13" class="st4"/>
			</g>
			<g id="shape27-80" transform="translate(207.921,433.5) rotate(180)">
				<title>工作表.27</title>
				<path d="M0 313.13 L93.4 313.13" class="st3"/>
			</g>
			<g id="shape28-83" transform="translate(322.075,375.384) rotate(158.62)">
				<title>工作表.28</title>
				<path d="M0 313.13 L100.3 313.13" class="st4"/>
			</g>
			<g id="shape29-86" transform="translate(401.008,293.747) rotate(141.929)">
				<title>工作表.29</title>
				<path d="M0 313.13 L118.56 313.13" class="st4"/>
			</g>
		</g>
	</g>
</svg>
