<?xml version="1.0" encoding="UTF-8" standalone="no"?>
<!DOCTYPE svg PUBLIC "-//W3C//DTD SVG 1.1//EN" "http://www.w3.org/Graphics/SVG/1.1/DTD/svg11.dtd">
<!-- 由 Microsoft Visio, SVG Export 產生 y35.0182.svg 頁-1 -->
<svg xmlns="http://www.w3.org/2000/svg" xmlns:xlink="http://www.w3.org/1999/xlink" xmlns:ev="http://www.w3.org/2001/xml-events"
		width="8.0063in" height="2.72695in" viewBox="0 0 576.454 196.341" xml:space="preserve" color-interpolation-filters="sRGB"
		class="st5">
	<style type="text/css">
	<![CDATA[
		.st1 {fill:none;stroke:none;stroke-linecap:round;stroke-linejoin:round;stroke-width:0.75}
		.st2 {fill:#000000;font-family:新細明體;font-size:12pt}
		.st3 {stroke:#000000;stroke-linecap:round;stroke-linejoin:round;stroke-width:1.5}
		.st4 {stroke:#164326;stroke-linecap:round;stroke-linejoin:round;stroke-width:1.5}
		.st5 {fill:none;fill-rule:evenodd;font-size:12px;overflow:visible;stroke-linecap:square;stroke-miterlimit:3}
	]]>
	</style>

	<g>
		<title>頁-1</title>
		<g id="group26-1" transform="translate(0.375,-0.375)">
			<title>工作表.26</title>
			<g id="shape1-2" transform="translate(-2.79776E-14,-138.614)">
				<title>工作表.1</title>
				<desc>原本</desc>
				<rect x="0" y="173.663" width="40.8189" height="22.6772" class="st1"/>
				<text x="4.41" y="189.8" class="st2">原本</text>			</g>
			<g id="shape2-5" transform="translate(228.292,-172.913)">
				<title>工作表.2</title>
				<desc>僧祇戒本</desc>
				<rect x="0" y="173.663" width="72" height="22.6772" class="st1"/>
				<text x="4" y="189.8" class="st2">僧祇戒本</text>			</g>
			<g id="shape3-8" transform="translate(500.173,-120.472)">
				<title>工作表.3</title>
				<desc>有部戒本</desc>
				<rect x="0" y="173.663" width="72" height="22.6772" class="st1"/>
				<text x="4" y="189.8" class="st2">有部戒本</text>			</g>
			<g id="shape4-11" transform="translate(500.315,-70.8661)">
				<title>工作表.4</title>
				<desc>解脫戒本</desc>
				<rect x="0" y="173.663" width="72" height="22.6772" class="st1"/>
				<text x="4" y="189.8" class="st2">解脫戒本</text>			</g>
			<g id="shape5-14" transform="translate(468.157,-38.2677)">
				<title>工作表.5</title>
				<desc>五分戒本</desc>
				<rect x="0" y="173.663" width="72" height="22.6772" class="st1"/>
				<text x="4" y="189.8" class="st2">五分戒本</text>			</g>
			<g id="shape6-17" transform="translate(228.047,-2.84217E-14)">
				<title>工作表.6</title>
				<desc>銅鍱戒本</desc>
				<rect x="0" y="173.663" width="104.031" height="22.6772" class="st1"/>
				<text x="20.02" y="189.8" class="st2">銅鍱戒本</text>			</g>
			<g id="shape7-20" transform="translate(212.047,-94.9606)">
				<title>工作表.7</title>
				<desc>優波離本</desc>
				<rect x="0" y="173.663" width="88.9921" height="22.6772" class="st1"/>
				<text x="12.5" y="189.8" class="st2">優波離本</text>			</g>
			<g id="shape8-23" transform="translate(288.85,-106.441)">
				<title>工作表.8</title>
				<path d="M207.21 196.34 L197.04 196.34 L0 196.34" class="st3"/>
			</g>
			<g id="shape9-26" transform="translate(502.286,310.476) rotate(180)">
				<title>工作表.9</title>
				<path d="M0 196.34 L5.67 196.34" class="st3"/>
			</g>
			<g id="shape10-29" transform="translate(299.439,114.136) rotate(-90)">
				<title>工作表.10</title>
				<path d="M0 196.34 L49.61 196.34" class="st3"/>
			</g>
			<g id="shape11-32" transform="translate(501.449,260.87) rotate(180)">
				<title>工作表.11</title>
				<path d="M0 196.34 L5.67 196.34" class="st3"/>
			</g>
			<g id="shape12-35" transform="translate(524.057,336.528) rotate(164.958)">
				<title>工作表.12</title>
				<path d="M0 196.34 L146.76 196.34" class="st3"/>
			</g>
			<g id="shape13-38" transform="translate(401.675,329.802) rotate(-158.667)">
				<title>工作表.13</title>
				<path d="M0 196.34 L156.72 196.34" class="st3"/>
			</g>
			<g id="shape14-41" transform="translate(346.417,297.109) rotate(-139.982)">
				<title>工作表.14</title>
				<path d="M0 196.34 L209.95 196.34" class="st3"/>
			</g>
			<g id="shape15-44" transform="translate(117.187,344.16) rotate(-144.157)">
				<title>工作表.15</title>
				<path d="M0 196.34 L236.72 196.34" class="st3"/>
			</g>
			<g id="shape16-47" transform="translate(177.278,281.462) rotate(-166.423)">
				<title>工作表.16</title>
				<path d="M0 196.34 L188.37 196.34" class="st3"/>
			</g>
			<g id="shape17-50" transform="translate(255.191,204.871) rotate(169.076)">
				<title>工作表.17</title>
				<path d="M0 196.34 L181 196.34" class="st3"/>
			</g>
			<g id="shape18-53" transform="translate(40.6036,-150.018)">
				<title>工作表.18</title>
				<path d="M0 196.34 L463.1 196.34" class="st4"/>
			</g>
			<g id="shape19-56" transform="translate(217.984,-184.252)">
				<title>工作表.19</title>
				<path d="M0 196.34 L14.17 196.34" class="st4"/>
			</g>
			<g id="shape20-59" transform="translate(294.334,-184.245) rotate(-0.467885)">
				<title>工作表.20</title>
				<path d="M0 196.34 L16.2 196.34" class="st4"/>
			</g>
			<g id="shape22-62" transform="translate(232.157,-11.3386)">
				<title>工作表.22</title>
				<path d="M0 196.34 L14.17 196.34" class="st4"/>
			</g>
			<g id="shape23-65" transform="translate(312.378,-11.3386)">
				<title>工作表.23</title>
				<path d="M0 196.34 L192.29 196.34" class="st4"/>
			</g>
			<g id="shape24-68" transform="translate(503.704,2.84217E-14)">
				<title>工作表.24</title>
				<desc>四分戒本</desc>
				<rect x="0" y="173.663" width="72" height="22.6772" class="st1"/>
				<text x="4" y="189.8" class="st2">四分戒本</text>			</g>
			<g id="shape25-71" transform="translate(500.173,-138.898)">
				<title>工作表.25</title>
				<desc>正量律本</desc>
				<rect x="0" y="173.663" width="72" height="22.6772" class="st1"/>
				<text x="4" y="189.8" class="st2">正量律本</text>			</g>
		</g>
	</g>
</svg>
