<?xml version="1.0" encoding="UTF-8" standalone="no"?>
<!DOCTYPE svg PUBLIC "-//W3C//DTD SVG 1.1//EN" "http://www.w3.org/Graphics/SVG/1.1/DTD/svg11.dtd">
<!-- 由 Microsoft Visio, SVG Export 產生 y35.0151.svg 頁-1 -->
<svg xmlns="http://www.w3.org/2000/svg" xmlns:xlink="http://www.w3.org/1999/xlink" xmlns:ev="http://www.w3.org/2001/xml-events"
		xmlns:v="http://schemas.microsoft.com/visio/2003/SVGExtensions/" width="8.62664in" height="5.86475in"
		viewBox="0 0 621.118 422.262" xml:space="preserve" color-interpolation-filters="sRGB" class="st5">
	

	<style type="text/css">
	<![CDATA[
		.st1 {fill:none;stroke:none;stroke-linecap:round;stroke-linejoin:round;stroke-width:0.75}
		.st2 {fill:#000000;font-family:新細明體;font-size:12pt}
		.st3 {fill:#000000;font-family:新細明體;font-size:0.916672em}
		.st4 {stroke:#000000;stroke-linecap:round;stroke-linejoin:round;stroke-width:0.24}
		.st5 {fill:none;fill-rule:evenodd;font-size:12px;overflow:visible;stroke-linecap:square;stroke-miterlimit:3}
	]]>
	</style>

	<g   >
		<title>頁-1</title>
		
		<g id="group182-1" transform="translate(0.375,-0.375)"  >
			<title>工作表.182</title>
			<g id="shape1-2"   transform="translate(8.50394,-300.012)">
				<title>工作表.1</title>
				<desc>波羅夷</desc>
				
				
				<rect x="0" y="393.915" width="56.126" height="28.3465" class="st1"/>
				<text x="4.06" y="412.89" class="st2" >波羅夷</text>			</g>
			<g id="shape2-5"   transform="translate(8.50394,-264.047)">
				<title>工作表.2</title>
				<desc>僧伽婆尸沙</desc>
				
				
				<rect x="0" y="393.915" width="88.1575" height="28.3465" class="st1"/>
				<text x="4.08" y="412.89" class="st2" >僧伽婆尸沙</text>			</g>
			<g id="shape3-8"   transform="translate(8.50394,-229.146)">
				<title>工作表.3</title>
				<desc>不定</desc>
				
				
				<rect x="0" y="393.915" width="40.252" height="28.3465" class="st1"/>
				<text x="4.13" y="412.89" class="st2" >不定</text>			</g>
			<g id="shape4-11"   transform="translate(8.50394,-193.713)">
				<title>工作表.4</title>
				<desc>尼薩耆波逸提</desc>
				
				
				<rect x="0" y="393.915" width="104.031" height="28.3465" class="st1"/>
				<text x="4.02" y="412.89" class="st2" >尼薩耆波逸提</text>			</g>
			<g id="shape5-14"   transform="translate(8.50394,-158.28)">
				<title>工作表.5</title>
				<desc>波逸提</desc>
				
				
				<rect x="0" y="393.915" width="56.126" height="28.3465" class="st1"/>
				<text x="4.06" y="412.89" class="st2" >波逸提</text>			</g>
			<g id="shape6-17"   transform="translate(8.50394,-122.846)">
				<title>工作表.6</title>
				<desc>波羅提提舍尼</desc>
				
				
				<rect x="0" y="393.915" width="104.031" height="28.3465" class="st1"/>
				<text x="4.02" y="412.89" class="st2" >波羅提提舍尼</text>			</g>
			<g id="shape7-20"   transform="translate(8.50394,-88.1575)">
				<title>工作表.7</title>
				<desc>學</desc>
				
				
				<rect x="0" y="393.915" width="24.378" height="28.3465" class="st1"/>
				<text x="4.19" y="412.89" class="st2" >學</text>			</g>
			<g id="shape8-23"   transform="translate(8.50394,-51.9803)">
				<title>工作表.8</title>
				<desc>滅諍</desc>
				
				
				<rect x="0" y="393.915" width="40.252" height="28.3465" class="st1"/>
				<text x="4.13" y="412.89" class="st2" >滅諍</text>			</g>
			<g id="shape9-26"   transform="translate(-1.59872E-14,-9.46063)">
				<title>工作表.9</title>
				<desc>總計</desc>
				
				
				<rect x="0" y="401.002" width="128.693" height="21.2598" class="st1"/>
				<text x="32.35" y="416.43" class="st2" >（總計）</text>			</g>
			<g id="shape10-29"   transform="translate(164.374,-349.512)">
				<title>工作表.10</title>
				<desc>優波離問</desc>
				
				
				<rect x="0" y="350.262" width="28.3465" height="72" class="st1"/>
				<text x="14.17" y="354.26" writing-mode="tb-rl" class="st2" >優波離問</text>			</g>
			<g id="shape11-32"   transform="translate(192.72,-349.512)">
				<title>工作表.11</title>
				<desc>僧祇戒本</desc>
				
				
				<rect x="0" y="350.262" width="28.3465" height="72" class="st1"/>
				<text x="14.17" y="354.26" writing-mode="tb-rl" class="st2" >僧祇戒本</text>			</g>
			<g id="shape12-35"   transform="translate(221.067,-349.512)">
				<title>工作表.12</title>
				<desc>銅鍱戒本</desc>
				
				
				<rect x="0" y="350.262" width="28.3465" height="72" class="st1"/>
				<text x="14.17" y="354.26" writing-mode="tb-rl" class="st2" >銅鍱戒本</text>			</g>
			<g id="shape13-38"   transform="translate(249.413,-349.512)">
				<title>工作表.13</title>
				<desc>五分戒本</desc>
				
				
				<rect x="0" y="350.262" width="28.3465" height="72" class="st1"/>
				<text x="14.17" y="354.26" writing-mode="tb-rl" class="st2" >五分戒本</text>			</g>
			<g id="shape14-41"   transform="translate(277.76,-349.512)">
				<title>工作表.14</title>
				<desc>四分戒本</desc>
				
				
				<rect x="0" y="350.262" width="28.3465" height="72" class="st1"/>
				<text x="14.17" y="354.26" writing-mode="tb-rl" class="st2" >四分戒本</text>			</g>
			<g id="shape15-44"   transform="translate(306.106,-349.512)">
				<title>工作表.15</title>
				<desc>解脫戒經</desc>
				
				
				<rect x="0" y="350.262" width="28.3465" height="72" class="st1"/>
				<text x="14.17" y="354.26" writing-mode="tb-rl" class="st2" >解脫戒經</text>			</g>
			<g id="shape16-47"   transform="translate(334.453,-349.512)">
				<title>工作表.16</title>
				<desc>十誦別本</desc>
				
				
				<rect x="0" y="350.262" width="28.3465" height="72" class="st1"/>
				<text x="14.17" y="354.26" writing-mode="tb-rl" class="st2" >十誦別本</text>			</g>
			<g id="shape17-50"   transform="translate(362.799,-349.512)">
				<title>工作表.17</title>
				<desc>十誦律本</desc>
				
				
				<rect x="0" y="350.262" width="28.3465" height="72" class="st1"/>
				<text x="14.17" y="354.26" writing-mode="tb-rl" class="st2" >十誦律本</text>			</g>
			<g id="shape18-53"   transform="translate(391.146,-349.512)">
				<title>工作表.18</title>
				<desc>十誦古本</desc>
				
				
				<rect x="0" y="350.262" width="28.3465" height="72" class="st1"/>
				<text x="14.17" y="354.26" writing-mode="tb-rl" class="st2" >十誦古本</text>			</g>
			<g id="shape19-56"   transform="translate(418.358,-349.512)">
				<title>工作表.19</title>
				<desc>十誦戒本</desc>
				
				
				<rect x="0" y="350.262" width="28.3465" height="72" class="st1"/>
				<text x="14.17" y="354.26" writing-mode="tb-rl" class="st2" >十誦戒本</text>			</g>
			<g id="shape20-59"   transform="translate(447.839,-349.512)">
				<title>工作表.20</title>
				<desc>十誦梵本</desc>
				
				
				<rect x="0" y="350.262" width="28.3465" height="72" class="st1"/>
				<text x="14.17" y="354.26" writing-mode="tb-rl" class="st2" >十誦梵本</text>			</g>
			<g id="shape21-62"   transform="translate(476.185,-349.512)">
				<title>工作表.21</title>
				<desc>鼻奈耶</desc>
				
				
				<rect x="0" y="350.262" width="28.3465" height="72" class="st1"/>
				<text x="14.17" y="22.141em 23.641em 25.141em" writing-mode="tb-rl" class="st2" >鼻奈耶</text>			</g>
			<g id="shape22-65"   transform="translate(504.531,-349.512)">
				<title>工作表.22</title>
				<desc>根有戒經</desc>
				
				
				<rect x="0" y="350.262" width="28.3465" height="72" class="st1"/>
				<text x="14.17" y="354.26" writing-mode="tb-rl" class="st2" >根有戒經</text>			</g>
			<g id="shape23-68"   transform="translate(532.878,-349.512)">
				<title>工作表.23</title>
				<desc>根有梵本</desc>
				
				
				<rect x="0" y="350.262" width="28.3465" height="72" class="st1"/>
				<text x="14.17" y="354.26" writing-mode="tb-rl" class="st2" >根有梵本</text>			</g>
			<g id="shape24-71"   transform="translate(561.224,-349.512)">
				<title>工作表.24</title>
				<desc>根有藏本</desc>
				
				
				<rect x="0" y="350.262" width="28.3465" height="72" class="st1"/>
				<text x="14.17" y="354.26" writing-mode="tb-rl" class="st2" >根有藏本</text>			</g>
			<g id="shape25-74"   transform="translate(589.571,-349.512)">
				<title>工作表.25</title>
				<desc>名義大集</desc>
				
				
				<rect x="0" y="350.262" width="28.3465" height="72" class="st1"/>
				<text x="14.17" y="354.26" writing-mode="tb-rl" class="st2" >名義大集</text>			</g>
			<g id="shape26-77"   transform="translate(164.409,5.68434E-14)">
				<title>工作表.26</title>
				<desc>215</desc>
				
				
				<rect x="0" y="382.01" width="28.3465" height="40.252" class="st1"/>
				<text x="6.42" y="405.44" class="st3" >215</text>			</g>
			<g id="shape27-80"   transform="translate(-265.789,411.632) rotate(-90)">
				<title>工作表.27</title>
				<path d="M0 422.26 L408.19 422.26" class="st4"/>
			</g>
			<g id="shape28-83"   transform="translate(620.623,507.484) rotate(180)">
				<title>工作表.28</title>
				<path d="M0 422.26 L612.12 422.26" class="st4"/>
			</g>
			<g id="shape29-86"   transform="translate(192.756,-5.68434E-14)">
				<title>工作表.29</title>
				<desc>218</desc>
				
				
				<rect x="0" y="382.01" width="28.3465" height="40.252" class="st1"/>
				<text x="6.42" y="405.44" class="st3" >218</text>			</g>
			<g id="shape30-89"   transform="translate(221.669,-2.27374E-13)">
				<title>工作表.30</title>
				<desc>227</desc>
				
				
				<rect x="0" y="382.01" width="28.3465" height="40.252" class="st1"/>
				<text x="6.42" y="405.44" class="st3" >227</text>			</g>
			<g id="shape31-92"   transform="translate(249.449,-2.84217E-13)">
				<title>工作表.31</title>
				<desc>251</desc>
				
				
				<rect x="0" y="382.01" width="28.3465" height="40.252" class="st1"/>
				<text x="6.42" y="405.44" class="st3" >251</text>			</g>
			<g id="shape32-95"   transform="translate(277.795,-3.41061E-13)">
				<title>工作表.32</title>
				<desc>250</desc>
				
				
				<rect x="0" y="382.01" width="28.3465" height="40.252" class="st1"/>
				<text x="6.42" y="405.44" class="st3" >250</text>			</g>
			<g id="shape33-98"   transform="translate(306.142,-3.41061E-13)">
				<title>工作表.33</title>
				<desc>246</desc>
				
				
				<rect x="0" y="382.01" width="28.3465" height="40.252" class="st1"/>
				<text x="6.42" y="405.44" class="st3" >246</text>			</g>
			<g id="shape34-101"   transform="translate(334.488,-4.54747E-13)">
				<title>工作表.34</title>
				<desc>258</desc>
				
				
				<rect x="0" y="382.01" width="28.3465" height="40.252" class="st1"/>
				<text x="6.42" y="405.44" class="st3" >258</text>			</g>
			<g id="shape35-104"   transform="translate(377.008,-5.68434E-13)">
				<title>工作表.35</title>
				<desc>257</desc>
				
				
				<rect x="0" y="382.01" width="28.3465" height="40.252" class="st1"/>
				<text x="6.42" y="405.44" class="st3" >257</text>			</g>
			<g id="shape36-107"   transform="translate(433.701,-8.52651E-13)">
				<title>工作表.36</title>
				<desc>263</desc>
				
				
				<rect x="0" y="382.01" width="56.6929" height="40.252" class="st1"/>
				<text x="20.6" y="405.44" class="st3" >263</text>			</g>
			<g id="shape37-110"   transform="translate(504.567,-9.66338E-13)">
				<title>工作表.37</title>
				<desc>249</desc>
				
				
				<rect x="0" y="382.01" width="28.3465" height="40.252" class="st1"/>
				<text x="6.42" y="405.44" class="st3" >249</text>			</g>
			<g id="shape38-113"   transform="translate(547.087,-1.08002E-12)">
				<title>工作表.38</title>
				<desc>258</desc>
				
				
				<rect x="0" y="382.01" width="28.3465" height="40.252" class="st1"/>
				<text x="6.42" y="405.44" class="st3" >258</text>			</g>
			<g id="shape39-116"   transform="translate(589.606,-1.25056E-12)">
				<title>工作表.39</title>
				<desc>255</desc>
				
				
				<rect x="0" y="382.01" width="28.3465" height="40.252" class="st1"/>
				<text x="6.42" y="405.44" class="st3" >255</text>			</g>
			<g id="shape40-119"   transform="translate(164.409,-51.9803)">
				<title>工作表.40</title>
				<desc>‧</desc>
				
				
				<rect x="0" y="393.915" width="28.3465" height="28.3465" class="st1"/>
				<text x="8.67" y="411.39" class="st3" >‧</text>			</g>
			<g id="shape41-122"   transform="translate(164.409,-87.4134)">
				<title>工作表.41</title>
				<desc>72</desc>
				
				
				<rect x="0" y="393.915" width="28.3465" height="28.3465" class="st1"/>
				<text x="9.01" y="411.39" class="st3" >72</text>			</g>
			<g id="shape42-125"   transform="translate(164.409,-122.846)">
				<title>工作表.42</title>
				<desc>4</desc>
				
				
				<rect x="0" y="393.915" width="28.3465" height="28.3465" class="st1"/>
				<text x="11.59" y="411.39" class="st3" >4</text>			</g>
			<g id="shape43-128"   transform="translate(164.374,-158.173)">
				<title>工作表.43</title>
				<desc>92</desc>
				
				
				<rect x="0" y="393.915" width="28.3465" height="28.3465" class="st1"/>
				<text x="9.01" y="411.39" class="st3" >92</text>			</g>
			<g id="shape44-131"   transform="translate(164.374,-193.713)">
				<title>工作表.44</title>
				<desc>30</desc>
				
				
				<rect x="0" y="393.915" width="28.3465" height="28.3465" class="st1"/>
				<text x="9.01" y="411.39" class="st3" >30</text>			</g>
			<g id="shape45-134"   transform="translate(164.374,-229.146)">
				<title>工作表.45</title>
				<desc>‧</desc>
				
				
				<rect x="0" y="393.915" width="28.3465" height="28.3465" class="st1"/>
				<text x="8.67" y="411.39" class="st3" >‧</text>			</g>
			<g id="shape46-137"   transform="translate(164.374,-264.579)">
				<title>工作表.46</title>
				<desc>13</desc>
				
				
				<rect x="0" y="393.915" width="28.3465" height="28.3465" class="st1"/>
				<text x="9.01" y="411.39" class="st3" >13</text>			</g>
			<g id="shape47-140"   transform="translate(171.461,-300.012)">
				<title>工作表.47</title>
				<desc>4</desc>
				
				
				<rect x="0" y="393.915" width="14.1732" height="28.3465" class="st1"/>
				<text x="4.5" y="411.39" class="st3" >4</text>			</g>
			<g id="shape48-143"   transform="translate(192.756,-51.9803)">
				<title>工作表.48</title>
				<desc>7</desc>
				
				
				<rect x="0" y="393.915" width="28.3465" height="28.3465" class="st1"/>
				<text x="11.59" y="411.39" class="st3" >7</text>			</g>
			<g id="shape49-146"   transform="translate(192.756,-87.4134)">
				<title>工作表.49</title>
				<desc>66</desc>
				
				
				<rect x="0" y="393.915" width="28.3465" height="28.3465" class="st1"/>
				<text x="9.01" y="411.39" class="st3" >66</text>			</g>
			<g id="shape50-149"   transform="translate(192.756,-122.846)">
				<title>工作表.50</title>
				<desc>4</desc>
				
				
				<rect x="0" y="393.915" width="28.3465" height="28.3465" class="st1"/>
				<text x="11.59" y="411.39" class="st3" >4</text>			</g>
			<g id="shape51-152"   transform="translate(192.72,-158.173)">
				<title>工作表.51</title>
				<desc>92</desc>
				
				
				<rect x="0" y="393.915" width="28.3465" height="28.3465" class="st1"/>
				<text x="9.01" y="411.39" class="st3" >92</text>			</g>
			<g id="shape52-155"   transform="translate(192.72,-193.713)">
				<title>工作表.52</title>
				<desc>30</desc>
				
				
				<rect x="0" y="393.915" width="28.3465" height="28.3465" class="st1"/>
				<text x="9.01" y="411.39" class="st3" >30</text>			</g>
			<g id="shape53-158"   transform="translate(192.72,-229.146)">
				<title>工作表.53</title>
				<desc>2</desc>
				
				
				<rect x="0" y="393.915" width="28.3465" height="28.3465" class="st1"/>
				<text x="11.59" y="411.39" class="st3" >2</text>			</g>
			<g id="shape54-161"   transform="translate(192.72,-264.579)">
				<title>工作表.54</title>
				<desc>13</desc>
				
				
				<rect x="0" y="393.915" width="28.3465" height="28.3465" class="st1"/>
				<text x="9.01" y="411.39" class="st3" >13</text>			</g>
			<g id="shape55-164"   transform="translate(199.807,-300.012)">
				<title>工作表.55</title>
				<desc>4</desc>
				
				
				<rect x="0" y="393.915" width="14.1732" height="28.3465" class="st1"/>
				<text x="4.5" y="411.39" class="st3" >4</text>			</g>
			<g id="shape56-167"   transform="translate(221.102,-51.9803)">
				<title>工作表.56</title>
				<desc>7</desc>
				
				
				<rect x="0" y="393.915" width="28.3465" height="28.3465" class="st1"/>
				<text x="11.59" y="411.39" class="st3" >7</text>			</g>
			<g id="shape57-170"   transform="translate(221.102,-87.4134)">
				<title>工作表.57</title>
				<desc>75</desc>
				
				
				<rect x="0" y="393.915" width="28.3465" height="28.3465" class="st1"/>
				<text x="9.01" y="411.39" class="st3" >75</text>			</g>
			<g id="shape58-173"   transform="translate(221.102,-122.846)">
				<title>工作表.58</title>
				<desc>4</desc>
				
				
				<rect x="0" y="393.915" width="28.3465" height="28.3465" class="st1"/>
				<text x="11.59" y="411.39" class="st3" >4</text>			</g>
			<g id="shape59-176"   transform="translate(221.102,-158.173)">
				<title>工作表.59</title>
				<desc>92</desc>
				
				
				<rect x="0" y="393.915" width="28.3465" height="28.3465" class="st1"/>
				<text x="9.01" y="411.39" class="st3" >92</text>			</g>
			<g id="shape60-179"   transform="translate(221.067,-193.713)">
				<title>工作表.60</title>
				<desc>30</desc>
				
				
				<rect x="0" y="393.915" width="28.3465" height="28.3465" class="st1"/>
				<text x="9.01" y="411.39" class="st3" >30</text>			</g>
			<g id="shape61-182"   transform="translate(221.067,-229.146)">
				<title>工作表.61</title>
				<desc>2</desc>
				
				
				<rect x="0" y="393.915" width="28.3465" height="28.3465" class="st1"/>
				<text x="11.59" y="411.39" class="st3" >2</text>			</g>
			<g id="shape62-185"   transform="translate(221.067,-264.579)">
				<title>工作表.62</title>
				<desc>13</desc>
				
				
				<rect x="0" y="393.915" width="28.3465" height="28.3465" class="st1"/>
				<text x="9.01" y="411.39" class="st3" >13</text>			</g>
			<g id="shape63-188"   transform="translate(228.154,-300.012)">
				<title>工作表.63</title>
				<desc>4</desc>
				
				
				<rect x="0" y="393.915" width="14.1732" height="28.3465" class="st1"/>
				<text x="4.5" y="411.39" class="st3" >4</text>			</g>
			<g id="shape64-191"   transform="translate(249.449,-51.9803)">
				<title>工作表.64</title>
				<desc>7</desc>
				
				
				<rect x="0" y="393.915" width="28.3465" height="28.3465" class="st1"/>
				<text x="11.59" y="411.39" class="st3" >7</text>			</g>
			<g id="shape65-194"   transform="translate(249.449,-87.4134)">
				<title>工作表.65</title>
				<desc>100</desc>
				
				
				<rect x="0" y="393.915" width="28.3465" height="28.3465" class="st1"/>
				<text x="6.42" y="411.39" class="st3" >100</text>			</g>
			<g id="shape66-197"   transform="translate(249.449,-122.846)">
				<title>工作表.66</title>
				<desc>4</desc>
				
				
				<rect x="0" y="393.915" width="28.3465" height="28.3465" class="st1"/>
				<text x="11.59" y="411.39" class="st3" >4</text>			</g>
			<g id="shape67-200"   transform="translate(249.449,-158.173)">
				<title>工作表.67</title>
				<desc>91</desc>
				
				
				<rect x="0" y="393.915" width="28.3465" height="28.3465" class="st1"/>
				<text x="9.01" y="411.39" class="st3" >91</text>			</g>
			<g id="shape68-203"   transform="translate(249.413,-193.713)">
				<title>工作表.68</title>
				<desc>30</desc>
				
				
				<rect x="0" y="393.915" width="28.3465" height="28.3465" class="st1"/>
				<text x="9.01" y="411.39" class="st3" >30</text>			</g>
			<g id="shape69-206"   transform="translate(249.413,-229.146)">
				<title>工作表.69</title>
				<desc>2</desc>
				
				
				<rect x="0" y="393.915" width="28.3465" height="28.3465" class="st1"/>
				<text x="11.59" y="411.39" class="st3" >2</text>			</g>
			<g id="shape70-209"   transform="translate(249.413,-264.579)">
				<title>工作表.70</title>
				<desc>13</desc>
				
				
				<rect x="0" y="393.915" width="28.3465" height="28.3465" class="st1"/>
				<text x="9.01" y="411.39" class="st3" >13</text>			</g>
			<g id="shape71-212"   transform="translate(256.5,-300.012)">
				<title>工作表.71</title>
				<desc>4</desc>
				
				
				<rect x="0" y="393.915" width="14.1732" height="28.3465" class="st1"/>
				<text x="4.5" y="411.39" class="st3" >4</text>			</g>
			<g id="shape72-215"   transform="translate(277.795,-51.9803)">
				<title>工作表.72</title>
				<desc>7</desc>
				
				
				<rect x="0" y="393.915" width="28.3465" height="28.3465" class="st1"/>
				<text x="11.59" y="411.39" class="st3" >7</text>			</g>
			<g id="shape73-218"   transform="translate(277.795,-87.4134)">
				<title>工作表.73</title>
				<desc>100</desc>
				
				
				<rect x="0" y="393.915" width="28.3465" height="28.3465" class="st1"/>
				<text x="6.42" y="411.39" class="st3" >100</text>			</g>
			<g id="shape74-221"   transform="translate(277.795,-122.846)">
				<title>工作表.74</title>
				<desc>4</desc>
				
				
				<rect x="0" y="393.915" width="28.3465" height="28.3465" class="st1"/>
				<text x="11.59" y="411.39" class="st3" >4</text>			</g>
			<g id="shape75-224"   transform="translate(277.795,-158.74)">
				<title>工作表.75</title>
				<desc>90</desc>
				
				
				<rect x="0" y="393.915" width="28.3465" height="28.3465" class="st1"/>
				<text x="9.01" y="411.39" class="st3" >90</text>			</g>
			<g id="shape76-227"   transform="translate(277.76,-193.713)">
				<title>工作表.76</title>
				<desc>30</desc>
				
				
				<rect x="0" y="393.915" width="28.3465" height="28.3465" class="st1"/>
				<text x="9.01" y="411.39" class="st3" >30</text>			</g>
			<g id="shape77-230"   transform="translate(277.76,-229.146)">
				<title>工作表.77</title>
				<desc>2</desc>
				
				
				<rect x="0" y="393.915" width="28.3465" height="28.3465" class="st1"/>
				<text x="11.59" y="411.39" class="st3" >2</text>			</g>
			<g id="shape78-233"   transform="translate(277.76,-264.579)">
				<title>工作表.78</title>
				<desc>13</desc>
				
				
				<rect x="0" y="393.915" width="28.3465" height="28.3465" class="st1"/>
				<text x="9.01" y="411.39" class="st3" >13</text>			</g>
			<g id="shape79-236"   transform="translate(284.846,-300.012)">
				<title>工作表.79</title>
				<desc>4</desc>
				
				
				<rect x="0" y="393.915" width="14.1732" height="28.3465" class="st1"/>
				<text x="4.5" y="411.39" class="st3" >4</text>			</g>
			<g id="shape80-239"   transform="translate(306.142,-51.9803)">
				<title>工作表.80</title>
				<desc>7</desc>
				
				
				<rect x="0" y="393.915" width="28.3465" height="28.3465" class="st1"/>
				<text x="11.59" y="411.39" class="st3" >7</text>			</g>
			<g id="shape81-242"   transform="translate(306.142,-87.4134)">
				<title>工作表.81</title>
				<desc>96</desc>
				
				
				<rect x="0" y="393.915" width="28.3465" height="28.3465" class="st1"/>
				<text x="9.01" y="411.39" class="st3" >96</text>			</g>
			<g id="shape82-245"   transform="translate(306.142,-122.846)">
				<title>工作表.82</title>
				<desc>4</desc>
				
				
				<rect x="0" y="393.915" width="28.3465" height="28.3465" class="st1"/>
				<text x="11.59" y="411.39" class="st3" >4</text>			</g>
			<g id="shape83-248"   transform="translate(306.142,-158.173)">
				<title>工作表.83</title>
				<desc>90</desc>
				
				
				<rect x="0" y="393.915" width="28.3465" height="28.3465" class="st1"/>
				<text x="9.01" y="411.39" class="st3" >90</text>			</g>
			<g id="shape84-251"   transform="translate(306.106,-193.713)">
				<title>工作表.84</title>
				<desc>30</desc>
				
				
				<rect x="0" y="393.915" width="28.3465" height="28.3465" class="st1"/>
				<text x="9.01" y="411.39" class="st3" >30</text>			</g>
			<g id="shape85-254"   transform="translate(306.106,-229.146)">
				<title>工作表.85</title>
				<desc>2</desc>
				
				
				<rect x="0" y="393.915" width="28.3465" height="28.3465" class="st1"/>
				<text x="11.59" y="411.39" class="st3" >2</text>			</g>
			<g id="shape86-257"   transform="translate(306.106,-264.579)">
				<title>工作表.86</title>
				<desc>13</desc>
				
				
				<rect x="0" y="393.915" width="28.3465" height="28.3465" class="st1"/>
				<text x="9.01" y="411.39" class="st3" >13</text>			</g>
			<g id="shape87-260"   transform="translate(313.193,-300.012)">
				<title>工作表.87</title>
				<desc>4</desc>
				
				
				<rect x="0" y="393.915" width="14.1732" height="28.3465" class="st1"/>
				<text x="4.5" y="411.39" class="st3" >4</text>			</g>
			<g id="shape88-263"   transform="translate(334.488,-51.9803)">
				<title>工作表.88</title>
				<desc>7</desc>
				
				
				<rect x="0" y="393.915" width="28.3465" height="28.3465" class="st1"/>
				<text x="11.59" y="411.39" class="st3" >7</text>			</g>
			<g id="shape89-266"   transform="translate(334.488,-87.4134)">
				<title>工作表.89</title>
				<desc>108</desc>
				
				
				<rect x="0" y="393.915" width="28.3465" height="28.3465" class="st1"/>
				<text x="6.42" y="411.39" class="st3" >108</text>			</g>
			<g id="shape90-269"   transform="translate(334.488,-122.846)">
				<title>工作表.90</title>
				<desc>4</desc>
				
				
				<rect x="0" y="393.915" width="28.3465" height="28.3465" class="st1"/>
				<text x="11.59" y="411.39" class="st3" >4</text>			</g>
			<g id="shape91-272"   transform="translate(334.488,-158.173)">
				<title>工作表.91</title>
				<desc>90</desc>
				
				
				<rect x="0" y="393.915" width="28.3465" height="28.3465" class="st1"/>
				<text x="9.01" y="411.39" class="st3" >90</text>			</g>
			<g id="shape92-275"   transform="translate(334.453,-193.713)">
				<title>工作表.92</title>
				<desc>30</desc>
				
				
				<rect x="0" y="393.915" width="28.3465" height="28.3465" class="st1"/>
				<text x="9.01" y="411.39" class="st3" >30</text>			</g>
			<g id="shape93-278"   transform="translate(334.453,-229.146)">
				<title>工作表.93</title>
				<desc>2</desc>
				
				
				<rect x="0" y="393.915" width="28.3465" height="28.3465" class="st1"/>
				<text x="11.59" y="411.39" class="st3" >2</text>			</g>
			<g id="shape94-281"   transform="translate(334.453,-264.579)">
				<title>工作表.94</title>
				<desc>13</desc>
				
				
				<rect x="0" y="393.915" width="28.3465" height="28.3465" class="st1"/>
				<text x="9.01" y="411.39" class="st3" >13</text>			</g>
			<g id="shape95-284"   transform="translate(341.539,-300.012)">
				<title>工作表.95</title>
				<desc>4</desc>
				
				
				<rect x="0" y="393.915" width="14.1732" height="28.3465" class="st1"/>
				<text x="4.5" y="411.39" class="st3" >4</text>			</g>
			<g id="shape96-287"   transform="translate(362.835,-51.9803)">
				<title>工作表.96</title>
				<desc>7</desc>
				
				
				<rect x="0" y="393.915" width="28.3465" height="28.3465" class="st1"/>
				<text x="11.59" y="411.39" class="st3" >7</text>			</g>
			<g id="shape97-290"   transform="translate(362.835,-87.4134)">
				<title>工作表.97</title>
				<desc>107</desc>
				
				
				<rect x="0" y="393.915" width="28.3465" height="28.3465" class="st1"/>
				<text x="6.42" y="411.39" class="st3" >107</text>			</g>
			<g id="shape98-293"   transform="translate(362.835,-122.846)">
				<title>工作表.98</title>
				<desc>4</desc>
				
				
				<rect x="0" y="393.915" width="28.3465" height="28.3465" class="st1"/>
				<text x="11.59" y="411.39" class="st3" >4</text>			</g>
			<g id="shape99-296"   transform="translate(362.835,-158.173)">
				<title>工作表.99</title>
				<desc>90</desc>
				
				
				<rect x="0" y="393.915" width="28.3465" height="28.3465" class="st1"/>
				<text x="9.01" y="411.39" class="st3" >90</text>			</g>
			<g id="shape100-299"   transform="translate(362.799,-193.713)">
				<title>工作表.100</title>
				<desc>30</desc>
				
				
				<rect x="0" y="393.915" width="28.3465" height="28.3465" class="st1"/>
				<text x="9.01" y="411.39" class="st3" >30</text>			</g>
			<g id="shape101-302"   transform="translate(362.799,-229.146)">
				<title>工作表.101</title>
				<desc>2</desc>
				
				
				<rect x="0" y="393.915" width="28.3465" height="28.3465" class="st1"/>
				<text x="11.59" y="411.39" class="st3" >2</text>			</g>
			<g id="shape102-305"   transform="translate(362.799,-264.579)">
				<title>工作表.102</title>
				<desc>13</desc>
				
				
				<rect x="0" y="393.915" width="28.3465" height="28.3465" class="st1"/>
				<text x="9.01" y="411.39" class="st3" >13</text>			</g>
			<g id="shape103-308"   transform="translate(369.886,-300.012)">
				<title>工作表.103</title>
				<desc>4</desc>
				
				
				<rect x="0" y="393.915" width="14.1732" height="28.3465" class="st1"/>
				<text x="4.5" y="411.39" class="st3" >4</text>			</g>
			<g id="shape104-311"   transform="translate(391.181,-51.9803)">
				<title>工作表.104</title>
				<desc>7</desc>
				
				
				<rect x="0" y="393.915" width="28.3465" height="28.3465" class="st1"/>
				<text x="11.59" y="411.39" class="st3" >7</text>			</g>
			<g id="shape105-314"   transform="translate(391.181,-87.4134)">
				<title>工作表.105</title>
				<desc>107</desc>
				
				
				<rect x="0" y="393.915" width="28.3465" height="28.3465" class="st1"/>
				<text x="6.42" y="411.39" class="st3" >107</text>			</g>
			<g id="shape106-317"   transform="translate(391.181,-122.846)">
				<title>工作表.106</title>
				<desc>4</desc>
				
				
				<rect x="0" y="393.915" width="28.3465" height="28.3465" class="st1"/>
				<text x="11.59" y="411.39" class="st3" >4</text>			</g>
			<g id="shape107-320"   transform="translate(391.181,-158.173)">
				<title>工作表.107</title>
				<desc>90</desc>
				
				
				<rect x="0" y="393.915" width="28.3465" height="28.3465" class="st1"/>
				<text x="9.01" y="411.39" class="st3" >90</text>			</g>
			<g id="shape108-323"   transform="translate(391.146,-193.713)">
				<title>工作表.108</title>
				<desc>30</desc>
				
				
				<rect x="0" y="393.915" width="28.3465" height="28.3465" class="st1"/>
				<text x="9.01" y="411.39" class="st3" >30</text>			</g>
			<g id="shape109-326"   transform="translate(391.146,-229.146)">
				<title>工作表.109</title>
				<desc>2</desc>
				
				
				<rect x="0" y="393.915" width="28.3465" height="28.3465" class="st1"/>
				<text x="11.59" y="411.39" class="st3" >2</text>			</g>
			<g id="shape110-329"   transform="translate(391.146,-264.579)">
				<title>工作表.110</title>
				<desc>13</desc>
				
				
				<rect x="0" y="393.915" width="28.3465" height="28.3465" class="st1"/>
				<text x="9.01" y="411.39" class="st3" >13</text>			</g>
			<g id="shape111-332"   transform="translate(398.232,-300.012)">
				<title>工作表.111</title>
				<desc>4</desc>
				
				
				<rect x="0" y="393.915" width="14.1732" height="28.3465" class="st1"/>
				<text x="4.5" y="411.39" class="st3" >4</text>			</g>
			<g id="shape112-335"   transform="translate(419.528,-51.9803)">
				<title>工作表.112</title>
				<desc>7</desc>
				
				
				<rect x="0" y="393.915" width="28.3465" height="28.3465" class="st1"/>
				<text x="11.59" y="411.39" class="st3" >7</text>			</g>
			<g id="shape113-338"   transform="translate(419.528,-87.4134)">
				<title>工作表.113</title>
				<desc>113</desc>
				
				
				<rect x="0" y="393.915" width="28.3465" height="28.3465" class="st1"/>
				<text x="6.42" y="411.39" class="st3" >113</text>			</g>
			<g id="shape114-341"   transform="translate(419.528,-122.846)">
				<title>工作表.114</title>
				<desc>4</desc>
				
				
				<rect x="0" y="393.915" width="28.3465" height="28.3465" class="st1"/>
				<text x="11.59" y="411.39" class="st3" >4</text>			</g>
			<g id="shape115-344"   transform="translate(419.528,-158.173)">
				<title>工作表.115</title>
				<desc>90</desc>
				
				
				<rect x="0" y="393.915" width="28.3465" height="28.3465" class="st1"/>
				<text x="9.01" y="411.39" class="st3" >90</text>			</g>
			<g id="shape116-347"   transform="translate(419.492,-193.713)">
				<title>工作表.116</title>
				<desc>30</desc>
				
				
				<rect x="0" y="393.915" width="28.3465" height="28.3465" class="st1"/>
				<text x="9.01" y="411.39" class="st3" >30</text>			</g>
			<g id="shape117-350"   transform="translate(419.492,-229.146)">
				<title>工作表.117</title>
				<desc>2</desc>
				
				
				<rect x="0" y="393.915" width="28.3465" height="28.3465" class="st1"/>
				<text x="11.59" y="411.39" class="st3" >2</text>			</g>
			<g id="shape118-353"   transform="translate(419.492,-264.579)">
				<title>工作表.118</title>
				<desc>13</desc>
				
				
				<rect x="0" y="393.915" width="28.3465" height="28.3465" class="st1"/>
				<text x="9.01" y="411.39" class="st3" >13</text>			</g>
			<g id="shape119-356"   transform="translate(426.579,-300.012)">
				<title>工作表.119</title>
				<desc>4</desc>
				
				
				<rect x="0" y="393.915" width="14.1732" height="28.3465" class="st1"/>
				<text x="4.5" y="411.39" class="st3" >4</text>			</g>
			<g id="shape120-359"   transform="translate(447.874,-51.9803)">
				<title>工作表.120</title>
				<desc>7</desc>
				
				
				<rect x="0" y="393.915" width="28.3465" height="28.3465" class="st1"/>
				<text x="11.59" y="411.39" class="st3" >7</text>			</g>
			<g id="shape121-362"   transform="translate(447.874,-87.4134)">
				<title>工作表.121</title>
				<desc>113</desc>
				
				
				<rect x="0" y="393.915" width="28.3465" height="28.3465" class="st1"/>
				<text x="6.42" y="411.39" class="st3" >113</text>			</g>
			<g id="shape122-365"   transform="translate(447.874,-122.846)">
				<title>工作表.122</title>
				<desc>4</desc>
				
				
				<rect x="0" y="393.915" width="28.3465" height="28.3465" class="st1"/>
				<text x="11.59" y="411.39" class="st3" >4</text>			</g>
			<g id="shape123-368"   transform="translate(447.874,-158.173)">
				<title>工作表.123</title>
				<desc>90</desc>
				
				
				<rect x="0" y="393.915" width="28.3465" height="28.3465" class="st1"/>
				<text x="9.01" y="411.39" class="st3" >90</text>			</g>
			<g id="shape124-371"   transform="translate(447.839,-193.713)">
				<title>工作表.124</title>
				<desc>30</desc>
				
				
				<rect x="0" y="393.915" width="28.3465" height="28.3465" class="st1"/>
				<text x="9.01" y="411.39" class="st3" >30</text>			</g>
			<g id="shape125-374"   transform="translate(447.839,-229.146)">
				<title>工作表.125</title>
				<desc>2</desc>
				
				
				<rect x="0" y="393.915" width="28.3465" height="28.3465" class="st1"/>
				<text x="11.59" y="411.39" class="st3" >2</text>			</g>
			<g id="shape126-377"   transform="translate(447.839,-264.579)">
				<title>工作表.126</title>
				<desc>13</desc>
				
				
				<rect x="0" y="393.915" width="28.3465" height="28.3465" class="st1"/>
				<text x="9.01" y="411.39" class="st3" >13</text>			</g>
			<g id="shape127-380"   transform="translate(454.925,-300.012)">
				<title>工作表.127</title>
				<desc>4</desc>
				
				
				<rect x="0" y="393.915" width="14.1732" height="28.3465" class="st1"/>
				<text x="4.5" y="411.39" class="st3" >4</text>			</g>
			<g id="shape128-383"   transform="translate(476.22,-51.9803)">
				<title>工作表.128</title>
				<desc>7</desc>
				
				
				<rect x="0" y="393.915" width="28.3465" height="28.3465" class="st1"/>
				<text x="11.59" y="411.39" class="st3" >7</text>			</g>
			<g id="shape129-386"   transform="translate(476.22,-87.4134)">
				<title>工作表.129</title>
				<desc>113</desc>
				
				
				<rect x="0" y="393.915" width="28.3465" height="28.3465" class="st1"/>
				<text x="6.42" y="411.39" class="st3" >113</text>			</g>
			<g id="shape130-389"   transform="translate(476.22,-122.846)">
				<title>工作表.130</title>
				<desc>4</desc>
				
				
				<rect x="0" y="393.915" width="28.3465" height="28.3465" class="st1"/>
				<text x="11.59" y="411.39" class="st3" >4</text>			</g>
			<g id="shape131-392"   transform="translate(476.22,-158.173)">
				<title>工作表.131</title>
				<desc>90</desc>
				
				
				<rect x="0" y="393.915" width="28.3465" height="28.3465" class="st1"/>
				<text x="9.01" y="411.39" class="st3" >90</text>			</g>
			<g id="shape132-395"   transform="translate(476.185,-193.713)">
				<title>工作表.132</title>
				<desc>30</desc>
				
				
				<rect x="0" y="393.915" width="28.3465" height="28.3465" class="st1"/>
				<text x="9.01" y="411.39" class="st3" >30</text>			</g>
			<g id="shape133-398"   transform="translate(476.185,-229.146)">
				<title>工作表.133</title>
				<desc>2</desc>
				
				
				<rect x="0" y="393.915" width="28.3465" height="28.3465" class="st1"/>
				<text x="11.59" y="411.39" class="st3" >2</text>			</g>
			<g id="shape134-401"   transform="translate(476.185,-264.579)">
				<title>工作表.134</title>
				<desc>13</desc>
				
				
				<rect x="0" y="393.915" width="28.3465" height="28.3465" class="st1"/>
				<text x="9.01" y="411.39" class="st3" >13</text>			</g>
			<g id="shape135-404"   transform="translate(483.272,-300.012)">
				<title>工作表.135</title>
				<desc>4</desc>
				
				
				<rect x="0" y="393.915" width="14.1732" height="28.3465" class="st1"/>
				<text x="4.5" y="411.39" class="st3" >4</text>			</g>
			<g id="shape136-407"   transform="translate(504.567,-51.9803)">
				<title>工作表.136</title>
				<desc>7</desc>
				
				
				<rect x="0" y="393.915" width="28.3465" height="28.3465" class="st1"/>
				<text x="11.59" y="411.39" class="st3" >7</text>			</g>
			<g id="shape137-410"   transform="translate(504.567,-87.4134)">
				<title>工作表.137</title>
				<desc>99</desc>
				
				
				<rect x="0" y="393.915" width="28.3465" height="28.3465" class="st1"/>
				<text x="9.01" y="411.39" class="st3" >99</text>			</g>
			<g id="shape138-413"   transform="translate(504.567,-122.846)">
				<title>工作表.138</title>
				<desc>4</desc>
				
				
				<rect x="0" y="393.915" width="28.3465" height="28.3465" class="st1"/>
				<text x="11.59" y="411.39" class="st3" >4</text>			</g>
			<g id="shape139-416"   transform="translate(504.567,-158.173)">
				<title>工作表.139</title>
				<desc>90</desc>
				
				
				<rect x="0" y="393.915" width="28.3465" height="28.3465" class="st1"/>
				<text x="9.01" y="411.39" class="st3" >90</text>			</g>
			<g id="shape140-419"   transform="translate(504.531,-193.713)">
				<title>工作表.140</title>
				<desc>30</desc>
				
				
				<rect x="0" y="393.915" width="28.3465" height="28.3465" class="st1"/>
				<text x="9.01" y="411.39" class="st3" >30</text>			</g>
			<g id="shape141-422"   transform="translate(504.531,-229.146)">
				<title>工作表.141</title>
				<desc>2</desc>
				
				
				<rect x="0" y="393.915" width="28.3465" height="28.3465" class="st1"/>
				<text x="11.59" y="411.39" class="st3" >2</text>			</g>
			<g id="shape142-425"   transform="translate(504.531,-264.579)">
				<title>工作表.142</title>
				<desc>13</desc>
				
				
				<rect x="0" y="393.915" width="28.3465" height="28.3465" class="st1"/>
				<text x="9.01" y="411.39" class="st3" >13</text>			</g>
			<g id="shape143-428"   transform="translate(511.618,-300.012)">
				<title>工作表.143</title>
				<desc>4</desc>
				
				
				<rect x="0" y="393.915" width="14.1732" height="28.3465" class="st1"/>
				<text x="4.5" y="411.39" class="st3" >4</text>			</g>
			<g id="shape144-431"   transform="translate(532.913,-51.9803)">
				<title>工作表.144</title>
				<desc>7</desc>
				
				
				<rect x="0" y="393.915" width="28.3465" height="28.3465" class="st1"/>
				<text x="11.59" y="411.39" class="st3" >7</text>			</g>
			<g id="shape145-434"   transform="translate(532.913,-87.4134)">
				<title>工作表.145</title>
				<desc>108</desc>
				
				
				<rect x="0" y="393.915" width="28.3465" height="28.3465" class="st1"/>
				<text x="6.42" y="411.39" class="st3" >108</text>			</g>
			<g id="shape146-437"   transform="translate(532.913,-122.846)">
				<title>工作表.146</title>
				<desc>4</desc>
				
				
				<rect x="0" y="393.915" width="28.3465" height="28.3465" class="st1"/>
				<text x="11.59" y="411.39" class="st3" >4</text>			</g>
			<g id="shape147-440"   transform="translate(532.878,-158.173)">
				<title>工作表.147</title>
				<desc>90</desc>
				
				
				<rect x="0" y="393.915" width="28.3465" height="28.3465" class="st1"/>
				<text x="9.01" y="411.39" class="st3" >90</text>			</g>
			<g id="shape148-443"   transform="translate(532.878,-193.713)">
				<title>工作表.148</title>
				<desc>30</desc>
				
				
				<rect x="0" y="393.915" width="28.3465" height="28.3465" class="st1"/>
				<text x="9.01" y="411.39" class="st3" >30</text>			</g>
			<g id="shape149-446"   transform="translate(532.878,-229.146)">
				<title>工作表.149</title>
				<desc>2</desc>
				
				
				<rect x="0" y="393.915" width="28.3465" height="28.3465" class="st1"/>
				<text x="11.59" y="411.39" class="st3" >2</text>			</g>
			<g id="shape150-449"   transform="translate(532.878,-264.579)">
				<title>工作表.150</title>
				<desc>13</desc>
				
				
				<rect x="0" y="393.915" width="28.3465" height="28.3465" class="st1"/>
				<text x="9.01" y="411.39" class="st3" >13</text>			</g>
			<g id="shape151-452"   transform="translate(539.965,-300.012)">
				<title>工作表.151</title>
				<desc>4</desc>
				
				
				<rect x="0" y="393.915" width="14.1732" height="28.3465" class="st1"/>
				<text x="4.5" y="411.39" class="st3" >4</text>			</g>
			<g id="shape152-455"   transform="translate(561.26,-51.9803)">
				<title>工作表.152</title>
				<desc>7</desc>
				
				
				<rect x="0" y="393.915" width="28.3465" height="28.3465" class="st1"/>
				<text x="11.59" y="411.39" class="st3" >7</text>			</g>
			<g id="shape153-458"   transform="translate(561.26,-87.4134)">
				<title>工作表.153</title>
				<desc>108</desc>
				
				
				<rect x="0" y="393.915" width="28.3465" height="28.3465" class="st1"/>
				<text x="6.42" y="411.39" class="st3" >108</text>			</g>
			<g id="shape154-461"   transform="translate(561.26,-122.846)">
				<title>工作表.154</title>
				<desc>4</desc>
				
				
				<rect x="0" y="393.915" width="28.3465" height="28.3465" class="st1"/>
				<text x="11.59" y="411.39" class="st3" >4</text>			</g>
			<g id="shape155-464"   transform="translate(561.224,-158.173)">
				<title>工作表.155</title>
				<desc>90</desc>
				
				
				<rect x="0" y="393.915" width="28.3465" height="28.3465" class="st1"/>
				<text x="9.01" y="411.39" class="st3" >90</text>			</g>
			<g id="shape156-467"   transform="translate(561.224,-193.713)">
				<title>工作表.156</title>
				<desc>30</desc>
				
				
				<rect x="0" y="393.915" width="28.3465" height="28.3465" class="st1"/>
				<text x="9.01" y="411.39" class="st3" >30</text>			</g>
			<g id="shape157-470"   transform="translate(561.224,-229.146)">
				<title>工作表.157</title>
				<desc>2</desc>
				
				
				<rect x="0" y="393.915" width="28.3465" height="28.3465" class="st1"/>
				<text x="11.59" y="411.39" class="st3" >2</text>			</g>
			<g id="shape158-473"   transform="translate(561.224,-264.579)">
				<title>工作表.158</title>
				<desc>13</desc>
				
				
				<rect x="0" y="393.915" width="28.3465" height="28.3465" class="st1"/>
				<text x="9.01" y="411.39" class="st3" >13</text>			</g>
			<g id="shape159-476"   transform="translate(568.311,-300.012)">
				<title>工作表.159</title>
				<desc>4</desc>
				
				
				<rect x="0" y="393.915" width="14.1732" height="28.3465" class="st1"/>
				<text x="4.5" y="411.39" class="st3" >4</text>			</g>
			<g id="shape160-479"   transform="translate(589.606,-51.9803)">
				<title>工作表.160</title>
				<desc>7</desc>
				
				
				<rect x="0" y="393.915" width="28.3465" height="28.3465" class="st1"/>
				<text x="11.59" y="411.39" class="st3" >7</text>			</g>
			<g id="shape161-482"   transform="translate(589.606,-87.4134)">
				<title>工作表.161</title>
				<desc>105</desc>
				
				
				<rect x="0" y="393.915" width="28.3465" height="28.3465" class="st1"/>
				<text x="6.42" y="411.39" class="st3" >105</text>			</g>
			<g id="shape162-485"   transform="translate(589.606,-122.846)">
				<title>工作表.162</title>
				<desc>4</desc>
				
				
				<rect x="0" y="393.915" width="28.3465" height="28.3465" class="st1"/>
				<text x="11.59" y="411.39" class="st3" >4</text>			</g>
			<g id="shape163-488"   transform="translate(589.571,-158.173)">
				<title>工作表.163</title>
				<desc>90</desc>
				
				
				<rect x="0" y="393.915" width="28.3465" height="28.3465" class="st1"/>
				<text x="9.01" y="411.39" class="st3" >90</text>			</g>
			<g id="shape164-491"   transform="translate(589.571,-193.713)">
				<title>工作表.164</title>
				<desc>30</desc>
				
				
				<rect x="0" y="393.915" width="28.3465" height="28.3465" class="st1"/>
				<text x="9.01" y="411.39" class="st3" >30</text>			</g>
			<g id="shape165-494"   transform="translate(589.571,-229.146)">
				<title>工作表.165</title>
				<desc>2</desc>
				
				
				<rect x="0" y="393.915" width="28.3465" height="28.3465" class="st1"/>
				<text x="11.59" y="411.39" class="st3" >2</text>			</g>
			<g id="shape166-497"   transform="translate(589.571,-264.579)">
				<title>工作表.166</title>
				<desc>13</desc>
				
				
				<rect x="0" y="393.915" width="28.3465" height="28.3465" class="st1"/>
				<text x="9.01" y="411.39" class="st3" >13</text>			</g>
			<g id="shape167-500"   transform="translate(596.657,-300.012)">
				<title>工作表.167</title>
				<desc>4</desc>
				
				
				<rect x="0" y="393.915" width="14.1732" height="28.3465" class="st1"/>
				<text x="4.5" y="411.39" class="st3" >4</text>			</g>
			<g id="shape168-503"   transform="translate(-31.0807,392.959) rotate(-90)">
				<title>工作表.168</title>
				<path d="M0 422.26 L11.34 422.26" class="st4"/>
			</g>
			<g id="shape169-506"   transform="translate(-45.2539,381.62) rotate(-90)">
				<title>工作表.169</title>
				<path d="M0 422.26 L11.34 422.26" class="st4"/>
			</g>
			<g id="shape170-509"   transform="translate(-16.9075,381.62) rotate(-90)">
				<title>工作表.170</title>
				<path d="M0 422.26 L11.34 422.26" class="st4"/>
			</g>
			<g id="shape171-512"   transform="translate(405.354,803.882) rotate(180)">
				<title>工作表.171</title>
				<path d="M0 422.26 L28.35 422.26" class="st4"/>
			</g>
			<g id="shape172-515"   transform="translate(140.132,393.348) rotate(-90)">
				<title>工作表.172</title>
				<path d="M0 422.26 L11.34 422.26" class="st4"/>
			</g>
			<g id="shape173-518"   transform="translate(124.825,381.62) rotate(-90)">
				<title>工作表.173</title>
				<path d="M0 422.26 L11.34 422.26" class="st4"/>
			</g>
			<g id="shape174-521"   transform="translate(154.305,382.01) rotate(-90)">
				<title>工作表.174</title>
				<path d="M0 422.26 L11.34 422.26" class="st4"/>
			</g>
			<g id="shape175-524"   transform="translate(576.567,804.272) rotate(180)">
				<title>工作表.175</title>
				<path d="M0 422.26 L29.48 422.26" class="st4"/>
			</g>
			<g id="shape176-527"   transform="translate(39.7854,393.915) rotate(-90)">
				<title>工作表.176</title>
				<path d="M0 422.26 L11.34 422.26" class="st4"/>
			</g>
			<g id="shape177-530"   transform="translate(11.439,382.577) rotate(-90)">
				<title>工作表.177</title>
				<path d="M0 422.26 L11.34 422.26" class="st4"/>
			</g>
			<g id="shape178-533"   transform="translate(68.1319,382.577) rotate(-90)">
				<title>工作表.178</title>
				<path d="M0 422.26 L11.34 422.26" class="st4"/>
			</g>
			<g id="shape179-536"   transform="translate(490.394,804.839) rotate(180)">
				<title>工作表.179</title>
				<path d="M0 422.26 L56.69 422.26" class="st4"/>
			</g>
		</g>
	</g>
</svg>
