<?xml version="1.0" encoding="UTF-8" standalone="no"?>
<!DOCTYPE svg PUBLIC "-//W3C//DTD SVG 1.1//EN" "http://www.w3.org/Graphics/SVG/1.1/DTD/svg11.dtd">
<!-- 由 Microsoft Visio, SVG Export 產生 y36.0441.svg 頁-1 -->
<svg xmlns="http://www.w3.org/2000/svg" xmlns:xlink="http://www.w3.org/1999/xlink" xmlns:ev="http://www.w3.org/2001/xml-events"
		xmlns:v="http://schemas.microsoft.com/visio/2003/SVGExtensions/" width="8.92805in" height="4.88454in"
		viewBox="0 0 642.82 351.687" xml:space="preserve" color-interpolation-filters="sRGB" class="st8">
	

	<style type="text/css">
	<![CDATA[
		.st1 {fill:none;stroke:#000000;stroke-linecap:round;stroke-linejoin:round;stroke-opacity:0;stroke-width:0.999998}
		.st2 {fill:none;stroke:none;stroke-linecap:butt;stroke-width:0.75}
		.st3 {fill:#000000;font-family:新細明體;font-size:12pt}
		.st4 {fill:none}
		.st5 {stroke:#000000;stroke-linecap:round;stroke-linejoin:round;stroke-width:0.999998}
		.st6 {stroke:#000000;stroke-dasharray:2.99999,2.99999;stroke-linecap:round;stroke-linejoin:round;stroke-width:0.999998}
		.st7 {stroke:#000000;stroke-dasharray:5.25,3.75;stroke-linecap:round;stroke-linejoin:round;stroke-width:0.75}
		.st8 {fill:none;fill-rule:evenodd;font-size:12px;overflow:visible;stroke-linecap:square;stroke-miterlimit:3}
	]]>
	</style>

	<g   >
		<title>頁-1</title>
		
		<g id="group96-1" transform="translate(0.499999,-0.499999)"  >
			<title>工作表.96</title>
			<g id="group3-2" transform="translate(141.023,-240.945)"  >
				
				<title>工作表.1</title>
				<desc>無間</desc>
				<g id="shape4-3"  >
					<title>工作表.4</title>
					<rect x="0" y="306.332" width="45.3542" height="45.3542" class="st1"/>
				</g>
				<g id="shape5-5"   transform="translate(6.67999,-13.0783)">
					<title>工作表.5</title>
					<desc>無間</desc>
					
					
					<rect x="0" y="332.487" width="31.9999" height="19.1999" class="st2"/>
					<text x="0" y="346.89" class="st3" >無間</text>				</g>
			</g>
			<g id="group6-8" transform="translate(315.174,612.205) rotate(-143.634)"  >
				<title>工作表.3</title>
				<g id="shape7-9"  >
					<title>工作表.7</title>
					<path d="M0 351.69 L527.9 351.69 L0 351.69 Z" class="st4"/>
					<path d="M0 351.69 L527.9 351.69" class="st5"/>
				</g>
			</g>
			<g id="group8-12" transform="translate(-308.598,55.8412) rotate(-72.9545)"  >
				<title>工作表.5</title>
				<g id="shape9-13"  >
					<title>工作表.9</title>
					<path d="M0 351.69 L148.24 351.69 L0 351.69 Z" class="st4"/>
					<path d="M0 351.69 L148.24 351.69" class="st5"/>
				</g>
			</g>
			<g id="group10-16" transform="translate(1.39888E-14,-180.708)"  >
				
				<title>工作表.2</title>
				<desc>依</desc>
				<g id="shape11-17"  >
					<title>工作表.11</title>
					<rect x="0" y="325.211" width="25.0583" height="26.4755" class="st1"/>
				</g>
				<g id="shape12-19"   transform="translate(4.52999,-3.6386)">
					<title>工作表.12</title>
					<desc>依</desc>
					
					
					<rect x="0" y="332.487" width="15.9999" height="19.1999" class="st2"/>
					<text x="0" y="346.89" class="st3" >依</text>				</g>
			</g>
			<g id="group13-22" transform="translate(71.8014,-321.249)"  >
				
				<title>工作表.6</title>
				<desc>因</desc>
				<g id="shape14-23"  >
					<title>工作表.14</title>
					<rect x="0" y="325.211" width="25.0583" height="26.4755" class="st1"/>
				</g>
				<g id="shape15-25"   transform="translate(4.52999,-3.6386)">
					<title>工作表.15</title>
					<desc>因</desc>
					
					
					<rect x="0" y="332.487" width="15.9999" height="19.1999" class="st2"/>
					<text x="0" y="346.89" class="st3" >因</text>				</g>
			</g>
			<g id="group16-28" transform="translate(452.961,-318.287)"  >
				
				<title>工作表.7</title>
				<desc>業</desc>
				<g id="shape17-29"  >
					<title>工作表.17</title>
					<rect x="0" y="319.287" width="33.7605" height="32.3999" class="st1"/>
				</g>
				<g id="shape18-31"   transform="translate(8.87998,-6.599)">
					<title>工作表.18</title>
					<desc>業</desc>
					
					
					<rect x="0" y="332.487" width="15.9999" height="19.1999" class="st2"/>
					<text x="0" y="346.89" class="st3" >業</text>				</g>
			</g>
			<g id="group19-34" transform="translate(524.635,-247.549)"  >
				
				<title>工作表.8</title>
				<desc>報</desc>
				<g id="shape20-35"  >
					<title>工作表.20</title>
					<rect x="0" y="319.287" width="33.7605" height="32.3999" class="st1"/>
				</g>
				<g id="shape21-37"   transform="translate(8.87998,-6.599)">
					<title>工作表.21</title>
					<desc>報</desc>
					
					
					<rect x="0" y="332.487" width="15.9999" height="19.1999" class="st2"/>
					<text x="0" y="346.89" class="st3" >報</text>				</g>
			</g>
			<g id="group22-40" transform="translate(521.8,-190.856)"  >
				
				<title>工作表.9</title>
				<desc>起</desc>
				<g id="shape23-41"  >
					<title>工作表.23</title>
					<rect x="0" y="319.287" width="33.7605" height="32.3999" class="st1"/>
				</g>
				<g id="shape24-43"   transform="translate(8.87998,-6.599)">
					<title>工作表.24</title>
					<desc>起</desc>
					
					
					<rect x="0" y="332.487" width="15.9999" height="19.1999" class="st2"/>
					<text x="0" y="346.89" class="st3" >起</text>				</g>
			</g>
			<g id="group25-46" transform="translate(608.059,-63.2968)"  >
				
				<title>工作表.10</title>
				<desc>異</desc>
				<g id="shape26-47"  >
					<title>工作表.26</title>
					<rect x="0" y="319.287" width="33.7605" height="32.3999" class="st1"/>
				</g>
				<g id="shape27-49"   transform="translate(8.87998,-6.599)">
					<title>工作表.27</title>
					<desc>異</desc>
					
					
					<rect x="0" y="332.487" width="15.9999" height="19.1999" class="st2"/>
					<text x="0" y="346.89" class="st3" >異</text>				</g>
			</g>
			<g id="group28-52" transform="translate(226.063,-99.2124)"  >
				
				<title>工作表.11</title>
				<desc>境界</desc>
				<g id="shape29-53"  >
					<title>工作表.29</title>
					<rect x="0" y="306.332" width="45.3542" height="45.3542" class="st1"/>
				</g>
				<g id="shape30-55"   transform="translate(6.67999,-13.0783)">
					<title>工作表.30</title>
					<desc>境界</desc>
					
					
					<rect x="0" y="332.487" width="31.9999" height="19.1999" class="st2"/>
					<text x="0" y="346.89" class="st3" >境界</text>				</g>
			</g>
			<g id="group31-58" transform="translate(353.622,-14.1732)"  >
				
				<title>工作表.12</title>
				<desc>增上</desc>
				<g id="shape32-59"  >
					<title>工作表.32</title>
					<rect x="0" y="306.332" width="45.3542" height="45.3542" class="st1"/>
				</g>
				<g id="shape33-61"   transform="translate(6.67999,-13.0783)">
					<title>工作表.33</title>
					<desc>增上</desc>
					
					
					<rect x="0" y="332.487" width="31.9999" height="19.1999" class="st2"/>
					<text x="0" y="346.89" class="st3" >增上</text>				</g>
			</g>
			<g id="group34-64" transform="translate(523.699,0)"  >
				
				<title>工作表.13</title>
				<desc>相續</desc>
				<g id="shape35-65"  >
					<title>工作表.35</title>
					<rect x="0" y="306.332" width="45.3542" height="45.3542" class="st1"/>
				</g>
				<g id="shape36-67"   transform="translate(6.67999,-13.0783)">
					<title>工作表.36</title>
					<desc>相續</desc>
					
					
					<rect x="0" y="332.487" width="31.9999" height="19.1999" class="st2"/>
					<text x="0" y="346.89" class="st3" >相續</text>				</g>
			</g>
			<g id="group37-70" transform="translate(-157.137,-140.421) rotate(-31.7037)"  >
				<title>工作表.14</title>
				<g id="shape38-71"  >
					<title>工作表.38</title>
					<path d="M0 351.69 L133.22 351.69 L0 351.69 Z" class="st4"/>
					<path d="M0 351.69 L133.22 351.69" class="st5"/>
				</g>
			</g>
			<g id="group39-74" transform="translate(397.376,-166.643) rotate(58.4834)"  >
				<title>工作表.15</title>
				<g id="shape40-75"  >
					<title>工作表.40</title>
					<path d="M0 351.69 L83.13 351.69 L0 351.69 Z" class="st4"/>
					<path d="M0 351.69 L83.13 351.69" class="st6"/>
				</g>
			</g>
			<g id="group41-78" transform="translate(147.887,-172.393) rotate(19.8673)"  >
				<title>工作表.18</title>
				<g id="shape42-79"  >
					<title>工作表.42</title>
					<path d="M0 351.69 L210.2 351.69 L0 351.69 Z" class="st4"/>
					<path d="M0 351.69 L210.2 351.69" class="st5"/>
				</g>
			</g>
			<g id="group43-82" transform="translate(520.396,-12.9907) rotate(73.3008)"  >
				<title>工作表.19</title>
				<g id="shape44-83"  >
					<title>工作表.44</title>
					<path d="M0 351.69 L147.97 351.69 L0 351.69 Z" class="st4"/>
					<path d="M0 351.69 L147.97 351.69" class="st6"/>
				</g>
			</g>
			<g id="group45-86" transform="translate(176.057,-325.615) rotate(12.8958)"  >
				<title>工作表.20</title>
				<g id="shape46-87"  >
					<title>工作表.46</title>
					<path d="M0 351.69 L145.91 351.69 L0 351.69 Z" class="st4"/>
					<path d="M0 351.69 L145.91 351.69" class="st6"/>
				</g>
			</g>
			<g id="group47-90" transform="translate(590.451,78.1546) rotate(94.3987)"  >
				<title>工作表.21</title>
				<g id="shape48-91"  >
					<title>工作表.48</title>
					<path d="M0 351.69 L179.14 351.69 L0 351.69 Z" class="st4"/>
					<path d="M0 351.69 L179.14 351.69" class="st6"/>
				</g>
			</g>
			<g id="group49-94" transform="translate(451.691,586.988) rotate(-153.477)"  >
				<title>工作表.4</title>
				<g id="shape50-95"  >
					<title>工作表.50</title>
					<path d="M0 351.69 L571.3 351.69 L0 351.69 Z" class="st4"/>
					<path d="M0 351.69 L571.3 351.69" class="st5"/>
				</g>
			</g>
			<g id="group51-98" transform="translate(468.257,433.505) rotate(-170.663)"  >
				<title>工作表.22</title>
				<g id="shape52-99"  >
					<title>工作表.52</title>
					<path d="M0 351.69 L431.87 351.69 L0 351.69 Z" class="st4"/>
					<path d="M0 351.69 L431.87 351.69" class="st5"/>
				</g>
			</g>
			<g id="group53-102" transform="translate(421.099,481.513) rotate(-163.245)"  >
				<title>工作表.23</title>
				<g id="shape54-103"  >
					<title>工作表.54</title>
					<path d="M0 351.69 L442.49 351.69 L0 351.69 Z" class="st4"/>
					<path d="M0 351.69 L442.49 351.69" class="st5"/>
				</g>
			</g>
			<g id="group55-106" transform="translate(454.251,368.884) rotate(179.901)"  >
				<title>工作表.24</title>
				<g id="shape56-107"  >
					<title>工作表.56</title>
					<path d="M0 351.69 L355.7 351.69 L0 351.69 Z" class="st4"/>
					<path d="M0 351.69 L355.7 351.69" class="st5"/>
				</g>
			</g>
			<g id="group57-110" transform="translate(542.085,357.371) rotate(165.299)"  >
				<title>工作表.25</title>
				<g id="shape58-111"  >
					<title>工作表.58</title>
					<path d="M0 351.69 L279.24 351.69 L0 351.69 Z" class="st4"/>
					<path d="M0 351.69 L279.24 351.69" class="st6"/>
				</g>
			</g>
			<g id="group59-114" transform="translate(526.774,438.33) rotate(179.762)"  >
				<title>工作表.26</title>
				<g id="shape60-115"  >
					<title>工作表.60</title>
					<path d="M0 351.69 L341.78 351.69 L0 351.69 Z" class="st4"/>
					<path d="M0 351.69 L341.78 351.69" class="st6"/>
				</g>
			</g>
			<g id="group61-118" transform="translate(201.391,631.867) rotate(-154.351)"  >
				<title>工作表.16</title>
				<g id="shape62-119"  >
					<title>工作表.62</title>
					<path d="M0 351.69 L361.11 351.69 L0 351.69 Z" class="st4"/>
					<path d="M0 351.69 L361.11 351.69" class="st5"/>
				</g>
			</g>
			<g id="group63-122" transform="translate(517.261,-18.8817) rotate(45)"  >
				<title>工作表.17</title>
				<g id="shape64-123"  >
					<title>工作表.64</title>
					<path d="M0 351.69 L120.26 351.69 L0 351.69 Z" class="st4"/>
					<path d="M0 351.69 L120.26 351.69" class="st6"/>
				</g>
			</g>
			<g id="group65-126" transform="translate(396.493,-96.9345) rotate(21.0804)"  >
				<title>工作表.27</title>
				<g id="shape66-127"  >
					<title>工作表.66</title>
					<path d="M0 351.69 L271.9 351.69 L0 351.69 Z" class="st4"/>
					<path d="M0 351.69 L271.9 351.69" class="st6"/>
				</g>
			</g>
			<g id="group67-130" transform="translate(312.362,-117.909) rotate(6.91839)"  >
				<title>工作表.28</title>
				<g id="shape68-131"  >
					<title>工作表.68</title>
					<path d="M0 351.69 L341.22 351.69 L0 351.69 Z" class="st4"/>
					<path d="M0 351.69 L341.22 351.69" class="st6"/>
				</g>
			</g>
			<g id="group69-134" transform="translate(157.95,-102.617) rotate(-18.5178)"  >
				<title>工作表.29</title>
				<g id="shape70-135"  >
					<title>工作表.70</title>
					<path d="M0 351.69 L266.64 351.69 L0 351.69 Z" class="st4"/>
					<path d="M0 351.69 L266.64 351.69" class="st6"/>
				</g>
			</g>
			<g id="group71-138" transform="translate(95.4621,-75.2161) rotate(-29.6219)"  >
				<title>工作表.30</title>
				<g id="shape72-139"  >
					<title>工作表.72</title>
					<path d="M0 351.69 L291.02 351.69 L0 351.69 Z" class="st4"/>
					<path d="M0 351.69 L291.02 351.69" class="st6"/>
				</g>
			</g>
			<g id="group73-142" transform="translate(1.78377,2.9728) rotate(-49.61)"  >
				<title>工作表.31</title>
				<g id="shape74-143"  >
					<title>工作表.74</title>
					<path d="M0 351.69 L280.52 351.69 L0 351.69 Z" class="st4"/>
					<path d="M0 351.69 L280.52 351.69" class="st6"/>
				</g>
			</g>
			<g id="group75-146" transform="translate(50.1981,251.543) rotate(-79.632)"  >
				<title>工作表.32</title>
				<g id="shape76-147"  >
					<title>工作表.76</title>
					<path d="M0 351.69 L301.32 351.69 L0 351.69 Z" class="st4"/>
					<path d="M0 351.69 L301.32 351.69" class="st6"/>
				</g>
			</g>
			<g id="group79-150" transform="translate(328.327,-30.9096) rotate(-11.1385)"  >
				<title>工作表.34</title>
				<g id="shape80-151"  >
					<title>工作表.80</title>
					<path d="M0 351.69 L216.55 351.69 L0 351.69 Z" class="st4"/>
					<path d="M0 351.69 L216.55 351.69" class="st6"/>
				</g>
			</g>
			<g id="group81-154" transform="translate(174.335,375.15) rotate(-97.6354)"  >
				<title>工作表.35</title>
				<g id="shape82-155"  >
					<title>工作表.82</title>
					<path d="M0 351.69 L314.01 351.69 L0 351.69 Z" class="st4"/>
					<path d="M0 351.69 L314.01 351.69" class="st6"/>
				</g>
			</g>
			<g id="group83-158" transform="translate(187.588,252.644) rotate(-107.874)"  >
				<title>工作表.36</title>
				<g id="shape84-159"  >
					<title>工作表.84</title>
					<path d="M0 351.69 L133.97 351.69 L0 351.69 Z" class="st4"/>
					<path d="M0 351.69 L133.97 351.69" class="st6"/>
				</g>
			</g>
			<g id="group85-162" transform="translate(228.501,275.596) rotate(-122.498)"  >
				<title>工作表.37</title>
				<g id="shape86-163"  >
					<title>工作表.86</title>
					<path d="M0 351.69 L81.63 351.69 L0 351.69 Z" class="st4"/>
					<path d="M0 351.69 L81.63 351.69" class="st6"/>
				</g>
			</g>
			<g id="group87-166" transform="translate(194.61,348.825) rotate(-102.565)"  >
				<title>工作表.38</title>
				<g id="shape88-167"  >
					<title>工作表.88</title>
					<path d="M0 351.69 L259.43 351.69 L0 351.69 Z" class="st4"/>
					<path d="M0 351.69 L259.43 351.69" class="st6"/>
				</g>
			</g>
			<g id="group89-170" transform="translate(610.904,623.276) rotate(179.416)"  >
				<title>工作表.39</title>
				<g id="shape90-171"  >
					<title>工作表.90</title>
					<path d="M0 351.69 L69.45 351.69 L0 351.69 Z" class="st4"/>
					<path d="M0 351.69 L69.45 351.69" class="st6"/>
				</g>
			</g>
			<g id="group91-174" transform="translate(284.501,410.61) rotate(-113.127)"  >
				<title>工作表.40</title>
				<g id="shape92-175"  >
					<title>工作表.92</title>
					<path d="M0 351.69 L137.8 351.69 L0 351.69 Z" class="st4"/>
					<path d="M0 351.69 L137.8 351.69" class="st6"/>
				</g>
			</g>
			<g id="group93-178" transform="translate(561.443,-90.2431) rotate(66.5842)"  >
				<title>工作表.41</title>
				<g id="shape94-179"  >
					<title>工作表.94</title>
					<path d="M0 351.69 L289.13 351.69 L0 351.69 Z" class="st4"/>
					<path d="M0 351.69 L289.13 351.69" class="st6"/>
				</g>
			</g>
			<g id="shape95-182"   transform="translate(804.422,354.98) rotate(126.709)">
				<title>工作表.95</title>
				<path d="M0 351.69 L211.1 351.69" class="st7"/>
			</g>
		</g>
	</g>
</svg>
