<?xml version="1.0" encoding="UTF-8" standalone="no"?>
<!DOCTYPE svg PUBLIC "-//W3C//DTD SVG 1.1//EN" "http://www.w3.org/Graphics/SVG/1.1/DTD/svg11.dtd">
<!-- 由 Microsoft Visio, SVG Export 產生 y37.1033.svg 頁-1 -->
<svg xmlns="http://www.w3.org/2000/svg" xmlns:xlink="http://www.w3.org/1999/xlink" xmlns:ev="http://www.w3.org/2001/xml-events"
		xmlns:v="http://schemas.microsoft.com/visio/2003/SVGExtensions/" width="7.69105in" height="4.06727in"
		viewBox="0 0 553.756 292.844" xml:space="preserve" color-interpolation-filters="sRGB" class="st6">
	

	<style type="text/css">
	<![CDATA[
		.st1 {fill:none;stroke:#000000;stroke-linecap:round;stroke-linejoin:round;stroke-width:1}
		.st2 {fill:none;stroke:#000000;stroke-dasharray:3,3;stroke-linecap:round;stroke-linejoin:round;stroke-width:1}
		.st3 {fill:none;stroke:none;stroke-linecap:round;stroke-linejoin:round;stroke-width:0.75}
		.st4 {fill:#000000;font-family:新細明體;font-size:12pt}
		.st5 {fill:none;stroke:#000000;stroke-dasharray:7,5;stroke-linecap:round;stroke-linejoin:round;stroke-width:1}
		.st6 {fill:none;fill-rule:evenodd;font-size:12px;overflow:visible;stroke-linecap:square;stroke-miterlimit:3}
	]]>
	</style>

	<g   >
		<title>頁-1</title>
		
		<g id="group46-1" transform="translate(0.5,-0.5)"  >
			<title>工作表.46</title>
			<g id="shape8-2"  >
				<title>工作表.8</title>
				<ellipse cx="127.559" cy="165.284" rx="127.559" ry="127.559" class="st1"/>
			</g>
			<g id="shape9-4"   transform="translate(28.3465,-28.3465)">
				<title>工作表.9</title>
				<ellipse cx="99.2126" cy="193.631" rx="99.2126" ry="99.2126" class="st2"/>
			</g>
			<g id="shape10-6"   transform="translate(56.6929,-56.6929)">
				<title>工作表.10</title>
				<ellipse cx="70.8661" cy="221.977" rx="70.8661" ry="70.8661" class="st2"/>
			</g>
			<g id="shape13-8"   transform="translate(229.606,-116.22)">
				<title>工作表.13</title>
				<desc>千</desc>
				
				
				<rect x="0" y="270.166" width="22.6772" height="22.6772" class="st3"/>
				<text x="11.34" y="274.17" writing-mode="tb-rl" class="st4" >千</text>			</g>
			<g id="shape14-11"   transform="translate(76.5354,-269.291)">
				<title>工作表.14</title>
				<desc>娑</desc>
				
				
				<rect x="0" y="270.166" width="22.6772" height="22.6772" class="st3"/>
				<text x="11.34" y="274.17" writing-mode="tb-rl" class="st4" >娑</text>			</g>
			<g id="shape15-14"   transform="translate(103.465,-269.291)">
				<title>工作表.15</title>
				<desc>婆</desc>
				
				
				<rect x="0" y="270.166" width="22.6772" height="22.6772" class="st3"/>
				<text x="11.34" y="274.17" writing-mode="tb-rl" class="st4" >婆</text>			</g>
			<g id="shape16-17"   transform="translate(130.394,-269.291)">
				<title>工作表.16</title>
				<desc>世</desc>
				
				
				<rect x="0" y="270.166" width="22.6772" height="22.6772" class="st3"/>
				<text x="11.34" y="274.17" writing-mode="tb-rl" class="st4" >世</text>			</g>
			<g id="shape5-20"   transform="translate(116.22,-229.606)">
				<title>工作表.5</title>
				<desc>大</desc>
				
				
				<rect x="0" y="270.166" width="22.6772" height="22.6772" class="st3"/>
				<text x="11.34" y="274.17" writing-mode="tb-rl" class="st4" >大</text>			</g>
			<g id="shape18-23"   transform="translate(116.22,-201.26)">
				<title>工作表.18</title>
				<desc>中</desc>
				
				
				<rect x="0" y="270.166" width="22.6772" height="22.6772" class="st3"/>
				<text x="11.34" y="274.17" writing-mode="tb-rl" class="st4" >中</text>			</g>
			<g id="shape19-26"   transform="translate(116.22,-172.913)">
				<title>工作表.19</title>
				<desc>小</desc>
				
				
				<rect x="0" y="270.166" width="22.6772" height="22.6772" class="st3"/>
				<text x="11.34" y="274.17" writing-mode="tb-rl" class="st4" >小</text>			</g>
			<g id="shape20-29"   transform="translate(90.7087,-90.7087)">
				<title>工作表.20</title>
				<desc>一四天下</desc>
				
				
				<rect x="0" y="219.143" width="73.7008" height="73.7008" class="st3"/>
				<text x="36.85" y="223.99" writing-mode="tb-rl" class="st4" >一四天下</text>			</g>
			<g id="shape21-32"   transform="translate(2.83465,-116.22)">
				<title>工作表.21</title>
				<desc>界</desc>
				
				
				<rect x="0" y="270.166" width="22.6772" height="22.6772" class="st3"/>
				<text x="11.34" y="274.17" writing-mode="tb-rl" class="st4" >界</text>			</g>
			<g id="shape11-35"   transform="translate(85.0394,-85.0394)">
				<title>工作表.11</title>
				<ellipse cx="42.5197" cy="250.324" rx="42.5197" ry="42.5197" class="st2"/>
			</g>
			<g id="shape30-37"   transform="translate(201.26,-116.22)">
				<title>工作表.30</title>
				<desc>千</desc>
				
				
				<rect x="0" y="270.166" width="22.6772" height="22.6772" class="st3"/>
				<text x="11.34" y="274.17" writing-mode="tb-rl" class="st4" >千</text>			</g>
			<g id="shape31-40"   transform="translate(172.913,-116.22)">
				<title>工作表.31</title>
				<desc>千</desc>
				
				
				<rect x="0" y="270.166" width="22.6772" height="22.6772" class="st3"/>
				<text x="11.34" y="274.17" writing-mode="tb-rl" class="st4" >千</text>			</g>
			<g id="shape32-43"   transform="translate(31.1811,-116.22)">
				<title>工作表.32</title>
				<desc>界</desc>
				
				
				<rect x="0" y="270.166" width="22.6772" height="22.6772" class="st3"/>
				<text x="11.34" y="274.17" writing-mode="tb-rl" class="st4" >界</text>			</g>
			<g id="shape33-46"   transform="translate(59.5276,-116.22)">
				<title>工作表.33</title>
				<desc>界</desc>
				
				
				<rect x="0" y="270.166" width="22.6772" height="22.6772" class="st3"/>
				<text x="11.34" y="274.17" writing-mode="tb-rl" class="st4" >界</text>			</g>
			<g id="shape34-49"   transform="translate(157.323,-269.291)">
				<title>工作表.34</title>
				<desc>界</desc>
				
				
				<rect x="0" y="270.166" width="22.6772" height="22.6772" class="st3"/>
				<text x="11.34" y="274.17" writing-mode="tb-rl" class="st4" >界</text>			</g>
			<g id="shape17-52"   transform="translate(116.22,-2.83465)">
				<title>工作表.17</title>
				<desc>世</desc>
				
				
				<rect x="0" y="270.166" width="22.6772" height="22.6772" class="st3"/>
				<text x="11.34" y="274.17" writing-mode="tb-rl" class="st4" >世</text>			</g>
			<g id="shape37-55"   transform="translate(116.22,-31.1811)">
				<title>工作表.37</title>
				<desc>世</desc>
				
				
				<rect x="0" y="270.166" width="22.6772" height="22.6772" class="st3"/>
				<text x="11.34" y="274.17" writing-mode="tb-rl" class="st4" >世</text>			</g>
			<g id="shape38-58"   transform="translate(116.22,-59.5276)">
				<title>工作表.38</title>
				<desc>世</desc>
				
				
				<rect x="0" y="270.166" width="22.6772" height="22.6772" class="st3"/>
				<text x="11.34" y="274.17" writing-mode="tb-rl" class="st4" >世</text>			</g>
			<g id="shape1-61"   transform="translate(297.638,-2.30954E-05)">
				<title>工作表.1</title>
				<ellipse cx="127.559" cy="165.284" rx="127.559" ry="127.559" class="st1"/>
			</g>
			<g id="shape2-63"   transform="translate(325.984,-28.3465)">
				<title>工作表.2</title>
				<ellipse cx="99.2126" cy="193.631" rx="99.2126" ry="99.2126" class="st1"/>
			</g>
			<g id="shape3-65"   transform="translate(379.843,-82.2047)">
				<title>工作表.3</title>
				<ellipse cx="45.3543" cy="247.489" rx="45.3543" ry="45.3543" class="st5"/>
			</g>
			<g id="shape4-67"   transform="translate(354.331,-56.6929)">
				<title>工作表.4</title>
				<ellipse cx="70.8661" cy="221.977" rx="70.8661" ry="70.8661" class="st1"/>
			</g>
			<g id="shape22-69"   transform="translate(365.669,-269.291)">
				<title>工作表.22</title>
				<desc>華</desc>
				
				
				<rect x="0" y="270.166" width="22.6772" height="22.6772" class="st3"/>
				<text x="11.34" y="274.17" writing-mode="tb-rl" class="st4" >華</text>			</g>
			<g id="shape23-72"   transform="translate(398.268,-269.291)">
				<title>工作表.23</title>
				<desc>藏</desc>
				
				
				<rect x="0" y="270.166" width="22.6772" height="22.6772" class="st3"/>
				<text x="11.34" y="274.17" writing-mode="tb-rl" class="st4" >藏</text>			</g>
			<g id="shape24-75"   transform="translate(413.858,-229.606)">
				<title>工作表.24</title>
				<desc>百</desc>
				
				
				<rect x="0" y="270.166" width="22.6772" height="22.6772" class="st3"/>
				<text x="11.34" y="274.17" writing-mode="tb-rl" class="st4" >百</text>			</g>
			<g id="shape25-78"   transform="translate(413.858,-201.26)">
				<title>工作表.25</title>
				<desc>十</desc>
				
				
				<rect x="0" y="270.166" width="22.6772" height="22.6772" class="st3"/>
				<text x="11.34" y="274.17" writing-mode="tb-rl" class="st4" >十</text>			</g>
			<g id="shape26-81"   transform="translate(413.858,-172.913)">
				<title>工作表.26</title>
				<desc>一</desc>
				
				
				<rect x="0" y="270.166" width="22.6772" height="22.6772" class="st3"/>
				<text x="11.34" y="274.17" writing-mode="tb-rl" class="st4" >一</text>			</g>
			<g id="shape27-84"   transform="translate(300.472,-116.22)">
				<title>工作表.27</title>
				<desc>種</desc>
				
				
				<rect x="0" y="270.166" width="22.6772" height="22.6772" class="st3"/>
				<text x="11.34" y="274.17" writing-mode="tb-rl" class="st4" >種</text>			</g>
			<g id="shape28-87"   transform="translate(388.346,-90.7087)">
				<title>工作表.28</title>
				<desc>娑婆世界</desc>
				
				
				<rect x="0" y="219.143" width="73.7008" height="73.7008" class="st3"/>
				<text x="36.85" y="223.99" writing-mode="tb-rl" class="st4" >娑婆世界</text>			</g>
			<g id="shape35-90"   transform="translate(413.858,-2.83467)">
				<title>工作表.35</title>
				<desc>界</desc>
				
				
				<rect x="0" y="270.166" width="22.6772" height="22.6772" class="st3"/>
				<text x="11.34" y="274.17" writing-mode="tb-rl" class="st4" >界</text>			</g>
			<g id="shape36-93"   transform="translate(413.858,-59.5276)">
				<title>工作表.36</title>
				<desc>界</desc>
				
				
				<rect x="0" y="270.166" width="22.6772" height="22.6772" class="st3"/>
				<text x="11.34" y="274.17" writing-mode="tb-rl" class="st4" >界</text>			</g>
			<g id="shape39-96"   transform="translate(470.551,-116.22)">
				<title>工作表.39</title>
				<desc>世</desc>
				
				
				<rect x="0" y="270.166" width="22.6772" height="22.6772" class="st3"/>
				<text x="11.34" y="274.17" writing-mode="tb-rl" class="st4" >世</text>			</g>
			<g id="shape40-99"   transform="translate(498.898,-116.22)">
				<title>工作表.40</title>
				<desc>世</desc>
				
				
				<rect x="0" y="270.166" width="22.6772" height="22.6772" class="st3"/>
				<text x="11.34" y="274.17" writing-mode="tb-rl" class="st4" >世</text>			</g>
			<g id="shape41-102"   transform="translate(527.244,-116.22)">
				<title>工作表.41</title>
				<desc>世</desc>
				
				
				<rect x="0" y="270.166" width="22.6772" height="22.6772" class="st3"/>
				<text x="11.34" y="274.17" writing-mode="tb-rl" class="st4" >世</text>			</g>
			<g id="shape12-105"   transform="translate(430.866,-269.291)">
				<title>工作表.12</title>
				<desc>世</desc>
				
				
				<rect x="0" y="270.166" width="22.6772" height="22.6772" class="st3"/>
				<text x="11.34" y="274.17" writing-mode="tb-rl" class="st4" >世</text>			</g>
			<g id="shape42-108"   transform="translate(413.858,-31.1811)">
				<title>工作表.42</title>
				<desc>界</desc>
				
				
				<rect x="0" y="270.166" width="22.6772" height="22.6772" class="st3"/>
				<text x="11.34" y="274.17" writing-mode="tb-rl" class="st4" >界</text>			</g>
			<g id="shape43-111"   transform="translate(463.465,-269.291)">
				<title>工作表.43</title>
				<desc>界</desc>
				
				
				<rect x="0" y="270.166" width="22.6772" height="22.6772" class="st3"/>
				<text x="11.34" y="274.17" writing-mode="tb-rl" class="st4" >界</text>			</g>
			<g id="shape44-114"   transform="translate(328.819,-116.22)">
				<title>工作表.44</title>
				<desc>種</desc>
				
				
				<rect x="0" y="270.166" width="22.6772" height="22.6772" class="st3"/>
				<text x="11.34" y="274.17" writing-mode="tb-rl" class="st4" >種</text>			</g>
			<g id="shape45-117"   transform="translate(357.165,-116.22)">
				<title>工作表.45</title>
				<desc>種</desc>
				
				
				<rect x="0" y="270.166" width="22.6772" height="22.6772" class="st3"/>
				<text x="11.34" y="274.17" writing-mode="tb-rl" class="st4" >種</text>			</g>
		</g>
	</g>
</svg>
