<?xml version="1.0" encoding="UTF-8" standalone="no"?>
<!-- Created with Inkscape (http://www.inkscape.org/) -->

<!-- 檔名勿刪 y37.0503-1.svg -->

<svg
   xmlns:dc="http://purl.org/dc/elements/1.1/"
   xmlns:cc="http://creativecommons.org/ns#"
   xmlns:rdf="http://www.w3.org/1999/02/22-rdf-syntax-ns#"
   xmlns:svg="http://www.w3.org/2000/svg"
   xmlns="http://www.w3.org/2000/svg"
   xmlns:sodipodi="http://sodipodi.sourceforge.net/DTD/sodipodi-0.dtd"
   xmlns:inkscape="http://www.inkscape.org/namespaces/inkscape"
   width="40"
   height="50"
   id="svg2"
   version="1.1"
   inkscape:version="0.92.2 (5c3e80d, 2017-08-06)"
   sodipodi:docname="y37.0503-5.svg">
  <defs
     id="defs4" />
  <sodipodi:namedview
     id="base"
     pagecolor="#ffffff"
     bordercolor="#666666"
     borderopacity="1.0"
     inkscape:pageopacity="0.0"
     inkscape:pageshadow="2"
     inkscape:zoom="0.99"
     inkscape:cx="-315.86873"
     inkscape:cy="133.99264"
     inkscape:document-units="px"
     inkscape:current-layer="layer1"
     showgrid="false"
     inkscape:window-width="1920"
     inkscape:window-height="974"
     inkscape:window-x="-9"
     inkscape:window-y="-9"
     inkscape:window-maximized="1" />
  <metadata
     id="metadata7">
    <rdf:RDF>
      <cc:Work
         rdf:about="">
        <dc:format>image/svg+xml</dc:format>
        <dc:type
           rdf:resource="http://purl.org/dc/dcmitype/StillImage" />
        <dc:title />
      </cc:Work>
    </rdf:RDF>
  </metadata>
  <g
     inkscape:label="Calque 1"
     inkscape:groupmode="layer"
     id="layer1"
     transform="translate(0,-752.36218)">
    <path
       style="fill:#000000;stroke-width:0.16"
       d="m 9.1076269,798.34923 c -2.040328,-0.95247 -2.89084,-1.99872 -4.145664,-5.09979 -1.203192,-2.97345 -1.300984,-4.75041 -0.261448,-4.75041 0.41412,0 0.553432,-0.20779 0.309592,-0.46175 -0.57824,-0.60224 0.258296,-2.28413 1.13608,-2.28413 0.374456,0 0.872792,0.61782 1.107416,1.37294 0.394424,1.26944 0.656488,1.37294 3.4764161,1.37294 h 3.04984 l 0.258192,-3.08912 c 0.361096,-4.32011 -0.115952,-5.2736 -2.895224,-5.78668 -3.3134001,-0.61168 -7.1952401,-3.25489 -7.1952401,-4.89937 0,-1.46618 0.878024,-1.70418 2.282616,-0.61873 2.506672,1.93709 3.8369681,2.49508 5.9484881,2.49508 2.034568,0 2.324272,-0.16834 2.739072,-1.59157 0.35676,-1.22409 -0.01208,-2.25433 -1.597472,-4.46205 -1.13372,-1.57877 -2.61384,-3.71527 -3.28916,-4.74779 -0.6753121,-1.03251 -2.0004401,-2.41362 -2.9447201,-3.06913 -1.904696,-1.32223 -2.169064,-2.26242 -0.828168,-2.9452 1.062672,-0.5411 13.0825841,-1.55692 15.1081441,-1.27681 0.782064,0.10815 2.941648,0.32295 4.799056,0.47734 2.971168,0.24698 3.37712,0.41294 3.37712,1.38069 0,0.60516 -0.596648,1.30551 -1.326328,1.55689 -0.72948,0.2513 -2.156544,1.54567 -3.171256,2.87639 -2.250632,2.95153 -4.18996,5.07121 -4.981168,5.44442 -0.325384,0.15348 -0.76644,1.52008 -0.980104,3.0369 l -0.388496,2.75784 2.04656,-0.2431 c 1.125608,-0.1337 3.411968,-0.86853 5.0808,-1.63296 3.44028,-1.57584 4.700168,-1.2886 4.015352,0.91546 -0.301016,0.96882 -1.27504,1.72884 -3.189136,2.48846 -1.515664,0.6015 -2.76436,1.24809 -2.774872,1.43687 -0.01048,0.18877 -0.792808,0.34324 -1.738408,0.34324 -3.766528,0 -3.968496,0.24704 -3.968496,4.85425 v 4.29868 h 3.831224 c 3.815632,0 3.833112,-0.006 4.29804,-1.60176 0.465304,-1.59653 1.325336,-2.03408 2.202464,-1.12054 0.736,0.76656 1.197752,5.48299 0.702984,7.18062 -0.271496,0.93156 -1.687408,2.39206 -3.548248,3.65997 l -3.096472,2.10983 -5.927592,0.18313 c -4.676056,0.14448 -6.264184,0.0261 -7.5217841,-0.56105 z m 12.5596881,-2.79735 c 1.650816,-0.89414 2.187472,-1.56557 2.187472,-2.73685 v -1.55206 l -7.4652,0.0198 c -8.3478241,0.0221 -8.6831761,0.18737 -6.016344,2.96492 2.506808,2.61089 7.761336,3.21767 11.294072,1.30423 z m 0.734296,-33.25313 c 0.0172,-0.18878 -2.04836,-0.34324 -4.59008,-0.34324 -2.541728,0 -4.62132,0.18675 -4.62132,0.41499 0,0.22824 0.981128,1.82258 2.180288,3.54298 l 2.180288,3.12799 2.409792,-3.19975 c 1.325392,-1.75985 2.423856,-3.35419 2.441032,-3.54297 z"
       id="path3002"
       inkscape:connector-curvature="0" />
  </g>
</svg>
