<?xml version="1.0" encoding="UTF-8" standalone="no"?>
<!-- 由 Microsoft Visio, SVG Export 產生 y37.0503-2.svg 頁-1 -->
<!-- 檔名勿刪 y37.0503-2.svg -->
<svg
   xmlns:v="http://schemas.microsoft.com/visio/2003/SVGExtensions/"
   xmlns:dc="http://purl.org/dc/elements/1.1/"
   xmlns:cc="http://creativecommons.org/ns#"
   xmlns:rdf="http://www.w3.org/1999/02/22-rdf-syntax-ns#"
   xmlns:svg="http://www.w3.org/2000/svg"
   xmlns="http://www.w3.org/2000/svg"
   xmlns:sodipodi="http://sodipodi.sourceforge.net/DTD/sodipodi-0.dtd"
   xmlns:inkscape="http://www.inkscape.org/namespaces/inkscape"
   width="35"
   height="40"
   xml:space="preserve"
   color-interpolation-filters="sRGB"
   class="st2"
   version="1.1"
   id="svg36"
   
   ><metadata
     id="metadata42"></metadata><defs
     id="defs40" /><style
     type="text/css"
     id="style22"><![CDATA[
		.st1 {fill:#000000;stroke:none;stroke-linecap:butt;stroke-width:6.12}
		.st2 {fill:none;fill-rule:evenodd;font-size:12px;overflow:visible;stroke-linecap:square;stroke-miterlimit:3}
	]]></style><g
     
     
     
     id="g34"
     transform="matrix(0.0625,0,0,0.0625,6.020995,8.6810895)"><title
       id="title24">頁-1</title><g
       id="group2-1"
       transform="translate(6.12,-6.12)"
       
       ><title
         id="title26">工作表.2</title><g
         id="shape1-2"
         
         ><title
           id="title28">XMLID_4_</title><path
           d="m 206.24,250.31 v 15.3 h 149.94 c 1.84,0 3.06,0.61 4.29,1.22 1.22,0.61 2.45,1.84 3.06,3.67 0.61,1.84 1.83,3.68 1.83,6.74 0,3.06 0.62,6.12 0.62,9.79 0,3.67 0,6.73 -0.62,9.79 -0.61,2.45 -1.22,4.9 -1.83,6.73 -0.61,1.84 -1.84,3.06 -3.06,3.67 -1.23,0.62 -2.45,0.62 -4.29,0.62 H 206.24 v 85.06 c 0,1.84 -0.61,3.06 -1.22,4.29 -0.61,1.22 -2.45,2.45 -4.28,3.06 -1.84,0.61 -4.9,1.22 -7.96,1.83 -3.67,0.62 -7.34,0.62 -12.24,0.62 -4.9,0 -9.18,0 -12.24,-0.62 -3.06,-0.61 -6.12,-1.22 -7.96,-1.83 -1.83,-0.61 -3.67,-1.84 -4.28,-3.06 -0.61,-1.23 -1.22,-2.45 -1.22,-4.29 V 307.84 H 10.4 c -1.83,0 -3.06,-0.62 -4.89,-1.23 C 4.28,306 3.06,304.78 2.45,302.94 1.84,301.1 1.22,299.27 0.61,296.21 0,293.76 0,290.09 0,286.42 c 0,-3.68 0,-6.74 0.61,-9.18 0.61,-2.45 1.23,-4.9 1.84,-6.74 0.61,-1.83 1.83,-3.06 3.06,-3.67 1.22,-0.61 3.06,-1.22 4.89,-1.22 l 143.82,0.61 v -15.3 L 45.29,32.44 C 42.84,28.15 41.62,24.48 41,21.42 c -0.61,-2.45 0,-4.28 1.23,-6.12 1.22,-1.22 4.28,-2.45 7.95,-2.45 3.68,-0.61 9.18,-0.61 15.92,-0.61 6.12,0 11.01,0 14.68,0.61 3.68,0.61 6.74,1.23 8.57,1.84 2.45,0.61 3.67,1.83 4.9,3.06 1.22,1.22 1.83,3.06 3.06,4.89 l 53.24,111.39 c 4.9,10.4 9.79,21.42 14.69,33.05 4.9,11.62 9.79,23.25 15.3,34.88 h 0.61 c 4.29,-11.63 9.18,-22.64 14.08,-33.66 4.89,-11.02 9.79,-22.64 14.69,-33.05 L 263.77,23.26 c 0.61,-1.84 1.23,-3.68 2.45,-4.9 1.22,-1.22 2.45,-2.45 4.28,-3.06 1.84,-0.61 4.29,-1.22 7.96,-1.84 3.67,-0.61 7.96,-0.61 12.85,-0.61 7.35,0 12.85,0 17.14,0.61 4.28,0.62 6.73,1.23 8.57,3.06 1.83,1.23 1.83,3.68 1.83,6.12 -0.61,2.45 -1.83,6.12 -4.28,10.41 z"
           class="st1"
           id="path30"
           
           style="fill:#000000;stroke:none;stroke-width:6.11999989;stroke-linecap:butt" /></g></g></g></svg>