<?xml version="1.0" encoding="UTF-8" standalone="no"?>
<!DOCTYPE svg PUBLIC "-//W3C//DTD SVG 1.1//EN" "http://www.w3.org/Graphics/SVG/1.1/DTD/svg11.dtd">
<!-- 由 Microsoft Visio, SVG Export 產生 y39.0157.svg 頁-1 -->
<svg xmlns="http://www.w3.org/2000/svg" xmlns:xlink="http://www.w3.org/1999/xlink" xmlns:ev="http://www.w3.org/2001/xml-events"
		width="5.14682in" height="8.17044in" viewBox="0 0 370.571 588.272" xml:space="preserve" color-interpolation-filters="sRGB"
		class="st4">
	<style type="text/css">
	<![CDATA[
		.st1 {fill:none;stroke:none;stroke-linecap:round;stroke-linejoin:round;stroke-width:1.5}
		.st2 {fill:#000000;font-family:新細明體;font-size:12pt}
		.st3 {stroke:#000000;stroke-linecap:round;stroke-linejoin:round;stroke-width:1.5}
		.st4 {fill:none;fill-rule:evenodd;font-size:12px;overflow:visible;stroke-linecap:square;stroke-miterlimit:3}
	]]>
	</style>

	<g>
		<title>頁-1</title>
		<g id="group78-1" transform="translate(0.75,-0.75)">
			<title>工作表.78</title>
			<g id="shape1-2" transform="translate(349.228,-103.465)">
				<title>工作表.1</title>
				<desc>菩提十義</desc>
				<rect x="0" y="316.146" width="19.8425" height="272.126" class="st1"/>
				<text x="9.92" y="20.009em 25.178em 30.348em 35.517em" writing-mode="tb-rl" class="st2">菩提十義</text>			</g>
			<g id="shape2-5" transform="translate(2.83465,-316.063)">
				<title>工作表.2</title>
				<desc>如來藏十義</desc>
				<rect x="0" y="435.201" width="19.8425" height="153.071" class="st1"/>
				<text x="9.92" y="27.45em 29.467em 31.484em 33.5em 35.517em" writing-mode="tb-rl" class="st2">如來藏十義</text>			</g>
			<g id="shape3-8" transform="translate(2.83465,-43.937)">
				<title>工作表.3</title>
				<desc>菩提八義</desc>
				<rect x="0" y="460.713" width="19.8425" height="127.559" class="st1"/>
				<text x="9.92" y="29.045em 31.202em 33.36em 35.517em" writing-mode="tb-rl" class="st2">菩提八義</text>			</g>
			<g id="shape4-11" transform="translate(1.59872E-14,-566.929)">
				<title>工作表.4</title>
				<desc>寶性論</desc>
				<rect x="0" y="568.429" width="138.898" height="19.8425" class="st1"/>
				<text x="0.25em 3.841em 7.431em" y="583.15" class="st2">寶性論</text>			</g>
			<g id="shape5-14" transform="translate(245.197,-566.929)">
				<title>工作表.5</title>
				<desc>無上依經</desc>
				<rect x="0" y="568.429" width="113.386" height="19.8425" class="st1"/>
				<text x="0.25em 2.112em 3.974em 5.837em" y="583.15" class="st2">無上依經</text>			</g>
			<g id="shape7-17" transform="translate(240.094,-510.236)">
				<title>工作表.7</title>
				<desc>如來界義</desc>
				<rect x="0" y="568.429" width="73.7008" height="19.8425" class="st1"/>
				<text x="0.25em 1.285em 2.321em 3.356em" y="583.15" class="st2">如來界義</text>			</g>
			<g id="shape14-20" transform="translate(51.5906,-340.157)">
				<title>工作表.14</title>
				<desc>時差別</desc>
				<rect x="0" y="568.429" width="73.7008" height="19.8425" class="st1"/>
				<text x="0.25em 1.803em 3.356em" y="583.15" class="st2">時差別</text>			</g>
			<g id="shape15-23" transform="translate(51.5906,-311.811)">
				<title>工作表.15</title>
				<desc>遍一切處</desc>
				<rect x="0" y="568.429" width="73.7008" height="19.8425" class="st1"/>
				<text x="0.25em 1.285em 2.321em 3.356em" y="583.15" class="st2">遍一切處</text>			</g>
			<g id="shape16-26" transform="translate(51.5906,-283.465)">
				<title>工作表.16</title>
				<desc>不變</desc>
				<rect x="0" y="568.429" width="73.7008" height="19.8425" class="st1"/>
				<text x="0.25em 3.356em" y="583.15" class="st2">不變</text>			</g>
			<g id="shape17-29" transform="translate(51.5906,-255.118)">
				<title>工作表.17</title>
				<desc>無差別</desc>
				<rect x="0" y="568.429" width="73.7008" height="19.8425" class="st1"/>
				<text x="0.25em 1.803em 3.356em" y="583.15" class="st2">無差別</text>			</g>
			<g id="shape6-32" transform="translate(53.0079,-510.236)">
				<title>工作表.6</title>
				<desc>體</desc>
				<rect x="0" y="568.429" width="22.6772" height="19.8425" class="st1"/>
				<text x="11.34" y="572.43" writing-mode="tb-rl" class="st2">體</text>			</g>
			<g id="shape8-35" transform="translate(53.0079,-481.89)">
				<title>工作表.8</title>
				<desc>因</desc>
				<rect x="0" y="568.429" width="22.6772" height="19.8425" class="st1"/>
				<text x="11.34" y="572.43" writing-mode="tb-rl" class="st2">因</text>			</g>
			<g id="shape9-38" transform="translate(53.0079,-453.543)">
				<title>工作表.9</title>
				<desc>果</desc>
				<rect x="0" y="568.429" width="22.6772" height="19.8425" class="st1"/>
				<text x="11.34" y="572.43" writing-mode="tb-rl" class="st2">果</text>			</g>
			<g id="shape10-41" transform="translate(53.0079,-425.197)">
				<title>工作表.10</title>
				<desc>業</desc>
				<rect x="0" y="568.429" width="22.6772" height="19.8425" class="st1"/>
				<text x="11.34" y="572.43" writing-mode="tb-rl" class="st2">業</text>			</g>
			<g id="shape11-44" transform="translate(51.5906,-396.85)">
				<title>工作表.11</title>
				<desc>相應</desc>
				<rect x="0" y="568.429" width="73.7008" height="19.8425" class="st1"/>
				<text x="0.25em 3.356em" y="583.15" class="st2">相應</text>			</g>
			<g id="shape13-47" transform="translate(53.0079,-368.504)">
				<title>工作表.13</title>
				<desc>行</desc>
				<rect x="0" y="568.429" width="22.6772" height="19.8425" class="st1"/>
				<text x="11.34" y="572.43" writing-mode="tb-rl" class="st2">行</text>			</g>
			<g id="shape20-50" transform="translate(51.5906,-198.425)">
				<title>工作表.20</title>
				<desc>實體</desc>
				<rect x="0" y="568.429" width="73.7008" height="19.8425" class="st1"/>
				<text x="0.25em 3.356em" y="583.15" class="st2">實體</text>			</g>
			<g id="shape21-53" transform="translate(53.0079,-170.079)">
				<title>工作表.21</title>
				<desc>因</desc>
				<rect x="0" y="568.429" width="22.6772" height="19.8425" class="st1"/>
				<text x="11.34" y="572.43" writing-mode="tb-rl" class="st2">因</text>			</g>
			<g id="shape22-56" transform="translate(53.0079,-141.732)">
				<title>工作表.22</title>
				<desc>果</desc>
				<rect x="0" y="568.429" width="22.6772" height="19.8425" class="st1"/>
				<text x="11.34" y="572.43" writing-mode="tb-rl" class="st2">果</text>			</g>
			<g id="shape23-59" transform="translate(53.0079,-113.386)">
				<title>工作表.23</title>
				<desc>業</desc>
				<rect x="0" y="568.429" width="22.6772" height="19.8425" class="st1"/>
				<text x="11.34" y="572.43" writing-mode="tb-rl" class="st2">業</text>			</g>
			<g id="shape24-62" transform="translate(51.5906,-85.0394)">
				<title>工作表.24</title>
				<desc>相應</desc>
				<rect x="0" y="568.429" width="73.7008" height="19.8425" class="st1"/>
				<text x="0.25em 3.356em" y="583.15" class="st2">相應</text>			</g>
			<g id="shape25-65" transform="translate(53.0079,-56.6929)">
				<title>工作表.25</title>
				<desc>行</desc>
				<rect x="0" y="568.429" width="22.6772" height="19.8425" class="st1"/>
				<text x="11.34" y="572.43" writing-mode="tb-rl" class="st2">行</text>			</g>
			<g id="shape18-68" transform="translate(51.5906,0)">
				<title>工作表.18</title>
				<desc>不思議</desc>
				<rect x="0" y="568.429" width="73.7008" height="19.8425" class="st1"/>
				<text x="0.25em 1.803em 3.356em" y="583.15" class="st2">不思議</text>			</g>
			<g id="shape19-71" transform="translate(53.0079,-28.3465)">
				<title>工作表.19</title>
				<desc>常</desc>
				<rect x="0" y="568.429" width="22.6772" height="19.8425" class="st1"/>
				<text x="11.34" y="572.43" writing-mode="tb-rl" class="st2">常</text>			</g>
			<g id="shape26-74" transform="translate(240.094,-453.543)">
				<title>工作表.26</title>
				<desc>自性</desc>
				<rect x="0" y="568.429" width="73.7008" height="19.8425" class="st1"/>
				<text x="0.25em 3.356em" y="583.15" class="st2">自性</text>			</g>
			<g id="shape27-77" transform="translate(240.094,-411.024)">
				<title>工作表.27</title>
				<desc>因緣</desc>
				<rect x="0" y="568.429" width="73.7008" height="19.8425" class="st1"/>
				<text x="0.25em 3.356em" y="583.15" class="st2">因緣</text>			</g>
			<g id="shape28-80" transform="translate(240.094,-354.331)">
				<title>工作表.28</title>
				<desc>惑障</desc>
				<rect x="0" y="568.429" width="73.7008" height="19.8425" class="st1"/>
				<text x="0.25em 3.356em" y="583.15" class="st2">惑障</text>			</g>
			<g id="shape29-83" transform="translate(240.094,-297.638)">
				<title>工作表.29</title>
				<desc>至果</desc>
				<rect x="0" y="568.429" width="73.7008" height="19.8425" class="st1"/>
				<text x="0.25em 3.356em" y="583.15" class="st2">至果</text>			</g>
			<g id="shape30-86" transform="translate(240.094,-240.945)">
				<title>工作表.30</title>
				<desc>作事</desc>
				<rect x="0" y="568.429" width="73.7008" height="19.8425" class="st1"/>
				<text x="0.25em 3.356em" y="583.15" class="st2">作事</text>			</g>
			<g id="shape31-89" transform="translate(240.094,-184.252)">
				<title>工作表.31</title>
				<desc>相攝</desc>
				<rect x="0" y="568.429" width="73.7008" height="19.8425" class="st1"/>
				<text x="0.25em 3.356em" y="583.15" class="st2">相攝</text>			</g>
			<g id="shape32-92" transform="translate(240.094,-141.732)">
				<title>工作表.32</title>
				<desc>行處</desc>
				<rect x="0" y="568.429" width="73.7008" height="19.8425" class="st1"/>
				<text x="0.25em 3.356em" y="583.15" class="st2">行處</text>			</g>
			<g id="shape33-95" transform="translate(240.094,-99.2126)">
				<title>工作表.33</title>
				<desc>常住</desc>
				<rect x="0" y="568.429" width="73.7008" height="19.8425" class="st1"/>
				<text x="0.25em 3.356em" y="583.15" class="st2">常住</text>			</g>
			<g id="shape34-98" transform="translate(240.094,-42.5197)">
				<title>工作表.34</title>
				<desc>不共</desc>
				<rect x="0" y="568.429" width="73.7008" height="19.8425" class="st1"/>
				<text x="0.25em 3.356em" y="583.15" class="st2">不共</text>			</g>
			<g id="shape35-101" transform="translate(240.094,0)">
				<title>工作表.35</title>
				<desc>不可思惟</desc>
				<rect x="0" y="568.429" width="73.7008" height="19.8425" class="st1"/>
				<text x="0.25em 1.285em 2.321em 3.356em" y="583.15" class="st2">不可思惟</text>			</g>
			<g id="shape37-104" transform="translate(933.248,209.846) rotate(90)">
				<title>工作表.37</title>
				<path d="M0 588.27 L283.46 588.27" class="st3"/>
			</g>
			<g id="shape38-107" transform="translate(310.961,-463.465)">
				<title>工作表.38</title>
				<path d="M0 588.27 L14.17 588.27" class="st3"/>
			</g>
			<g id="shape39-110" transform="translate(310.961,-9.92126)">
				<title>工作表.39</title>
				<path d="M0 588.27 L14.17 588.27" class="st3"/>
			</g>
			<g id="shape40-113" transform="translate(325.134,-222.52)">
				<title>工作表.40</title>
				<path d="M0 588.27 L8.5 588.27" class="st3"/>
			</g>
			<g id="shape41-116" transform="translate(913.406,124.807) rotate(90)">
				<title>工作表.41</title>
				<path d="M0 588.27 L453.54 588.27" class="st3"/>
			</g>
			<g id="shape42-119" transform="translate(32.5984,-392.598)">
				<title>工作表.42</title>
				<path d="M0 588.27 L8.5 588.27" class="st3"/>
			</g>
			<g id="shape44-122" transform="translate(41.1024,-265.039)">
				<title>工作表.44</title>
				<path d="M0 588.27 L14.17 588.27" class="st3"/>
			</g>
			<g id="shape45-125" transform="translate(41.1024,-520.157)">
				<title>工作表.45</title>
				<path d="M0 588.27 L14.17 588.27" class="st3"/>
			</g>
			<g id="shape46-128" transform="translate(629.374,379.925) rotate(90)">
				<title>工作表.46</title>
				<path d="M0 588.27 L198.43 588.27" class="st3"/>
			</g>
			<g id="shape47-131" transform="translate(41.1024,-9.92126)">
				<title>工作表.47</title>
				<path d="M0 588.27 L14.17 588.27" class="st3"/>
			</g>
			<g id="shape48-134" transform="translate(41.1024,-208.346)">
				<title>工作表.48</title>
				<path d="M0 588.27 L14.17 588.27" class="st3"/>
			</g>
			<g id="shape49-137" transform="translate(32.5984,-109.134)">
				<title>工作表.49</title>
				<path d="M0 588.27 L8.5 588.27" class="st3"/>
			</g>
			<g id="shape36-140" transform="translate(78.5197,-491.811)">
				<title>工作表.36</title>
				<path d="M0 588.27 L42.52 588.27" class="st3"/>
			</g>
			<g id="shape50-143" transform="translate(416.717,-412.104) rotate(30.1735)">
				<title>工作表.50</title>
				<path d="M0 588.27 L140.99 588.27" class="st3"/>
			</g>
			<g id="shape51-146" transform="translate(78.5197,-463.465)">
				<title>工作表.51</title>
				<path d="M0 588.27 L42.52 588.27" class="st3"/>
			</g>
			<g id="shape52-149" transform="translate(492.398,-331.434) rotate(39.144)">
				<title>工作表.52</title>
				<path d="M0 588.27 L157.16 588.27" class="st3"/>
			</g>
			<g id="shape53-152" transform="translate(584.484,-237.522) rotate(51.9811)">
				<title>工作表.53</title>
				<path d="M0 588.27 L197.9 588.27" class="st3"/>
			</g>
			<g id="shape54-155" transform="translate(78.5197,-378.425)">
				<title>工作表.54</title>
				<path d="M0 588.27 L42.52 588.27" class="st3"/>
			</g>
			<g id="shape55-158" transform="translate(688.948,451.69) rotate(130.696)">
				<title>工作表.55</title>
				<path d="M0 588.27 L186.94 588.27" class="st3"/>
			</g>
			<g id="shape56-161" transform="translate(745.776,373.414) rotate(121.264)">
				<title>工作表.56</title>
				<path d="M0 588.27 L232.13 588.27" class="st3"/>
			</g>
			<g id="shape57-164" transform="translate(762.441,344.105) rotate(117.979)">
				<title>工作表.57</title>
				<path d="M0 588.27 L256.79 588.27" class="st3"/>
			</g>
			<g id="shape58-167" transform="translate(774.873,319.31) rotate(115.278)">
				<title>工作表.58</title>
				<path d="M0 588.27 L282.13 588.27" class="st3"/>
			</g>
			<g id="shape59-170" transform="translate(78.5197,-123.307)">
				<title>工作表.59</title>
				<path d="M0 588.27 L42.52 588.27" class="st3"/>
			</g>
			<g id="shape60-173" transform="translate(78.5197,-66.6142)">
				<title>工作表.60</title>
				<path d="M0 588.27 L42.52 588.27" class="st3"/>
			</g>
			<g id="shape61-176" transform="translate(78.5197,-38.2677)">
				<title>工作表.61</title>
				<path d="M0 588.27 L42.52 588.27" class="st3"/>
			</g>
			<g id="shape62-179" transform="translate(123.874,-9.92126)">
				<title>工作表.62</title>
				<path d="M0 588.27 L119.06 588.27" class="st3"/>
			</g>
			<g id="shape63-182" transform="translate(773.176,373.579) rotate(115.017)">
				<title>工作表.63</title>
				<path d="M0 588.27 L281.53 588.27" class="st3"/>
			</g>
			<g id="shape64-185" transform="translate(668.244,743.818) rotate(133.698)">
				<title>工作表.64</title>
				<path d="M0 588.27 L176.43 588.27" class="st3"/>
			</g>
			<g id="shape65-188" transform="translate(614.288,850.34) rotate(140.856)">
				<title>工作表.65</title>
				<path d="M0 588.27 L157.16 588.27" class="st3"/>
			</g>
			<g id="shape66-191" transform="translate(579.527,919.076) rotate(145.098)">
				<title>工作表.66</title>
				<path d="M0 588.27 L148.62 588.27" class="st3"/>
			</g>
			<g id="shape67-194" transform="translate(538.607,987.703) rotate(149.826)">
				<title>工作表.67</title>
				<path d="M0 588.27 L140.99 588.27" class="st3"/>
			</g>
			<g id="shape12-197" transform="translate(78.5197,-520.157)">
				<title>工作表.12</title>
				<path d="M0 588.27 L164.41 588.27" class="st3"/>
			</g>
			<g id="shape72-200" transform="translate(1.59872E-14,-562.677)">
				<title>工作表.72</title>
				<path d="M0 588.27 L138.9 588.27" class="st3"/>
			</g>
			<g id="shape73-203" transform="translate(245.197,-562.677)">
				<title>工作表.73</title>
				<path d="M0 588.27 L113.39 588.27" class="st3"/>
			</g>
			<g id="shape43-206" transform="translate(629.374,68.1142) rotate(90)">
				<title>工作表.43</title>
				<path d="M0 588.27 L255.12 588.27" class="st3"/>
			</g>
			<g id="shape75-209" transform="translate(615.201,124.807) rotate(90)">
				<title>工作表.75</title>
				<path d="M0 588.27 L141.73 588.27" class="st3"/>
			</g>
			<g id="shape76-212" transform="translate(615.201,422.445) rotate(90)">
				<title>工作表.76</title>
				<path d="M0 588.27 L119.06 588.27" class="st3"/>
			</g>
		</g>
	</g>
</svg>
