<?xml version="1.0" encoding="UTF-8" standalone="no"?>
<!DOCTYPE svg PUBLIC "-//W3C//DTD SVG 1.1//EN" "http://www.w3.org/Graphics/SVG/1.1/DTD/svg11.dtd">
<!-- 由 Microsoft Visio, SVG Export 產生 y40.0108.svg 頁-1 -->
<svg xmlns="http://www.w3.org/2000/svg" xmlns:xlink="http://www.w3.org/1999/xlink" xmlns:ev="http://www.w3.org/2001/xml-events"
		width="5.12853in" height="1.90018in" viewBox="0 0 369.254 136.813" xml:space="preserve" color-interpolation-filters="sRGB"
		class="st5">
	<style type="text/css">
	<![CDATA[
		.st1 {fill:none;stroke:none;stroke-linecap:round;stroke-linejoin:round;stroke-width:0.75}
		.st2 {fill:#000000;font-family:新細明體;font-size:12pt}
		.st3 {stroke:#000000;stroke-linecap:round;stroke-linejoin:round;stroke-width:1}
		.st4 {stroke:#000000;stroke-dasharray:3,3;stroke-linecap:round;stroke-linejoin:round;stroke-width:1}
		.st5 {fill:none;fill-rule:evenodd;font-size:12px;overflow:visible;stroke-linecap:square;stroke-miterlimit:3}
	]]>
	</style>

	<g>
		<title>頁-1</title>
		<g id="group26-1" transform="translate(0.375,-0.375)">
			<title>工作表.26</title>
			<g id="shape1-2" transform="translate(85.0394,-113.386)">
				<title>工作表.1</title>
				<desc>法敏</desc>
				<rect x="0" y="114.136" width="42.5197" height="22.6772" class="st1"/>
				<text x="5.26" y="130.27" class="st2">法敏</text>			</g>
			<g id="shape2-5" transform="translate(240.945,-113.386)">
				<title>工作表.2</title>
				<desc>法聰</desc>
				<rect x="0" y="114.136" width="42.5197" height="22.6772" class="st1"/>
				<text x="5.26" y="130.27" class="st2">法聰</text>			</g>
			<g id="shape3-8" transform="translate(325.984,-113.386)">
				<title>工作表.3</title>
				<desc>僧瑗</desc>
				<rect x="0" y="114.136" width="42.5197" height="22.6772" class="st1"/>
				<text x="5.26" y="130.27" class="st2">僧瑗</text>			</g>
			<g id="shape4-11" transform="translate(-3.59712E-14,-85.0394)">
				<title>工作表.4</title>
				<desc>大明</desc>
				<rect x="0" y="114.136" width="42.5197" height="22.6772" class="st1"/>
				<text x="5.26" y="130.27" class="st2">大明</text>			</g>
			<g id="shape5-14" transform="translate(141.732,-56.6929)">
				<title>工作表.5</title>
				<desc>法融</desc>
				<rect x="0" y="114.136" width="42.5197" height="22.6772" class="st1"/>
				<text x="5.26" y="130.27" class="st2">法融</text>			</g>
			<g id="shape6-17" transform="translate(325.984,-56.6929)">
				<title>工作表.6</title>
				<desc>善伏</desc>
				<rect x="0" y="114.136" width="42.5197" height="22.6772" class="st1"/>
				<text x="5.26" y="130.27" class="st2">善伏</text>			</g>
			<g id="shape7-20" transform="translate(113.386,-28.3465)">
				<title>工作表.7</title>
				<desc>寶月</desc>
				<rect x="0" y="114.136" width="42.5197" height="22.6772" class="st1"/>
				<text x="5.26" y="130.27" class="st2">寶月</text>			</g>
			<g id="shape8-23" transform="translate(240.945,-28.3465)">
				<title>工作表.8</title>
				<desc>智巖</desc>
				<rect x="0" y="114.136" width="42.5197" height="22.6772" class="st1"/>
				<text x="5.26" y="130.27" class="st2">智巖</text>			</g>
			<g id="shape9-26" transform="translate(325.984,-28.3465)">
				<title>工作表.9</title>
				<desc>慧明</desc>
				<rect x="0" y="114.136" width="42.5197" height="22.6772" class="st1"/>
				<text x="5.26" y="130.27" class="st2">慧明</text>			</g>
			<g id="shape10-29" transform="translate(113.386,-2.84217E-14)">
				<title>工作表.10</title>
				<desc>僧璨</desc>
				<rect x="0" y="114.136" width="42.5197" height="22.6772" class="st1"/>
				<text x="5.26" y="130.27" class="st2">僧璨</text>			</g>
			<g id="shape11-32" transform="translate(240.945,-4.54747E-13)">
				<title>工作表.11</title>
				<desc>道信</desc>
				<rect x="0" y="114.136" width="42.5197" height="22.6772" class="st1"/>
				<text x="5.26" y="130.27" class="st2">道信</text>			</g>
			<g id="shape12-35" transform="translate(-28.1745,-79.161) rotate(-29.0546)">
				<title>工作表.12</title>
				<path d="M0 136.81 L58.37 136.81" class="st3"/>
			</g>
			<g id="shape13-38" transform="translate(250.335,-38.7225) rotate(68.1986)">
				<title>工作表.13</title>
				<path d="M0 136.81 L61.06 136.81" class="st3"/>
			</g>
			<g id="shape14-41" transform="translate(123.307,-124.724)">
				<title>工作表.14</title>
				<path d="M0 136.81 L120.47 136.81" class="st3"/>
			</g>
			<g id="shape15-44" transform="translate(154.488,-11.3386)">
				<title>工作表.15</title>
				<path d="M0 136.81 L87.87 136.81" class="st3"/>
			</g>
			<g id="shape16-47" transform="translate(73.0857,-91.8733) rotate(14.7436)">
				<title>工作表.16</title>
				<path d="M0 136.81 L111.38 136.81" class="st3"/>
			</g>
			<g id="shape17-50" transform="translate(155.906,-39.685)">
				<title>工作表.17</title>
				<path d="M0 136.81 L87.87 136.81" class="st3"/>
			</g>
			<g id="shape18-53" transform="translate(175.618,-114.329) rotate(22.4794)">
				<title>工作表.18</title>
				<path d="M0 136.81 L222.41 136.81" class="st3"/>
			</g>
			<g id="shape19-56" transform="translate(112.892,-4.86175) rotate(-17.7004)">
				<title>工作表.19</title>
				<path d="M0 136.81 L93.23 136.81" class="st4"/>
			</g>
			<g id="shape20-59" transform="translate(133.307,-58.7521) rotate(-21.2237)">
				<title>工作表.20</title>
				<path d="M0 136.81 L156.61 136.81" class="st3"/>
			</g>
			<g id="shape21-62" transform="translate(176.25,35.3824) rotate(-48.8141)">
				<title>工作表.21</title>
				<path d="M0 136.81 L75.33 136.81" class="st3"/>
			</g>
			<g id="shape22-65" transform="translate(211.334,-21.659) rotate(-29.7449)">
				<title>工作表.22</title>
				<path d="M0 136.81 L57.13 136.81" class="st3"/>
			</g>
			<g id="shape23-68" transform="translate(382.175,-78.0034) rotate(48.8141)">
				<title>工作表.23</title>
				<path d="M0 136.81 L75.33 136.81" class="st3"/>
			</g>
			<g id="shape25-71" transform="translate(279.213,-39.685)">
				<title>工作表.25</title>
				<path d="M0 136.81 L49.61 136.81" class="st3"/>
			</g>
		</g>
	</g>
</svg>
