<?xml version="1.0" encoding="UTF-8" standalone="no"?>
<!DOCTYPE svg PUBLIC "-//W3C//DTD SVG 1.1//EN" "http://www.w3.org/Graphics/SVG/1.1/DTD/svg11.dtd">
<!-- 由 Microsoft Visio, SVG Export 產生 y40.0274.svg 頁-1 -->
<svg xmlns="http://www.w3.org/2000/svg" xmlns:xlink="http://www.w3.org/1999/xlink" xmlns:ev="http://www.w3.org/2001/xml-events"
		width="4.6364in" height="2.29388in" viewBox="0 0 333.821 165.159" xml:space="preserve" color-interpolation-filters="sRGB"
		class="st4">
	<style type="text/css">
	<![CDATA[
		.st1 {fill:none;stroke:none;stroke-linecap:round;stroke-linejoin:round;stroke-width:0.75}
		.st2 {fill:#000000;font-family:新細明體;font-size:12pt}
		.st3 {stroke:#000000;stroke-linecap:round;stroke-linejoin:round;stroke-width:1}
		.st4 {fill:none;fill-rule:evenodd;font-size:12px;overflow:visible;stroke-linecap:square;stroke-miterlimit:3}
	]]>
	</style>

	<g>
		<title>頁-1</title>
		<g id="group16-1" transform="translate(0.375,-0.375)">
			<title>工作表.16</title>
			<g id="shape1-2" transform="translate(-1.59872E-14,-141.732)">
				<title>工作表.1</title>
				<desc>〔燉煌本〕</desc>
				<rect x="0" y="142.482" width="90.7087" height="22.6772" class="st1"/>
				<text x="5.35" y="158.62" class="st2">〔燉煌本〕</text>			</g>
			<g id="shape2-5" transform="translate(1.41732,-113.386)">
				<title>工作表.2</title>
				<desc>見自性三身佛</desc>
				<rect x="0" y="142.482" width="104.882" height="22.6772" class="st1"/>
				<text x="4.44" y="158.62" class="st2">見自性三身佛</text>			</g>
			<g id="shape3-8" transform="translate(1.41732,-85.0394)">
				<title>工作表.3</title>
				<desc>四弘大願</desc>
				<rect x="0" y="142.482" width="73.7008" height="22.6772" class="st1"/>
				<text x="4.85" y="158.62" class="st2">四弘大願</text>			</g>
			<g id="shape4-11" transform="translate(1.41732,-56.6929)">
				<title>工作表.4</title>
				<desc>無相懺悔</desc>
				<rect x="0" y="142.482" width="73.7008" height="22.6772" class="st1"/>
				<text x="4.85" y="158.62" class="st2">無相懺悔</text>			</g>
			<g id="shape5-14" transform="translate(1.41732,-28.3465)">
				<title>工作表.5</title>
				<desc>無相三歸依戒</desc>
				<rect x="0" y="142.482" width="104.882" height="22.6772" class="st1"/>
				<text x="4.44" y="158.62" class="st2">無相三歸依戒</text>			</g>
			<g id="shape6-17" transform="translate(226.772,-141.732)">
				<title>工作表.6</title>
				<desc>〔惠昕本〕</desc>
				<rect x="0" y="142.482" width="90.7087" height="22.6772" class="st1"/>
				<text x="5.35" y="158.62" class="st2">〔惠昕本〕</text>			</g>
			<g id="shape7-20" transform="translate(228.189,-113.386)">
				<title>工作表.7</title>
				<desc>傳五分法身香</desc>
				<rect x="0" y="142.482" width="104.882" height="22.6772" class="st1"/>
				<text x="4.44" y="158.62" class="st2">傳五分法身香</text>			</g>
			<g id="shape8-23" transform="translate(228.189,-85.0394)">
				<title>工作表.8</title>
				<desc>無相懺悔</desc>
				<rect x="0" y="142.482" width="73.7008" height="22.6772" class="st1"/>
				<text x="4.85" y="158.62" class="st2">無相懺悔</text>			</g>
			<g id="shape9-26" transform="translate(228.189,-56.6929)">
				<title>工作表.9</title>
				<desc>四弘誓願</desc>
				<rect x="0" y="142.482" width="73.7008" height="22.6772" class="st1"/>
				<text x="4.85" y="158.62" class="st2">四弘誓願</text>			</g>
			<g id="shape10-29" transform="translate(228.189,-28.3465)">
				<title>工作表.10</title>
				<desc>無相三歸依戒</desc>
				<rect x="0" y="142.482" width="104.882" height="22.6772" class="st1"/>
				<text x="4.44" y="158.62" class="st2">無相三歸依戒</text>			</g>
			<g id="shape11-32" transform="translate(228.189,2.84217E-14)">
				<title>工作表.11</title>
				<desc>說一體三身佛</desc>
				<rect x="0" y="142.482" width="104.882" height="22.6772" class="st1"/>
				<text x="4.44" y="158.62" class="st2">說一體三身佛</text>			</g>
			<g id="shape12-35" transform="translate(106.299,-39.685)">
				<title>工作表.12</title>
				<path d="M0 165.16 L121.89 165.16" class="st3"/>
			</g>
			<g id="shape13-38" transform="translate(41.5793,-65.4141) rotate(-10.214)">
				<title>工作表.13</title>
				<path d="M0 165.16 L159.86 165.16" class="st3"/>
			</g>
			<g id="shape14-41" transform="translate(100.153,-93.7606) rotate(10.214)">
				<title>工作表.14</title>
				<path d="M0 165.16 L159.86 165.16" class="st3"/>
			</g>
			<g id="shape15-44" transform="translate(218.79,-80.4925) rotate(42.93)">
				<title>工作表.15</title>
				<path d="M0 165.16 L166.47 165.16" class="st3"/>
			</g>
		</g>
	</g>
</svg>
