<?xml version="1.0" encoding="UTF-8" standalone="no"?>
<!DOCTYPE svg PUBLIC "-//W3C//DTD SVG 1.1//EN" "http://www.w3.org/Graphics/SVG/1.1/DTD/svg11.dtd">
<!-- 由 Microsoft Visio, SVG Export 產生 y42.0266.svg 頁-1 -->
<svg xmlns="http://www.w3.org/2000/svg" xmlns:xlink="http://www.w3.org/1999/xlink" xmlns:ev="http://www.w3.org/2001/xml-events"
		width="5.96593in" height="1.07299in" viewBox="0 0 429.547 77.2554" xml:space="preserve" color-interpolation-filters="sRGB"
		class="st5">
	

	<style type="text/css">
	<![CDATA[
		.st1 {stroke:#000000;stroke-linecap:round;stroke-linejoin:round;stroke-width:0.72}
		.st2 {stroke:#000000;stroke-dasharray:5.04,3.6;stroke-linecap:round;stroke-linejoin:round;stroke-width:0.72}
		.st3 {fill:none;stroke:none;stroke-linecap:round;stroke-linejoin:round;stroke-width:0.72}
		.st4 {fill:#000000;font-family:新細明體;font-size:12pt}
		.st5 {fill:none;fill-rule:evenodd;font-size:12px;overflow:visible;stroke-linecap:square;stroke-miterlimit:3}
	]]>
	</style>

	<g>
		<title>頁-1</title>
		<g id="group27-1" transform="translate(0.36,-0.36)">
			<title>工作表.27</title>
			<g id="shape10-2" transform="translate(43.1063,-9.92126)">
				<title>工作表.10</title>
				<path d="M0 77.26 L28.35 77.26" class="st1"/>
			</g>
			<g id="shape11-5" transform="translate(8.55662,-44.2849) rotate(-26.5651)">
				<title>工作表.11</title>
				<path d="M0 77.26 L31.69 77.26" class="st1"/>
			</g>
			<g id="shape12-8" transform="translate(77.656,-44.2849) rotate(26.5651)">
				<title>工作表.12</title>
				<path d="M0 77.26 L31.69 77.26" class="st1"/>
			</g>
			<g id="shape13-11" transform="translate(224.524,-66.6142)">
				<title>工作表.13</title>
				<path d="M0 77.26 L31.18 77.26" class="st1"/>
			</g>
			<g id="shape14-14" transform="translate(224.524,-38.2677)">
				<title>工作表.14</title>
				<path d="M0 77.26 L31.18 77.26" class="st1"/>
			</g>
			<g id="shape15-17" transform="translate(224.524,-9.92126)">
				<title>工作表.15</title>
				<path d="M0 77.26 L31.18 77.26" class="st1"/>
			</g>
			<g id="shape16-20" transform="translate(172.556,10.1698) rotate(-42.2737)">
				<title>工作表.16</title>
				<path d="M0 77.26 L42.14 77.26" class="st2"/>
			</g>
			<g id="shape17-23" transform="translate(156.831,30.1033) rotate(-61.1892)">
				<title>工作表.17</title>
				<path d="M0 77.26 L64.7 77.26" class="st2"/>
			</g>
			<g id="shape18-26" transform="translate(276.491,-18.1767) rotate(42.2737)">
				<title>工作表.18</title>
				<path d="M0 77.26 L42.14 77.26" class="st2"/>
			</g>
			<g id="shape19-29" transform="translate(172.556,-18.1767) rotate(-42.2737)">
				<title>工作表.19</title>
				<path d="M0 77.26 L42.14 77.26" class="st2"/>
			</g>
			<g id="shape20-32" transform="translate(276.491,-46.5231) rotate(42.2737)">
				<title>工作表.20</title>
				<path d="M0 77.26 L42.14 77.26" class="st2"/>
			</g>
			<g id="shape21-35" transform="translate(292.216,-26.5896) rotate(61.1892)">
				<title>工作表.21</title>
				<path d="M0 77.26 L64.7 77.26" class="st2"/>
			</g>
			<g id="shape22-38" transform="translate(381.199,-43.9866) rotate(45)">
				<title>工作表.22</title>
				<path d="M0 77.26 L40.09 77.26" class="st1"/>
			</g>
			<g id="shape23-41" transform="translate(326.571,-38.2677)">
				<title>工作表.23</title>
				<path d="M0 77.26 L28.35 77.26" class="st1"/>
			</g>
			<g id="shape24-44" transform="translate(271.943,12.7063) rotate(-45)">
				<title>工作表.24</title>
				<path d="M0 77.26 L40.09 77.26" class="st1"/>
			</g>
			<g id="shape1-47">
				<title>工作表.1</title>
				<desc>直入</desc>
				<rect x="0" y="57.4129" width="42.5197" height="19.8425" class="st3"/>
				<text x="5.26" y="72.32" class="st4">直入</text>			</g>
			<g id="shape2-50" transform="translate(-1.59872E-14,-42.5197)">
				<title>工作表.2</title>
				<desc>迴入</desc>
				<rect x="0" y="57.4129" width="42.5197" height="19.8425" class="st3"/>
				<text x="5.26" y="72.32" class="st4">迴入</text>			</g>
			<g id="shape3-53" transform="translate(71.1339,-56.6929)">
				<title>工作表.3</title>
				<desc>依聲聞乘行而入佛道</desc>
				<rect x="0" y="57.4129" width="153.244" height="19.8425" class="st3"/>
				<text x="4.62" y="72.32" class="st4">依聲聞乘行而入佛道</text>			</g>
			<g id="shape4-56" transform="translate(71.1339,-28.3465)">
				<title>工作表.4</title>
				<desc>依天乘行而入佛道</desc>
				<rect x="0" y="57.4129" width="153.244" height="19.8425" class="st3"/>
				<text x="0.25em 1.404em 2.558em 3.712em 4.866em 6.02em 7.174em 8.328em" y="72.32" class="st4">依天乘行而入佛道</text>			</g>
			<g id="shape5-59" transform="translate(71.1339,-4.9738E-13)">
				<title>工作表.5</title>
				<desc>依人乘行而入佛道</desc>
				<rect x="0" y="57.4129" width="153.244" height="19.8425" class="st3"/>
				<text x="0.25em 1.404em 2.558em 3.712em 4.866em 6.02em 7.174em 8.328em" y="72.32" class="st4">依人乘行而入佛道</text>			</g>
			<g id="shape6-62" transform="translate(255.031,-56.6929)">
				<title>工作表.6</title>
				<desc>智慧增上</desc>
				<rect x="0" y="57.4129" width="74.5827" height="19.8425" class="st3"/>
				<text x="5.29" y="72.32" class="st4">智慧增上</text>			</g>
			<g id="shape7-65" transform="translate(255.031,-28.3465)">
				<title>工作表.7</title>
				<desc>信願增上</desc>
				<rect x="0" y="57.4129" width="74.5827" height="19.8425" class="st3"/>
				<text x="5.29" y="72.32" class="st4">信願增上</text>			</g>
			<g id="shape8-68" transform="translate(255.031,-1.00897E-12)">
				<title>工作表.8</title>
				<desc>慈悲增上</desc>
				<rect x="0" y="57.4129" width="74.5827" height="19.8425" class="st3"/>
				<text x="5.29" y="72.32" class="st4">慈悲增上</text>			</g>
			<g id="shape9-71" transform="translate(354.244,-28.3465)">
				<title>工作表.9</title>
				<desc>同歸佛道</desc>
				<rect x="0" y="57.4129" width="74.5827" height="19.8425" class="st3"/>
				<text x="5.29" y="72.32" class="st4">同歸佛道</text>			</g>
		</g>
	</g>
</svg>
