<?xml version="1.0" encoding="UTF-8" standalone="no"?>
<!DOCTYPE svg PUBLIC "-//W3C//DTD SVG 1.1//EN" "http://www.w3.org/Graphics/SVG/1.1/DTD/svg11.dtd">
<!-- 由 Microsoft Visio, SVG Export 產生 y42.0177.svg 頁-1 -->
<svg xmlns="http://www.w3.org/2000/svg" xmlns:xlink="http://www.w3.org/1999/xlink" xmlns:ev="http://www.w3.org/2001/xml-events"
		width="3.54418in" height="3.04893in" viewBox="0 0 255.181 219.523" xml:space="preserve" color-interpolation-filters="sRGB"
		class="st4">
	

	<style type="text/css">
	<![CDATA[
		.st1 {fill:none;stroke:none;stroke-linecap:round;stroke-linejoin:round;stroke-width:0.72}
		.st2 {fill:#000000;font-family:新細明體;font-size:12pt}
		.st3 {stroke:#000000;stroke-linecap:round;stroke-linejoin:round;stroke-width:0.72}
		.st4 {fill:none;fill-rule:evenodd;font-size:12px;overflow:visible;stroke-linecap:square;stroke-miterlimit:3}
	]]>
	</style>

	<g>
		<title>頁-1</title>
		<g id="group32-1" transform="translate(0.36,-0.36)">
			<title>工作表.32</title>
			<g id="shape1-2" transform="translate(198.303,-198.961)">
				<title>工作表.1</title>
				<desc>正　見</desc>
				<rect x="0" y="199.681" width="56.1575" height="19.8425" class="st1"/>
				<text x="4.08" y="214.58" class="st2">正　見</text>			</g>
			<g id="shape2-5" transform="translate(198.303,-170.079)">
				<title>工作表.2</title>
				<desc>正思惟</desc>
				<rect x="0" y="199.681" width="56.1575" height="19.8425" class="st1"/>
				<text x="4.08" y="214.58" class="st2">正思惟</text>			</g>
			<g id="shape3-8" transform="translate(198.303,-141.732)">
				<title>工作表.3</title>
				<desc>正　語</desc>
				<rect x="0" y="199.681" width="56.1575" height="19.8425" class="st1"/>
				<text x="4.08" y="214.58" class="st2">正　語</text>			</g>
			<g id="shape4-11" transform="translate(198.303,-113.386)">
				<title>工作表.4</title>
				<desc>正　業</desc>
				<rect x="0" y="199.681" width="56.1575" height="19.8425" class="st1"/>
				<text x="4.08" y="214.58" class="st2">正　業</text>			</g>
			<g id="shape5-14" transform="translate(198.303,-85.0394)">
				<title>工作表.5</title>
				<desc>正　命</desc>
				<rect x="0" y="199.681" width="56.1575" height="19.8425" class="st1"/>
				<text x="4.08" y="214.58" class="st2">正　命</text>			</g>
			<g id="shape6-17" transform="translate(198.303,-56.6929)">
				<title>工作表.6</title>
				<desc>正精進</desc>
				<rect x="0" y="199.681" width="56.1575" height="19.8425" class="st1"/>
				<text x="4.08" y="214.58" class="st2">正精進</text>			</g>
			<g id="shape7-20" transform="translate(198.303,-28.8819)">
				<title>工作表.7</title>
				<desc>正　念</desc>
				<rect x="0" y="199.681" width="56.1575" height="19.8425" class="st1"/>
				<text x="4.08" y="214.58" class="st2">正　念</text>			</g>
			<g id="shape8-23" transform="translate(198.303,0)">
				<title>工作表.8</title>
				<desc>正　定</desc>
				<rect x="0" y="199.681" width="56.1575" height="19.8425" class="st1"/>
				<text x="4.08" y="214.58" class="st2">正　定</text>			</g>
			<g id="shape9-26" transform="translate(56.6929,-184.52)">
				<title>工作表.9</title>
				<desc>戒學</desc>
				<rect x="0" y="199.681" width="40.5669" height="19.8425" class="st1"/>
				<text x="4.28" y="214.58" class="st2">戒學</text>			</g>
			<g id="shape10-29" transform="translate(56.6929,-99.4803)">
				<title>工作表.10</title>
				<desc>定學</desc>
				<rect x="0" y="199.681" width="40.5669" height="19.8425" class="st1"/>
				<text x="4.28" y="214.58" class="st2">定學</text>			</g>
			<g id="shape11-32" transform="translate(56.6929,-14.4409)">
				<title>工作表.11</title>
				<desc>慧學</desc>
				<rect x="0" y="199.681" width="40.5669" height="19.8425" class="st1"/>
				<text x="4.28" y="214.58" class="st2">慧學</text>			</g>
			<g id="shape12-35" transform="translate(3.9968E-15,-99.4803)">
				<title>工作表.12</title>
				<desc>一乘</desc>
				<rect x="0" y="199.681" width="40.5669" height="19.8425" class="st1"/>
				<text x="4.28" y="214.58" class="st2">一乘</text>			</g>
			<g id="shape13-38" transform="translate(49.2165,-24.3622)">
				<title>工作表.13</title>
				<path d="M0 219.52 L7.09 219.52" class="st3"/>
			</g>
			<g id="shape14-41" transform="translate(49.2165,-194.441)">
				<title>工作表.14</title>
				<path d="M0 219.52 L7.09 219.52" class="st3"/>
			</g>
			<g id="shape15-44" transform="translate(-170.307,195.161) rotate(-90)">
				<title>工作表.15</title>
				<path d="M0 219.52 L170.08 219.52" class="st3"/>
			</g>
			<g id="shape16-47" transform="translate(42.1299,-109.402)">
				<title>工作表.16</title>
				<path d="M0 219.52 L7.09 219.52" class="st3"/>
			</g>
			<g id="shape22-50" transform="translate(12.5192,-6.68575) rotate(-23.1501)">
				<title>工作表.22</title>
				<path d="M0 219.52 L108.15 219.52" class="st3"/>
			</g>
			<g id="shape23-53" transform="translate(-86.0709,76.8194) rotate(-57.3787)">
				<title>工作表.23</title>
				<path d="M0 219.52 L184.47 219.52" class="st3"/>
			</g>
			<g id="shape24-56" transform="translate(-94.2321,90.6612) rotate(-61.5735)">
				<title>工作表.24</title>
				<path d="M0 219.52 L208.9 219.52" class="st3"/>
			</g>
			<g id="shape25-59" transform="translate(185.127,-91.7251) rotate(23.1501)">
				<title>工作表.25</title>
				<path d="M0 219.52 L108.15 219.52" class="st3"/>
			</g>
			<g id="shape26-62" transform="translate(226.418,-68.5118) rotate(35.5377)">
				<title>工作表.26</title>
				<path d="M0 219.52 L121.92 219.52" class="st3"/>
			</g>
			<g id="shape27-65" transform="translate(254.049,-45.1047) rotate(45)">
				<title>工作表.27</title>
				<path d="M0 219.52 L140.31 219.52" class="st3"/>
			</g>
			<g id="shape28-68" transform="translate(184.894,-176.764) rotate(23.1501)">
				<title>工作表.28</title>
				<path d="M0 219.52 L108.15 219.52" class="st3"/>
			</g>
			<g id="shape29-71" transform="translate(226.427,-153.379) rotate(35.6151)">
				<title>工作表.29</title>
				<path d="M0 219.52 L122.61 219.52" class="st3"/>
			</g>
			<g id="shape30-74" transform="translate(253.872,-130.089) rotate(45.0204)">
				<title>工作表.30</title>
				<path d="M0 219.52 L141.01 219.52" class="st3"/>
			</g>
			<g id="shape31-77" transform="translate(271.566,-110.084) rotate(51.9952)">
				<title>工作表.31</title>
				<path d="M0 219.52 L161.89 219.52" class="st3"/>
			</g>
		</g>
	</g>
</svg>
